<svg width="239" height="119" viewBox="0 0 239 119" fill="none" xmlns="http://www.w3.org/2000/svg">
<path d="M102.365 42.2396C102.416 42.9485 102.371 43.7018 102.229 44.4757C102.125 45.0451 102.502 45.5901 103.071 45.6938C103.225 45.721 103.377 45.7143 103.521 45.6771C103.904 45.5782 104.214 45.2645 104.289 44.8516C104.461 43.9034 104.517 42.9743 104.452 42.0873C104.411 41.5098 103.908 41.0776 103.333 41.1181C102.758 41.1607 102.324 41.6621 102.364 42.2376L102.365 42.2396Z" fill="white"/>
<path d="M99.5515 52.3246C99.8134 52.5099 100.131 52.5597 100.421 52.4849C100.652 52.4252 100.862 52.2865 101.012 52.0792C101.536 51.345 102.008 50.598 102.419 49.8606C102.699 49.3558 102.519 48.7169 102.014 48.4365C101.509 48.1561 100.871 48.3363 100.591 48.8431C100.217 49.5127 99.7859 50.1949 99.309 50.8673C98.9747 51.3385 99.0849 51.9911 99.5546 52.3281L99.5515 52.3246Z" fill="white"/>
<path d="M100.778 38.2445C101.044 38.5715 101.467 38.6936 101.85 38.5947C101.992 38.558 102.13 38.4899 102.252 38.3915C102.699 38.025 102.765 37.366 102.398 36.9179C101.789 36.1738 101.074 35.5411 100.274 35.0366C99.7836 34.7286 99.1386 34.8758 98.8308 35.3661C98.523 35.8565 98.6703 36.5016 99.1605 36.8096C99.7691 37.1907 100.314 37.6749 100.78 38.244L100.778 38.2445Z" fill="white"/>
<path d="M115.161 91.6587C115.31 92.2125 115.878 92.5437 116.433 92.4003L116.443 92.3976C117.256 92.1791 118.081 91.9356 118.899 91.6723C119.45 91.4954 119.752 90.9051 119.575 90.3561C119.398 89.805 118.805 89.5086 118.259 89.6799C117.473 89.9327 116.68 90.1679 115.899 90.376C115.342 90.5266 115.01 91.1009 115.161 91.6587Z" fill="white"/>
<path d="M182.411 56.5753C182.453 56.5643 182.498 56.5508 182.541 56.5332C183.312 56.2236 184.093 55.9159 184.864 55.6195C185.402 55.4112 185.671 54.8054 185.463 54.2668C185.255 53.7282 184.651 53.4562 184.11 53.665C183.33 53.9661 182.539 54.2763 181.758 54.5906C181.221 54.807 180.962 55.4168 181.178 55.9513C181.376 56.4448 181.908 56.7031 182.408 56.5738L182.411 56.5753Z" fill="white"/>
<path d="M189.462 53.916C189.491 53.9087 189.521 53.9008 189.549 53.8895C190.329 53.6143 191.123 53.3421 191.909 53.0785C192.456 52.894 192.752 52.3007 192.568 51.7538C192.383 51.2069 191.787 50.9089 191.243 51.0949C190.447 51.3611 189.645 51.6374 188.855 51.9152C188.31 52.1078 188.023 52.7051 188.216 53.2499C188.397 53.7674 188.944 54.05 189.464 53.9155L189.462 53.916Z" fill="white"/>
<path d="M211.157 47.8023C211.966 47.6279 212.788 47.4545 213.601 47.2898C213.62 47.2851 213.638 47.2804 213.656 47.2756C214.191 47.1374 214.531 46.6022 214.42 46.0557C214.306 45.4885 213.753 45.1231 213.186 45.2372C212.364 45.404 211.532 45.5781 210.715 45.7545C210.155 45.8797 209.79 46.4344 209.912 46.9996C210.035 47.5648 210.592 47.9245 211.157 47.8023Z" fill="white"/>
<path d="M92.607 35.872C93.3982 35.7303 94.1738 35.6618 94.9084 35.6688C95.0038 35.6701 95.0936 35.6577 95.1807 35.6352C95.6285 35.5195 95.9588 35.1163 95.9657 34.6324C95.9717 34.0536 95.5081 33.5809 94.9294 33.5748C94.0623 33.5653 93.1559 33.6459 92.2344 33.8105C91.6601 33.9134 91.2882 34.4571 91.3897 35.0254C91.4911 35.5938 92.0362 35.9719 92.6044 35.8705L92.607 35.872Z" fill="white"/>
<path d="M94.2176 57.6358C94.4851 57.9515 94.9022 58.0686 95.2771 57.9718C95.425 57.9336 95.5666 57.8624 95.6906 57.7568C95.9119 57.5678 96.1333 57.3787 96.3541 57.1876C96.7796 56.8182 97.2019 56.428 97.6129 56.0278C98.0275 55.6245 98.0354 54.9608 97.6327 54.5481C97.2294 54.1334 96.5659 54.1253 96.1534 54.5281C95.7715 54.8992 95.379 55.2622 94.9832 55.6045C94.7695 55.7894 94.5537 55.9749 94.3374 56.1584C93.8957 56.5319 93.8415 57.1924 94.2171 57.6337L94.2176 57.6358Z" fill="white"/>
<path d="M196.609 51.5686C196.623 51.5649 196.637 51.5613 196.651 51.5576C197.441 51.3169 198.246 51.0786 199.044 50.8485C199.6 50.6878 199.921 50.1075 199.76 49.5523C199.599 48.9971 199.024 48.6766 198.464 48.8363C197.655 49.069 196.842 49.3115 196.042 49.5528C195.489 49.7216 195.178 50.3058 195.347 50.859C195.51 51.3984 196.07 51.7079 196.609 51.5686Z" fill="white"/>
<path d="M175.481 59.5426C175.54 59.5275 175.597 59.5082 175.653 59.4809C176.408 59.1389 177.175 58.7958 177.934 58.4634C178.464 58.2313 178.705 57.6156 178.473 57.0853C178.241 56.555 177.627 56.3115 177.095 56.5441C176.325 56.8791 175.55 57.2263 174.786 57.573C174.26 57.8126 174.027 58.4329 174.267 58.9591C174.481 59.4291 174.998 59.6652 175.48 59.5406L175.481 59.5426Z" fill="white"/>
<path d="M218.507 46.3629C219.32 46.22 220.148 46.0795 220.969 45.9452C221 45.9394 221.033 45.933 221.064 45.9252C221.582 45.7912 221.922 45.2818 221.832 44.7428C221.739 44.1723 221.2 43.7861 220.63 43.8794C219.801 44.0158 218.962 44.1568 218.141 44.3018C217.574 44.4007 217.192 44.9449 217.291 45.5138C217.391 46.0827 217.934 46.4633 218.503 46.364L218.507 46.3629Z" fill="white"/>
<path d="M203.877 49.5288L203.946 49.511C204.724 49.31 205.515 49.1119 206.298 48.9205C206.302 48.9194 206.306 48.9184 206.312 48.9168C206.866 48.7739 207.203 48.2133 207.067 47.6558C206.931 47.0943 206.364 46.7499 205.803 46.8863C205.012 47.0798 204.21 47.2805 203.418 47.4852L203.353 47.5019C202.794 47.6464 202.457 48.2177 202.602 48.7771C202.746 49.3365 203.317 49.6733 203.877 49.5288Z" fill="white"/>
<path d="M136.77 82.7594C136.875 82.7322 136.976 82.6888 137.073 82.6271C137.755 82.1892 138.448 81.74 139.19 81.2499C139.672 80.9309 139.805 80.2825 139.488 79.8001C139.169 79.3182 138.52 79.1851 138.038 79.5021C137.305 79.9856 136.621 80.4326 135.945 80.8644C135.459 81.1758 135.318 81.8243 135.629 82.3103C135.88 82.7019 136.346 82.8688 136.772 82.7589L136.77 82.7594Z" fill="white"/>
<path d="M78.296 75.7095C78.024 75.2003 77.3884 75.0078 76.8794 75.2798C76.3704 75.5519 76.178 76.1875 76.45 76.6967C76.855 77.4526 77.2985 78.2072 77.7672 78.9336C78.019 79.3226 78.4838 79.4901 78.9093 79.3802C79.0146 79.353 79.1178 79.309 79.2143 79.2473C79.6996 78.9339 79.8392 78.2859 79.5277 77.7999C79.0904 77.1194 78.6752 76.4159 78.296 75.7095Z" fill="white"/>
<path d="M123.541 89.9347C123.589 89.9221 123.639 89.905 123.686 89.8863C124.46 89.5609 125.245 89.2111 126.018 88.8492C126.541 88.6039 126.767 87.9812 126.522 87.4586C126.276 86.934 125.652 86.7104 125.131 86.9551C124.381 87.3067 123.623 87.6431 122.874 87.9577C122.342 88.1817 122.092 88.7954 122.316 89.3278C122.52 89.8136 123.047 90.0644 123.541 89.9367L123.541 89.9347Z" fill="white"/>
<path d="M82.7092 84.9222C82.9818 85.1825 83.3561 85.2675 83.6965 85.1795C83.8789 85.1324 84.0507 85.0361 84.1901 84.8898C84.5904 84.4729 84.575 83.811 84.1581 83.4106C83.5751 82.852 83.0059 82.2639 82.4702 81.6629C82.0846 81.2328 81.4224 81.1963 80.992 81.5799C80.562 81.9656 80.5231 82.6265 80.9092 83.0586C81.4833 83.6994 82.0888 84.3279 82.7112 84.9216L82.7092 84.9222Z" fill="white"/>
<path d="M168.698 62.8075C168.771 62.7886 168.842 62.7617 168.912 62.7261C169.65 62.3517 170.4 61.9763 171.147 61.6105C171.664 61.3556 171.879 60.7295 171.625 60.209C171.37 59.6911 170.744 59.4746 170.224 59.7299C169.468 60.1003 168.708 60.4805 167.963 60.8589C167.447 61.1219 167.243 61.752 167.505 62.2658C167.733 62.7109 168.233 62.9253 168.699 62.8049L168.698 62.8075Z" fill="white"/>
<path d="M111.414 93.463C111.449 93.4582 111.482 93.4498 111.516 93.4409C112.031 93.3079 112.369 92.8031 112.287 92.2666C112.198 91.6951 111.664 91.3032 111.093 91.3924C110.28 91.5181 109.464 91.6209 108.666 91.6951C108.092 91.7483 107.668 92.2578 107.722 92.8342C107.775 93.4106 108.284 93.8326 108.86 93.7789C109.702 93.6997 110.562 93.5945 111.415 93.4604L111.414 93.463Z" fill="white"/>
<path d="M103.684 93.9136C103.791 93.9184 103.894 93.9069 103.991 93.8818C104.425 93.7698 104.753 93.3844 104.774 92.9141C104.8 92.3366 104.352 91.847 103.775 91.8231C102.96 91.7873 102.145 91.721 101.351 91.6277C100.778 91.5595 100.257 91.9687 100.189 92.544C100.122 93.1193 100.531 93.6386 101.106 93.7062C101.951 93.8078 102.819 93.8777 103.686 93.9151L103.684 93.9136Z" fill="white"/>
<path d="M87.9161 86.4847C87.4414 86.1533 86.7891 86.2721 86.4593 86.7443C86.1301 87.2186 86.2449 87.8722 86.719 88.2015C87.428 88.6951 88.1637 89.1667 88.9026 89.6006C89.152 89.7459 89.435 89.7788 89.6944 89.7118C89.9537 89.6448 90.1895 89.4779 90.3347 89.2285C90.6272 88.7292 90.4597 88.0892 89.9604 87.7966C89.2674 87.3897 88.5786 86.9492 87.9146 86.4873L87.9161 86.4847Z" fill="white"/>
<path d="M96.5875 92.6953C96.934 92.6058 97.2242 92.3406 97.3325 91.9731C97.4936 91.4169 97.1733 90.8381 96.6192 90.6763C95.8505 90.4533 95.0784 90.1923 94.3248 89.9026C93.7851 89.6961 93.1802 89.9648 92.9733 90.5026C92.7669 91.0424 93.0356 91.6476 93.5733 91.8546C94.3823 92.1667 95.2109 92.4456 96.0356 92.6844C96.2223 92.7378 96.4127 92.7383 96.587 92.6933L96.5875 92.6953Z" fill="white"/>
<path d="M155.567 70.2203C155.668 70.1942 155.766 70.1538 155.859 70.0952C156.563 69.6561 157.279 69.218 157.99 68.788C158.485 68.4891 158.644 67.8471 158.345 67.3514C158.046 66.8556 157.402 66.6976 156.909 66.996C156.191 67.4301 155.465 67.8749 154.754 68.3181C154.264 68.624 154.113 69.2685 154.419 69.7601C154.667 70.1588 155.138 70.3313 155.569 70.2198L155.567 70.2203Z" fill="white"/>
<path d="M162.068 66.3777C162.155 66.3552 162.239 66.3205 162.322 66.2752C163.043 65.8685 163.778 65.4602 164.505 65.0625C165.013 64.7844 165.199 64.1503 164.923 63.6422C164.645 63.1346 164.009 62.9486 163.504 63.2262C162.767 63.6285 162.024 64.041 161.294 64.4544C160.79 64.738 160.614 65.3781 160.897 65.8801C161.136 66.3007 161.622 66.4949 162.07 66.3792L162.068 66.3777Z" fill="white"/>
<path d="M149.263 74.3333C149.375 74.3045 149.486 74.2565 149.587 74.1871C150.277 73.7212 150.97 73.2569 151.665 72.796C152.147 72.477 152.28 71.8286 151.961 71.3467C151.642 70.8648 150.992 70.7323 150.512 71.0508C149.811 71.5152 149.112 71.9812 148.417 72.4527C147.938 72.7753 147.812 73.4261 148.135 73.9049C148.39 74.2822 148.848 74.4406 149.263 74.3333Z" fill="white"/>
<path d="M130.303 86.6368C130.386 86.6153 130.468 86.5832 130.546 86.5394C131.265 86.1439 132.007 85.7208 132.752 85.2839C133.252 84.9927 133.419 84.3506 133.126 83.8513C132.835 83.3514 132.193 83.1842 131.696 83.477C130.965 83.9036 130.238 84.3185 129.536 84.7052C129.031 84.9849 128.845 85.621 129.125 86.126C129.361 86.5537 129.85 86.7515 130.302 86.6348L130.303 86.6368Z" fill="white"/>
<path d="M85.7719 38.7308C85.8834 38.702 85.9942 38.6539 86.0951 38.5846C86.7485 38.1434 87.4382 37.7425 88.146 37.3866C88.6628 37.1277 88.872 36.4986 88.6131 35.9817C88.3542 35.4648 87.7251 35.2554 87.2084 35.5143C86.4197 35.9084 85.6516 36.3576 84.9246 36.8481C84.4459 37.1707 84.3181 37.8221 84.6406 38.3009C84.8959 38.6782 85.352 38.8371 85.7694 38.7293L85.7719 38.7308Z" fill="white"/>
<path d="M143.033 78.5874C143.146 78.5581 143.259 78.5074 143.362 78.4376C144.054 77.9646 144.744 77.4901 145.435 77.0156C145.91 76.6895 146.031 76.0376 145.705 75.5598C145.379 75.0841 144.725 74.9633 144.249 75.2894C143.561 75.7633 142.871 76.2358 142.18 76.7083C141.702 77.0349 141.581 77.6848 141.907 78.1625C142.164 78.5373 142.619 78.6922 143.032 78.5854L143.033 78.5874Z" fill="white"/>
<path d="M88.1677 62.1185C88.424 62.4913 88.879 62.6461 89.2923 62.5393C89.4078 62.5095 89.5181 62.4594 89.6231 62.389C90.3208 61.9104 91.0199 61.4119 91.6972 60.9127C92.162 60.5699 92.2609 59.9152 91.9181 59.4502C91.5754 58.9852 90.9208 58.8862 90.456 59.229C89.7969 59.715 89.1175 60.1975 88.4385 60.6648C87.9629 60.9909 87.8416 61.6428 88.1682 62.1206L88.1677 62.1185Z" fill="white"/>
<path d="M4.88763 67.8157C5.12718 67.9398 5.3903 67.9626 5.63143 67.9003C5.90903 67.8286 6.15528 67.6439 6.2988 67.3711C6.56632 66.8588 6.3664 66.2272 5.85415 65.9595C5.12221 65.5778 4.39066 65.1809 3.67682 64.7772C3.17305 64.4922 2.53589 64.6698 2.25105 65.1737C1.96621 65.6775 2.14384 66.3149 2.6476 66.5998C3.38184 67.0155 4.13379 67.4245 4.88763 67.8157Z" fill="white"/>
<path d="M16.6072 72.7227C17.4072 72.9831 18.2264 73.2341 19.04 73.4715C19.2267 73.5249 19.417 73.5254 19.5913 73.4804C19.9378 73.3909 20.2281 73.1256 20.3363 72.7582C20.4974 72.202 20.1771 71.6232 19.6231 71.4614C18.8309 71.2315 18.0345 70.9853 17.2539 70.733C16.7043 70.555 16.1138 70.8546 15.9359 71.4043C15.758 71.954 16.0576 72.5447 16.6072 72.7227Z" fill="white"/>
<path d="M54.2948 75.8959C55.1294 75.7798 55.975 75.6478 56.8074 75.5063C56.8363 75.501 56.8672 75.4951 56.8956 75.4878C57.4163 75.3533 57.7569 74.8393 57.6648 74.2988C57.5675 73.7294 57.0274 73.3457 56.4581 73.443C55.6465 73.5813 54.8211 73.7081 54.0058 73.8236C53.4339 73.9022 53.035 74.4333 53.1137 75.0054C53.1943 75.577 53.7234 75.9765 54.2953 75.898L54.2948 75.8959Z" fill="white"/>
<path d="M23.9761 74.7359C24.7973 74.9194 25.6352 75.0922 26.4674 75.2512C26.6245 75.282 26.7803 75.2742 26.9241 75.237C27.303 75.1391 27.6123 74.83 27.6897 74.4187C27.7979 73.8502 27.4251 73.3022 26.8567 73.1939C26.0474 73.0398 25.2298 72.8704 24.4294 72.6924C23.8655 72.5678 23.3064 72.9219 23.1799 73.4865C23.0534 74.0511 23.4096 74.6099 23.974 74.7365L23.9761 74.7359Z" fill="white"/>
<path d="M61.8012 74.5108C62.5049 74.3485 63.2122 74.1744 63.9092 73.9943L64.2699 73.9011C64.8281 73.7526 65.1627 73.1819 65.0161 72.623C64.8701 72.0661 64.2994 71.7314 63.7422 71.8753L63.3856 71.9675C62.7068 72.1428 62.0157 72.3127 61.3307 72.4724C60.7724 72.6037 60.4159 73.1649 60.5483 73.7275C60.6807 74.29 61.2408 74.6426 61.8032 74.5103L61.8012 74.5108Z" fill="white"/>
<path d="M46.7032 76.6283C47.546 76.5857 48.4004 76.5293 49.241 76.4613C49.3023 76.4563 49.3627 76.4472 49.4194 76.4325C49.9037 76.3074 50.2417 75.8504 50.1995 75.3359C50.1523 74.76 49.6479 74.3303 49.0722 74.3774C48.2529 74.4442 47.4194 74.4974 46.5964 74.5414C46.0185 74.5717 45.5746 75.0626 45.6051 75.6407C45.6356 76.2188 46.1264 76.6628 46.7043 76.6324L46.7032 76.6283Z" fill="white"/>
<path d="M9.48219 70.0172C10.2569 70.3554 11.0474 70.6874 11.8305 70.9996C12.0449 71.0848 12.2724 71.0952 12.4791 71.0418C12.7911 70.9612 13.0619 70.7377 13.1903 70.4148C13.4038 69.8775 13.1427 69.2682 12.6055 69.0546C11.8417 68.7503 11.0731 68.4278 10.3203 68.099C9.79106 67.8661 9.17268 68.108 8.94237 68.6388C8.7095 69.1682 8.95145 69.7867 9.48219 70.0172Z" fill="white"/>
<path d="M39.0857 76.6789C39.9281 76.7099 40.7825 76.7292 41.6272 76.7358C41.7201 76.7356 41.8104 76.7252 41.8975 76.7027C42.3453 76.587 42.6771 76.1813 42.6819 75.6979C42.686 75.1196 42.2204 74.6475 41.6442 74.6428C40.8213 74.637 39.9861 74.6171 39.1656 74.5869C38.5873 74.5655 38.1025 75.0151 38.0812 75.5936C38.0599 76.172 38.5094 76.657 39.0877 76.6784L39.0857 76.6789Z" fill="white"/>
<path d="M31.4948 76.0501C32.3332 76.1578 33.1811 76.2523 34.0213 76.3336C34.1478 76.3463 34.268 76.3347 34.3835 76.3049C34.7969 76.1981 35.12 75.8422 35.1636 75.392C35.2205 74.8173 34.7987 74.3058 34.2241 74.2488C33.4057 74.1683 32.5756 74.0758 31.7595 73.9709C31.1874 73.8982 30.6632 74.3039 30.5886 74.8767C30.5159 75.4489 30.9196 75.9739 31.4943 76.0481L31.4948 76.0501Z" fill="white"/>
<path d="M81.7009 65.9827C81.9368 66.4104 82.4267 66.6082 82.8785 66.4914C82.9616 66.47 83.0441 66.4378 83.1234 66.3936C83.8634 65.9862 84.6072 65.5605 85.3322 65.1289C85.8288 64.8341 85.9912 64.1911 85.6965 63.6943C85.4017 63.1974 84.7603 63.0323 84.2621 63.3297C83.5558 63.75 82.8327 64.1638 82.1115 64.5599C81.6066 64.8395 81.4208 65.4756 81.7004 65.9807L81.7009 65.9827Z" fill="white"/>
<path d="M80.4349 43.9884C80.6558 43.9314 80.8598 43.8008 81.0101 43.6042C81.4958 42.9576 82.0116 42.3271 82.545 41.7309C82.9309 41.3004 82.8937 40.6376 82.4617 40.2541C82.0312 39.868 81.3686 39.9051 80.9852 40.3371C80.4137 40.9778 79.8576 41.6533 79.3367 42.3479C78.9891 42.8095 79.0831 43.4663 79.5447 43.8141C79.8103 44.0136 80.1376 44.0674 80.4355 43.9905L80.4349 43.9884Z" fill="white"/>
<path d="M69.0707 72.4799C69.093 72.4741 69.1153 72.4684 69.1371 72.4606C69.9401 72.1969 70.75 71.9185 71.5406 71.6321C72.0843 71.4354 72.3658 70.8351 72.1671 70.2919C71.9704 69.7481 71.3722 69.4659 70.8271 69.6651C70.0542 69.9448 69.2666 70.2174 68.4833 70.4738C67.9335 70.6548 67.6346 71.2466 67.8151 71.7946C67.9883 72.3228 68.5404 72.6191 69.0692 72.4824L69.0707 72.4799Z" fill="white"/>
<path d="M76.0197 50.4593C76.2407 50.5535 76.4754 50.5664 76.6901 50.5109C76.9941 50.4324 77.2589 50.2191 77.3925 49.9079C77.7099 49.1621 78.0574 48.4237 78.4289 47.7115C78.6964 47.1991 78.4985 46.567 77.9863 46.2994C77.474 46.0317 76.8421 46.2296 76.5746 46.7419C76.1765 47.5021 75.8056 48.2919 75.4662 49.0866C75.2405 49.6184 75.488 50.2334 76.0197 50.4593Z" fill="white"/>
<path d="M74.1428 57.744C74.2943 57.7698 74.4415 57.762 74.5813 57.7259C74.9683 57.6259 75.2795 57.3077 75.3508 56.8893C75.4866 56.0931 75.6559 55.2926 75.8538 54.5107C75.9945 53.9511 75.655 53.3815 75.0955 53.2407C74.536 53.0998 73.9667 53.4393 73.8259 53.9989C73.6158 54.8338 73.4362 55.6866 73.2901 56.5352C73.1931 57.1051 73.5771 57.6459 74.1449 57.7435L74.1428 57.744Z" fill="white"/>
<path d="M74.3781 71.9262C74.5528 72.4519 75.1038 72.7441 75.6306 72.608C75.655 72.6017 75.6793 72.5954 75.701 72.5877C76.2483 72.4052 76.5446 71.8119 76.3616 71.2624C76.2488 70.9262 76.1416 70.5863 76.0445 70.2525C76.0048 70.1157 75.9647 69.9769 75.9265 69.8376C76.0412 69.8296 76.1572 69.8017 76.268 69.7537C77.0435 69.4171 77.8234 69.0643 78.5865 68.7049C79.1089 68.4597 79.3344 67.835 79.0872 67.3129C78.8419 66.7903 78.2158 66.5672 77.6954 66.8119C76.9515 67.162 76.1928 67.505 75.4365 67.8323C75.2559 67.9114 75.1082 68.0339 75.0002 68.185C74.8231 68.127 74.6281 68.1168 74.4326 68.163C74.4265 68.1646 74.4204 68.1661 74.4143 68.1677C73.8632 68.3101 73.5255 68.8687 73.6583 69.4246C73.6987 69.5893 73.7396 69.7561 73.7815 69.9182C73.8606 70.2243 73.9453 70.5354 74.035 70.8408C74.1409 71.2005 74.2544 71.5647 74.3761 71.9267L74.3781 71.9262Z" fill="white"/>
<path d="M74.0064 65.2634C74.0724 65.2593 74.1368 65.2492 74.1976 65.2335C74.6758 65.1099 75.0133 64.6595 74.9788 64.1495C74.9233 63.3487 74.9006 62.533 74.9119 61.7236C74.9185 61.1467 74.4564 60.6715 73.8792 60.6628C73.302 60.6541 72.8275 61.1183 72.8189 61.6957C72.809 62.5609 72.8316 63.435 72.8907 64.2911C72.9292 64.8671 73.4291 65.3044 74.0064 65.2634Z" fill="white"/>
<path d="M221.033 52.8337C224.266 49.2158 229.744 45.4958 234.245 43.1547C229.309 41.9953 223.081 39.7407 219.056 37.0292L222.902 44.5736L221.033 52.8337Z" fill="white"/>
</svg>
