<svg width="14" height="14" viewBox="0 0 14 14" fill="none" xmlns="http://www.w3.org/2000/svg">
<path d="M8.23047 7C8.23047 7.67953 7.67953 8.23047 7 8.23047C6.32047 8.23047 5.76953 7.67953 5.76953 7C5.76953 6.32047 6.32047 5.76953 7 5.76953C7.67953 5.76953 8.23047 6.32047 8.23047 7Z" fill="white"/>
<path d="M9.07812 3.28125H4.92188C4.01718 3.28125 3.28125 4.01718 3.28125 4.92188V9.07812C3.28125 9.98282 4.01718 10.7188 4.92188 10.7188H9.07812C9.98282 10.7188 10.7188 9.98282 10.7188 9.07812V4.92188C10.7188 4.01718 9.98282 3.28125 9.07812 3.28125ZM7 9.05078C5.86919 9.05078 4.94922 8.13081 4.94922 7C4.94922 5.86919 5.86919 4.94922 7 4.94922C8.13081 4.94922 9.05078 5.86919 9.05078 7C9.05078 8.13081 8.13081 9.05078 7 9.05078ZM9.35156 5.05859C9.12502 5.05859 8.94141 4.87498 8.94141 4.64844C8.94141 4.42189 9.12502 4.23828 9.35156 4.23828C9.57811 4.23828 9.76172 4.42189 9.76172 4.64844C9.76172 4.87498 9.57811 5.05859 9.35156 5.05859Z" fill="white"/>
<path d="M10.3086 0H3.69141C1.65601 0 0 1.65601 0 3.69141V10.3086C0 12.344 1.65601 14 3.69141 14H10.3086C12.344 14 14 12.344 14 10.3086V3.69141C14 1.65601 12.344 0 10.3086 0ZM11.5391 9.07812C11.5391 10.4351 10.4351 11.5391 9.07812 11.5391H4.92188C3.56494 11.5391 2.46094 10.4351 2.46094 9.07812V4.92188C2.46094 3.56494 3.56494 2.46094 4.92188 2.46094H9.07812C10.4351 2.46094 11.5391 3.56494 11.5391 4.92188V9.07812Z" fill="white"/>
</svg>
