<?xml version="1.0" encoding="utf-8"?>
<!-- Generator: Adobe Illustrator 24.3.0, SVG Export Plug-In . SVG Version: 6.00 Build 0)  -->
<svg version="1.1" xmlns="http://www.w3.org/2000/svg" xmlns:xlink="http://www.w3.org/1999/xlink" x="0px" y="0px"
	 viewBox="0 0 500 500" style="enable-background:new 0 0 500 500;" xml:space="preserve">
<style type="text/css">
	.st0{fill:#009A73;}
	.st1{fill:url(#SVGID_1_);}
	.st2{fill:#1E273B;}
	.st3{fill:#0F1521;}
	.st4{fill:#2C3957;}
	.st5{fill:url(#SVGID_2_);}
	.st6{fill:#FFFFFF;}
	.st7{fill:url(#SVGID_3_);}
	.st8{fill:#CCDAFF;}
	.st9{fill:#EDEFF2;}
	.st10{fill:#353B47;}
	.st11{fill:#5BD258;}
	.st12{fill:#D0D8EB;}
	.st13{fill:#FBFBFB;}
	.st14{fill:#7D9CF0;}
	.st15{opacity:0.4;fill:#FFFFFF;}
	.st16{fill:#FF639B;}
	.st17{opacity:0.2;}
	.st18{fill:#B6BBED;}
	.st19{fill:url(#SVGID_4_);}
	.st20{fill:url(#SVGID_5_);}
	.st21{fill:url(#SVGID_6_);}
	.st22{fill:#5C362F;}
	.st23{fill:#7D4A41;}
	.st24{fill:#1F2336;}
	.st25{fill:#161926;}
	.st26{fill:#AD6A43;}
	.st27{fill:#FFDEC9;}
	.st28{fill:url(#SVGID_7_);}
	.st29{fill:url(#SVGID_8_);}
	.st30{fill:#FFAC6B;}
	.st31{fill:#F28350;}
	.st32{fill:url(#SVGID_9_);}
	.st33{fill:url(#SVGID_10_);}
	.st34{fill:#FFC800;}
	.st35{fill:#FF401F;}
	.st36{fill:#C99554;}
	.st37{fill:#FF3333;}
</style>
<g id="BACKGROUND">
	<rect class="st0" width="500" height="500"/>
</g>
<g id="OBJECTS">
	<g>
		<linearGradient id="SVGID_1_" gradientUnits="userSpaceOnUse" x1="419.3228" y1="245.2598" x2="269.197" y2="332.4875">
			<stop  offset="0" style="stop-color:#F7FAFF"/>
			<stop  offset="1" style="stop-color:#C1C7D6"/>
		</linearGradient>
		<path class="st1" d="M500,252.7l-163.5-96.6c-10.7-6.2-28-6.2-38.7,0L110.2,263.4c-10.7,6.2-10.8,16.2-0.1,22.4l236.4,139.7
			c10.7,6.2,28,6.2,38.7,0L500,359.9V252.7z"/>
		<g>
			<path class="st2" d="M429,194.4L178,49.5c-2-1.1-4-1.5-5.8-1.2c-2.8,0.5-5.6,0.9-8.3,1.4c1.9-0.3,3.9,0.1,5.8,1.2l251,144.9
				c5.7,3.3,8.7,11.8,6.8,19.1l-56.8,212.5c-1.3,4.8-4.4,7.8-8,8.4c2.8-0.4,5.6-0.9,8.3-1.3c3.6-0.6,6.7-3.6,8-8.4l56.8-212.5
				C437.8,206.3,434.7,197.7,429,194.4z"/>
			<path class="st3" d="M420.7,195.8c5.7,3.3,8.7,11.8,6.8,19.1l-56.8,212.5c-1.9,7.3-8.1,10.5-13.8,7.2l-251-144.9
				c-5.7-3.3-8.7-11.8-6.8-19.1l56.8-212.5c1.9-7.3,8.1-10.5,13.8-7.2L420.7,195.8z"/>
			<g>
				<path class="st4" d="M370.6,427.4c-1.1,4.2-3.6,7-6.6,8.1c3.3-0.9,6.1-3.8,7.3-8.2l56.8-212.5c1.9-7.3-1.1-15.8-6.8-19.1
					l-251-144.9c-1.6-0.9-3.3-1.3-4.9-1.3c-0.5,0.1-1,0.2-1.6,0.3c1.9-0.3,3.9,0.1,5.8,1.2l251,144.9c5.7,3.3,8.7,11.8,6.8,19.1
					L370.6,427.4z"/>
				<path class="st4" d="M363.7,435.5c0.1,0,0.1,0,0.2-0.1C363.9,435.5,363.8,435.5,363.7,435.5z"/>
			</g>
			<linearGradient id="SVGID_2_" gradientUnits="userSpaceOnUse" x1="104.3013" y1="242.7248" x2="422.1844" y2="242.7248">
				<stop  offset="0" style="stop-color:#165AF7"/>
				<stop  offset="1" style="stop-color:#E83E4E"/>
			</linearGradient>
			<path class="st5" d="M418.8,202.9c2.6,1.5,4,5.4,3.1,8.8l-56.8,212.5c-0.9,3.3-3.7,4.8-6.4,3.3l-251-144.9
				c-2.6-1.5-4-5.5-3.1-8.8l56.8-212.5c0.9-3.3,3.7-4.8,6.4-3.3L418.8,202.9z"/>
			<g>
				<path class="st6" d="M155.4,83.6l-50.9,190.2c-0.9,3.3,0.5,7.3,3.1,8.8l251,144.9c2.6,1.5,5.5,0,6.4-3.3L415.9,234L155.4,83.6z"
					/>
				<linearGradient id="SVGID_3_" gradientUnits="userSpaceOnUse" x1="155.4355" y1="153.4108" x2="418.0575" y2="153.4108">
					<stop  offset="0" style="stop-color:#C7E1F8"/>
					<stop  offset="1" style="stop-color:#90AFF8"/>
				</linearGradient>
				<path class="st7" d="M414.7,218.3l-251-144.9c-2.6-1.5-5.5,0-6.4,3.3l-1.9,6.9L415.9,234l1.8-6.9
					C418.7,223.8,417.3,219.8,414.7,218.3"/>
				<path class="st8" d="M402.7,220.3l-3.8-2.2c-0.2-0.1-0.4,0-0.5,0.3c-0.1,0.3,0,0.6,0.2,0.7l3.8,2.2c0.2,0.1,0.4,0,0.5-0.3
					C403,220.7,402.9,220.4,402.7,220.3"/>
				<path class="st8" d="M411.7,221.6c-0.1-0.1-0.2-0.1-0.3,0l-1.4,0.7l-0.7-2c0-0.1-0.1-0.2-0.2-0.3c-0.1-0.1-0.2-0.1-0.3,0
					c-0.2,0.1-0.3,0.4-0.2,0.7l0.7,2l-1.4,0.7c-0.2,0.1-0.3,0.4-0.2,0.7c0,0.1,0.1,0.2,0.2,0.3c0.1,0.1,0.2,0.1,0.3,0l1.4-0.8l0.7,2
					c0,0.1,0.1,0.2,0.2,0.3c0.1,0.1,0.2,0.1,0.3,0c0.2-0.1,0.3-0.4,0.2-0.7l-0.7-2l1.4-0.8c0.2-0.1,0.3-0.4,0.2-0.7
					C411.8,221.7,411.8,221.6,411.7,221.6"/>
			</g>
			<g>
				<path class="st9" d="M407.4,236.1l-163.2-94.2c-1.2-0.7-2.6,0-3,1.6l-47.9,179.1c-0.4,1.6,0.2,3.4,1.5,4.1L358,420.9
					c1.2,0.7,2.6,0,3-1.6l47.9-179.1C409.3,238.7,408.7,236.8,407.4,236.1"/>
				<path class="st10" d="M224.9,178.4l-76-43.9c-1.2-0.7-2.6,0-3,1.6l-6.3,23.6c-0.4,1.6,0.2,3.4,1.5,4.1l76,43.9
					c1.2,0.7,2.6,0,3-1.6l6.3-23.6C226.8,180.9,226.1,179.1,224.9,178.4"/>
				<g>
					<path class="st11" d="M252.2,156.7c-3.8-2.2-8,0-9.3,4.9c-1.3,4.9,0.7,10.7,4.6,12.9c3.8,2.2,8,0,9.3-4.9
						C258.1,164.7,256,159,252.2,156.7"/>
					<g>
						<path class="st6" d="M253.4,163.4l-5.2-3c-0.7-0.4-1.5,0-1.7,0.9l-1.1,4.1c-0.2,0.9,0.1,1.9,0.8,2.3l2.5,1.4l-0.3,1.3
							c0,0.1,0,0.3,0.1,0.4l0.1,0.1c0.1,0,0.1,0.1,0.2,0l1.8-0.8l0.9,0.5c0.7,0.4,1.5,0,1.7-0.9l1.1-4.1
							C254.5,164.9,254.1,163.8,253.4,163.4z M253.7,165.5l-1.1,4.1c-0.1,0.5-0.6,0.7-0.9,0.5l-1-0.6c-0.1,0-0.1,0-0.2,0l-1.3,0.5
							l0.2-0.8c0.1-0.2,0-0.4-0.2-0.5l-2.8-1.6c-0.4-0.2-0.6-0.8-0.5-1.3l1.1-4.1c0.1-0.5,0.6-0.7,0.9-0.5l5.2,3
							C253.6,164.4,253.8,165,253.7,165.5z"/>
						<path class="st6" d="M248.1,164.8c-0.3-0.1-0.5,0-0.6,0.3c-0.1,0.3,0,0.7,0.3,0.8c0.2,0.1,0.5,0,0.6-0.3
							C248.5,165.3,248.4,164.9,248.1,164.8z"/>
						<path class="st6" d="M249.8,165.7c-0.2-0.1-0.5,0-0.6,0.3c-0.1,0.3,0.1,0.7,0.3,0.8c0.2,0.1,0.5,0,0.6-0.3
							C250.2,166.2,250,165.9,249.8,165.7z"/>
						<path class="st6" d="M251.5,166.7c-0.2-0.1-0.5,0-0.6,0.3c-0.1,0.3,0,0.7,0.3,0.8c0.3,0.1,0.5,0,0.6-0.3
							C251.8,167.2,251.7,166.8,251.5,166.7z"/>
					</g>
				</g>
				<g>
					<path d="M387.7,243.8c-0.5-0.3-1.1,0-1.2,0.7c-0.2,0.7,0.1,1.4,0.6,1.7c0.5,0.3,1.1,0,1.2-0.7
						C388.5,244.9,388.2,244.1,387.7,243.8z"/>
					<path d="M392.2,246.5c-0.5-0.3-1.1,0-1.2,0.7c-0.2,0.7,0.1,1.4,0.6,1.7c0.5,0.3,1.1,0,1.2-0.7
						C393,247.5,392.8,246.8,392.2,246.5z"/>
					<path d="M396.8,249.1c-0.5-0.3-1.1,0-1.2,0.7c-0.2,0.7,0.1,1.4,0.6,1.7c0.5,0.3,1.1,0,1.2-0.7
						C397.6,250.2,397.3,249.4,396.8,249.1z"/>
				</g>
				<polyline class="st12" points="396,266.7 238.4,175.7 238.3,176.1 395.9,267.2 396,266.7 				"/>
				<g>
					<path class="st11" d="M315.4,231.8L241.1,189c-2.7-1.5-5.6,0-6.5,3.4L227,221l79.1,45.6c2.7,1.5,5.6,0,6.5-3.4l6-22.5
						C319.5,237.4,318,233.3,315.4,231.8"/>
					<g>
						<polygon class="st13" points="239.1,206.9 239.1,206.8 239.7,204.7 239.7,204.7 241.4,205.7 241.4,205.7 240.9,207.8 
							240.9,207.9 241.2,208.1 241.3,208 242.5,203.4 242.5,203.3 242.2,203.1 242.1,203.2 241.6,205.2 241.5,205.3 239.8,204.3 
							239.8,204.2 240.4,202.2 240.3,202.1 240.1,201.9 240,201.9 238.7,206.6 238.8,206.7 						"/>
						<polygon class="st13" points="242.3,208.7 242.5,208.9 242.6,208.8 243.5,205.5 243.5,205.4 243.2,205.2 243.1,205.3 
							242.2,208.6 						"/>
						<path class="st13" d="M243.5,204.7c0.1,0,0.2,0,0.2,0c0.1,0,0.1-0.1,0.2-0.2c0-0.1,0-0.2,0-0.3c0-0.1-0.1-0.2-0.2-0.2
							c-0.1,0-0.2-0.1-0.2,0c-0.1,0-0.1,0.1-0.2,0.2c0,0.1,0,0.2,0,0.3C243.4,204.6,243.4,204.7,243.5,204.7z"/>
						<polygon class="st13" points="243.3,209.9 243.4,210 243.5,210.1 243.6,210 244.3,208.7 244.3,208.7 244.3,208.6 244,208.5 
							244,208.5 243.3,209.9 						"/>
						<polygon class="st13" points="248.5,207.3 249.5,207.9 249.6,207.8 249.7,207.5 249.6,207.4 247.2,206 247.1,206 247,206.3 
							247,206.4 248,207 248.1,207.1 246.9,211.3 246.9,211.4 247.2,211.6 247.3,211.5 248.4,207.3 						"/>
						<path class="st13" d="M250.9,210.1c0.2,0.1,0.3,0.3,0.4,0.5c0.1,0.2,0.1,0.5,0,0.7l-0.6,2.2l0,0.1l0.3,0.2l0.1,0l0.6-2.3
							c0.1-0.4,0.1-0.7,0-1c-0.1-0.3-0.3-0.5-0.6-0.7c-0.3-0.2-0.6-0.2-0.8,0l0,0l0,0l0.4-1.6l0-0.1l-0.3-0.2l-0.1,0l-1.2,4.7l0,0.1
							l0.3,0.2l0.1,0l0.6-2.2c0.1-0.3,0.2-0.4,0.3-0.5C250.5,210,250.7,210,250.9,210.1z"/>
						<path class="st13" d="M252.6,214.8c0.2,0.1,0.3,0.2,0.5,0.2c0.2,0,0.3,0,0.4-0.1l0,0l0,0l-0.1,0.3l0,0.1l0.3,0.2l0.1,0
							l0.6-2.3c0.1-0.3,0.1-0.7,0-1c-0.1-0.3-0.3-0.6-0.7-0.7c-0.3-0.2-0.5-0.2-0.8-0.2c-0.2,0.1-0.4,0.2-0.5,0.4l0,0.1l0.3,0.2
							l0.1,0c0.1-0.1,0.2-0.2,0.3-0.2c0.1,0,0.3,0,0.4,0.1c0.2,0.1,0.4,0.3,0.4,0.5c0.1,0.2,0.1,0.4,0,0.6l-0.1,0.3l0,0l-0.6-0.4
							c-0.3-0.2-0.6-0.3-0.9-0.2c-0.3,0.1-0.4,0.3-0.5,0.6c-0.1,0.3-0.1,0.6,0.1,0.9C252.2,214.4,252.4,214.6,252.6,214.8z
							 M252.4,213.4c0.1-0.2,0.2-0.3,0.4-0.4c0.2,0,0.4,0,0.6,0.1l0.6,0.3l0,0l-0.1,0.5c-0.1,0.2-0.2,0.4-0.4,0.4
							c-0.2,0-0.4,0-0.6-0.1c-0.2-0.1-0.3-0.2-0.4-0.4C252.4,213.8,252.4,213.6,252.4,213.4z"/>
						<path class="st13" d="M256,213.4c0.2-0.1,0.3-0.1,0.5,0c0.2,0.1,0.3,0.3,0.4,0.5c0.1,0.2,0.1,0.5,0,0.7l-0.6,2.2l0,0.1
							l0.3,0.2l0.1,0l0.6-2.3c0.1-0.4,0.1-0.7,0-1c-0.1-0.3-0.3-0.5-0.6-0.7c-0.3-0.2-0.6-0.2-0.8,0l0,0l0,0l0.1-0.3l0-0.1l-0.3-0.2
							l-0.1,0l-0.9,3.3l0,0.1l0.3,0.2l0.1,0l0.6-2.2C255.7,213.6,255.8,213.4,256,213.4z"/>
						<polygon class="st13" points="259.7,218.7 259.5,215.9 259.5,215.9 260.4,215.3 260.5,215.2 260.4,215.2 260.1,215 260,215 
							258.5,215.9 258.5,215.9 258.5,215.8 259.2,213 259.2,212.9 258.9,212.8 258.8,212.8 257.6,217.5 257.6,217.6 257.9,217.7 
							258,217.7 258.3,216.5 258.3,216.5 259.1,216 259.1,216.1 259.3,218.5 259.3,218.6 259.6,218.7 259.7,218.7 						"/>
						<path class="st13" d="M260.9,221c0.2,0.1,0.4,0.2,0.5,0.2c0.1,0,0.2,0,0.4-0.1c0.1-0.1,0.3-0.3,0.4-0.5l2-3.1l0-0.1l-0.3-0.2
							l-0.1,0l-1.4,2.4l0,0l0,0l0-3.2l0-0.1l-0.3-0.2l-0.1,0v0l0,3.9l0,0c-0.1,0.2-0.3,0.4-0.3,0.5c-0.1,0.1-0.2,0.1-0.3,0.1
							c-0.1,0-0.2,0-0.3-0.1l0,0l-0.1,0l-0.1,0.3L260.9,221L260.9,221z"/>
						<path class="st13" d="M263.9,220.2c0,0.3,0.1,0.6,0.2,0.9c0.1,0.3,0.3,0.5,0.6,0.6c0.3,0.2,0.5,0.2,0.7,0.1
							c0.2-0.1,0.4-0.2,0.6-0.5c0.1-0.2,0.2-0.4,0.3-0.8c0.1-0.4,0.2-0.7,0.1-0.9c0-0.3-0.1-0.6-0.2-0.9c-0.1-0.3-0.3-0.5-0.6-0.6
							c-0.3-0.2-0.5-0.2-0.7-0.1c-0.2,0.1-0.4,0.2-0.6,0.5c-0.1,0.2-0.2,0.4-0.3,0.8C264,219.6,263.9,219.9,263.9,220.2z
							 M264.5,219.5c0.1-0.3,0.2-0.5,0.2-0.7c0.1-0.2,0.2-0.3,0.4-0.3c0.2-0.1,0.3,0,0.5,0.1c0.2,0.1,0.3,0.2,0.4,0.4
							c0.1,0.2,0.1,0.4,0.1,0.6c0,0.2-0.1,0.4-0.1,0.7c-0.1,0.3-0.2,0.5-0.2,0.7c-0.1,0.2-0.2,0.3-0.4,0.4c-0.2,0-0.3,0-0.5-0.1
							c-0.2-0.1-0.3-0.2-0.4-0.4c-0.1-0.2-0.1-0.4-0.1-0.6C264.3,220.1,264.4,219.8,264.5,219.5z"/>
						<path class="st13" d="M269.2,220.3L269.2,220.3l-0.7,2.2c-0.1,0.3-0.2,0.4-0.3,0.5c-0.2,0.1-0.3,0.1-0.5-0.1
							c-0.2-0.1-0.3-0.3-0.4-0.5c-0.1-0.2-0.1-0.5,0-0.7l0.6-2.2l0-0.1l-0.3-0.2l-0.1,0l-0.6,2.3c-0.1,0.2-0.1,0.5,0,0.7
							c0,0.2,0.1,0.4,0.2,0.6c0.1,0.2,0.3,0.3,0.4,0.4c0.3,0.2,0.6,0.2,0.8,0l0,0v0l-0.1,0.3l0,0.1l0.3,0.2l0.1,0l0.9-3.3l0-0.1
							L269.2,220.3z"/>
						<path class="st13" d="M270.8,225.2l0.3,0.2l0.1,0l0.8-2.9l0,0l0.6,0.3l0.1,0l0.1-0.3l0-0.1l-0.6-0.3l0,0l0-0.1
							c0.1-0.3,0.2-0.4,0.3-0.5c0.1-0.1,0.3,0,0.4,0.1l0.1,0.1l0.1,0l0.1-0.3l0-0.1l-0.2-0.1c-0.2-0.1-0.4-0.2-0.6-0.2
							c-0.1,0-0.3,0.1-0.4,0.2c-0.1,0.1-0.2,0.3-0.3,0.6l0,0.2l0,0l-0.4-0.2l-0.1,0l-0.1,0.3l0,0.1l0.4,0.2l0,0L270.8,225.2
							L270.8,225.2z"/>
						<path class="st13" d="M272.6,224.2c-0.1,0.4-0.1,0.6-0.2,0.9c0,0.3,0.1,0.6,0.2,0.9c0.1,0.3,0.3,0.5,0.6,0.6
							c0.3,0.1,0.5,0.2,0.7,0.1c0.2-0.1,0.4-0.2,0.6-0.5c0.1-0.2,0.2-0.4,0.3-0.8c0.1-0.4,0.1-0.7,0.2-0.9c0-0.3-0.1-0.6-0.2-0.9
							c-0.1-0.3-0.3-0.5-0.6-0.6c-0.3-0.2-0.5-0.2-0.7-0.1c-0.2,0.1-0.4,0.2-0.6,0.5C272.8,223.6,272.7,223.9,272.6,224.2z
							 M273.2,223.8c0.1-0.2,0.2-0.3,0.4-0.3c0.2,0,0.3,0,0.5,0.1c0.2,0.1,0.3,0.2,0.4,0.4c0.1,0.2,0.1,0.4,0.1,0.6
							c0,0.2-0.1,0.4-0.1,0.7c-0.1,0.3-0.2,0.5-0.2,0.7c-0.1,0.2-0.2,0.3-0.4,0.4c-0.2,0-0.3,0-0.5-0.1c-0.2-0.1-0.3-0.2-0.4-0.4
							c-0.1-0.2-0.1-0.4-0.1-0.6c0-0.2,0.1-0.4,0.1-0.7C273.1,224.1,273.1,223.9,273.2,223.8z"/>
						<path class="st13" d="M276.4,225.3c0.2-0.1,0.3-0.1,0.5,0l0.1,0c0.1,0,0.2,0.1,0.2,0.2l0.1,0l0.2-0.3l0-0.1
							c-0.1-0.1-0.2-0.2-0.3-0.3c-0.1-0.1-0.3-0.1-0.4-0.1c-0.1,0-0.3,0.1-0.4,0.2h0v0l0.1-0.4l0-0.1l-0.3-0.2l-0.1,0l-0.9,3.3
							l0,0.1l0.3,0.2l0.1,0l0.5-2C276.1,225.6,276.3,225.4,276.4,225.3z"/>
						<path class="st13" d="M280.5,229.8l0.1-0.1l0-0.1l-0.2-0.2l-0.1,0l0,0l0,0c-0.1,0.2-0.2,0.3-0.4,0.3c-0.2,0-0.3,0-0.5-0.1
							c-0.2-0.1-0.3-0.2-0.4-0.4c-0.1-0.2-0.1-0.4-0.1-0.6c0-0.2,0.1-0.4,0.1-0.7c0.1-0.3,0.2-0.5,0.2-0.7c0.1-0.2,0.2-0.3,0.4-0.3
							c0.2,0,0.3,0,0.5,0.1c0.2,0.1,0.3,0.2,0.4,0.4c0.1,0.2,0.1,0.4,0.1,0.6l0,0.1l0,0.1l0,0l0.3,0.1l0.1,0l0,0l0-0.2
							c0-0.3-0.1-0.6-0.2-0.8c-0.1-0.3-0.3-0.5-0.6-0.6c-0.3-0.1-0.5-0.2-0.7-0.1c-0.2,0.1-0.4,0.2-0.6,0.5
							c-0.1,0.2-0.2,0.5-0.3,0.8c-0.1,0.4-0.2,0.7-0.2,0.9c0,0.3,0.1,0.6,0.2,0.9c0.1,0.3,0.3,0.5,0.6,0.6c0.3,0.2,0.5,0.2,0.7,0.2
							C280.1,230.2,280.3,230,280.5,229.8z"/>
						<path class="st13" d="M282.9,228.1c-0.3-0.2-0.5-0.2-0.7-0.1c-0.2,0.1-0.4,0.2-0.6,0.5c-0.1,0.2-0.2,0.4-0.3,0.8
							c-0.1,0.4-0.1,0.6-0.1,0.9c0,0.3,0.1,0.6,0.2,0.9c0.1,0.3,0.3,0.5,0.6,0.6c0.3,0.2,0.5,0.2,0.7,0.1c0.2-0.1,0.4-0.2,0.6-0.5
							c0.1-0.2,0.2-0.4,0.3-0.8c0.1-0.4,0.1-0.7,0.1-0.9c0-0.3-0.1-0.6-0.2-0.9C283.4,228.5,283.2,228.3,282.9,228.1z M283.2,230.3
							c-0.1,0.3-0.2,0.5-0.2,0.7c-0.1,0.2-0.2,0.3-0.4,0.4c-0.2,0-0.3,0-0.5-0.1c-0.2-0.1-0.3-0.2-0.4-0.4c-0.1-0.2-0.1-0.4-0.1-0.6
							c0-0.2,0.1-0.4,0.1-0.7c0.1-0.3,0.2-0.5,0.2-0.7c0.1-0.2,0.2-0.3,0.4-0.3c0.2-0.1,0.3,0,0.5,0.1c0.2,0.1,0.3,0.2,0.4,0.4
							c0.1,0.2,0.1,0.4,0.1,0.6C283.3,229.8,283.2,230,283.2,230.3z"/>
						<path class="st13" d="M285.9,229.9c-0.3-0.2-0.6-0.2-0.8,0l0,0l0,0l0.1-0.3l0-0.1l-0.3-0.2l-0.1,0l-0.9,3.3l0,0.1l0.3,0.2
							l0.1,0l0.6-2.2c0.1-0.3,0.2-0.4,0.3-0.5c0.2-0.1,0.3-0.1,0.5,0c0.2,0.1,0.3,0.3,0.4,0.5c0.1,0.2,0.1,0.5,0,0.7l-0.6,2.2l0,0.1
							l0.3,0.2l0.1,0l0.6-2.3c0.1-0.4,0.1-0.7,0-1C286.4,230.3,286.2,230,285.9,229.9z"/>
						<path class="st13" d="M288.8,231.9l0.1-0.3l0-0.1l-0.6-0.3l0,0l0.2-0.8l0-0.1l-0.3-0.2l-0.1,0l-0.2,0.8l0,0l-0.3-0.2l-0.1,0
							l-0.1,0.3l0,0.1l0.3,0.2l0,0l-0.6,2.2c-0.1,0.3-0.1,0.6,0,0.8c0.1,0.2,0.3,0.4,0.5,0.5c0.1,0.1,0.2,0.1,0.2,0.1l0.1,0l0.1-0.3
							l0-0.1l-0.1-0.1c-0.2-0.1-0.3-0.2-0.3-0.3c-0.1-0.1,0-0.3,0-0.5l0.5-2l0,0L288.8,231.9L288.8,231.9z"/>
						<path class="st13" d="M290.6,232.5c-0.3-0.2-0.5-0.2-0.8-0.2c-0.2,0.1-0.4,0.2-0.5,0.4l0,0.1l0.3,0.2l0.1,0
							c0.1-0.1,0.2-0.2,0.3-0.2c0.1,0,0.3,0,0.4,0.1c0.2,0.1,0.4,0.3,0.4,0.5c0.1,0.2,0.1,0.4,0,0.6l-0.1,0.3l0,0l-0.6-0.4
							c-0.3-0.2-0.6-0.3-0.9-0.2c-0.2,0.1-0.4,0.3-0.5,0.6c-0.1,0.3-0.1,0.6,0.1,0.9c0.1,0.3,0.3,0.5,0.6,0.6
							c0.2,0.1,0.3,0.2,0.5,0.2c0.2,0,0.3,0,0.4-0.1l0,0l0,0l-0.1,0.3l0,0.1l0.3,0.2l0.1,0l0.6-2.3c0.1-0.3,0.1-0.7,0-1
							C291.1,233,290.9,232.7,290.6,232.5z M290.5,235.3c-0.1,0.2-0.2,0.4-0.4,0.4c-0.2,0-0.4,0-0.6-0.1c-0.2-0.1-0.3-0.2-0.4-0.4
							c-0.1-0.2-0.1-0.3,0-0.6c0.1-0.2,0.2-0.3,0.4-0.4c0.2,0,0.4,0,0.6,0.1l0.6,0.3l0,0L290.5,235.3z"/>
						<path class="st13" d="M293.4,234.2c-0.3-0.1-0.5-0.2-0.7-0.1c-0.2,0.1-0.4,0.2-0.6,0.5c-0.1,0.2-0.2,0.5-0.3,0.8
							c-0.1,0.4-0.2,0.7-0.2,0.9c0,0.3,0.1,0.6,0.2,0.9c0.1,0.3,0.3,0.5,0.6,0.6c0.3,0.2,0.5,0.2,0.7,0.2c0.2-0.1,0.4-0.2,0.5-0.4
							l0.1-0.1l0-0.1l-0.2-0.2l-0.1,0l0,0l0,0c-0.1,0.2-0.2,0.3-0.4,0.3c-0.2,0-0.3,0-0.5-0.1c-0.2-0.1-0.3-0.2-0.4-0.4
							c-0.1-0.2-0.1-0.4-0.1-0.6c0-0.2,0.1-0.4,0.1-0.7c0.1-0.3,0.2-0.5,0.2-0.7c0.1-0.2,0.2-0.3,0.4-0.3c0.1-0.1,0.3,0,0.5,0.1
							c0.2,0.1,0.3,0.3,0.4,0.4c0.1,0.2,0.1,0.4,0.1,0.6l0,0.1l0,0.1l0,0l0.3,0.1l0.1,0l0,0l0-0.2c0-0.3-0.1-0.6-0.2-0.8
							C293.8,234.5,293.6,234.3,293.4,234.2z"/>
						<path class="st13" d="M296.3,235.9l-0.6-0.3l0,0l0.2-0.8l0-0.1l-0.3-0.1l-0.1,0l-0.2,0.8l0,0l-0.3-0.2l-0.1,0l-0.1,0.3l0,0.1
							l0.3,0.2l0,0l-0.6,2.2c-0.1,0.3-0.1,0.6,0,0.8c0.1,0.2,0.3,0.4,0.5,0.5c0.1,0.1,0.2,0.1,0.2,0.1l0.1,0l0.1-0.3l0-0.1l-0.1-0.1
							c-0.2-0.1-0.3-0.2-0.3-0.3c-0.1-0.1,0-0.3,0-0.5l0.5-2l0,0l0.6,0.3l0.1,0L296.3,235.9L296.3,235.9z"/>
						<path class="st13" d="M298,236.8c-0.3-0.2-0.5-0.2-0.7-0.1c-0.2,0.1-0.4,0.2-0.6,0.5c0,0.1-0.1,0.2-0.1,0.3
							c0,0.1-0.1,0.3-0.1,0.5c-0.1,0.4-0.2,0.7-0.2,1c0,0.3,0.1,0.6,0.2,0.8c0.1,0.3,0.3,0.5,0.6,0.6c0.2,0.1,0.5,0.2,0.7,0.2
							c0.2,0,0.4-0.1,0.5-0.3l0-0.1l-0.2-0.3l-0.1,0c-0.1,0.1-0.2,0.2-0.4,0.2c-0.1,0-0.3,0-0.4-0.1c-0.2-0.1-0.4-0.3-0.4-0.5
							c-0.1-0.2-0.1-0.4-0.1-0.6c0-0.1,0-0.2,0.1-0.5l0,0l1.7,1l0.1,0l0.1-0.2c0.1-0.2,0.1-0.4,0.1-0.5c0.1-0.4,0-0.8-0.1-1.1
							C298.6,237.3,298.3,237,298,236.8z M298.3,238.8L298.3,238.8l-1.4-0.8l0,0c0.1-0.2,0.1-0.4,0.2-0.4c0.1-0.2,0.2-0.3,0.4-0.3
							c0.1-0.1,0.3,0,0.5,0.1c0.2,0.1,0.3,0.3,0.4,0.4c0.1,0.2,0.1,0.4,0.1,0.6C298.4,238.4,298.4,238.6,298.3,238.8z"/>
						<path class="st13" d="M301.9,237.6L301.9,237.6l-0.5,1.6l0,0l0,0c0-0.2-0.1-0.3-0.2-0.5c-0.1-0.1-0.2-0.2-0.4-0.3
							c-0.3-0.1-0.5-0.2-0.7-0.1c-0.2,0.1-0.4,0.2-0.5,0.5c-0.1,0.2-0.2,0.4-0.3,0.8c-0.1,0.4-0.2,0.7-0.2,0.9c0,0.3,0,0.6,0.2,0.9
							c0.1,0.3,0.3,0.5,0.6,0.6c0.1,0.1,0.3,0.1,0.4,0.1c0.1,0,0.3-0.1,0.4-0.1l0,0l0,0l-0.1,0.3l0,0.1l0.3,0.2l0.1,0l1.2-4.7l0-0.1
							L301.9,237.6z M301.2,240.1c0,0.1-0.1,0.3-0.1,0.5c-0.1,0.2-0.1,0.4-0.2,0.5c0,0.1-0.1,0.2-0.2,0.3c-0.1,0.1-0.2,0.2-0.3,0.3
							c-0.1,0-0.3,0-0.4-0.1c-0.1-0.1-0.3-0.2-0.4-0.4c-0.1-0.2-0.1-0.3-0.1-0.5c0-0.1,0-0.2,0-0.4c0-0.1,0.1-0.3,0.1-0.5
							c0.1-0.2,0.1-0.4,0.2-0.5c0.1-0.1,0.1-0.2,0.2-0.3c0.1-0.1,0.2-0.2,0.3-0.2c0.1,0,0.3,0,0.4,0.1c0.1,0.1,0.2,0.2,0.3,0.3
							c0.1,0.2,0.1,0.3,0.1,0.5C301.2,239.9,301.2,240,301.2,240.1z"/>
						<path class="st13" d="M305.5,241.2L305.5,241.2l-0.7,2.2c-0.1,0.3-0.2,0.4-0.3,0.5c-0.2,0.1-0.3,0.1-0.5,0
							c-0.2-0.1-0.3-0.3-0.4-0.5c-0.1-0.2-0.1-0.5,0-0.7l0.6-2.2l0-0.1l-0.3-0.2l-0.1,0l-0.6,2.3c-0.1,0.2-0.1,0.5,0,0.7
							c0,0.2,0.1,0.4,0.2,0.6c0.1,0.2,0.3,0.3,0.4,0.4c0.3,0.2,0.6,0.2,0.8,0l0,0v0l-0.1,0.3l0,0.1l0.3,0.2l0.1,0l0.9-3.3l0-0.1
							L305.5,241.2z"/>
						<path class="st13" d="M308.1,242.8c-0.1-0.2-0.3-0.3-0.5-0.4c-0.3-0.2-0.6-0.2-0.8-0.1c-0.2,0.1-0.4,0.2-0.5,0.5
							c-0.1,0.2-0.1,0.4,0,0.6c0.1,0.2,0.1,0.3,0.2,0.5c0.1,0.1,0.3,0.3,0.4,0.5c0.1,0.2,0.3,0.3,0.3,0.4c0.1,0.1,0.1,0.2,0.2,0.3
							c0,0.1,0,0.2,0,0.3c0,0.2-0.1,0.3-0.3,0.3c-0.1,0-0.3,0-0.5-0.1c-0.2-0.1-0.3-0.2-0.4-0.4c-0.1-0.2-0.1-0.3-0.1-0.5l0-0.1
							l0-0.1l-0.3-0.1l-0.1,0l0,0.1c0,0.2,0,0.3,0,0.5c0,0.2,0.1,0.4,0.3,0.5c0.1,0.2,0.3,0.3,0.5,0.4c0.3,0.2,0.6,0.2,0.8,0.2
							c0.2-0.1,0.4-0.3,0.5-0.6c0.1-0.2,0.1-0.4,0-0.6c-0.1-0.2-0.1-0.4-0.3-0.5c-0.1-0.1-0.3-0.3-0.4-0.5c-0.2-0.2-0.3-0.4-0.4-0.5
							c-0.1-0.1-0.1-0.3-0.1-0.5c0-0.2,0.1-0.3,0.3-0.3c0.1,0,0.3,0,0.5,0.1c0.2,0.1,0.3,0.3,0.4,0.4c0.1,0.2,0.1,0.3,0.1,0.5l0,0
							l0,0.1l0.3,0.1l0.1,0l0,0c0-0.2,0.1-0.4,0-0.6C308.3,243.2,308.2,243,308.1,242.8z"/>
						<path class="st13" d="M309.1,246.5c0-0.1-0.1-0.2-0.2-0.2c-0.1-0.1-0.2-0.1-0.2,0c-0.1,0-0.1,0.1-0.2,0.2c0,0.1,0,0.2,0,0.3
							c0,0.1,0.1,0.2,0.2,0.2c0.1,0.1,0.2,0.1,0.2,0c0.1,0,0.1-0.1,0.2-0.2C309.1,246.7,309.1,246.6,309.1,246.5z"/>
						<polygon class="st13" points="240.3,211.5 240,211.3 239.9,211.4 239.4,213.5 239.3,213.5 237.6,212.5 237.6,212.4 
							238.2,210.4 238.1,210.3 237.9,210.1 237.8,210.2 236.6,214.8 236.6,214.9 236.9,215.1 236.9,215 237.5,212.9 237.5,212.9 
							239.2,213.9 239.2,213.9 238.7,216 238.7,216.1 239,216.3 239.1,216.3 240.3,211.6 						"/>
						<path class="st13" d="M241.9,213.9c-0.3-0.2-0.5-0.2-0.7-0.1c-0.2,0.1-0.4,0.2-0.6,0.5c-0.1,0.2-0.2,0.4-0.3,0.8
							c-0.1,0.4-0.1,0.6-0.1,0.9c0,0.3,0.1,0.6,0.2,0.9c0.1,0.3,0.3,0.5,0.6,0.6c0.3,0.2,0.5,0.2,0.7,0.1c0.2-0.1,0.4-0.2,0.6-0.5
							c0.1-0.2,0.2-0.4,0.3-0.8c0.1-0.4,0.1-0.7,0.2-0.9c0-0.3-0.1-0.6-0.2-0.9C242.4,214.3,242.2,214.1,241.9,213.9z M242.2,216.1
							c-0.1,0.3-0.2,0.5-0.2,0.7c-0.1,0.2-0.2,0.3-0.4,0.3c-0.2,0.1-0.3,0-0.5-0.1c-0.2-0.1-0.3-0.2-0.4-0.4
							c-0.1-0.2-0.1-0.4-0.1-0.6c0-0.2,0.1-0.4,0.1-0.7c0.1-0.3,0.2-0.5,0.2-0.7c0.1-0.2,0.2-0.3,0.4-0.4c0.2-0.1,0.3,0,0.5,0.1
							c0.2,0.1,0.3,0.2,0.4,0.4c0.1,0.2,0.1,0.4,0.1,0.6C242.3,215.6,242.3,215.8,242.2,216.1z"/>
						<polygon class="st13" points="246.6,216.7 246.6,216.7 245.3,219.1 245.2,219.1 245.2,219.1 245.4,216 245.3,215.9 
							245.1,215.8 245,215.8 243.7,218.2 243.7,218.2 243.7,218.2 243.8,215.1 243.8,215.1 243.5,214.9 243.4,214.9 243.4,214.9 
							243.3,218.7 243.3,218.8 243.6,219 243.7,218.9 245,216.7 245,216.7 245,216.7 244.9,219.6 244.9,219.7 245.2,219.9 
							245.3,219.9 246.9,217 247,216.9 246.9,216.9 						"/>
						<polygon class="st13" points="249.1,216.6 249,216.7 247.8,221.3 247.8,221.4 248.1,221.6 248.2,221.5 249.4,216.9 
							249.4,216.8 						"/>
						<path class="st13" d="M252.1,219.8c-0.3-0.1-0.5-0.2-0.7-0.1s-0.4,0.2-0.6,0.5c-0.1,0.2-0.2,0.5-0.3,0.8
							c-0.1,0.4-0.2,0.7-0.2,0.9c0,0.3,0.1,0.6,0.2,0.9c0.1,0.3,0.3,0.5,0.6,0.6c0.3,0.2,0.5,0.2,0.8,0.1c0.2-0.1,0.4-0.2,0.5-0.4
							l0.1-0.1l0-0.1l-0.2-0.2l-0.1,0l0,0l0,0c-0.1,0.2-0.2,0.3-0.4,0.3c-0.2,0-0.3,0-0.5-0.1c-0.2-0.1-0.3-0.3-0.4-0.4
							c-0.1-0.2-0.1-0.4-0.1-0.6c0-0.2,0.1-0.4,0.1-0.7c0.1-0.3,0.2-0.5,0.2-0.7c0.1-0.2,0.2-0.3,0.4-0.4c0.1-0.1,0.3,0,0.5,0.1
							c0.2,0.1,0.3,0.3,0.4,0.4c0.1,0.2,0.1,0.4,0.1,0.6l0,0.1l0,0.1l0,0l0.3,0.1l0.1,0l0,0l0-0.2c0-0.3-0.1-0.6-0.2-0.8
							C252.6,220.2,252.4,220,252.1,219.8z"/>
						<path class="st13" d="M254.8,221.4c-0.3-0.2-0.5-0.2-0.8-0.2c-0.2,0-0.4,0.2-0.5,0.4l0,0.1l0.3,0.2l0.1,0
							c0.1-0.1,0.2-0.2,0.3-0.2c0.1,0,0.3,0,0.4,0.1c0.2,0.1,0.4,0.3,0.4,0.5c0.1,0.2,0.1,0.4,0,0.6l-0.1,0.3l0,0l-0.6-0.4
							c-0.3-0.2-0.6-0.3-0.9-0.2c-0.2,0.1-0.4,0.3-0.5,0.6c-0.1,0.3-0.1,0.6,0.1,0.9c0.1,0.3,0.3,0.5,0.6,0.6
							c0.2,0.1,0.3,0.2,0.5,0.2c0.2,0,0.3,0,0.4-0.1l0,0l0,0l-0.1,0.3l0,0.1l0.3,0.2l0.1,0l0.6-2.3c0.1-0.3,0.1-0.7,0-1
							C255.4,221.8,255.2,221.6,254.8,221.4z M254.8,224.1c-0.1,0.2-0.2,0.4-0.4,0.4c-0.2,0-0.4,0-0.6-0.1c-0.2-0.1-0.3-0.2-0.4-0.4
							c-0.1-0.2-0.1-0.3,0-0.5c0.1-0.2,0.2-0.3,0.4-0.4c0.2,0,0.4,0,0.6,0.1l0.6,0.3l0,0L254.8,224.1z"/>
						<path class="st13" d="M257.8,223.1c-0.3-0.2-0.6-0.2-0.8,0l0,0l0,0l0.1-0.3l0-0.1l-0.3-0.2l-0.1,0l-0.9,3.3l0,0.1l0.3,0.2
							l0.1,0l0.6-2.2c0.1-0.2,0.2-0.4,0.3-0.5c0.2-0.1,0.3-0.1,0.5,0c0.2,0.1,0.3,0.3,0.4,0.5c0.1,0.2,0.1,0.5,0,0.7l-0.6,2.2l0,0.1
							l0.3,0.2l0.1,0l0.6-2.3c0.1-0.4,0.1-0.7,0-1C258.2,223.5,258,223.2,257.8,223.1z"/>
						<path class="st13" d="M261.7,225.4c-0.3-0.2-0.6-0.2-0.8,0l0,0l0,0l0.4-1.6l0-0.1l-0.3-0.2l-0.1,0l-1.2,4.7l0,0.1l0.3,0.2
							l0.1,0l0.6-2.2c0.1-0.2,0.2-0.4,0.3-0.5c0.2-0.1,0.3-0.1,0.5,0c0.2,0.1,0.3,0.3,0.4,0.5c0.1,0.2,0.1,0.5,0,0.7l-0.6,2.2l0,0.1
							l0.3,0.2l0.1,0l0.6-2.3c0.1-0.4,0.1-0.7,0-1C262.2,225.8,262,225.5,261.7,225.4z"/>
						<path class="st13" d="M264.4,226.9c-0.3-0.2-0.5-0.2-0.7-0.1c-0.2,0.1-0.4,0.2-0.6,0.5c0,0.1-0.1,0.2-0.1,0.3
							c0,0.1-0.1,0.3-0.1,0.5c-0.1,0.4-0.2,0.7-0.2,1c0,0.3,0.1,0.6,0.2,0.8c0.1,0.2,0.3,0.4,0.6,0.6c0.2,0.1,0.5,0.2,0.7,0.2
							c0.2,0,0.4-0.1,0.5-0.3l0-0.1l-0.2-0.3l-0.1,0c-0.1,0.1-0.2,0.2-0.4,0.2c-0.1,0-0.3,0-0.4-0.1c-0.2-0.1-0.4-0.3-0.4-0.5
							c-0.1-0.2-0.1-0.4-0.1-0.6c0-0.1,0-0.2,0.1-0.5l0,0l1.7,1l0.1,0l0.1-0.2c0-0.2,0.1-0.4,0.1-0.5c0.1-0.4,0-0.8-0.1-1.1
							C265,227.4,264.8,227.1,264.4,226.9z M264.8,228.9L264.8,228.9l-1.4-0.8l0,0c0.1-0.2,0.1-0.4,0.2-0.4c0.1-0.2,0.2-0.3,0.4-0.3
							c0.1-0.1,0.3,0,0.5,0.1c0.2,0.1,0.3,0.3,0.4,0.4c0.1,0.2,0.1,0.4,0.1,0.6C264.8,228.5,264.8,228.7,264.8,228.9z"/>
						<polygon class="st13" points="267,226.9 266.7,226.8 266.6,226.8 265.4,231.4 265.4,231.5 265.7,231.7 265.8,231.7 267,227 
													"/>
						<path class="st13" d="M268.7,229.4c-0.1-0.1-0.3-0.1-0.4-0.1c-0.1,0-0.3,0.1-0.4,0.1l0,0l0,0l0.1-0.3l0-0.1l-0.3-0.2l-0.1,0
							l-1.2,4.7l0,0.1l0.3,0.2l0.1,0l0.4-1.6l0,0l0,0c0,0.2,0.1,0.3,0.2,0.5c0.1,0.1,0.2,0.2,0.4,0.3c0.3,0.1,0.5,0.2,0.7,0.1
							c0.2-0.1,0.4-0.2,0.5-0.5c0.1-0.2,0.2-0.4,0.3-0.8c0.1-0.4,0.1-0.7,0.2-0.9c0-0.3,0-0.6-0.2-0.9
							C269.1,229.7,268.9,229.5,268.7,229.4z M269,231c0,0.1,0,0.3-0.1,0.5c-0.1,0.2-0.1,0.4-0.2,0.5c-0.1,0.1-0.1,0.2-0.2,0.3
							c-0.1,0.1-0.2,0.2-0.3,0.2c-0.1,0-0.3,0-0.4-0.1c-0.1-0.1-0.2-0.2-0.3-0.3c-0.1-0.2-0.1-0.3-0.1-0.5c0-0.1,0-0.2,0-0.4
							c0-0.1,0.1-0.3,0.1-0.5c0.1-0.2,0.1-0.4,0.2-0.5c0-0.1,0.1-0.2,0.2-0.3c0.1-0.1,0.2-0.2,0.3-0.3c0.1,0,0.3,0,0.4,0.1
							c0.2,0.1,0.3,0.2,0.4,0.4c0.1,0.2,0.1,0.3,0.1,0.5C269,230.8,269,230.9,269,231z"/>
						<path class="st13" d="M273.4,232.2l-0.3-0.2l-0.1,0l-1.4,2.4l0,0l0,0l0.1-3.2l-0.1-0.1l-0.3-0.2l-0.1,0v0l0,3.9l0,0
							c-0.1,0.2-0.2,0.4-0.3,0.5c-0.1,0.1-0.2,0.2-0.3,0.2c-0.1,0-0.2,0-0.3-0.1l0,0l-0.1,0l-0.1,0.3l0,0.1l0,0
							c0.2,0.1,0.4,0.2,0.5,0.2c0.1,0,0.3,0,0.4-0.1c0.1-0.1,0.3-0.3,0.4-0.5l2-3.1L273.4,232.2z"/>
						<path class="st13" d="M275,233c-0.3-0.2-0.5-0.2-0.7-0.1c-0.2,0.1-0.4,0.2-0.6,0.5c-0.1,0.2-0.2,0.4-0.3,0.8
							c-0.1,0.4-0.1,0.6-0.2,0.9c0,0.3,0.1,0.6,0.2,0.9c0.1,0.3,0.3,0.5,0.6,0.6c0.3,0.1,0.5,0.2,0.7,0.1c0.2-0.1,0.4-0.2,0.6-0.5
							c0.1-0.2,0.2-0.4,0.3-0.8c0.1-0.4,0.1-0.7,0.2-0.9c0-0.3-0.1-0.6-0.2-0.9C275.4,233.4,275.2,233.2,275,233z M275.2,235.2
							c-0.1,0.3-0.2,0.5-0.2,0.7c-0.1,0.2-0.2,0.3-0.4,0.3c-0.2,0.1-0.3,0-0.5-0.1c-0.2-0.1-0.3-0.3-0.4-0.5
							c-0.1-0.2-0.1-0.4-0.1-0.6c0-0.2,0.1-0.4,0.1-0.7c0.1-0.3,0.2-0.5,0.2-0.7c0.1-0.2,0.2-0.3,0.4-0.4c0.2,0,0.3,0,0.5,0.1
							c0.2,0.1,0.3,0.2,0.4,0.4c0.1,0.2,0.1,0.4,0.1,0.6C275.3,234.7,275.3,234.9,275.2,235.2z"/>
						<path class="st13" d="M278.5,235.1L278.5,235.1l-0.7,2.2c-0.1,0.2-0.2,0.4-0.3,0.5c-0.2,0.1-0.3,0.1-0.5,0
							c-0.2-0.1-0.3-0.3-0.4-0.5c-0.1-0.2-0.1-0.5,0-0.7l0.6-2.2l0-0.1l-0.3-0.2l-0.1,0l-0.6,2.3c-0.1,0.2-0.1,0.5,0,0.7
							c0,0.2,0.1,0.4,0.2,0.6c0.1,0.2,0.3,0.3,0.4,0.4c0.3,0.2,0.6,0.2,0.8,0l0,0l0,0l-0.1,0.3l0,0.1l0.3,0.2l0.1,0l0.9-3.3l0-0.1
							L278.5,235.1z"/>
						<path class="st13" d="M280.9,234.9c-0.3-0.2-0.6-0.2-0.8-0.1c-0.2,0.1-0.4,0.4-0.5,0.7l-0.1,0.2l0,0.1l0.3,0.2l0.1,0l0.1-0.2
							c0.1-0.2,0.2-0.4,0.3-0.4c0.2-0.1,0.3-0.1,0.5,0.1c0.2,0.1,0.3,0.3,0.4,0.5c0.1,0.2,0.1,0.4,0,0.6c0,0.1-0.1,0.3-0.2,0.3
							c-0.1,0.1-0.1,0.1-0.2,0.2c-0.1,0-0.2,0.1-0.3,0.1c-0.2,0.1-0.3,0.1-0.5,0.2c-0.1,0.1-0.2,0.2-0.2,0.4l-0.1,0.4l0,0.1l0.3,0.2
							l0.1,0l0.1-0.4c0-0.1,0.1-0.2,0.2-0.3c0.1-0.1,0.2-0.1,0.4-0.1c0.1-0.1,0.3-0.1,0.4-0.2c0.1-0.1,0.2-0.1,0.3-0.3
							c0.1-0.1,0.2-0.3,0.2-0.5c0.1-0.4,0.1-0.7,0-1C281.4,235.3,281.2,235.1,280.9,234.9z"/>
						<path class="st13" d="M279.7,238.9c-0.1-0.1-0.2-0.1-0.2,0c-0.1,0-0.1,0.1-0.2,0.2c0,0.1,0,0.2,0,0.3c0,0.1,0.1,0.2,0.2,0.2
							c0.1,0,0.2,0.1,0.2,0c0.1,0,0.1-0.1,0.2-0.2c0-0.1,0-0.2,0-0.3C279.8,239,279.8,238.9,279.7,238.9z"/>
					</g>
				</g>
				<g>
					<path class="st14" d="M378,318.7l-53.5-30.9c-2.7-1.5-5.6,0-6.5,3.4l-6,22.5c-0.9,3.4,0.5,7.4,3.2,9l58.4,33.7l7.7-28.7
						C382.1,324.3,380.7,320.2,378,318.7"/>
					<g>
						<path class="st13" d="M324.4,314.6c-0.2-0.1-0.5-0.2-0.7-0.1c-0.2,0.1-0.3,0.3-0.4,0.6c-0.1,0.3-0.1,0.6,0,0.9
							c0.1,0.3,0.3,0.5,0.5,0.7c0.2,0.1,0.5,0.1,0.7,0c0.2-0.1,0.4-0.3,0.4-0.6c0.1-0.3,0.1-0.6,0-0.9
							C324.8,314.9,324.6,314.7,324.4,314.6z"/>
						<path class="st13" d="M328.5,317c-0.2-0.1-0.5-0.2-0.7-0.1c-0.2,0.1-0.4,0.3-0.4,0.6c-0.1,0.3-0.1,0.6,0,0.9
							c0.1,0.3,0.3,0.5,0.5,0.7c0.2,0.1,0.5,0.1,0.7,0c0.2-0.1,0.4-0.3,0.4-0.6c0.1-0.3,0.1-0.6,0-0.9
							C328.9,317.3,328.7,317.1,328.5,317z"/>
						<path class="st13" d="M332.6,319.4c-0.3-0.1-0.5-0.2-0.7-0.1c-0.2,0.1-0.4,0.3-0.4,0.6c-0.1,0.3-0.1,0.6,0,0.9
							c0.1,0.3,0.3,0.5,0.5,0.7c0.2,0.1,0.5,0.1,0.7,0c0.2-0.1,0.4-0.3,0.4-0.6c0.1-0.3,0.1-0.6,0-0.9
							C333.1,319.7,332.9,319.5,332.6,319.4z"/>
						<path class="st13" d="M336.8,321.8c-0.2-0.1-0.5-0.2-0.7-0.1c-0.2,0.1-0.3,0.3-0.4,0.6c-0.1,0.3-0.1,0.6,0,0.9
							c0.1,0.3,0.3,0.5,0.5,0.7c0.2,0.1,0.5,0.2,0.7,0c0.2-0.1,0.4-0.3,0.4-0.6c0.1-0.3,0.1-0.6,0-0.9
							C337.2,322.1,337,321.9,336.8,321.8z"/>
						<path class="st13" d="M340.9,324.1c-0.2-0.1-0.5-0.2-0.7-0.1c-0.2,0.1-0.3,0.3-0.4,0.6c-0.1,0.3-0.1,0.6,0,0.9
							c0.1,0.3,0.3,0.5,0.5,0.7c0.2,0.1,0.5,0.1,0.7,0c0.2-0.1,0.4-0.3,0.4-0.6c0.1-0.3,0.1-0.6,0-0.9
							C341.3,324.5,341.2,324.3,340.9,324.1z"/>
						<path class="st13" d="M345.1,326.5c-0.2-0.1-0.5-0.2-0.7-0.1c-0.2,0.1-0.4,0.3-0.4,0.6c-0.1,0.3-0.1,0.6,0,0.9
							c0.1,0.3,0.3,0.5,0.5,0.7c0.2,0.1,0.5,0.1,0.7,0c0.2-0.1,0.4-0.3,0.4-0.6c0.1-0.3,0.1-0.6,0-0.9
							C345.5,326.9,345.3,326.7,345.1,326.5z"/>
						<path class="st13" d="M349.2,328.9c-0.2-0.1-0.5-0.2-0.7-0.1c-0.2,0.1-0.4,0.3-0.4,0.6c-0.1,0.3-0.1,0.6,0,0.9
							c0.1,0.3,0.3,0.5,0.5,0.7c0.2,0.1,0.5,0.2,0.7,0c0.2-0.1,0.4-0.3,0.4-0.6c0.1-0.3,0.1-0.6,0-0.9
							C349.6,329.3,349.4,329.1,349.2,328.9z"/>
						<path class="st13" d="M353.3,331.3c-0.2-0.1-0.5-0.2-0.7-0.1c-0.2,0.1-0.4,0.3-0.4,0.6c-0.1,0.3-0.1,0.6,0,0.9
							c0.1,0.3,0.3,0.5,0.5,0.7c0.2,0.1,0.5,0.2,0.7,0c0.2-0.1,0.4-0.3,0.4-0.6c0.1-0.3,0.1-0.6,0-0.9
							C353.7,331.7,353.6,331.4,353.3,331.3z"/>
						<path class="st13" d="M357.5,333.7c-0.2-0.1-0.5-0.2-0.7-0.1c-0.2,0.1-0.3,0.3-0.4,0.6c-0.1,0.3-0.1,0.6,0,0.9
							c0.1,0.3,0.3,0.5,0.5,0.7c0.2,0.1,0.5,0.2,0.7,0c0.2-0.1,0.4-0.3,0.4-0.6c0.1-0.3,0.1-0.6,0-0.9
							C357.9,334,357.7,333.8,357.5,333.7z"/>
						<path class="st13" d="M361.6,336.1c-0.2-0.1-0.5-0.2-0.7-0.1c-0.2,0.1-0.4,0.3-0.4,0.6c-0.1,0.3-0.1,0.6,0,0.9
							c0.1,0.3,0.3,0.5,0.5,0.7c0.2,0.1,0.5,0.1,0.7,0c0.2-0.1,0.4-0.3,0.4-0.6c0.1-0.3,0.1-0.6,0-0.9
							C362,336.4,361.8,336.2,361.6,336.1z"/>
						<path class="st13" d="M366.3,339.1c-0.1-0.3-0.3-0.5-0.5-0.6c-0.2-0.1-0.5-0.2-0.7-0.1c-0.2,0.1-0.4,0.3-0.4,0.6
							c-0.1,0.3-0.1,0.6,0,0.9c0.1,0.3,0.3,0.5,0.5,0.7c0.2,0.1,0.5,0.1,0.7,0c0.2-0.1,0.4-0.3,0.4-0.6
							C366.4,339.7,366.4,339.4,366.3,339.1z"/>
					</g>
				</g>
				<g>
					<path class="st11" d="M361.5,391.8l-12.5-7.2c-1.2-0.7-2.6,0-3,1.6l-3.6,13.3c-0.4,1.6,0.2,3.4,1.5,4.1l12.5,7.2
						c1.2,0.7,2.6,0,3-1.6L363,396C363.4,394.4,362.7,392.5,361.5,391.8"/>
					<path class="st6" d="M351.6,391.4c-0.2-0.1-0.4-0.1-0.6,0l-1,0.5c-1,0.6-0.9,3.6,0.3,7c0.9,2.5,2.1,4.4,3.1,5
						c0.3,0.2,0.6,0.2,0.9,0.1l1-0.5c0.4-0.2,0.5-0.8,0.4-1.3l-0.7-2c-0.1-0.3-0.3-0.5-0.4-0.6c-0.3-0.2-0.6-0.1-0.8,0.2
						c-0.2,0.3-0.6,0.4-0.9,0.2c-0.1,0-0.1-0.1-0.1-0.1c-0.7-0.7-1.4-2.6-1.3-3.7c0-0.5,0.4-0.9,0.7-0.8c0.5,0.1,0.9-0.6,0.7-1.4
						l-0.7-2C352,391.7,351.8,391.5,351.6,391.4"/>
				</g>
				<g>
					<path class="st13" d="M341.2,380.1L207.6,303c-1.2-0.7-2.6,0-3,1.6l-3.6,13.3c-0.4,1.6,0.2,3.4,1.5,4.1l133.6,77.1
						c1.2,0.7,2.6,0,3-1.6l3.6-13.3C343.1,382.7,342.5,380.8,341.2,380.1"/>
					<g>
						<path class="st12" d="M214.3,315.9l0.1-0.4l0-0.1l-0.8-0.5l0-0.1l0.3-1.1l0-0.1l-0.4-0.2l-0.1,0.1l-0.3,1.1l0,0l-0.5-0.3
							l-0.1,0l-0.1,0.4l0,0.1l0.5,0.3l0,0.1l-0.8,3c-0.1,0.5-0.1,0.8,0,1.1c0.1,0.3,0.4,0.5,0.7,0.7c0.1,0.1,0.2,0.1,0.3,0.1
							l0.1-0.1l0.1-0.4l0-0.1l-0.2-0.1c-0.2-0.1-0.4-0.3-0.4-0.5c-0.1-0.2-0.1-0.4,0-0.7l0.7-2.8l0,0L214.3,315.9L214.3,315.9z"/>
						<path class="st12" d="M218,317.5l-0.4-0.2l-0.1,0l-2,3.3l0,0l0,0l0.1-4.4l-0.1-0.1l-0.4-0.2l-0.1,0l0,0l0,5.4l0,0.1
							c-0.2,0.3-0.3,0.5-0.5,0.7c-0.1,0.1-0.3,0.2-0.4,0.2c-0.1,0-0.3,0-0.5-0.2l0,0l-0.1,0.1l-0.1,0.4l0,0.1l0.1,0
							c0.3,0.2,0.5,0.2,0.7,0.3c0.2,0,0.3-0.1,0.5-0.2c0.2-0.1,0.4-0.4,0.6-0.8l2.7-4.3L218,317.5z"/>
						<path class="st12" d="M220.4,318.8c-0.2-0.1-0.4-0.2-0.6-0.2c-0.2,0-0.4,0.1-0.5,0.2l0,0l0,0l0.1-0.4l0-0.1L219,318l-0.1,0.1
							l-1.7,6.4l0,0.1l0.4,0.2l0.1-0.1l0.6-2.2l0,0l0,0c0.1,0.2,0.2,0.5,0.3,0.7c0.1,0.2,0.3,0.4,0.5,0.5c0.4,0.2,0.7,0.3,1,0.2
							c0.3-0.1,0.5-0.3,0.7-0.7c0.1-0.2,0.3-0.6,0.4-1.1c0.1-0.5,0.2-0.9,0.2-1.3c0-0.4-0.1-0.8-0.2-1.2
							C221,319.3,220.8,319,220.4,318.8z M220.9,321.1c0,0.2-0.1,0.4-0.2,0.7c-0.1,0.3-0.2,0.5-0.2,0.7c-0.1,0.2-0.2,0.3-0.2,0.4
							c-0.1,0.2-0.3,0.3-0.4,0.3c-0.2,0-0.4,0-0.6-0.1c-0.2-0.1-0.3-0.3-0.4-0.5c-0.1-0.2-0.2-0.4-0.2-0.7c0-0.2,0-0.3,0-0.5
							c0-0.2,0.1-0.4,0.2-0.7c0.1-0.3,0.2-0.5,0.2-0.7c0.1-0.2,0.1-0.3,0.2-0.4c0.1-0.2,0.3-0.3,0.4-0.4c0.2-0.1,0.3,0,0.5,0.1
							c0.2,0.1,0.4,0.3,0.5,0.5c0.1,0.2,0.2,0.5,0.2,0.7C220.9,320.7,220.9,320.9,220.9,321.1z"/>
						<path class="st12" d="M224.3,321c-0.4-0.2-0.7-0.3-1-0.2c-0.3,0.1-0.6,0.3-0.8,0.7c-0.1,0.1-0.1,0.2-0.2,0.4
							c-0.1,0.2-0.1,0.4-0.2,0.6c-0.2,0.6-0.2,1-0.2,1.4c0,0.4,0.1,0.8,0.3,1.2c0.2,0.3,0.4,0.6,0.8,0.8c0.3,0.2,0.6,0.3,0.9,0.2
							c0.3,0,0.5-0.2,0.7-0.4l0-0.2l-0.2-0.4l-0.1,0c-0.1,0.2-0.3,0.3-0.5,0.3c-0.2,0-0.4,0-0.6-0.1c-0.3-0.2-0.5-0.4-0.6-0.6
							c-0.1-0.3-0.2-0.6-0.2-0.9c0-0.1,0-0.4,0.1-0.7l0,0l2.4,1.4l0.1-0.1l0.1-0.3c0.1-0.3,0.1-0.5,0.1-0.7c0.1-0.6,0-1.1-0.1-1.5
							C225.1,321.6,224.8,321.3,224.3,321z M224.7,323.7L224.7,323.7l-2-1.1l0,0c0.1-0.3,0.2-0.5,0.2-0.6c0.1-0.2,0.3-0.4,0.5-0.5
							c0.2-0.1,0.4,0,0.7,0.1c0.2,0.1,0.4,0.3,0.6,0.6c0.1,0.3,0.2,0.6,0.1,0.9C224.8,323.2,224.8,323.4,224.7,323.7z"/>
						<path class="st12" d="M230.2,324.7c-0.2-0.2-0.4-0.4-0.7-0.6c-0.4-0.2-0.8-0.3-1.1-0.2c-0.3,0.1-0.5,0.3-0.6,0.7
							c-0.1,0.3-0.1,0.5,0,0.8c0.1,0.3,0.2,0.5,0.3,0.7c0.1,0.2,0.3,0.4,0.6,0.7c0.2,0.2,0.4,0.4,0.5,0.5c0.1,0.1,0.2,0.3,0.2,0.4
							c0.1,0.1,0.1,0.3,0,0.5c-0.1,0.2-0.2,0.4-0.4,0.4c-0.2,0.1-0.4,0-0.7-0.1c-0.3-0.2-0.5-0.4-0.6-0.6c-0.1-0.2-0.2-0.5-0.1-0.7
							l0-0.1l0-0.1l-0.4-0.2l-0.1,0.1l0,0.1c-0.1,0.2-0.1,0.5,0,0.7c0.1,0.3,0.2,0.5,0.4,0.7c0.2,0.2,0.4,0.4,0.7,0.6
							c0.4,0.2,0.8,0.3,1.1,0.2c0.3-0.1,0.5-0.4,0.6-0.8c0.1-0.3,0.1-0.6,0-0.8c-0.1-0.3-0.2-0.5-0.3-0.7c-0.2-0.2-0.4-0.4-0.6-0.7
							c-0.3-0.3-0.5-0.5-0.6-0.7c-0.1-0.2-0.1-0.4-0.1-0.6c0.1-0.2,0.2-0.4,0.4-0.4c0.2,0,0.4,0,0.7,0.2c0.3,0.2,0.5,0.4,0.6,0.6
							c0.1,0.2,0.2,0.5,0.1,0.7l0,0l0,0.1l0.3,0.2l0.1,0l0,0c0.1-0.2,0.1-0.5,0-0.8C230.5,325.1,230.4,324.9,230.2,324.7z"/>
						<path class="st12" d="M233.3,326.2c-0.4-0.2-0.7-0.3-1-0.2c-0.3,0.1-0.6,0.3-0.8,0.7c-0.1,0.2-0.3,0.6-0.4,1.1
							c-0.1,0.5-0.2,0.9-0.2,1.2c0,0.5,0.1,0.9,0.3,1.3c0.2,0.4,0.5,0.7,0.8,0.9c0.3,0.2,0.7,0.3,1,0.2c0.3-0.1,0.6-0.3,0.8-0.7
							c0.1-0.2,0.3-0.6,0.4-1.1c0.1-0.5,0.2-0.9,0.2-1.2c0-0.5-0.1-0.9-0.3-1.2C233.9,326.7,233.7,326.4,233.3,326.2z M233.7,329.3
							c-0.1,0.4-0.2,0.7-0.3,0.9c-0.1,0.2-0.3,0.4-0.5,0.5c-0.2,0.1-0.4,0-0.7-0.1c-0.2-0.1-0.4-0.3-0.6-0.6
							c-0.1-0.3-0.2-0.6-0.2-0.9c0-0.2,0.1-0.6,0.2-1c0.1-0.4,0.2-0.7,0.3-0.9c0.1-0.2,0.3-0.4,0.5-0.5c0.2-0.1,0.4,0,0.7,0.1
							c0.2,0.1,0.4,0.3,0.6,0.6c0.1,0.3,0.2,0.6,0.2,0.9C233.8,328.5,233.8,328.9,233.7,329.3z"/>
						<path class="st12" d="M239.7,329.9c-0.2-0.1-0.5-0.2-0.7-0.2c-0.2,0-0.4,0.1-0.6,0.3l0,0c0-0.3-0.1-0.6-0.3-0.8
							c-0.1-0.2-0.3-0.4-0.6-0.6c-0.2-0.1-0.4-0.2-0.6-0.2c-0.2,0-0.4,0.1-0.5,0.2l0,0l0,0l0.1-0.4l0-0.1l-0.4-0.2l-0.1,0.1
							l-1.2,4.6l0,0.1l0.4,0.2l0.1-0.1l0.8-3.1c0.1-0.3,0.2-0.6,0.5-0.7c0.2-0.1,0.5-0.1,0.7,0.1c0.3,0.1,0.4,0.4,0.5,0.7
							c0.1,0.3,0.1,0.6,0,1l-0.8,3l0,0.1l0.4,0.2l0.1-0.1l0.8-3.1c0.1-0.3,0.2-0.6,0.5-0.7c0.2-0.1,0.4-0.1,0.7,0.1
							c0.3,0.1,0.4,0.4,0.5,0.7c0.1,0.3,0.1,0.6,0,1l-0.8,3l0,0.1l0.4,0.2l0.1-0.1l0.8-3.2c0.1-0.5,0.1-0.9,0-1.3
							C240.3,330.5,240.1,330.1,239.7,329.9z"/>
						<path class="st12" d="M243.4,332c-0.4-0.2-0.7-0.3-1-0.2c-0.3,0.1-0.6,0.3-0.8,0.7c-0.1,0.1-0.1,0.3-0.2,0.4
							c0,0.2-0.1,0.4-0.2,0.6c-0.1,0.6-0.2,1-0.2,1.4c0,0.4,0.1,0.8,0.3,1.2c0.2,0.3,0.4,0.6,0.8,0.8c0.3,0.2,0.6,0.3,0.9,0.2
							c0.3,0,0.5-0.2,0.7-0.4l0-0.2l-0.2-0.4l-0.1,0c-0.1,0.2-0.3,0.3-0.5,0.3c-0.2,0-0.4,0-0.6-0.1c-0.3-0.2-0.5-0.4-0.6-0.6
							c-0.1-0.3-0.2-0.6-0.2-0.9c0-0.1,0.1-0.3,0.1-0.7l0,0l2.4,1.4l0.1-0.1l0.1-0.3c0.1-0.3,0.1-0.5,0.2-0.7c0.1-0.6,0-1.1-0.1-1.5
							C244.1,332.6,243.8,332.3,243.4,332z M243.8,334.7L243.8,334.7l-2-1.1l0,0c0.1-0.3,0.2-0.5,0.2-0.6c0.1-0.2,0.3-0.4,0.5-0.5
							c0.2-0.1,0.4,0,0.7,0.1c0.2,0.1,0.4,0.3,0.6,0.6c0.1,0.3,0.2,0.6,0.1,0.9C243.9,334.2,243.9,334.4,243.8,334.7z"/>
						<path class="st12" d="M247.4,335l0.1-0.4l0-0.1l-0.8-0.5l0-0.1l0.3-1.1l0-0.1l-0.4-0.2l-0.1,0.1l-0.3,1.1l0,0l-0.4-0.3l-0.1,0
							l-0.1,0.4l0.1,0.1l0.4,0.3l0,0.1l-0.8,3c-0.1,0.5-0.1,0.8,0,1.1c0.1,0.3,0.4,0.5,0.7,0.7c0.1,0.1,0.2,0.1,0.3,0.1l0.1-0.1
							l0.1-0.4l0-0.1l-0.2-0.1c-0.2-0.1-0.4-0.3-0.5-0.5c-0.1-0.2-0.1-0.4,0-0.7l0.7-2.8l0,0L247.4,335L247.4,335z"/>
						<path class="st12" d="M250.1,335.9c-0.4-0.3-0.8-0.3-1.2,0l0,0l0,0l0.6-2.2l0-0.1l-0.4-0.2l-0.1,0.1l-1.7,6.4l0,0.1l0.4,0.2
							l0.1,0l0.8-3c0.1-0.4,0.3-0.6,0.5-0.7c0.2-0.1,0.5-0.1,0.7,0.1c0.3,0.1,0.4,0.4,0.6,0.7c0.1,0.3,0.1,0.6,0,1l-0.8,3l0,0.1
							l0.4,0.2l0.1-0.1l0.8-3.1c0.1-0.5,0.1-1,0-1.4C250.8,336.5,250.5,336.2,250.1,335.9z"/>
						<polygon class="st12" points="252.7,337.5 252.6,337.5 251.4,342.1 251.4,342.3 251.8,342.5 251.9,342.4 253.1,337.8 
							253.1,337.7 						"/>
						<path class="st12" d="M253.5,336.8c0.1-0.1,0.2-0.2,0.2-0.3c0-0.2,0-0.3,0-0.5c-0.1-0.1-0.1-0.2-0.3-0.3
							c-0.1-0.1-0.2-0.1-0.3,0c-0.1,0-0.2,0.2-0.2,0.3c0,0.1,0,0.3,0,0.4c0.1,0.1,0.1,0.3,0.3,0.3
							C253.2,336.8,253.3,336.8,253.5,336.8z"/>
						<path class="st12" d="M256,339.3c-0.4-0.3-0.8-0.3-1.2,0l0,0v0l0.1-0.4l0-0.1l-0.4-0.2l-0.1,0.1l-1.2,4.6l0,0.1l0.4,0.2
							l0.1-0.1l0.8-3c0.1-0.4,0.2-0.6,0.5-0.7c0.2-0.1,0.5-0.1,0.7,0.1c0.3,0.2,0.4,0.4,0.6,0.7c0.1,0.3,0.1,0.6,0,1l-0.8,3l0,0.1
							l0.4,0.2l0.1,0l0.8-3.1c0.1-0.5,0.1-1,0-1.4C256.7,339.9,256.4,339.6,256,339.3z"/>
						<path class="st12" d="M261.2,342.4l-0.4-0.2l-0.1,0.1l-0.1,0.4l0,0l0,0c-0.1-0.5-0.4-0.9-0.8-1.1c-0.3-0.2-0.6-0.2-0.9-0.1
							c-0.3,0.1-0.5,0.3-0.7,0.6c-0.1,0.1-0.2,0.3-0.2,0.5c-0.1,0.2-0.1,0.4-0.2,0.7c-0.1,0.5-0.2,0.9-0.2,1.2
							c0,0.4,0.1,0.9,0.2,1.2c0.2,0.4,0.4,0.6,0.8,0.8c0.4,0.2,0.8,0.2,1.1,0l0,0l0,0l-0.1,0.4c-0.1,0.5-0.3,0.8-0.6,0.9
							c-0.3,0.1-0.6,0-1.1-0.2l-0.2-0.1l-0.1,0l0,0.1l-0.1,0.4l0,0.1c0.1,0,0.1,0.1,0.3,0.2c0.6,0.3,1,0.4,1.4,0.3
							c0.4-0.1,0.7-0.6,0.9-1.3l1.2-4.5L261.2,342.4z M260.2,343.9c0,0.1-0.1,0.3-0.2,0.6c-0.1,0.3-0.1,0.5-0.2,0.6
							c0,0.1-0.1,0.2-0.1,0.3c-0.1,0.2-0.3,0.4-0.5,0.5c-0.2,0.1-0.4,0.1-0.7-0.1c-0.2-0.1-0.4-0.3-0.5-0.6
							c-0.1-0.3-0.2-0.5-0.1-0.8c0-0.2,0.1-0.5,0.2-1c0.1-0.4,0.2-0.7,0.3-0.9c0.1-0.2,0.3-0.4,0.5-0.5c0.2-0.1,0.4-0.1,0.7,0.1
							c0.2,0.1,0.4,0.3,0.5,0.6c0.1,0.3,0.1,0.5,0.1,0.8C260.3,343.6,260.3,343.7,260.2,343.9z"/>
					</g>
					<path class="st14" d="M336.8,382.6c-0.1-0.1-0.3-0.1-0.4-0.1l-7.5-0.6c-0.8-0.1-1,0.5-0.4,1.3l1.7,2.6l2.9-0.7l-2.4,2.1
						l0.4,3.2c0.1,0.5,0.2,0.8,0.4,0.9c0.2,0.1,0.5,0,0.7-0.4l4.7-7C337.2,383.4,337.2,382.9,336.8,382.6z"/>
				</g>
				<g>
					<path class="st6" d="M390.1,193l-2.4,1.9l-0.1,0.5l1.7,1l-0.2,0.8l0.6,0.4l0.2-0.8l0.4,0.2l0.2-0.7l-0.4-0.2l0.7-2.6L390.1,193
						z M389.4,195.7l-0.9-0.5l1.3-1L389.4,195.7z"/>
					<path class="st6" d="M391.9,196.1c0-0.1,0.1-0.2,0.1-0.3c0.1-0.1,0.1-0.2,0.2-0.2c0.1-0.1,0.1-0.1,0.2-0.2c0.1,0,0.2-0.1,0.2,0
						c0.1,0,0.2,0,0.3,0.1c0.1,0,0.1,0.1,0.2,0.2l0.1,0.2l0.1,0.3l0.1,0.3l0.7-0.1c0-0.2-0.1-0.3-0.1-0.5c0-0.1-0.1-0.3-0.2-0.4
						c-0.1-0.1-0.2-0.3-0.3-0.4c-0.1-0.1-0.2-0.2-0.4-0.3c-0.2-0.1-0.3-0.1-0.5-0.2c-0.1,0-0.3,0-0.4,0c-0.1,0-0.3,0.1-0.4,0.2
						c-0.1,0.1-0.2,0.2-0.3,0.3c-0.1,0.1-0.2,0.3-0.3,0.4c-0.1,0.2-0.1,0.3-0.2,0.5c0,0.2-0.1,0.4-0.1,0.6c0,0.2,0,0.4,0,0.6
						c0,0.2,0,0.4,0.1,0.6c0,0.2,0.1,0.4,0.2,0.5c0.1,0.2,0.2,0.3,0.3,0.5c0.1,0.1,0.3,0.2,0.4,0.3c0.2,0.1,0.3,0.2,0.5,0.2
						c0.2,0,0.3,0,0.5-0.1c0.1-0.1,0.3-0.2,0.4-0.4c0.1-0.2,0.2-0.4,0.3-0.7l0.2-0.6l-1.2-0.7l-0.2,0.8l0.6,0.3l0,0
						c0,0.1-0.1,0.2-0.1,0.2l-0.2,0.1c-0.1,0-0.1,0-0.2,0c-0.1,0-0.2,0-0.2-0.1c-0.1-0.1-0.3-0.2-0.3-0.3c-0.1-0.1-0.1-0.3-0.2-0.5
						c0-0.2,0-0.3,0-0.5c0-0.2,0-0.4,0.1-0.5C391.8,196.3,391.8,196.2,391.9,196.1z"/>
					<polygon class="st6" points="396.1,197.3 395.5,197 395.3,198 394.5,197.6 394.3,198.3 395.1,198.8 394.8,199.8 395.4,200.2 
						395.7,199.1 396.5,199.6 396.7,198.9 395.9,198.4 					"/>
					<polygon class="st6" points="398.3,202.6 399,203 399.5,201.3 398.8,200.8 					"/>
					<polygon class="st6" points="400.4,200.7 399.7,203.4 400.4,203.8 401.2,201.1 					"/>
					<polygon class="st6" points="402.1,200.6 401.1,204.2 401.8,204.7 402.8,201 					"/>
					<polygon class="st6" points="402.6,205.1 403.3,205.5 404.5,200.9 403.8,200.4 					"/>
					<path class="st6" d="M407.3,202.4c-0.3-0.2-0.7,0-0.8,0.4l-0.9,3.2c-0.1,0.4,0.1,0.9,0.4,1.1l4.3,2.5l1.3-4.7L407.3,202.4z"/>
					<path class="st6" d="M174.3,69.1c0,0,0-0.1,0-0.1c0,0,0,0,0,0c0,0,0,0,0,0c0,0,0,0-0.1-0.1c0,0,0,0,0,0l-4.9-2.8c0,0,0,0,0,0
						c0,0,0,0-0.1,0c0,0,0,0,0,0c0,0,0,0,0,0c0,0-0.1,0-0.1,0c0,0,0,0,0,0v0c0,0,0,0,0,0c0,0,0,0.1,0,0.1l-1.2,4.4
						c0,0.1,0,0.3,0.1,0.3l4.9,2.8c0.1,0.1,0.2,0,0.2-0.1l1.2-4.5C174.3,69.2,174.3,69.2,174.3,69.1
						C174.3,69.1,174.3,69.1,174.3,69.1z M173.5,69.1l-2.3,0.6l-1.4-2.8L173.5,69.1z M172.8,73.3l-4.6-2.6l1-3.8l1.6,3.2l0.1,0.1
						l0.1,0l2.7-0.7L172.8,73.3z"/>
					<path class="st6" d="M180.7,72.7c-1.4-0.8-2.9-0.4-3.2,1c-0.3,1.2,0.3,2.7,1.4,3.6c-0.2,0.2-0.4,0.4-0.7,0.5c0,0,0,0,0.1,0
						c0.2,0.1,1,0.5,1.7,0.1c1.2,0.4,2.3-0.1,2.7-1.2C183,75.3,182.2,73.5,180.7,72.7z"/>
					<path class="st6" d="M186.2,78.1c-0.2-0.1-0.5,0-0.6,0.3c-0.1,0.3,0.1,0.7,0.3,0.8c0.2,0.1,0.5,0,0.6-0.3
						C186.6,78.6,186.5,78.2,186.2,78.1z"/>
					<path class="st6" d="M188.5,79.4c-0.2-0.1-0.5,0-0.6,0.3c-0.1,0.3,0,0.7,0.3,0.8c0.2,0.1,0.5,0,0.6-0.3
						C188.9,79.9,188.8,79.5,188.5,79.4z"/>
					<path class="st6" d="M190.8,80.7c-0.2-0.1-0.5,0-0.6,0.3c-0.1,0.3,0,0.7,0.3,0.8c0.2,0.1,0.5,0,0.6-0.3
						C191.2,81.2,191.1,80.9,190.8,80.7z"/>
					<polygon class="st6" points="287.2,133.3 286.9,133.2 286.9,133.2 286.2,133.2 286.1,133.3 286.1,133.3 286.1,133.6 
						286.1,133.6 286.1,133.6 286.7,133.7 286.8,133.7 286.8,133.7 285.7,137.8 285.7,137.9 286,138 286,138 287.3,133.4 					"/>
					<path class="st6" d="M289.1,134.4c-0.3-0.2-0.6-0.2-0.8-0.1c-0.2,0.1-0.4,0.3-0.5,0.7l-0.6,2.1c-0.1,0.2-0.1,0.5-0.1,0.7
						c0,0.3,0.1,0.6,0.2,0.9c0.1,0.3,0.3,0.5,0.6,0.6c0.2,0.1,0.5,0.2,0.7,0.1c0.2-0.1,0.4-0.2,0.5-0.4c0.1-0.1,0.2-0.3,0.3-0.6
						c0.1-0.3,0.1-0.6,0.1-0.8c0-0.3-0.1-0.5-0.2-0.7c-0.1-0.2-0.3-0.4-0.5-0.5c-0.3-0.2-0.6-0.2-0.8,0l0,0l0,0l0.3-1
						c0.1-0.2,0.2-0.4,0.3-0.5c0.2-0.1,0.3-0.1,0.5,0c0.2,0.1,0.3,0.3,0.4,0.5c0.1,0.2,0.1,0.4,0,0.7l0,0.1l0,0.1l0.3,0.2l0.1,0
						l0-0.1c0.1-0.3,0.1-0.7,0-1C289.6,134.8,289.4,134.6,289.1,134.4z M288.1,136.6c0.1,0,0.3,0,0.4,0.1c0.2,0.1,0.3,0.2,0.3,0.4
						c0.1,0.2,0.1,0.3,0.1,0.5c0,0.2,0,0.3-0.1,0.6c-0.1,0.2-0.1,0.4-0.2,0.5c-0.1,0.2-0.2,0.3-0.3,0.3c-0.1,0-0.3,0-0.4-0.1
						c-0.2-0.1-0.3-0.2-0.4-0.4c-0.1-0.2-0.1-0.3-0.1-0.5c0-0.1,0-0.3,0.1-0.5c0.1-0.2,0.1-0.4,0.2-0.5
						C287.9,136.7,288,136.6,288.1,136.6z"/>
					<path class="st6" d="M290.9,137.3c-0.1-0.1-0.2-0.1-0.2,0c-0.1,0-0.1,0.1-0.2,0.2c0,0.1,0,0.2,0,0.3c0,0.1,0.1,0.2,0.2,0.2
						c0.1,0.1,0.2,0.1,0.2,0c0.1,0,0.1-0.1,0.2-0.2c0-0.1,0-0.2,0-0.3C291.1,137.4,291,137.4,290.9,137.3z"/>
					<path class="st6" d="M290.3,139.6c-0.1,0-0.2-0.1-0.2,0c-0.1,0-0.1,0.1-0.2,0.2c0,0.1,0,0.2,0,0.3c0,0.1,0.1,0.2,0.2,0.2
						c0.1,0.1,0.2,0.1,0.2,0c0.1,0,0.1-0.1,0.2-0.2c0-0.1,0-0.2,0-0.3C290.5,139.7,290.4,139.6,290.3,139.6z"/>
					<path class="st6" d="M293.2,138.9L293.2,138.9L293.2,138.9l1.2-0.8l0-0.1l0.1-0.3l0-0.1l-1.9-1.1l-0.1,0l-0.1,0.3l0,0.1
						l1.5,0.9l0,0l-1.3,0.8l0,0.1l0.1,0.3l0,0.1l0,0c0.1,0,0.2,0,0.2,0c0.3,0.2,0.4,0.4,0.5,0.8c0,0.2,0,0.4-0.1,0.7
						c-0.1,0.2-0.1,0.4-0.2,0.5c-0.2,0.3-0.4,0.4-0.8,0.2c-0.2-0.1-0.3-0.2-0.4-0.4c-0.1-0.2-0.1-0.4-0.1-0.6c0-0.1,0-0.2,0.1-0.4
						l0-0.1l-0.3-0.2l-0.1,0c0,0.2-0.1,0.4-0.1,0.5c0,0.3,0,0.6,0.2,0.9c0.1,0.3,0.3,0.5,0.6,0.6c0.2,0.1,0.5,0.2,0.7,0.1
						c0.2,0,0.4-0.2,0.5-0.4c0.1-0.2,0.2-0.4,0.2-0.6c0.1-0.3,0.1-0.6,0.1-0.8C293.8,139.5,293.6,139.1,293.2,138.9z"/>
					<path class="st6" d="M295.3,138L295.3,138l-0.8,2.6l0,0.1l0.3,0.2l0.1,0c0.1-0.1,0.2-0.2,0.3-0.2c0.2,0,0.3,0,0.5,0.1
						c0.2,0.1,0.3,0.2,0.4,0.4c0.1,0.2,0.1,0.4,0.1,0.6c0,0.1,0,0.3-0.1,0.5c0,0.2-0.1,0.3-0.1,0.4c-0.1,0.2-0.2,0.3-0.4,0.4
						c-0.1,0.1-0.3,0-0.5-0.1c-0.2-0.1-0.3-0.2-0.4-0.4c-0.1-0.2-0.1-0.4-0.1-0.6l0-0.1l0-0.1l-0.3-0.2l-0.1,0l0,0
						c0,0.1,0,0.2,0,0.3c0,0.3,0.1,0.6,0.2,0.8c0.1,0.3,0.3,0.5,0.6,0.6c0.3,0.1,0.5,0.2,0.7,0.1c0.2-0.1,0.4-0.2,0.5-0.5
						c0.1-0.1,0.1-0.3,0.2-0.5c0.1-0.2,0.1-0.4,0.1-0.6c0-0.3,0-0.6-0.2-0.8c-0.1-0.3-0.3-0.5-0.6-0.6c-0.1-0.1-0.3-0.1-0.4-0.1
						c-0.1,0-0.3,0-0.4,0.1l0,0l0,0l0.4-1.6l0,0l1.5,0.9l0.1,0l0.1-0.3l0-0.1L295.3,138z"/>
					<path class="st15" d="M413.3,205.9l-1.7-1l-1.3,4.7l1.7,1c0.3,0.2,0.7,0,0.8-0.4l0.2-0.9l0.3,0.2c0.1,0.1,0.2,0,0.2-0.1l0.3-1
						c0-0.1,0-0.3-0.1-0.3l-0.3-0.2l0.2-0.9C413.8,206.5,413.6,206.1,413.3,205.9"/>
				</g>
				<g>
					<path d="M162.6,102.1l-6.7-3.9c-0.2-0.1-0.4,0-0.5,0.3c-0.1,0.3,0,0.6,0.2,0.7l6.7,3.9c0.2,0.1,0.4,0,0.5-0.3
						C163,102.6,162.9,102.3,162.6,102.1z"/>
					<path d="M161.8,105.5l-6.7-3.9c-0.2-0.1-0.4,0-0.5,0.3c-0.1,0.3,0,0.6,0.2,0.7l6.7,3.9c0.2,0.1,0.4,0,0.5-0.3
						C162.1,105.9,162,105.6,161.8,105.5z"/>
					<path d="M160.9,108.8l-6.7-3.9c-0.2-0.1-0.4,0-0.5,0.3c-0.1,0.3,0,0.6,0.3,0.7l6.7,3.9c0.2,0.1,0.4,0,0.5-0.3
						C161.2,109.2,161.1,108.9,160.9,108.8z"/>
				</g>
				<path class="st9" d="M230.3,157.8l-76-43.9c-1.2-0.7-2.6,0-3,1.6l-2.4,8.9c-0.4,1.6,0.2,3.4,1.5,4.1l76,43.9
					c1.2,0.7,2.6,0,3-1.6l2.4-8.9C232.2,160.4,231.6,158.6,230.3,157.8"/>
				<path class="st12" d="M224,165c-1-0.6-1.5-2.1-1.2-3.4c0.3-1.3,1.4-1.9,2.5-1.3c1,0.6,1.5,2.1,1.2,3.4
					C226.1,165,225,165.6,224,165 M225.5,159.4c-1.4-0.8-3,0-3.5,1.8c-0.5,1.8,0.3,3.9,1.7,4.8c0.6,0.3,1.2,0.4,1.7,0.2l0.6,1.8
					c0,0.1,0.1,0.2,0.2,0.3c0.1,0.1,0.2,0.1,0.3,0c0.2-0.1,0.3-0.4,0.2-0.7l-0.6-1.8c0.5-0.4,0.8-0.9,1-1.7
					C227.7,162.4,226.9,160.2,225.5,159.4"/>
				<g>
					<path class="st13" d="M219.4,191.7l-2.1-5.9c0-0.1-0.1-0.2-0.2-0.3c-0.1-0.1-0.2-0.1-0.3,0c-0.2,0.1-0.3,0.4-0.2,0.7l1.9,5.4
						l-3.9,2c-0.2,0.1-0.3,0.4-0.2,0.7c0,0.1,0.1,0.2,0.2,0.3c0.1,0.1,0.2,0.1,0.3,0l4.2-2.2c0.1,0,0.2-0.1,0.2-0.3
						C219.4,192,219.4,191.9,219.4,191.7z"/>
				</g>
				<g>
					<path class="st16" d="M216.1,211.2l-76-43.9c-1.2-0.7-2.6,0-3,1.6l-6.3,23.6c-0.4,1.6,0.2,3.4,1.5,4.1l76,43.9
						c1.2,0.7,2.6,0,3-1.6l6.3-23.6C218,213.7,217.3,211.9,216.1,211.2"/>
					<g>
						<path class="st13" d="M210.6,224.5l-2.1-5.9c0-0.1-0.1-0.2-0.2-0.3c-0.1-0.1-0.2-0.1-0.3,0c-0.2,0.1-0.3,0.4-0.2,0.7l1.9,5.4
							l-3.9,2c-0.2,0.1-0.3,0.4-0.2,0.7c0,0.1,0.1,0.2,0.2,0.3c0.1,0.1,0.2,0.1,0.3,0l4.2-2.2c0.1-0.1,0.2-0.2,0.2-0.3
							C210.7,224.8,210.7,224.7,210.6,224.5z"/>
					</g>
				</g>
				<g>
					<path class="st14" d="M207.3,244l-76-43.9c-1.2-0.7-2.6,0-3,1.6l-6.3,23.6c-0.4,1.6,0.2,3.4,1.5,4.1l76,43.9
						c1.2,0.7,2.6,0,3-1.6l6.3-23.6C209.2,246.5,208.5,244.7,207.3,244"/>
					<g>
						<path class="st13" d="M201.8,257.3l-2.1-5.9c0-0.1-0.1-0.2-0.2-0.3c-0.1-0.1-0.2-0.1-0.3,0c-0.2,0.1-0.3,0.4-0.2,0.7l1.9,5.4
							l-3.9,2c-0.2,0.1-0.3,0.4-0.2,0.7c0,0.1,0.1,0.2,0.2,0.3c0.1,0.1,0.2,0.1,0.3,0l4.2-2.2c0.1,0,0.2-0.1,0.2-0.3
							C201.9,257.6,201.9,257.5,201.8,257.3z"/>
					</g>
				</g>
				<g>
					<path class="st11" d="M198.5,276.8l-76-43.9c-1.2-0.7-2.6,0-3,1.6l-6.3,23.6c-0.4,1.6,0.2,3.4,1.5,4.1l76,43.9
						c1.2,0.7,2.6,0,3-1.6l6.3-23.6C200.4,279.3,199.8,277.5,198.5,276.8"/>
					<g>
						<path class="st13" d="M193.1,290.2l-2.1-5.9c0-0.1-0.1-0.2-0.2-0.3c-0.1-0.1-0.2-0.1-0.3,0c-0.2,0.1-0.3,0.4-0.2,0.7l1.9,5.4
							l-3.9,2c-0.2,0.1-0.3,0.4-0.2,0.7c0,0.1,0.1,0.2,0.2,0.3c0.1,0.1,0.2,0.1,0.3,0l4.2-2.2c0.1-0.1,0.2-0.2,0.2-0.3
							C193.1,290.4,193.1,290.3,193.1,290.2z"/>
					</g>
				</g>
			</g>
			<g class="st17">
				<path class="st6" d="M340.5,149.5l-92.2-53.2l111.5,339.5c4.7,0.9,9.2-2.4,10.8-8.3l27.4-102.6L340.5,149.5z"/>
				<polygon class="st6" points="124.2,176.4 174.4,329.3 249.6,372.7 151.5,74.2 				"/>
			</g>
		</g>
		<g>
			<path class="st18" d="M69.2,402.6c0-0.2,0-0.3,0-0.5v-9.9h6.4c0.5-0.4,1.1-0.7,1.7-1.1l58.9-33.8c10.7-6.2,28.1-6.2,38.7,0
				l88.2,51.2c0.6,0.3,1.2,0.7,1.7,1.1h6.3v10.5h0c-0.2,4-2.8,7.9-8.1,10.9l-58.9,33.8c-10.7,6.2-28.1,6.2-38.7,0l-88.2-51.2
				C72,410.5,69.3,406.6,69.2,402.6L69.2,402.6L69.2,402.6z"/>
			
				<linearGradient id="SVGID_4_" gradientUnits="userSpaceOnUse" x1="4340.0859" y1="409.4839" x2="4541.9297" y2="409.4839" gradientTransform="matrix(-1 0 0 1 4611.1445 0)">
				<stop  offset="0" style="stop-color:#D9DCF7"/>
				<stop  offset="1" style="stop-color:#CED2F7"/>
			</linearGradient>
			<path class="st19" d="M69.2,401c0-0.2,0-0.3,0-0.5v-9.9h6.4c0.5-0.4,1.1-0.7,1.7-1.1l58.9-33.8c10.7-6.2,28.1-6.2,38.7,0
				l88.2,51.2c0.6,0.3,1.2,0.7,1.7,1.1h6.3v10.5h0c-0.2,4-2.8,7.9-8.1,10.9l-58.9,33.8c-10.7,6.2-28.1,6.2-38.7,0L77.2,412
				C72,408.9,69.3,405,69.2,401L69.2,401L69.2,401z"/>
			<path class="st6" d="M77.3,389.5l58.9-33.8c10.7-6.2,28.1-6.2,38.7,0l88.2,51.2c0.6,0.3,1.2,0.7,1.7,1.1h6.3v1.9h0
				c-0.2,4-2.8,7.9-8.1,10.9l-58.9,33.8c-10.7,6.2-28.1,6.2-38.7,0l-88.2-51.2c-5.2-3-7.8-6.9-8-10.9h0v-0.1V392v-1.4h6.4
				C76.1,390.2,76.7,389.9,77.3,389.5z"/>
			
				<linearGradient id="SVGID_5_" gradientUnits="userSpaceOnUse" x1="4399.6401" y1="419.9738" x2="4534.9644" y2="352.4558" gradientTransform="matrix(-1 0 0 1 4611.1445 0)">
				<stop  offset="0" style="stop-color:#F7FAFF"/>
				<stop  offset="1" style="stop-color:#E6ECFF"/>
			</linearGradient>
			<path class="st20" d="M77.3,379.4l58.9-33.8c10.7-6.2,28.1-6.2,38.7,0l88.2,51.2c10.7,6.2,10.6,16.2-0.1,22.4l-58.9,33.8
				c-10.7,6.2-28.1,6.2-38.7,0l-88.2-51.2C66.5,395.6,66.6,385.6,77.3,379.4z"/>
			
				<linearGradient id="SVGID_6_" gradientUnits="userSpaceOnUse" x1="4537.0884" y1="395.0732" x2="4488.2295" y2="395.0732" gradientTransform="matrix(-1 0 0 1 4611.1445 0)">
				<stop  offset="0" style="stop-color:#F7FAFF"/>
				<stop  offset="1" style="stop-color:#E6ECFF"/>
			</linearGradient>
			<path class="st21" d="M179.6,406.9H85.9l-8.8-5.1c-8.7-5-10.2-12.6-4.8-18.6h107.3V406.9z"/>
		</g>
		<g>
			<path class="st22" d="M153.3,386.9c0,0-0.6,6-0.7,7.4c-0.1,1.4-0.1,2.2,0.5,2.7c0.9,0.7,3.6,2.2,5.3,2.2c1.7,0.1,3.4-0.9,5.1-1.7
				c1.7-0.8,3.3-1.9,4.9-2.3c1.6-0.4,3-0.2,4.7-1.6c1.7-1.4,4.5-5.4,5-5.9c0.5-0.5,0.3-1.4-0.2-2c-0.5-0.6-2.8-1.7-3.5-1.8
				c-0.7-0.1-4.2,1.2-5.1,1.3c-0.9,0.1-5.2,0.2-6.9,0.1C160.9,385.4,153.3,386.9,153.3,386.9z"/>
			<path class="st23" d="M153.3,385.8c0,0-0.6,6-0.7,7.4c-0.1,1.4-0.1,2.2,0.5,2.7c0.9,0.7,3.6,2.2,5.3,2.2c1.7,0.1,3.4-0.9,5.1-1.7
				c1.7-0.8,3.3-1.9,4.9-2.3c1.6-0.4,3-0.2,4.7-1.6c1.7-1.4,4.3-5.1,4.7-5.6c0.5-0.5,0.3-1.4-0.2-2c-0.5-0.6-2.8-1.7-3.5-1.8
				c-0.7-0.1-3.9,0.8-4.9,1c-0.9,0.1-5.2,0.2-6.9,0.1C160.9,384.3,153.3,385.8,153.3,385.8z"/>
			<path class="st24" d="M187.1,282.6c0,0-10.4,41.9-11.8,48.4c-1.3,6.5-6.9,30.9-9.2,40.1c-2.3,9.2-1.7,12.3-1.7,13.1
				c0,0.9,0.4,2.5,0.3,3c-0.1,0.5-2.4,3.4-5.2,3.1c-2.9-0.4-5.2-1.1-6.7-2.7c0,0,1.6-5.9,1.7-7.1c0.1-1.2,1.2-31.3,1.8-36.3
				c0.9-6.7,4.9-12.2,5.3-17.4c0.4-5.2,0.3-26.3,0-30.5c-0.3-4.2-0.5-11.4,1.6-18.6l24.1,3L187.1,282.6z"/>
			<polygon class="st25" points="170.9,300.9 171.9,346.2 177.4,322.5 			"/>
			<path class="st22" d="M174.5,394.6c0,0-0.6,6-0.7,7.4c-0.1,1.4-0.1,2.2,0.5,2.7c0.9,0.7,3.6,2.2,5.3,2.2c1.7,0.1,3.4-0.9,5.1-1.7
				c1.7-0.8,3.3-1.9,4.9-2.3c1.6-0.4,3-0.2,4.7-1.6c1.7-1.4,4.5-5.4,5-5.9c0.5-0.5,0.3-1.4-0.2-2c-0.5-0.6-2.8-1.7-3.5-1.8
				c-0.7-0.1-4.2,1.1-5.1,1.3c-0.9,0.1-5.2,0.2-6.9,0.1C182,393,174.5,394.6,174.5,394.6z"/>
			<path class="st23" d="M174.5,393.5c0,0-0.6,6-0.7,7.4c-0.1,1.4-0.1,2.2,0.5,2.7c0.9,0.7,3.6,2.2,5.3,2.2c1.7,0.1,3.4-0.9,5.1-1.7
				c1.7-0.8,3.3-1.9,4.9-2.3c1.6-0.4,3-0.2,4.7-1.6c1.7-1.4,4.3-5.1,4.7-5.6c0.5-0.5,0.3-1.4-0.2-2c-0.5-0.6-2.8-1.7-3.5-1.8
				c-0.7-0.1-4,0.8-4.9,1c-0.9,0.1-5.2,0.2-6.9,0.1C182,391.9,174.5,393.5,174.5,393.5z"/>
			<path class="st24" d="M194.9,286.8c0,0-2.8,43.7-3.3,50.3c-0.5,6.6-4.6,31.4-5.7,40.9c-1.1,9.4-0.9,11.7-0.9,12.5
				c0.1,0.9,0.7,2.4,0.7,2.9c-0.1,0.5-1.9,3.7-4.8,3.7c-2.9,0-5.3-0.5-7-1.9c0,0,0.8-6,0.8-7.2c0-1.2-1.3-30.7-1.1-35.7
				c0.2-5,1.8-13.2,1.6-18.4c-0.3-5.2-3-26.1-3.8-30.3c-0.8-4.1-1.9-11.3-0.7-18.7h24.3V286.8z"/>
			<path class="st26" d="M195.5,284.3c0,0,0,3,0,3.6c-2.6,2.4-9,3.3-18.9,0.7c-12.2-3.1-14.6-7.2-14.6-7.2l0.6-3.1L195.5,284.3z"/>
			<rect x="186.8" y="284.9" class="st24" width="2.2" height="5.9"/>
			<rect x="170.9" y="282.8" class="st24" width="2.2" height="5.9"/>
			<rect x="163" y="278.9" class="st24" width="1.4" height="5.9"/>
			<path class="st27" d="M191.2,195.9c0,0,2.5,6.2,3,8.2c0.4,2,0,3.1,0.3,4.8c0.3,1.7,0.3,2.6,0,4.8c-0.3,2.1-0.7,3.5-0.8,5
				c-0.1,1.5-0.1,2-1,2.3c-0.9,0.3-2.3,0.1-4.5-0.2c0,0-0.2,2.7-0.2,6.1c-10.6,0.6-13.5-3-13.5-3s0.9-4.7,0.6-6.2
				c-0.4-1.5-4.2-6.7-4.5-11c-0.3-4.3,1.3-10.5,5.4-12.3C180.7,192.2,187.8,192.1,191.2,195.9z"/>
			
				<linearGradient id="SVGID_7_" gradientUnits="userSpaceOnUse" x1="4419.3354" y1="196.7843" x2="4421.7451" y2="199.6563" gradientTransform="matrix(-1 0 0 1 4611.1445 0)">
				<stop  offset="0" style="stop-color:#FFD3BF"/>
				<stop  offset="1" style="stop-color:#FFB7A8"/>
			</linearGradient>
			<path class="st28" d="M189.8,203v-8.3c0.5,0.3,1,0.7,1.4,1.2c0,0,0.8,2.1,1.6,4.2C192.1,201,191,202.2,189.8,203z"/>
			
				<linearGradient id="SVGID_8_" gradientUnits="userSpaceOnUse" x1="4429.145" y1="222.2549" x2="4427.6045" y2="210.8546" gradientTransform="matrix(-1 0 0 1 4611.1445 0)">
				<stop  offset="0" style="stop-color:#FFD3BF"/>
				<stop  offset="1" style="stop-color:#FFB7A8"/>
			</linearGradient>
			<path class="st29" d="M174.1,215.6h11.4c0,0,1.9,2.7,5.4,4.4c0.4,0.5-0.3,0.4-1.3,0.4c-1-0.1-1.6-0.1-2.6-0.4
				c0,0-0.8,3.5-1.1,6.9c-9,0.1-11.5-3.1-11.5-3.1s0.9-4.7,0.6-6.2C175,217.1,174.6,216.4,174.1,215.6z"/>
			<path class="st23" d="M188.6,212.6c0,0,0.9-0.1,0.9-1.1c0-1,0-4.1,0-4.4c0-0.3,0.3-0.7,0.4-0.9c0.1-0.2,0.7-0.7,0.7-0.9
				c0-0.2-0.6-2.2-0.6-2.3c0-0.1,1.3-1.6,2.1-3.6c0.9-2,1.2-3.9,1.3-5.8c-1.3-0.3-3.2-0.2-3.2-0.2c0.7-0.7,0.3-2.4,0.3-2.4
				s-2.9,0.9-6.6,0.7c-3.7-0.2-6.8-0.9-9.8,0.6c-3,1.5-4.1,4.1-4.1,9.3c-1.6,3-1.6,6-1.3,6.3c0.3,0.3,5,7.2,6.6,10.5
				c2.2,1.2,7.2,1,8.5,1c0.5-1.3,1.8-3.7,1.8-3.7s-0.8-0.8-1.2-2c-0.4-1.2-0.2-2.5,1.1-3.1c1.3-0.6,2-0.1,2.1,0.1
				C188.1,211.6,188.6,212.6,188.6,212.6z"/>
			<path class="st30" d="M188.8,226.3c0,0,8.5,8,9.3,9.1c0.9,1.1,1.1,1.4,1.2,2.7c0.1,1.3-3.9,33.4-4,35.4c-0.2,2,2,10.4,1.8,10.7
				c-0.2,0.4-1.2,1.6-3,2.4c-1.8,0.8-8.3,1.9-17.7-0.7c-9.4-2.6-13.2-5.2-14-6.4c-0.7-1.1-1.4-4.7-1.1-5.6c0.3-1,2.6-6.6,2.7-7.4
				c0.1-0.9-1.5-22.7-1.8-26.9c-0.3-4.2,0.2-13,1.1-15.2c0.9-2.2,4.5-6.7,11.2-5C174.5,219.3,184.4,223.9,188.8,226.3z"/>
			<path class="st31" d="M189.8,245.7l8,7c-0.8,6.8-1.7,14.1-2.1,18C189.4,260.2,189.8,245.7,189.8,245.7z"/>
			<path class="st30" d="M173.4,220.1c0,0,0.8-2.3,0.9-2.4c0.1-0.1,0.7-0.3,1.6,0c1,0.3,3.4,1.5,6.9,3.8c3,1.9,5.9,4.8,5.9,4.8
				s-3.5-0.4-7.3-1.8c-3.9-1.4-8.1-3.4-8.1-3.6C173.3,220.7,173.4,220.1,173.4,220.1z"/>
			<g>
				<g>
					<path class="st27" d="M215.5,244.1c0,0,0.8-8.4,0.9-8.9c0.1-0.5,0.5-1.5,1.1-2.4c0.6-0.9,1.8-2.8,2.6-4.2
						c0.8-1.4,1.7-3.5,1.9-3.4c0.2,0.1,1,0.9,0.6,2.6c-0.4,1.7-1,2.3-1.3,3c-0.4,0.7-1.1,2.4-1.1,2.4s0.8-0.2,1.1-0.1
						c0.4,0.1,3.5,1.4,3.8,1.7c0.3,0.3,0.4,0.7,0.4,1.5c0.1,0.8,0,2.5,0,3.1c0,0.6,0.4,0.9,0.2,1c-0.2,0.1-1.2,0.4-1.4-0.5
						c-0.3,1.6-0.1,3.1-0.7,3.8c-0.6,0.7-3.2,2.7-3.2,2.7L215.5,244.1z"/>
					
						<linearGradient id="SVGID_9_" gradientUnits="userSpaceOnUse" x1="-3940.0046" y1="236.7541" x2="-3934.459" y2="233.8844" gradientTransform="matrix(1 0 0 1 4159.7324 0)">
						<stop  offset="0" style="stop-color:#FFD3BF"/>
						<stop  offset="1" style="stop-color:#FFB7A8"/>
					</linearGradient>
					<path class="st32" d="M224.5,235.6c0.4,0.4,1.1,1.5,1.1,1.6c0-0.4,0-0.7,0-1c-0.1-0.8-0.2-1.2-0.4-1.5
						c-0.3-0.3-3.4-1.6-3.8-1.7c-0.4-0.1-1.1,0.1-1.1,0.1s-1.1,0.8-1.1,1c0,0.2,3.2,1.3,3.7,1.5
						C223.2,235.7,224.1,235.2,224.5,235.6z"/>
					
						<linearGradient id="SVGID_10_" gradientUnits="userSpaceOnUse" x1="-3936.1284" y1="239.0284" x2="-3934.615" y2="238.2453" gradientTransform="matrix(1 0 0 1 4159.7324 0)">
						<stop  offset="0" style="stop-color:#FFD3BF"/>
						<stop  offset="1" style="stop-color:#FFB7A8"/>
					</linearGradient>
					<path class="st33" d="M224.2,239.9c0,0-0.3-1.9-0.3-2.2c0-0.3,0.3-0.7,0.3-0.7s0.4,0.3,0.4,0.8c0,0.5-0.2,2.5-0.2,2.5
						L224.2,239.9z"/>
				</g>
				<path class="st30" d="M213.8,245.9c0,0,0.9-1.7,1-2c0.1-0.3,0.4-0.5,0.8-0.4c0.4,0.1,3,1,4.1,1.7c1,0.8,1.3,1,1.3,1.3
					c0,0.3-0.9,2.7-0.9,2.7L213.8,245.9z"/>
				<path class="st30" d="M198.6,236.4c-1.8-1.1-7.8,0-8.7,6.8c-0.9,6.7,2.9,12.5,5.9,17.2c3,4.7,5.1,7.2,6.4,8.4
					c1.3,1.2,6,2.6,7.6,2.1c1.6-0.6,3.4-4,4.4-6.3c1-2.3,6-13.7,6.2-14.2c0.1-0.4,0.1-1,0-1.4c-0.1-0.4-2.5-2.7-6.5-3.5
					c0,0-0.8,0.2-1,0.5c-0.2,0.3-0.1,0.8-0.3,1.4c-0.9,2-4.9,8.8-4.9,8.8s-6.6-15.6-7.4-17.2C199.5,237.3,199.4,236.9,198.6,236.4z"
					/>
			</g>
		</g>
		<g>
			<path class="st11" d="M99.1,200.7l5.1,0.7c1.1,1.8,2.5,3.5,4,5l0.8,6.6l4.6,2.7l0.9-5.6c1.5,0.3,2.9,0.2,4-0.4l5.1,5.1l2.3-3.3
				l-4.2-6.3c0.2-0.8,0.3-1.6,0.3-2.5c0-0.9-0.1-1.8-0.3-2.8l4.2-1.5l-2.3-5.9l-5.1-0.7c-1.1-1.8-2.5-3.5-4-5l-0.8-6.6l-4.6-2.7
				l-0.9,5.6c-1.5-0.3-2.8-0.2-4,0.4l-5.1-5.1l-2.3,3.3l4.2,6.3c-0.2,0.8-0.3,1.6-0.3,2.5c0,0.9,0.1,1.8,0.3,2.8l-4.2,1.5
				L99.1,200.7z M111.4,191.5c2.4,1.4,4.3,4.7,4.3,7.5c0,2.8-2,3.9-4.4,2.5c-2.4-1.4-4.3-4.8-4.3-7.5
				C107,191.3,109,190.2,111.4,191.5z"/>
			<path class="st10" d="M130.3,239.1c0-0.9-0.1-1.8-0.3-2.8l4.2-1.5l-2.3-5.9l-5.1-0.7c-1.1-1.9-2.5-3.6-4-5l-0.8-6.6l-4.6-2.7
				l-0.9,5.6c-1.5-0.3-2.9-0.2-4,0.4l-5.1-5.1l-2.3,3.3l4.2,6.3c-0.2,0.8-0.3,1.6-0.3,2.5c0,0.9,0.1,1.9,0.3,2.8l-4.2,1.5l2.3,5.9
				l5.1,0.7c1.1,1.8,2.5,3.6,4,5l0.8,6.6l4.6,2.7l0.9-5.6c1.5,0.3,2.8,0.2,4-0.4l5.1,5.1l2.3-3.3l-4.2-6.3
				C130.2,240.8,130.3,240,130.3,239.1z M119.7,237.9c-2.4-1.4-4.3-4.7-4.3-7.5c0-2.8,2-3.9,4.4-2.5c2.4,1.4,4.3,4.7,4.3,7.5
				C124.1,238.2,122.1,239.3,119.7,237.9z"/>
			<path class="st16" d="M102.3,217.3c0.2-0.8,0.3-1.6,0.3-2.5c0-0.9-0.1-1.8-0.2-2.8l4.2-1.5l-2.3-5.9l-5.1-0.7
				c-1.1-1.8-2.5-3.6-4-5l-0.8-6.6l-4.6-2.7l-0.9,5.6c-1.5-0.3-2.9-0.2-4,0.4l-5.1-5.1l-2.3,3.3l4.2,6.3c-0.2,0.8-0.3,1.6-0.3,2.5
				c0,0.9,0.1,1.9,0.2,2.8l-4.2,1.5l2.3,5.9l5.1,0.7c1.1,1.8,2.5,3.6,4,5l0.8,6.6l4.6,2.7l0.9-5.6c1.5,0.3,2.9,0.2,4-0.4l5.1,5.1
				l2.3-3.3L102.3,217.3z M92,213.7c-2.4-1.4-4.3-4.7-4.3-7.5c0-2.8,2-3.9,4.4-2.5c2.4,1.4,4.3,4.8,4.3,7.5
				C96.4,214,94.4,215.1,92,213.7z"/>
		</g>
		<g>
			<path class="st10" d="M452.1,188.3l-85.9-49.6c-2.8-1.6-5.1-0.3-5.1,2.9l-0.1,42.1c0,3.2,2.3,7.2,5.1,8.8l3.9,2.3l0,6.6
				c0,1.8,0.7,3.2,1.7,3.8c0.5,0.3,1.1,0.4,1.7,0.2l10.5-2.6l68,39.3c2.8,1.6,5.1,0.3,5.1-2.9l0.1-42.1
				C457.2,193.9,454.9,189.9,452.1,188.3z"/>
			<g>
				<path class="st6" d="M426.6,214.3l-53.5-30.9c-0.7-0.4-1.3-0.1-1.3,0.8c0,0.8,0.6,1.9,1.3,2.3l53.5,30.9
					c0.7,0.4,1.3,0.1,1.3-0.8C427.9,215.7,427.3,214.7,426.6,214.3z"/>
				<path class="st6" d="M445,214.8l-71.8-41.5c-0.7-0.4-1.3-0.1-1.3,0.8c0,0.8,0.6,1.9,1.3,2.3l71.8,41.5c0.7,0.4,1.3,0.1,1.3-0.8
					C446.3,216.2,445.7,215.2,445,214.8z"/>
				<path class="st6" d="M445,204.7l-71.8-41.5c-0.7-0.4-1.3-0.1-1.3,0.8c0,0.8,0.6,1.9,1.3,2.3l71.8,41.5c0.7,0.4,1.3,0.1,1.3-0.8
					C446.3,206.2,445.7,205.1,445,204.7z"/>
				<path class="st6" d="M373.2,156.2l71.8,41.5c0.7,0.4,1.3,0.1,1.3-0.8c0-0.8-0.6-1.9-1.3-2.3l-71.8-41.5
					c-0.7-0.4-1.3-0.1-1.3,0.8C371.9,154.8,372.5,155.8,373.2,156.2z"/>
			</g>
		</g>
		<g>
			<path class="st34" d="M409.5,373.7c2.4,1.4,4.3,4.7,4.3,7.4l-0.1,19.6c0,2.7-1.9,3.8-4.3,2.4l-71.9-41.5
				c-2.4-1.4-4.3-4.7-4.3-7.4l0.1-19.6c0-2.7,1.9-3.8,4.3-2.4L409.5,373.7z"/>
			<g>
				<path class="st35" d="M350.8,352.7l-0.9-0.6l-0.9-0.6l-1.4-0.9l-0.5-1.8l-0.3-1.2l-0.3-1.2c-0.1-0.5-0.3-0.8-0.5-0.9
					c-0.2-0.1-0.4,0-0.5,0.3l-0.3,0.8l-0.3,0.8l-0.5,1.2l-1.4-0.7l-0.9-0.4l-0.9-0.4c-0.8-0.4-0.9,0.1-0.3,1l0.7,1.1l1.7,2.7
					l-0.3,1.4l-0.2,0.9l-0.2,0.9c-0.1,0.5,0,1,0.4,1.1c0.1,0.1,0.3,0.1,0.5,0.1l0.8-0.1l0.8-0.1l1.2-0.1l1.2,1.5l0.8,1l0.8,1
					c0.2,0.3,0.4,0.4,0.5,0.5c0.3,0.2,0.5-0.1,0.4-0.7l-0.2-1.1l-0.2-1.1l-0.3-1.7l1.7-0.7l0.7-0.3
					C351.7,353.8,351.6,353.2,350.8,352.7z"/>
				<path class="st35" d="M364.6,360.7l-0.9-0.6l-0.9-0.6l-1.4-0.9l-0.5-1.8l-0.3-1.2l-0.4-1.2c-0.1-0.5-0.3-0.8-0.5-0.9
					c-0.2-0.1-0.4,0-0.5,0.3l-0.3,0.8l-0.4,0.8l-0.5,1.2l-1.4-0.7l-0.9-0.4l-0.9-0.4c-0.8-0.4-0.9,0.1-0.3,1l0.7,1.1l1.7,2.7
					l-0.3,1.4l-0.2,0.9l-0.2,0.9c-0.1,0.5,0,1,0.4,1.1c0.1,0.1,0.3,0.1,0.5,0.1l0.8-0.1l0.8-0.1l1.2-0.1l1.2,1.5l0.8,1l0.8,1
					c0.2,0.3,0.4,0.4,0.5,0.5c0.3,0.2,0.5-0.1,0.4-0.7l-0.2-1.1l-0.2-1.1l-0.3-1.7l1.7-0.7l0.7-0.3
					C365.6,361.8,365.4,361.2,364.6,360.7z"/>
				<path class="st35" d="M378.5,368.7l-0.9-0.6l-0.9-0.6l-1.4-0.9l-0.5-1.8l-0.3-1.2l-0.4-1.2c-0.1-0.5-0.3-0.8-0.5-0.9
					c-0.2-0.1-0.4,0-0.5,0.3l-0.3,0.8l-0.4,0.8l-0.5,1.2l-1.4-0.7l-0.9-0.4l-0.9-0.4c-0.8-0.4-0.9,0.1-0.3,1l0.7,1.1l1.7,2.7
					l-0.3,1.4l-0.2,0.9l-0.2,0.9c-0.1,0.5,0,1,0.4,1.1c0.1,0.1,0.3,0.1,0.5,0.1l0.8-0.1l0.8-0.1l1.2-0.1l1.2,1.5l0.8,1l0.8,1
					c0.2,0.3,0.4,0.4,0.5,0.5c0.3,0.2,0.5-0.1,0.4-0.7l-0.2-1.1l-0.2-1.1l-0.3-1.7l1.7-0.7l0.7-0.3
					C379.4,369.8,379.2,369.2,378.5,368.7z"/>
				<path class="st36" d="M392.3,376.6l-0.9-0.6l-0.9-0.6l-1.4-0.9l-0.5-1.8l-0.3-1.2l-0.3-1.2c-0.1-0.5-0.3-0.8-0.5-0.9
					c-0.2-0.1-0.4,0-0.5,0.3l-0.3,0.8l-0.4,0.8l-0.5,1.2l-1.4-0.7l-0.9-0.4l-0.9-0.4c-0.8-0.4-0.9,0.1-0.3,1l0.7,1.1l1.7,2.7
					l-0.3,1.4l-0.2,0.9l-0.2,0.9c-0.1,0.5,0,1,0.4,1.1c0.1,0.1,0.3,0.1,0.5,0.1l0.8-0.1l0.8-0.1l1.2-0.1l1.2,1.5l0.8,1l0.8,1
					c0.2,0.3,0.4,0.4,0.5,0.5c0.3,0.2,0.5-0.1,0.4-0.7l-0.2-1.1l-0.2-1.1l-0.3-1.7l1.7-0.7l0.7-0.3
					C393.2,377.8,393,377.1,392.3,376.6z"/>
				<path class="st36" d="M406.1,384.6l-0.9-0.6l-0.9-0.6l-1.4-0.9l-0.5-1.8l-0.3-1.2l-0.3-1.2c-0.1-0.5-0.3-0.8-0.5-0.9
					c-0.2-0.1-0.4,0-0.5,0.3l-0.4,0.7l-0.4,0.8l-0.5,1.2l-1.4-0.7l-0.9-0.4l-0.9-0.4c-0.8-0.4-0.9,0.1-0.3,1l0.7,1.1l1.7,2.7
					l-0.3,1.4l-0.2,0.9l-0.2,0.9c-0.1,0.5,0,1,0.4,1.1c0.1,0.1,0.3,0.1,0.5,0.1l0.8-0.1l0.8-0.1l1.2-0.1l1.2,1.5l0.8,1l0.8,1
					c0.2,0.3,0.4,0.4,0.5,0.5c0.3,0.2,0.5-0.1,0.4-0.7l-0.2-1.1l-0.2-1.1L404,387l1.7-0.7l0.7-0.3
					C407,385.7,406.9,385.1,406.1,384.6z"/>
			</g>
		</g>
		<g>
			<path class="st37" d="M398.4,270.8c-10.7-6.2-19.4-1.2-19.4,11.1c0,12.3,8.6,27.3,19.3,33.5c10.7,6.2,19.4,1.2,19.4-11.1
				C417.8,292,409.1,277,398.4,270.8z"/>
			<path class="st6" d="M398.4,288.4c-5.6-3.2-10-3.7-10-0.9l0,2.6c0.1,1.1,0.8,2.3,1.6,2.8l3.3,1.9c1.2,0.7,2-0.3,1.4-1.8
				c-0.4-1-0.1-1.9,0.6-2c0.8-0.1,1.9,0.3,3.1,1c1.1,0.7,2.3,1.6,3,2.5c0.7,0.8,0.9,2,0.6,2.7c-0.6,0.8,0.2,2.7,1.4,3.4l3.3,1.9
				c0.9,0.4,1.6,0,1.6-0.9l0-2.6C408.3,296.4,404,291.7,398.4,288.4z"/>
		</g>
	</g>
</g>
</svg>
