<svg xmlns="http://www.w3.org/2000/svg"  viewBox="0 0 16 16" fill="none">
  <path
    d="M1.89835 11.0799C-0.632956 8.54862 -0.632904 4.42982 1.89835 1.8985C4.42972 -0.632832 8.54852 -0.632832 11.0798 1.8985C13.2273 4.04598 13.5526 7.23984 12.0564 9.7339C12.0564 9.7339 11.949 9.9142 12.0941 10.0592C12.9222 10.8872 15.4065 13.3715 15.4065 13.3715C16.0658 14.0308 16.2227 14.9526 15.638 15.5374L15.5374 15.6379C14.9527 16.2227 14.0308 16.0658 13.3716 15.4065C13.3716 15.4065 10.8925 12.9275 10.0662 12.1012C9.91407 11.9491 9.73382 12.0565 9.73382 12.0565C7.23978 13.5526 4.04587 13.2274 1.89835 11.0799ZM9.88123 9.88132C11.7517 8.01093 11.7516 4.96762 9.88118 3.09723C8.01077 1.22689 4.96742 1.22684 3.09706 3.09723C1.22664 4.96757 1.22664 8.01093 3.09706 9.88132C4.96747 11.7516 8.01077 11.7516 9.88123 9.88132Z"
    fill="#AAAAAA" />
  <path
    d="M9.46871 6.10336C9.55576 6.10336 9.64426 6.08625 9.72957 6.05022C10.0703 5.906 10.2297 5.51283 10.0855 5.17203C9.17908 3.02996 6.69895 2.02472 4.5569 2.93115C4.21615 3.07537 4.05672 3.46854 4.20094 3.80934C4.34521 4.15014 4.73829 4.30946 5.0792 4.1653C6.54066 3.54688 8.23295 4.23276 8.85132 5.69421C8.95951 5.94982 9.20764 6.10336 9.46871 6.10336Z"
    fill="#AAAAAA" />
</svg>