<svg width="190" height="191" viewBox="0 0 190 191" fill="none" xmlns="http://www.w3.org/2000/svg">
<path d="M162.175 27.8243C144.232 9.88149 120.376 0 95 0C69.6242 0 45.7677 9.88149 27.8246 27.8243C9.88148 45.767 0 69.6243 0 95.0001C0 120.085 9.6874 143.746 27.2791 161.625C28.3686 162.733 29.8074 163.287 31.2472 163.287C32.6562 163.287 34.0668 162.755 35.1507 161.689C37.3421 159.532 37.3706 156.008 35.2149 153.817C19.6854 138.034 11.1328 117.146 11.1328 95.0001C11.1328 48.7555 48.7554 11.1328 95 11.1328C141.245 11.1328 178.867 48.7555 178.867 95.0001C178.867 117.145 170.314 138.034 154.784 153.817C152.628 156.008 152.656 159.533 154.848 161.689C157.039 163.845 160.563 163.816 162.719 161.625C180.312 143.746 190 120.085 190 95.0001C190 69.6243 180.118 45.7678 162.175 27.8243Z" fill="#E1E8F6"/>
<path d="M95.0263 23.875C55.7931 23.875 23.875 55.7932 23.875 95.026C23.875 111.147 29.4169 126.939 39.4791 139.493C41.4014 141.891 44.9053 142.277 47.3036 140.354C49.7024 138.432 50.0883 134.929 48.1657 132.529C39.5578 121.791 35.0078 108.822 35.0078 95.026C35.0078 61.9318 61.9325 35.0078 95.0263 35.0078C128.12 35.0078 155.044 61.9318 155.044 95.026C155.044 108.822 150.494 121.791 141.887 132.531C139.964 134.929 140.35 138.432 142.749 140.355C143.776 141.179 145.005 141.579 146.226 141.579C147.857 141.578 149.474 140.865 150.573 139.493C160.636 126.939 166.177 111.147 166.177 95.026C166.177 55.7932 134.259 23.875 95.0263 23.875Z" fill="#E1E8F6"/>
<path d="M130.383 117.758C131.148 118.118 131.955 118.289 132.748 118.289C134.838 118.289 136.84 117.107 137.789 115.091C140.761 108.774 142.268 102.006 142.268 94.9741C142.268 68.8918 121.049 47.6719 94.9663 47.6719C68.8839 47.6719 47.6641 68.8918 47.6641 94.9741C47.6641 102.005 49.1711 108.773 52.1424 115.09C53.4513 117.871 56.7674 119.065 59.5487 117.757C62.3308 116.449 63.5246 113.132 62.2161 110.35C59.9476 105.528 58.7969 100.355 58.7969 94.9741C58.7969 75.0304 75.0229 58.8047 94.9663 58.8047C114.91 58.8047 131.135 75.0304 131.135 94.9741C131.135 100.355 129.984 105.528 127.715 110.352C126.406 113.133 127.601 116.449 130.383 117.758Z" fill="#E1E8F6"/>
<path d="M107.255 105.139C104.281 99.9866 99.8075 97.0312 94.9826 97.0312C90.1572 97.0312 85.6837 99.9866 82.709 105.139L45.9807 168.755C43.0053 173.908 42.6828 179.26 45.0953 183.438C47.5078 187.617 52.3038 190.013 58.2536 190.013L131.711 190.014C137.661 190.014 142.457 187.618 144.869 183.439C147.282 179.26 146.959 173.908 143.984 168.756L107.255 105.139Z" fill="#E1E8F6"/>
</svg>
