<svg width="58" height="70" viewBox="0 0 58 70" fill="none" xmlns="http://www.w3.org/2000/svg">
<path d="M35.2215 20.4483C33.6583 18.6624 31.6543 16.6766 29.1595 16.4357C27.26 16.254 25.0334 17.2173 24.6426 19.2532C24.3699 20.68 25.0379 22.0251 26.3058 22.5568C24.3154 26.9329 21.4753 30.7728 17.7081 33.8356C13.3774 37.3574 8.16521 39.7612 3.2529 42.3924C3.17565 42.256 3.05296 42.1515 2.89391 42.1288C1.93962 41.997 1.23981 42.2424 0.394585 42.7059C0.158285 42.8377 -0.0552934 43.1058 0.01287 43.4012C0.653606 46.2141 1.50338 49.6631 3.23473 52.0216C4.08904 53.1804 5.12058 52.7805 6.10668 52.1352C6.29299 52.2761 6.54292 52.3306 6.76559 52.2124C7.02007 52.0761 7.26091 51.9716 7.46994 51.758C7.60627 51.6171 7.71079 51.4626 7.79713 51.2945C8.61055 51.3036 9.47395 51.0946 10.3283 50.8401C10.3964 51.7307 10.76 52.5442 11.0553 53.4757C11.5916 55.1707 12.1414 56.8612 12.6776 58.5562C13.8273 62.1643 14.9225 65.7906 15.9767 69.4305C16.054 69.6986 16.2448 69.994 16.5675 70.0031C18.1534 70.0303 19.6076 69.7895 21.0935 69.2351C21.4707 69.0942 21.5389 68.6762 21.4389 68.3399C19.5667 62.0143 17.6445 55.7024 15.7359 49.3905C17.4218 49.0269 19.1168 48.7043 20.8163 48.4271C25.3515 47.6864 29.9093 47.3274 34.4899 47.2365C34.4308 48.6952 35.4669 50.0312 36.9938 50.3629C39.0887 50.8174 41.0245 49.2178 41.8243 47.4001C42.9604 44.8326 42.7604 41.5971 42.5832 38.8615C42.3651 35.5033 41.6016 32.1724 40.3656 29.0414C39.1387 25.9377 37.4255 22.9749 35.217 20.4619L35.2215 20.4483ZM5.67043 51.1127C5.50229 51.1536 5.34779 51.1763 5.22964 51.1763C4.68433 51.6171 4.27535 51.449 4.0027 50.6765C3.77549 50.2357 3.56191 49.7949 3.35742 49.345C2.52128 47.5092 1.89418 45.6006 1.41704 43.6466C1.68515 43.5239 1.96234 43.4284 2.23954 43.333C2.19864 43.4693 2.20319 43.6284 2.27589 43.7965C3.31652 46.2504 4.37078 48.7724 5.67498 51.1082L5.67043 51.1127ZM19.9847 68.199C19.0305 68.5626 17.7354 68.967 17.0083 68.199C16.6811 67.8582 16.3903 66.1087 16.2494 65.6452C15.6541 63.6593 15.0361 61.6826 14.4044 59.7104C13.7728 57.7382 13.1275 55.7706 12.4459 53.8165C12.0551 52.7032 11.8006 51.5172 11.1599 50.5674C11.8051 50.3538 12.4322 50.1448 13.0048 49.9994C13.4547 49.8903 13.9091 49.7858 14.3635 49.6813C16.2267 55.8524 18.0807 62.0325 19.9802 68.1945L19.9847 68.199ZM20.9936 46.773C18.2307 47.2092 15.495 47.7818 12.7821 48.4816C10.9008 48.9633 8.0925 49.2541 6.77922 50.7765C6.7565 50.781 6.73832 50.7901 6.72015 50.7946C5.87947 48.2499 4.72523 45.7596 3.60735 43.3285C8.91046 40.7155 14.5817 38.2435 19.1577 34.4627C23.2475 31.0772 26.4103 26.6375 28.2961 21.6798C32.3269 23.4975 34.2945 28.7779 35.5487 32.7268C36.8802 36.9257 37.3346 41.2608 37.4618 45.6369C31.9542 45.5142 26.4285 45.9141 20.9936 46.773ZM39.4295 30.3093C40.5383 33.3584 41.1654 36.5985 41.2835 39.843C41.3471 41.5426 41.2881 43.3512 40.9518 45.0235C40.7519 46.0005 40.4519 46.9911 39.743 47.7182C38.4752 49.0133 36.0304 49.1496 35.9395 47.2092C36.3985 47.2092 36.8575 47.2001 37.3164 47.2001C37.6073 47.2001 37.8254 47.0684 37.9708 46.8866C38.0662 46.8412 38.1435 46.7594 38.1662 46.6458C39.1296 41.3972 38.3661 35.9986 36.5939 31C35.2215 27.1283 32.9403 21.5344 28.5552 20.3029C28.2143 20.2074 27.9281 20.3529 27.7735 20.5755C27.46 20.5165 27.1192 20.6346 26.9647 21.0163C26.8692 21.2617 26.7647 21.5026 26.6602 21.7434C24.6971 20.4483 26.1285 18.308 27.8235 17.7081C28.8642 17.34 30.3501 17.9444 31.2044 18.4852C32.5722 19.3486 33.6992 20.6346 34.7126 21.8752C36.762 24.3836 38.3252 27.2646 39.4295 30.3047V30.3093Z" fill="#484848" fill-opacity="0.5"/>
<path d="M55.0153 42.0808C53.7884 41.5219 52.1843 41.6309 50.8528 41.4537C49.3214 41.2538 47.8036 40.9675 46.2813 40.7175C45.6951 40.6221 45.4406 41.59 46.0314 41.74C47.4855 42.1126 48.9669 42.3807 50.4484 42.617C51.8434 42.8397 53.543 43.3305 54.9199 42.976C55.3652 42.8624 55.4697 42.2808 55.0199 42.0763L55.0153 42.0808Z" fill="#484848" fill-opacity="0.5"/>
<path d="M56.9495 34.4665C55.2499 34.2984 53.5004 34.5801 51.7963 34.671C49.6242 34.7846 47.452 34.8483 45.2799 34.8664C44.6937 34.871 44.5619 35.7707 45.1754 35.7934C48.8926 35.9389 53.3186 36.4751 56.9722 35.6526C57.6084 35.5072 57.6629 34.5347 56.954 34.4665H56.9495Z" fill="#484848" fill-opacity="0.5"/>
<path d="M51.3374 25.9497C49.9651 25.7952 48.5109 26.3178 47.1976 26.6859C45.848 27.063 44.4938 27.4947 43.2351 28.1082C42.8397 28.2991 42.9897 28.9898 43.4577 28.8853C44.8664 28.5672 46.2479 28.1537 47.6611 27.8537C48.929 27.5856 50.3195 27.5584 51.501 27.0312C52.0145 26.804 51.8964 26.0133 51.3374 25.9497Z" fill="#484848" fill-opacity="0.5"/>
<path d="M50.444 16.1814C46.6632 17.7628 43.046 20.4348 39.5333 22.5524C39.0835 22.8251 39.3834 23.5749 39.8742 23.3204C43.5504 21.4027 47.7402 19.685 51.0984 17.2493C51.6891 16.8222 51.0848 15.9133 50.444 16.1814Z" fill="#484848" fill-opacity="0.5"/>
<path d="M41.293 10.6617C40.4251 11.2797 39.8162 12.3567 39.2163 13.2201C38.5938 14.1153 38.0257 15.0423 37.5122 16.0057C37.2532 16.4874 38.0439 16.9009 38.3484 16.4601C38.9391 15.6012 39.539 14.7378 40.1888 13.9244C40.8295 13.1201 41.7066 12.4112 42.2064 11.5205C42.5518 10.9071 41.9065 10.2254 41.2976 10.6617H41.293Z" fill="#484848" fill-opacity="0.5"/>
<path d="M36.4858 0.275721C35.3679 2.12522 34.8953 4.47459 34.25 6.52858C33.5911 8.63255 32.9095 10.7502 32.4642 12.9087C32.3415 13.5085 33.2776 13.713 33.4866 13.1586C34.2955 11.0364 34.9271 8.84159 35.6678 6.69217C36.3358 4.75633 37.3674 2.76141 37.6809 0.739232C37.7809 0.10304 36.8312 -0.296852 36.4858 0.275721Z" fill="#484848" fill-opacity="0.5"/>
</svg>
