<svg width="71" height="71" viewBox="0 0 71 71" fill="none" xmlns="http://www.w3.org/2000/svg">
<path d="M70.2083 0.280554C69.2067 0.332222 57.478 -1.83282 44.3867 5.09947L48.3611 11.8591L54.888 21.6083L65.2995 15.6008L70.2083 0.280554Z" fill="#FC7267"/>
<path d="M70.2071 0.280273L54.8867 15.6005L57.9265 21.4255L65.2982 26.0119C72.2228 13.0186 70.1468 1.35291 70.2071 0.280273Z" fill="#E6225C"/>
<path d="M19.9303 36.7739L11.1445 39.6512L20.9915 49.4983L24.6073 47.2752L31.8874 42.1429L25.7673 38.5919L19.9303 36.7739Z" fill="#575F64"/>
<path d="M20.9922 49.498L30.7251 59.2307L33.6023 50.4449L31.4665 45.0093L26.8237 43.6665L20.9922 49.498Z" fill="#474F55"/>
<path d="M0 67.4189L1.53444 68.9532L10.9001 60.9801L18.0353 52.4523L16.501 50.918L0 67.4189Z" fill="#FDD82E"/>
<path d="M1.52734 68.9463L18.0259 52.4477L19.4456 53.8675L2.94706 70.366L1.52734 68.9463Z" fill="#FBBD00"/>
<path d="M57.6607 36.3462L47.7861 42.7802L41.5938 52.5315L48.9206 59.8583L56.3063 52.4726C60.6971 48.0818 61.1797 41.2673 57.6607 36.3462Z" fill="#E6225C"/>
<path d="M17.8975 14.0663L10.5117 21.4519L17.8975 28.8377L28.1873 22.9888L34.0243 12.7122C29.1032 9.19262 22.2883 9.67532 17.8975 14.0663Z" fill="#FC7267"/>
<path d="M54.8901 15.6009L44.3889 5.09961C40.5573 7.12859 37.0066 9.73608 33.8689 12.8738L22.3359 24.4067L28.0269 31.4904L33.7459 41.9382L50.7956 36.7739L54.8901 15.6009Z" fill="#FDF3F3"/>
<path d="M34.207 36.2807L37.56 42.4191L45.9671 48.0409L57.5837 36.4243C60.6902 33.3178 63.2776 29.804 65.2985 26.012L54.8871 15.6006L34.207 36.2807Z" fill="#EBE4F0"/>
<path d="M13.4531 65.7612L22.3919 56.8225L25.3457 59.7763L16.407 68.7151L13.4531 65.7612Z" fill="#FBBD00"/>
<path d="M1.64062 53.9443L10.5794 45.0056L13.5332 47.9594L4.59448 56.8982L1.64062 53.9443Z" fill="#FDD82E"/>
<path d="M22.335 24.4067L14.9492 31.7925L26.8237 43.6668L32.5935 42.075L34.2093 36.2809L22.335 24.4067Z" fill="#EBE4F0"/>
<path d="M26.8125 43.666L34.1971 36.2814L45.9554 48.0397L38.5708 55.4243L26.8125 43.666Z" fill="#CDCDE4"/>
<path d="M41.5359 19.9754C39.0789 22.4323 39.0862 26.4506 41.5945 28.8939L46.0817 25.7994L50.4544 20.0339C48.0055 17.5216 43.9888 17.5223 41.5359 19.9754Z" fill="#575F64"/>
<path d="M41.5938 28.8937C44.0455 31.2841 47.9761 31.2601 50.3981 28.8381C52.8226 26.4138 52.8401 22.4817 50.4536 20.0337L41.5938 28.8937Z" fill="#474F55"/>
<path d="M44.49 22.9294C43.6678 23.7516 43.6631 25.1161 44.55 25.9381L46.0816 25.7992L47.4989 22.9893C46.6804 22.1056 45.3153 22.1044 44.49 22.9294Z" fill="#7CE2F8"/>
<path d="M44.5469 25.9381C45.3829 26.7128 46.6579 26.6672 47.4413 25.8838C48.2237 25.1012 48.2714 23.8264 47.4957 22.9893L44.5469 25.9381Z" fill="#47C8E4"/>
</svg>
