<svg width="49" height="50" viewBox="0 0 49 50" fill="none" xmlns="http://www.w3.org/2000/svg">
<circle cx="24.0379" cy="25.9598" r="23.7975" fill="#484848" stroke="#484848" stroke-width="0.480758"/>
<circle cx="24.0379" cy="24.0379" r="23.7975" fill="#F6E702" stroke="#484848" stroke-width="0.480758"/>
<path fill-rule="evenodd" clip-rule="evenodd" d="M24.1099 15.043C20.9662 15.043 18.4102 17.6218 18.4102 20.8026C18.4102 21.8801 18.8847 23.2168 19.5754 24.5501C21.0962 27.4861 23.6294 30.4432 23.6294 30.4432C23.7493 30.5833 23.9249 30.6644 24.1099 30.6644C24.2948 30.6644 24.4704 30.5833 24.5903 30.4432C24.5903 30.4432 27.1235 27.4861 28.6443 24.5501C29.335 23.2168 29.8096 21.8801 29.8096 20.8026C29.8096 17.6218 27.2536 15.043 24.1099 15.043ZM24.1099 16.3096C26.5586 16.3096 28.543 18.3252 28.543 20.8026C28.543 22.0405 27.7577 23.6533 26.8508 25.1572C25.878 26.77 24.7398 28.2511 24.1099 29.0347C23.4799 28.2511 22.3417 26.77 21.3689 25.1572C20.462 23.6533 19.6768 22.0405 19.6768 20.8026C19.6768 18.3252 21.6611 16.3096 24.1099 16.3096Z" fill="#484848"/>
<path fill-rule="evenodd" clip-rule="evenodd" d="M24.1112 18.4219C22.8294 18.4219 21.7891 19.4622 21.7891 20.744C21.7891 22.0258 22.8294 23.0661 24.1112 23.0661C25.393 23.0661 26.4333 22.0258 26.4333 20.744C26.4333 19.4622 25.393 18.4219 24.1112 18.4219ZM24.1112 19.6885C24.6938 19.6885 25.1667 20.1613 25.1667 20.744C25.1667 21.3266 24.6938 21.7995 24.1112 21.7995C23.5285 21.7995 23.0557 21.3266 23.0557 20.744C23.0557 20.1613 23.5285 19.6885 24.1112 19.6885Z" fill="#484848"/>
<path fill-rule="evenodd" clip-rule="evenodd" d="M28.1508 28.6622C28.8373 28.8682 29.403 29.1232 29.794 29.4221C30.0473 29.6146 30.2331 29.8029 30.2331 30.0326C30.2331 30.1677 30.1562 30.2902 30.0481 30.4126C29.8691 30.6144 29.6031 30.796 29.2738 30.9648C28.1102 31.5601 26.2289 31.9325 24.1112 31.9325C21.9934 31.9325 20.1121 31.5601 18.9485 30.9648C18.6192 30.796 18.3532 30.6144 18.1742 30.4126C18.0661 30.2902 17.9893 30.1677 17.9893 30.0326C17.9893 29.8029 18.175 29.6146 18.4283 29.4221C18.8193 29.1232 19.3851 28.8682 20.0715 28.6622C20.4059 28.5617 20.5959 28.2079 20.4954 27.8735C20.395 27.5383 20.0412 27.3483 19.7068 27.4488C18.6614 27.7637 17.8491 28.1952 17.361 28.6723C16.9321 29.0903 16.7227 29.5581 16.7227 30.0326C16.7227 30.6254 17.0579 31.2165 17.7393 31.7096C18.935 32.5743 21.3365 33.1991 24.1112 33.1991C26.8859 33.1991 29.2873 32.5743 30.483 31.7096C31.1644 31.2165 31.4997 30.6254 31.4997 30.0326C31.4997 29.5581 31.2903 29.0903 30.8613 28.6723C30.3732 28.1952 29.5609 27.7637 28.5156 27.4488C28.1812 27.3483 27.8274 27.5383 27.7269 27.8735C27.6264 28.2079 27.8164 28.5617 28.1508 28.6622Z" fill="#484848"/>
</svg>
