<svg width="2276" height="400" viewBox="0 0 2276 400" fill="none" xmlns="http://www.w3.org/2000/svg">
<g opacity="0.2">
<path d="M266.588 149.895C291.095 122.77 306.001 86.8486 306.001 47.4025C306.001 131.901 374.486 200.386 458.984 200.386C374.486 200.386 306.001 268.871 306.001 353.37C306.001 313.957 291.095 278.036 266.588 250.911C263.701 253.496 260.881 256.114 258.128 258.833C221.939 295.023 199.647 344.876 199.647 400C199.647 344.876 177.289 295.023 141.167 258.833C105.044 222.812 55.1238 200.42 3.84388e-06 200.42C55.1238 200.42 105.044 178.061 141.167 141.939C177.289 105.816 199.647 55.896 199.647 0.872969C199.647 60.126 225.531 113.336 266.555 149.895L266.588 149.895ZM153.118 153.924C124.415 182.627 84.7335 200.42 40.8896 200.42C84.6999 200.42 124.415 218.212 153.118 246.916C181.888 275.619 199.681 315.3 199.681 359.144C199.681 311.171 220.999 268.2 254.671 239.094C227.646 215.057 192.06 200.42 153.017 200.42C192.027 200.42 227.579 185.816 254.603 161.779C251.716 159.262 248.863 156.677 246.143 153.991C217.44 125.288 199.647 85.6065 199.647 41.6954C199.647 85.6065 181.855 125.288 153.084 153.991L153.118 153.924Z" fill="url(#paint0_linear_1_7)" fill-opacity="0.25"/>
</g>
<g opacity="0.2">
<path d="M2009.4 149.887C1984.89 122.76 1969.99 86.838 1969.99 47.3906C1969.99 131.892 1901.5 200.379 1817 200.379C1901.5 200.379 1969.99 268.867 1969.99 353.368C1969.99 313.954 1984.89 278.032 2009.4 250.906C2012.29 253.491 2015.11 256.109 2017.86 258.829C2054.05 295.02 2076.35 344.874 2076.35 400C2076.35 344.874 2098.7 295.02 2134.83 258.829C2170.95 222.806 2220.87 200.413 2276 200.413C2220.87 200.413 2170.95 178.054 2134.83 141.93C2098.7 105.806 2076.35 55.8843 2076.35 0.859419C2076.35 60.1145 2050.46 113.326 2009.44 149.887L2009.4 149.887ZM2122.88 153.915C2151.58 182.62 2191.26 200.413 2235.11 200.413C2191.3 200.413 2151.58 218.206 2122.88 246.911C2094.11 275.615 2076.31 315.297 2076.31 359.143C2076.31 311.168 2054.99 268.195 2021.32 239.088C2048.35 215.05 2083.93 200.413 2122.98 200.413C2083.97 200.413 2048.41 185.809 2021.39 161.771C2024.28 159.253 2027.13 156.668 2029.85 153.982C2058.55 125.278 2076.35 85.5958 2076.35 41.6833C2076.35 85.5958 2094.14 125.278 2122.91 153.982L2122.88 153.915Z" fill="url(#paint1_linear_1_7)" fill-opacity="0.25"/>
</g>
<defs>
<linearGradient id="paint0_linear_1_7" x1="458.984" y1="400" x2="245.095" y2="-92.9664" gradientUnits="userSpaceOnUse">
<stop stop-color="#FED7D0"/>
<stop offset="0.528802" stop-color="#605BFF"/>
<stop offset="0.65769" stop-color="#4285F4"/>
<stop offset="1" stop-color="#ECA093"/>
</linearGradient>
<linearGradient id="paint1_linear_1_7" x1="1817" y1="400" x2="2030.9" y2="-92.9831" gradientUnits="userSpaceOnUse">
<stop stop-color="#FED7D0"/>
<stop offset="0.528802" stop-color="#605BFF"/>
<stop offset="0.65769" stop-color="#4285F4"/>
<stop offset="1" stop-color="#ECA093"/>
</linearGradient>
</defs>
</svg>
