<svg
  xmlns="http://www.w3.org/2000/svg"
  width="100%"
  height="100%"
  viewBox="0 0 13 13"
  fill="none"
>
  <path
    d="M7.69115 6.5001L12.7532 1.4379C13.0826 1.10862 13.0826 0.576231 12.7532 0.246956C12.4239 -0.0823187 11.8915 -0.0823187 11.5623 0.246956L6.50006 5.30915L1.43801 0.246956C1.10858 -0.0823187 0.576347 -0.0823187 0.247072 0.246956C-0.0823573 0.576231 -0.0823573 1.10862 0.247072 1.4379L5.30911 6.5001L0.247072 11.5623C-0.0823573 11.8916 -0.0823573 12.424 0.247072 12.7532C0.41117 12.9175 0.626933 13 0.842543 13C1.05815 13 1.27376 12.9175 1.43801 12.7532L6.50006 7.69104L11.5623 12.7532C11.7265 12.9175 11.9421 13 12.1577 13C12.3733 13 12.5889 12.9175 12.7532 12.7532C13.0826 12.424 13.0826 11.8916 12.7532 11.5623L7.69115 6.5001Z"
    fill="#484848"
  />
</svg>