<svg width="106" height="95" viewBox="0 0 106 95" fill="none" xmlns="http://www.w3.org/2000/svg">
<path d="M15.7532 60.6875C15.2376 60.6867 14.7237 60.628 14.2212 60.5124L8.21356 59.1272C5.87425 58.5957 3.7859 57.2829 2.29282 55.4052C0.799727 53.5276 -0.00896233 51.1972 7.49303e-05 48.7982V41.7893C-0.00896233 39.3904 0.799727 37.06 2.29282 35.1823C3.7859 33.3047 5.87425 31.9919 8.21356 31.4603L14.2212 30.0751C15.2099 29.8469 16.2374 29.8447 17.2271 30.0687C18.2168 30.2927 19.1432 30.7371 19.9373 31.3688C20.7315 32.0005 21.3728 32.8032 21.8137 33.7171C22.2546 34.6311 22.4836 35.6327 22.4836 36.6474V53.9401C22.483 55.7265 21.7742 57.4398 20.5127 58.7046C19.2511 59.9693 17.5396 60.6824 15.7532 60.6875ZM9.51597 37.0952C8.45253 37.3363 7.50306 37.9328 6.82422 38.7862C6.14537 39.6396 5.77771 40.6989 5.78189 41.7893V48.7982C5.77771 49.8887 6.14537 50.948 6.82422 51.8014C7.50306 52.6547 8.45253 53.2512 9.51597 53.4924L15.5236 54.8776C15.6647 54.9134 15.8122 54.9154 15.9542 54.8834C16.0961 54.8513 16.2285 54.7861 16.3405 54.6932C16.4544 54.6038 16.5462 54.4894 16.6089 54.3589C16.6716 54.2283 16.7034 54.0851 16.7018 53.9403V36.6474C16.7034 36.5026 16.6716 36.3594 16.6089 36.2289C16.5462 36.0983 16.4544 35.9839 16.3405 35.8946C16.2285 35.8016 16.0961 35.7364 15.9542 35.7044C15.8122 35.6723 15.6647 35.6743 15.5236 35.7101L9.51597 37.0952Z" fill="#484848"/>
<path d="M90.2505 60.6875C88.4641 60.6824 86.7526 59.9693 85.491 58.7046C84.2294 57.4398 83.5207 55.7265 83.5201 53.9401V36.6474C83.5201 35.6327 83.7491 34.6311 84.19 33.7171C84.6308 32.8032 85.2722 32.0005 86.0664 31.3688C86.8605 30.7371 87.7869 30.2927 88.7766 30.0687C89.7663 29.8447 90.7938 29.8469 91.7825 30.0751L97.7902 31.4603C100.129 31.9919 102.218 33.3047 103.711 35.1824C105.204 37.06 106.013 39.3904 106.004 41.7893V48.7983C106.013 51.1972 105.204 53.5276 103.711 55.4052C102.218 57.2829 100.129 58.5957 97.7902 59.1272L91.7825 60.5124C91.2801 60.6282 90.7661 60.6869 90.2505 60.6875ZM90.2582 35.6838C90.0419 35.6854 89.8325 35.7596 89.6634 35.8946C89.5495 35.984 89.4577 36.0983 89.395 36.2289C89.3324 36.3594 89.3006 36.5026 89.3021 36.6474V53.9401C89.3017 54.085 89.3341 54.228 89.3969 54.3585C89.4597 54.489 89.5511 54.6036 89.6645 54.6938C89.7778 54.784 89.91 54.8473 90.0513 54.8791C90.1926 54.9109 90.3393 54.9103 90.4803 54.8774L96.4879 53.4922C97.5513 53.251 98.5007 52.6545 99.1795 51.8012C99.8583 50.9479 100.226 49.8886 100.222 48.7983V41.7893C100.226 40.6989 99.8583 39.6397 99.1795 38.7863C98.5006 37.933 97.5512 37.3365 96.4878 37.0954L90.4801 35.7101C90.4073 35.6927 90.3331 35.6839 90.2582 35.6838Z" fill="#484848"/>
<path d="M86.4035 43.3655C85.6368 43.3653 84.9016 43.0607 84.3596 42.5186C83.8174 41.9764 83.5128 41.2412 83.5126 40.4746V36.2982C83.5126 28.2048 80.2975 20.4428 74.5745 14.7199C68.8516 8.99692 61.0897 5.78181 52.9962 5.78181C44.9028 5.78181 37.1408 8.99692 31.4179 14.7199C25.6949 20.4428 22.4798 28.2048 22.4798 36.2982V40.4746C22.4798 41.2413 22.1752 41.9766 21.6331 42.5188C21.0909 43.0609 20.3556 43.3655 19.5889 43.3655C18.8222 43.3655 18.0869 43.0609 17.5447 42.5188C17.0026 41.9766 16.698 41.2413 16.698 40.4746V36.2982C16.698 26.6713 20.5223 17.4387 27.3295 10.6315C34.1367 3.82426 43.3693 0 52.9962 0C62.6231 0 71.8557 3.82426 78.6629 10.6315C85.4701 17.4387 89.2944 26.6713 89.2944 36.2982V40.4746C89.2942 41.2412 88.9896 41.9764 88.4475 42.5186C87.9053 43.0607 87.1702 43.3653 86.4035 43.3655Z" fill="#484848"/>
<path d="M54.9272 94.4353C53.2119 94.4353 51.5351 93.9266 50.1089 92.9737C48.6827 92.0207 47.571 90.6662 46.9146 89.0815C46.2582 87.4967 46.0865 85.7529 46.4211 84.0706C46.7557 82.3883 47.5817 80.8429 48.7946 79.63C50.0075 78.4171 51.5529 77.5911 53.2352 77.2565C54.9176 76.9219 56.6614 77.0936 58.2461 77.75C59.8308 78.4064 61.1853 79.518 62.1383 80.9443C63.0912 82.3705 63.5999 84.0473 63.5999 85.7626C63.5971 88.0618 62.6824 90.2661 61.0566 91.892C59.4307 93.5178 57.2265 94.4324 54.9272 94.4353ZM54.9272 82.8717C54.3554 82.8717 53.7965 83.0412 53.3211 83.3589C52.8457 83.6765 52.4751 84.128 52.2563 84.6563C52.0375 85.1845 51.9803 85.7658 52.0918 86.3266C52.2034 86.8873 52.4787 87.4024 52.883 87.8067C53.2873 88.211 53.8024 88.4864 54.3632 88.5979C54.924 88.7095 55.5052 88.6522 56.0335 88.4334C56.5617 88.2146 57.0132 87.8441 57.3309 87.3687C57.6485 86.8933 57.8181 86.3343 57.8181 85.7626C57.8169 84.9962 57.512 84.2616 56.9701 83.7197C56.4282 83.1778 55.6935 82.8728 54.9272 82.8717Z" fill="#009A73"/>
<path d="M72.6578 67.4583H53.6674C46.9466 67.5414 40.4475 65.0563 35.4968 60.5103C30.5461 55.9642 27.5171 49.7001 27.0282 42.9966C26.8003 39.1829 27.4148 35.3657 28.8281 31.8162C30.2414 28.2667 32.4189 25.0719 35.2059 22.4586C37.9929 19.8454 41.3211 17.8777 44.9541 16.6955C48.5871 15.5132 52.4358 15.1453 56.227 15.6178C60.8968 16.1968 65.3219 18.0325 69.0301 20.9293C72.7384 23.826 75.5907 27.6751 77.2828 32.0659C78.9749 36.4567 79.4433 41.2245 78.638 45.8607C77.8328 50.4968 75.7841 54.8274 72.7105 58.3904L75.0895 60.1728C75.7692 60.6827 76.2712 61.3936 76.5244 62.2047C76.7776 63.0158 76.7691 63.8861 76.5 64.6921C76.231 65.4981 75.7151 66.1991 75.0255 66.6955C74.3359 67.192 73.5075 67.4589 72.6578 67.4583ZM53.0388 21.2076C50.2755 21.2016 47.5404 21.7618 45.002 22.8536C42.4635 23.9454 40.1757 25.5457 38.2796 27.5557C36.3835 29.5658 34.9193 31.943 33.9772 34.5407C33.0352 37.1384 32.6354 39.9016 32.8025 42.6598C33.2038 47.8909 35.5864 52.7715 39.464 56.3056C43.3415 59.8397 48.4216 61.7606 53.6674 61.6765H67.4557L66.5974 61.0347C66.255 60.777 65.9741 60.4465 65.7749 60.067C65.5757 59.6876 65.4632 59.2687 65.4456 58.8405C65.428 58.4123 65.5056 57.9856 65.6729 57.591C65.8402 57.1965 66.0929 56.844 66.413 56.559C69.3285 53.9836 71.4388 50.6215 72.4905 46.8763C73.5423 43.1311 73.4907 39.1619 72.3421 35.4452C71.1935 31.7285 68.9967 28.4223 66.0153 25.9235C63.0339 23.4247 59.3947 21.8394 55.5345 21.358C54.7064 21.2575 53.873 21.2073 53.0388 21.2076Z" fill="#484848"/>
<path d="M52.9992 44.3248C54.5958 44.3248 55.8901 43.0305 55.8901 41.4339C55.8901 39.8373 54.5958 38.543 52.9992 38.543C51.4026 38.543 50.1083 39.8373 50.1083 41.4339C50.1083 43.0305 51.4026 44.3248 52.9992 44.3248Z" fill="#009A73"/>
<path d="M43.3628 44.3248C44.9594 44.3248 46.2537 43.0305 46.2537 41.4339C46.2537 39.8373 44.9594 38.543 43.3628 38.543C41.7662 38.543 40.4719 39.8373 40.4719 41.4339C40.4719 43.0305 41.7662 44.3248 43.3628 44.3248Z" fill="#009A73"/>
<path d="M62.6355 44.3248C64.2321 44.3248 65.5264 43.0305 65.5264 41.4339C65.5264 39.8373 64.2321 38.543 62.6355 38.543C61.0389 38.543 59.7446 39.8373 59.7446 41.4339C59.7446 43.0305 61.0389 44.3248 62.6355 44.3248Z" fill="#009A73"/>
<path d="M47.062 83.3553C40.4263 83.4294 33.9114 81.5794 28.305 78.029C25.0486 75.923 22.1892 73.2592 19.8581 70.1599C19.629 69.8574 19.4617 69.5127 19.3658 69.1455C19.2699 68.7784 19.2472 68.3959 19.2991 68.02C19.351 67.644 19.4765 67.282 19.6683 66.9546C19.8601 66.6271 20.1146 66.3406 20.4171 66.1115C20.7196 65.8824 21.0643 65.7151 21.4315 65.6192C21.7987 65.5233 22.1811 65.5006 22.5571 65.5525C22.933 65.6045 23.295 65.7299 23.6225 65.9217C23.9499 66.1135 24.2364 66.368 24.4655 66.6705C26.3911 69.2279 28.7507 71.4276 31.4368 73.1693C37.7435 77.031 45.2498 78.4397 52.5276 77.1273C53.2838 77.0025 54.0587 77.1832 54.6817 77.6297C55.3046 78.0762 55.7247 78.7519 55.8495 79.5082C55.9743 80.2644 55.7936 81.0392 55.3471 81.6622C54.9006 82.2852 54.2249 82.7053 53.4686 82.8301C51.351 83.1799 49.2083 83.3556 47.062 83.3553Z" fill="#009A73"/>
</svg>
