<svg width="122" height="33" viewBox="0 0 122 33" fill="none" xmlns="http://www.w3.org/2000/svg">
<g clip-path="url(#clip0_2574_712)">
<path d="M107.158 21.3845L107.158 21.3843C106.663 21.1114 106.485 20.4918 106.755 19.9965L106.756 19.9948L106.756 19.9948C107.029 19.5006 107.651 19.3208 108.145 19.5929L107.158 21.3845ZM107.158 21.3845L110.708 23.3378C110.709 23.3378 110.709 23.3379 110.709 23.3379C110.709 23.3379 110.709 23.338 110.709 23.338C111.203 23.6101 111.825 23.4303 112.098 22.9361L111.66 22.6947L112.096 22.9386C112.184 22.7818 112.226 22.6103 112.226 22.4422C112.226 22.082 112.033 21.7314 111.695 21.5462C111.695 21.5462 111.695 21.5461 111.695 21.546L108.145 19.5931L107.158 21.3845Z" fill="#E1E1E1" stroke="#E1E1E1"/>
<path d="M119.965 26.099C120.303 26.2842 120.496 26.6347 120.496 26.9949C120.496 27.163 120.454 27.3346 120.366 27.4913L119.93 27.2474L120.367 27.4888C120.095 27.9831 119.472 28.1629 118.978 27.8906L118.978 27.8907L119.219 27.4526L118.978 27.8905L115.428 25.9372L115.427 25.937C114.932 25.6641 114.754 25.0445 115.025 24.5493L115.026 24.5476L115.026 24.5476C115.298 24.0533 115.92 23.8735 116.415 24.1456L119.965 26.099ZM119.965 26.099C119.965 26.0989 119.965 26.0988 119.965 26.0987L116.415 24.1459L119.965 26.099Z" fill="#E1E1E1" stroke="#E1E1E1"/>
<path d="M111.203 30.1451L111.204 30.1447L113.156 26.5951C113.243 26.4388 113.285 26.2679 113.285 26.1004C113.285 25.7403 113.092 25.3898 112.755 25.2046C112.261 24.9325 111.638 25.1124 111.366 25.6065L111.366 25.607L109.412 29.1577L109.412 29.1577L109.411 29.159C109.141 29.6543 109.319 30.2739 109.814 30.5467C110.308 30.8192 110.931 30.6395 111.203 30.1451Z" fill="#E1E1E1" stroke="#E1E1E1"/>
<path d="M115.757 21.8755L115.757 21.8751L117.71 18.3256C117.797 18.1693 117.839 17.9983 117.839 17.8309C117.839 17.4707 117.646 17.1202 117.308 16.935C116.814 16.663 116.192 16.8428 115.919 17.337L115.919 17.3374L113.966 20.8878C113.966 20.8879 113.966 20.888 113.966 20.888C113.966 20.8881 113.966 20.8881 113.966 20.8882C113.694 21.3823 113.873 22.0047 114.368 22.2772C114.862 22.5497 115.484 22.3699 115.757 21.8755Z" fill="#E1E1E1" stroke="#E1E1E1"/>
<path d="M83.1865 19.8269C82.9329 20.5693 82.1506 20.9965 81.385 20.8099L81.3839 20.8097C57.119 14.8672 33.6536 14.4931 11.6235 19.6723L83.1865 19.8269ZM83.1865 19.8269L83.2706 19.7428L83.2706 19.3288C83.2706 18.639 82.8024 18.0217 82.1121 17.8508L82.1096 17.8502C57.4071 11.8027 33.4551 11.41 10.9272 16.7085L10.9271 16.7086C10.1103 16.9008 9.60011 17.7214 9.7937 18.5395C9.9861 19.355 10.803 19.8652 11.6233 19.6723L83.1865 19.8269Z" fill="#E1E1E1" stroke="#E1E1E1" stroke-width="2"/>
<path d="M91.5233 13.0814L91.5266 13.0714L91.5297 13.0613C91.5692 12.9314 91.599 12.7781 91.599 12.6073L91.599 12.605C91.599 11.9638 91.1925 11.3728 90.5566 11.1608L90.5535 11.1598C44.8715 -3.90204 3.52169 9.44868 3.04247 9.60842L3.04247 9.60841L3.04002 9.60924C2.25673 9.87258 1.80673 10.7221 2.07735 11.5339C2.34433 12.3349 3.20422 12.7607 3.99795 12.5007L3.99795 12.5007L3.99957 12.5001C4.34273 12.3871 44.8727 -0.693112 89.5993 14.0525L89.6035 14.0539C90.3976 14.3118 91.26 13.8853 91.5233 13.0814Z" fill="#E1E1E1" stroke="#E1E1E1" stroke-width="2"/>
</g>
<defs>
<clipPath id="clip0_2574_712">
<rect width="33" height="122" fill="white" transform="translate(0 33) rotate(-90)"/>
</clipPath>
</defs>
</svg>
