<svg width="50" height="48" viewBox="0 0 50 48" fill="fill-current" xmlns="http://www.w3.org/2000/svg">
<path fill-rule="evenodd" clip-rule="evenodd" d="M8.25761 13.2457C6.84323 17.4242 10.5203 21.5404 11.9815 25.7616C13.1725 29.2024 13.6434 32.8339 16.0103 35.6427C18.5799 38.6919 21.8707 41.2334 25.7694 42.1234C29.8508 43.055 34.5939 43.1291 37.849 40.6278C40.9954 38.2101 40.6027 33.5318 41.8347 29.7786C42.8534 26.6752 45.057 23.8108 44.4314 20.5754C43.8076 17.3494 41.0278 15.063 38.5564 12.8249C36.157 10.652 33.4836 9.02474 30.4404 7.90505C26.6331 6.5042 22.7216 4.62303 18.8186 5.5627C14.4379 6.61737 9.68111 9.04016 8.25761 13.2457Z" fill="fill-current" fill-opacity="0.56"/>
<path d="M28.4808 32.3839C23.1315 32.5925 18.0669 33.9835 13.5545 36.2889L7.75197 39.6394C6.21742 40.5242 4.25768 39.9932 3.37701 38.4665L0.428113 33.3604C-0.454447 31.831 0.0715963 29.868 1.60098 28.9854L6.40834 26.2094C6.68672 26.0487 7.04272 26.144 7.20352 26.4225L10.981 32.9653C11.1446 33.2485 11.5102 33.3425 11.7909 33.1695C12.0624 33.0022 12.1365 32.6385 11.9771 32.3623L8.1723 25.7722C8.02118 25.5105 8.09539 25.1763 8.34386 25.0041C12.3126 22.2525 15.6703 18.7479 18.2488 14.6607C19.2257 13.111 21.5019 13.1525 22.4201 14.7422L30.4955 28.7307C31.4133 30.317 30.3145 32.3126 28.4808 32.3839ZM29.5171 22.6414C29.816 20.9303 28.8131 19.2141 27.1921 18.6266C26.6826 18.442 26.2204 18.9965 26.4913 19.4658C27.1362 20.5832 27.7834 21.7044 28.4379 22.8375C28.7113 23.3108 29.423 23.1799 29.5171 22.6414ZM16.0806 43.2373L13.3184 38.4423C13.1579 38.1636 12.8015 38.0681 12.5229 38.2288C11.0259 39.0926 10.9693 39.1261 8.97242 40.2787C8.69398 40.4395 8.59823 40.7957 8.75902 41.0741L11.526 45.8661C11.8806 46.4797 12.5185 46.8134 13.1681 46.8134C13.7982 46.8134 14.0392 46.6002 15.388 45.8217C16.2916 45.3 16.6023 44.1402 16.0806 43.2373ZM33.767 18.2157C34.0454 18.055 34.1409 17.699 33.9801 17.4206C33.8194 17.1423 33.4636 17.0468 33.185 17.2076L31.6789 18.0771C31.1635 18.3747 31.3791 19.1634 31.9706 19.1634C32.1775 19.1633 32.1361 19.1573 33.767 18.2157ZM28.4148 15.1995L28.7821 13.829C28.8653 13.5185 28.681 13.1994 28.3705 13.1161C28.0598 13.033 27.7408 13.2172 27.6576 13.5277L27.2903 14.8982C27.1914 15.2672 27.4695 15.6311 27.8529 15.6311C28.1098 15.631 28.3451 15.4595 28.4148 15.1995ZM34.9031 24.4309C34.9863 24.1203 34.8019 23.8011 34.4915 23.718L33.1209 23.3508C32.8105 23.2677 32.4913 23.4519 32.408 23.7624C32.3248 24.0728 32.5092 24.392 32.8196 24.4752C34.3185 24.8769 34.2362 24.8625 34.3412 24.8625C34.5981 24.8625 34.8334 24.6909 34.9031 24.4309Z" fill="#484848"/>
</svg>
