<svg width="26" height="32" viewBox="0 0 26 32" fill="fill-current" xmlns="http://www.w3.org/2000/svg">
<path d="M21.7154 0H4.43574C2.24945 0 0.484375 1.7578 0.484375 3.93508V5.90262H2.71078C3.9343 5.90262 4.93718 6.89139 4.93718 8.11985C4.93718 9.34831 3.94432 10.3371 2.71078 10.3371H0.484375V13.7828H2.71078C3.9343 13.7828 4.93718 14.7715 4.93718 16C4.93718 17.2185 3.94432 18.2172 2.71078 18.2172H0.484375V21.6629H2.71078C3.9343 21.6629 4.93718 22.6517 4.93718 23.8801C4.93718 25.0986 3.94432 26.0974 2.71078 26.0974H0.484375V28.0649C0.484375 30.2422 2.24945 32 4.43574 32H21.7154C23.8917 32 25.6668 30.2422 25.6668 28.0649V3.93508C25.6568 1.7578 23.8917 0 21.7154 0ZM13.8127 7.87016C15.9188 7.87016 17.6237 9.56804 17.6237 11.6654C17.6237 13.7628 15.9188 15.4607 13.8127 15.4607C11.7066 15.4607 10.0017 13.7628 10.0017 11.6654C10.0017 9.56804 11.7066 7.87016 13.8127 7.87016ZM19.7397 22.6217H7.88566V20.9338C7.88566 18.6067 9.78111 16.7191 12.1178 16.7191H15.5076C17.8443 16.7191 19.7397 18.6067 19.7397 20.9338V22.6217Z" fill="fill-current"/>
</svg>
