<svg width="24" height="24" viewBox="0 0 24 24" fill="none" xmlns="http://www.w3.org/2000/svg">
<path d="M24 12C24 18.6274 18.6274 24 12 24C5.37258 24 -1.67251e-06 18.6274 -1.38281e-06 12C-1.09312e-06 5.37258 5.37258 -2.72158e-06 12 -2.43189e-06C18.6274 -2.14219e-06 24 5.37258 24 12ZM1.09092 12C1.09092 18.0249 5.97506 22.9091 12 22.9091C18.0249 22.9091 22.9091 18.0249 22.9091 12C22.9091 5.97506 18.0249 1.09092 12 1.09092C5.97506 1.09092 1.09092 5.97506 1.09092 12Z" fill="#484848"/>
<path d="M14.1818 6.00004C14.1826 6.14503 14.1257 6.28438 14.0236 6.38732L8.91819 12L14.0236 17.6128C14.2524 17.8087 14.2791 18.153 14.0831 18.3818C13.8872 18.6106 13.5428 18.6373 13.314 18.4413C13.2927 18.423 13.2728 18.4032 13.2545 18.3818L7.79998 12.3818C7.58848 12.1691 7.58848 11.8255 7.79998 11.6128L13.2545 5.61276C13.4697 5.40187 13.815 5.40534 14.0259 5.62045C14.1253 5.72188 14.1812 5.85806 14.1818 6.00004Z" fill="#484848"/>
</svg>
