<svg width="1920" height="1342" viewBox="0 0 1920 1342" fill="none" xmlns="http://www.w3.org/2000/svg">
<rect width="1920" height="982" transform="matrix(-1 0 0 1 1919 360.004)" fill="#2F5EC3"/>
<path d="M-1 110.596C-1 110.596 286.693 -43.3113 789.63 121.655C1480.83 348.369 1919 0.00390625 1919 0.00390625V483.127H-1V110.596Z" fill="#2F5EC3"/>
<path d="M-1 110.596C-1 110.596 286.693 -43.3112 789.63 121.655C1480.83 348.369 1919 94.0072 1919 94.0072V483.127H-1V110.596Z" fill="#4470CF"/>
<path d="M-1 193.539C-1 193.539 289.458 -12.899 792.395 152.067C1483.6 378.781 1919 94.0066 1919 94.0066V483.127H-1V193.539Z" fill="#2F5EC3"/>
<path d="M510.191 927.721C466.292 945.801 396.932 909.509 376.65 860.385C337.943 766.614 484.155 640.718 534.259 657.453C590.254 676.157 590.787 894.529 510.183 927.72L510.191 927.721Z" stroke="#0F31AC" stroke-opacity="0.2" stroke-width="15.5375" stroke-miterlimit="10" stroke-linecap="round" stroke-dasharray="38.84 38.84 38.84 38.84 38.84 38.84"/>
<path d="M305.721 709.616C289.969 717.727 123.153 803.614 34.9819 724.851C-26.929 669.549 -22.0889 558.054 29.4227 497.777C131.447 378.404 426.234 448.608 452.752 538.904C470.61 599.709 368.989 677.037 305.713 709.615L305.721 709.616Z" stroke="#0F31AC" stroke-opacity="0.2" stroke-width="15.5375" stroke-miterlimit="10" stroke-linecap="round" stroke-dasharray="38.84 38.84 38.84 38.84 38.84 38.84"/>
<path d="M1711.64 285.753C1693.58 317.702 1714.8 374.373 1750.55 394.622C1818.78 433.268 1929.32 333.129 1921.27 293.097C1912.26 248.356 1744.8 227.097 1711.64 285.759L1711.64 285.753Z" stroke="#0F31AC" stroke-opacity="0.2" stroke-width="12.0108" stroke-miterlimit="10" stroke-linecap="round" stroke-dasharray="30.03 30.03 30.03 30.03 30.03 30.03"/>
<path d="M1859.44 463.426C1851.72 474.735 1769.91 594.499 1821.91 669.656C1858.42 722.428 1944.41 729.361 1995.56 695.602C2096.88 628.737 2071.17 395.902 2004.44 366.938C1959.5 347.433 1890.48 418.004 1859.44 463.432L1859.44 463.426Z" stroke="#0F31AC" stroke-opacity="0.2" stroke-width="12.0108" stroke-miterlimit="10" stroke-linecap="round" stroke-dasharray="30.03 30.03 30.03 30.03 30.03 30.03"/>
</svg>
