<svg width="54" height="64" viewBox="0 0 54 64" fill="none" xmlns="http://www.w3.org/2000/svg">
<path d="M53.8678 37.2156L49.0517 28.8742C48.9394 28.6796 48.7639 28.5291 48.5545 28.4477L38.386 24.4939C38.7025 23.4257 38.8733 22.2955 38.8733 21.1261C38.8733 14.5791 33.547 9.25284 27 9.25284C20.4531 9.25284 15.1268 14.5791 15.1268 21.1261C15.1268 22.2957 15.2976 23.4257 15.614 24.4939L5.4456 28.4477C5.23616 28.5291 5.06065 28.6796 4.94833 28.8742L0.132255 37.2156C-0.0117793 37.4651 -0.0396728 37.7651 0.0559798 38.0369C0.151509 38.3087 0.361081 38.5251 0.629525 38.6296L4.8159 40.2574V53.8437C4.8159 54.2509 5.06596 54.6164 5.4456 54.764L26.6421 63.0058C26.7573 63.0506 26.8786 63.0729 26.9999 63.0729C27.1212 63.0729 27.2427 63.0506 27.3577 63.0058L48.5542 54.764C48.9339 54.6164 49.1839 54.2509 49.1839 53.8437V40.2574L53.3703 38.6296C53.6389 38.5251 53.8483 38.3087 53.9438 38.0369C54.0397 37.7651 54.0118 37.4652 53.8678 37.2156ZM27.0002 11.2276C32.4583 11.2276 36.8987 15.6681 36.8987 21.1261C36.8987 26.5841 32.4582 31.0246 27.0002 31.0246C21.5422 31.0246 17.1016 26.5841 17.1016 21.1261C17.1016 15.6681 21.542 11.2276 27.0002 11.2276ZM27.0002 32.9994C31.7048 32.9994 35.7791 30.2489 37.6995 26.2715L45.4918 29.3603L27.0002 36.5504L8.50834 29.3603L16.3006 26.2715C18.2211 30.2489 22.2954 32.9994 27.0002 32.9994ZM2.41817 37.2061L6.23514 30.5951L25.5694 38.1129L21.7525 44.724L2.41817 37.2061ZM6.79091 41.0252L21.8264 46.8715C22.2805 47.0478 22.7956 46.8669 23.0393 46.4449L26.0128 41.2947V60.6422L6.79091 53.1683V41.0252ZM47.2094 53.1683L27.9875 60.6422V41.2947L30.961 46.445C31.2048 46.867 31.7198 47.0481 32.1739 46.8716L47.2094 41.0253V53.1683ZM32.2478 44.724L28.4307 38.1129L47.7652 30.5951L51.5821 37.2061L32.2478 44.724ZM24.5434 27.5399C25.2269 27.5399 25.8702 27.2731 26.3547 26.7886L34.0518 19.0916C35.0519 18.0914 35.0519 16.4639 34.0517 15.4635C33.5672 14.979 32.923 14.7122 32.2378 14.7122C31.5527 14.7122 30.9085 14.979 30.4239 15.4635L24.7581 21.1294L23.2459 19.2266C22.7569 18.6115 22.0254 18.2586 21.239 18.2586C20.663 18.2586 20.0971 18.4563 19.6454 18.8153C18.5395 19.6946 18.3551 21.3098 19.2341 22.4155L22.4559 26.4697C22.9374 27.1406 23.7153 27.54 24.5434 27.5399ZM20.8741 20.361C21.0069 20.2555 21.1457 20.2333 21.2389 20.2333C21.4197 20.2333 21.5877 20.3142 21.6998 20.4552L23.9004 23.2245C24.0755 23.4448 24.3362 23.58 24.6172 23.596C24.8975 23.6117 25.1726 23.5074 25.3716 23.3085L31.8201 16.8599C31.9315 16.7483 32.0799 16.687 32.2377 16.687C32.3956 16.687 32.5437 16.7484 32.6551 16.8598C32.8854 17.0902 32.8856 17.465 32.6553 17.6953L24.9582 25.3923C24.8153 25.5351 24.6536 25.5651 24.5432 25.5651C24.3456 25.5651 24.1677 25.4726 24.055 25.3112C24.0433 25.2945 24.0312 25.2782 24.0185 25.2622L20.78 21.1868C20.5783 20.9332 20.6207 20.5627 20.8741 20.361ZM26.0128 5.61582V0.991288C26.0128 0.446007 26.4547 0.00390625 27.0002 0.00390625C27.5454 0.00390625 27.9875 0.446007 27.9875 0.991288V5.61582C27.9875 6.1611 27.5454 6.6032 27.0002 6.6032C26.4547 6.6032 26.0128 6.1611 26.0128 5.61582ZM16.0428 4.05254C15.7702 3.58033 15.9321 2.97642 16.4043 2.70378C16.8764 2.43126 17.4804 2.59295 17.7531 3.06516L20.0653 7.07011C20.3379 7.54232 20.1761 8.14623 19.7039 8.41887C19.5484 8.5086 19.3786 8.5513 19.2111 8.5513C18.8698 8.5513 18.538 8.37419 18.355 8.05749L16.0428 4.05254ZM8.57783 10.3399C8.85047 9.86761 9.45437 9.7058 9.92659 9.97856L13.9315 12.2908C14.4038 12.5634 14.5656 13.1673 14.2929 13.6395C14.1101 13.9562 13.7781 14.1333 13.4369 14.1333C13.2694 14.1333 13.0997 14.0906 12.9442 14.0009L8.93921 11.6887C8.46699 11.4161 8.30519 10.8122 8.57783 10.3399ZM5.61815 20.8662C5.61815 20.3209 6.06013 19.8788 6.60553 19.8788H11.2299C11.7753 19.8788 12.2173 20.3209 12.2173 20.8662C12.2173 21.4115 11.7753 21.8536 11.2299 21.8536H6.60553C6.06013 21.8536 5.61815 21.4116 5.61815 20.8662ZM33.8654 7.32991L36.1776 3.32497C36.4503 2.85263 37.0542 2.6907 37.5264 2.96358C37.9986 3.23622 38.1605 3.84013 37.8879 4.31235L35.5756 8.31729C35.3927 8.634 35.0608 8.81111 34.7195 8.81111C34.552 8.81111 34.3822 8.7684 34.2267 8.67867C33.7546 8.40616 33.5928 7.80225 33.8654 7.32991ZM39.4476 14.0897C39.1749 13.6174 39.3368 13.0135 39.809 12.7409L43.8139 10.4287C44.2861 10.1562 44.89 10.318 45.1627 10.7901C45.4353 11.2623 45.2735 11.8662 44.8013 12.1388L40.7963 14.451C40.6408 14.5408 40.4711 14.5835 40.3036 14.5835C39.9623 14.5835 39.6304 14.4064 39.4476 14.0897ZM42.2506 20.3985H46.875C47.4204 20.3985 47.8624 20.8406 47.8624 21.3859C47.8624 21.9312 47.4204 22.3733 46.875 22.3733H42.2506C41.7052 22.3733 41.2633 21.9312 41.2633 21.3859C41.2633 20.8406 41.7054 20.3985 42.2506 20.3985Z" fill="#FFD667"/>
</svg>
