<svg width="26" height="21" viewBox="0 0 26 21" fill="none" xmlns="http://www.w3.org/2000/svg">
<path d="M17.2991 3.55645C16.8102 3.90029 16.3805 4.24165 15.9614 4.59294C15.8915 4.57945 15.8581 4.52765 15.8152 4.49039C13.6879 2.64841 11.2246 1.99444 8.47001 2.47099C4.87938 3.09267 2.2202 6.03359 1.75252 9.44147C1.33665 12.4739 2.33517 15.0323 4.67499 17.0166C8.52075 20.2779 14.5339 19.3685 17.2161 15.1406C18.1522 13.6648 18.5787 12.0453 18.5035 10.3002C18.4783 9.71364 18.407 9.12886 18.2274 8.56502C18.1877 8.44047 18.2157 8.36241 18.308 8.27192C18.6919 7.8965 19.067 7.51221 19.4583 7.11763C19.6854 7.63889 19.8465 8.15518 19.9683 8.68531C20.1815 9.61535 20.2684 10.5617 20.1599 11.5056C19.6869 15.6189 17.5351 18.5037 13.6851 20.0253C11.0667 21.06 8.42246 20.9372 5.85803 19.7613C3.90427 18.8657 2.39017 17.4651 1.31749 15.5983C0.262194 13.762 -0.167873 11.7816 0.0588704 9.68064C0.406614 6.46117 1.95407 3.93648 4.66505 2.18251C6.84768 0.770244 9.2652 0.319241 11.8339 0.764566C13.8703 1.11763 15.6346 2.02318 17.143 3.43226C17.1859 3.47235 17.2353 3.50606 17.2991 3.55645Z" fill="#25D366"/>
<path d="M9.35205 11.6925C9.39959 11.7219 9.43117 11.7652 9.45708 11.8135C9.43792 11.8443 9.46169 11.8412 9.47979 11.8426C9.61889 11.9377 9.64514 12.1296 9.81582 12.2191C10.0731 11.8962 10.3346 11.5676 10.5965 11.2393L10.6036 11.2468C10.5319 11.4977 10.435 11.7329 10.2171 11.8979C10.1636 11.9384 10.1767 12.003 10.1753 12.0604C10.1497 12.0651 10.1196 12.0643 10.1217 12.103C10.1217 12.1069 10.1288 12.1137 10.1327 12.114C10.1717 12.1165 10.1707 12.086 10.1753 12.0604C10.2998 12.0672 10.3697 12.1105 10.2675 12.2315C10.1593 12.3599 10.2416 12.4046 10.3499 12.411C10.5596 12.4231 10.7384 12.3855 10.8839 12.1871C11.0748 11.9263 11.1255 11.5977 11.3179 11.349C11.6212 10.9562 11.9264 10.5662 12.1695 10.1322C12.2046 10.0698 12.2891 10.001 12.189 9.94134C12.1053 9.89131 12.0265 9.73873 11.8966 9.89024C11.8664 9.92537 11.804 9.93282 11.749 9.95589C11.826 10.1904 11.617 10.0992 11.5265 10.1471L11.5187 10.1393C11.7689 9.86257 12.0194 9.58614 12.2695 9.30937C12.1833 9.50205 12.2869 9.67131 12.3245 9.84624C12.4871 9.87711 12.5215 9.72418 12.6134 9.66243C12.7397 9.57727 12.8916 9.54889 13.0076 9.43321C13.1758 9.26501 13.3795 9.13479 13.5512 8.96517C13.6516 8.86617 13.8078 8.82643 13.9302 8.74659C14.2517 8.53724 14.4649 8.22533 14.6917 7.92656C14.812 7.7683 14.9216 7.60649 15.0838 7.47733C15.2655 7.33255 15.4503 7.18601 15.5901 6.98871C15.8194 6.66581 16.1149 6.42203 16.5067 6.30955C16.5769 6.28932 16.6351 6.22936 16.7011 6.19174C16.9094 6.07252 17.0755 5.88693 17.3108 5.80958C17.5524 5.73009 17.7075 5.53955 17.8224 5.33622C17.9803 5.05625 18.1421 4.84299 18.5119 4.84903C18.7848 4.85328 19.0268 4.67622 19.2947 4.61838C19.3323 4.61022 19.3561 4.56586 19.3639 4.52186C19.393 4.36148 19.5069 4.26389 19.6158 4.15425C19.7386 4.03005 19.9135 4.02118 20.0434 3.91757C20.3223 3.69544 20.4926 3.75505 20.5764 4.09215C20.5976 4.17838 20.6548 4.23977 20.7453 4.25183C20.8407 4.26425 20.9234 4.2238 20.9748 4.14573C21.0288 4.06412 20.9645 3.99989 20.9159 3.94312C20.8386 3.85299 20.752 3.77776 20.6296 3.74512C20.5419 3.7217 20.4848 3.64115 20.5852 3.58296C20.7818 3.46834 20.8783 3.26324 21.0405 3.11599C21.2417 2.93324 21.4727 2.8534 21.709 2.76505C21.8399 2.71608 22.0163 2.7356 22.0993 2.6224C22.2381 2.43363 22.4446 2.41553 22.6323 2.34634C22.6933 2.32363 22.7359 2.34456 22.782 2.41873C22.8491 2.52695 22.8789 2.64298 22.9108 2.78457C23.0265 2.71289 23.1124 2.6476 23.1901 2.54789C23.0581 2.44782 23.2149 2.32256 23.183 2.25621C23.0993 2.08376 23.2341 2.00108 23.2802 1.88398C23.3324 1.75163 23.4282 1.74453 23.5364 1.81763C23.6021 1.86198 23.6769 1.92017 23.738 1.83963C23.8029 1.75375 23.8661 1.65262 23.8061 1.53127C23.7756 1.46953 23.722 1.42766 23.6645 1.45995C23.4538 1.57704 23.1678 1.45143 22.9907 1.67214C22.9701 1.69769 22.9368 1.69556 22.9119 1.67214C22.8835 1.64553 22.8729 1.61288 22.8974 1.57775C22.9197 1.54582 22.974 1.53872 22.9683 1.47449C22.9403 1.43617 22.8644 1.46633 22.8406 1.40885C22.9644 1.33575 23.0986 1.28678 23.2352 1.24385C23.2717 1.28678 23.2905 1.34569 23.3587 1.37408C23.4129 1.28288 23.5904 1.29495 23.5513 1.12604C23.5999 1.10688 23.6486 1.08772 23.6975 1.06891C23.8015 1.10617 23.8824 1.07636 23.9424 0.984815C23.9555 0.978783 23.9686 0.972396 23.9818 0.966364C24.002 0.991557 24.0236 1.03023 24.0588 1.00965C24.0932 0.989428 24.0662 0.965299 24.0417 0.950041C24.0683 0.94046 24.0949 0.930525 24.1216 0.920944C24.1766 0.977364 24.2195 0.913847 24.2685 0.906751C24.2557 0.899299 24.2433 0.892202 24.2305 0.88475C24.4381 0.800653 24.652 0.736072 24.8685 0.680008C24.8909 0.704137 24.9153 0.714072 24.9537 0.688879C24.9338 0.681782 24.9196 0.676814 24.905 0.671846C24.9757 0.650911 25.0463 0.629975 25.1169 0.609039C25.1392 0.632814 25.1637 0.643459 25.1939 0.622878C25.1804 0.615781 25.1669 0.60833 25.1538 0.601233C25.3415 0.550491 25.5292 0.498329 25.7173 0.449716C25.7797 0.433748 25.855 0.413168 25.8894 0.489103C25.9199 0.556168 25.8766 0.616846 25.8273 0.661556C25.7269 0.75275 25.6257 0.844653 25.5182 0.926976C25.1144 1.23604 24.712 1.54653 24.3015 1.84672C23.4871 2.4425 22.7008 3.07376 21.9187 3.71034C21.4571 4.08612 21.0061 4.47502 20.56 4.8689C18.3302 6.83755 16.3584 9.04076 14.559 11.4072C13.5463 12.7389 12.596 14.1175 11.5418 15.4169C11.2689 15.7533 11.0109 16.1102 10.633 16.3405C10.4027 16.481 10.1685 16.6602 9.87082 16.5467C9.73279 16.4942 9.59547 16.4253 9.47837 16.3363C9.13879 16.0783 8.83646 15.7788 8.56359 15.4506C8.68636 15.4304 8.74598 15.3512 8.7112 15.2377C8.68317 15.1458 8.61859 15.0645 8.56678 14.9804C8.53911 14.9357 8.44401 14.9261 8.48801 14.8459C8.52136 14.7849 8.58701 14.7622 8.65372 14.7601C8.76443 14.7569 8.85172 14.7054 8.90566 14.6181C8.96491 14.5223 9.04724 14.4638 9.13985 14.4134C9.43827 14.5599 9.59866 14.522 9.7445 14.2548C9.78921 14.1728 9.84953 14.1991 9.90914 14.1906C9.99431 14.1781 10.1082 14.2353 10.1611 14.1572C10.2686 13.9986 10.4173 13.8875 10.5525 13.7598C10.5958 13.7186 10.6096 13.6739 10.5794 13.6168C10.5535 13.5682 10.5152 13.5724 10.4677 13.5614C10.297 13.5213 10.0898 13.5444 10.012 13.3141C9.97798 13.213 9.86834 13.2197 9.78034 13.2417C9.59795 13.2875 9.4035 13.2527 9.22608 13.3347C9.18953 13.3514 9.10259 13.3421 9.09337 13.3212C9.02843 13.1718 8.85208 13.1182 8.79033 12.9681C8.91737 12.8234 9.02914 12.6804 9.24275 12.6623C9.59901 12.6321 9.59866 12.6239 9.57701 12.2517C9.57524 12.218 9.61463 12.1875 9.58376 12.1523C9.54969 12.1499 9.51634 12.1477 9.48298 12.1456C9.49895 11.9902 9.33998 11.9508 9.28108 11.844C9.22892 11.75 9.26795 11.7152 9.3524 11.6946L9.35205 11.6925Z" fill="#25D366"/>
<path d="M6.76259 13.4869C6.19733 12.8752 5.62746 12.2677 4.9859 11.7333C4.62645 11.4342 4.26097 11.1425 3.81883 10.9693C3.64461 10.9012 3.58393 10.7635 3.57861 10.5921C3.57293 10.4179 3.618 10.2515 3.67832 10.0907C3.92067 9.44528 4.27835 8.87293 4.77265 8.38999C5.21833 7.9546 5.53697 7.93047 6.04404 8.28354C6.38504 8.52093 6.69056 8.79947 6.98827 9.08761C7.71534 9.79196 8.39131 10.5435 9.04421 11.316C9.12334 11.4097 9.17515 11.5246 9.27486 11.6009C9.22021 11.657 9.16202 11.6801 9.10418 11.6112C9.0577 11.651 9.12725 11.701 9.07012 11.7333C8.98673 11.7397 8.96154 11.6769 8.92605 11.6123C8.86502 11.5019 8.75715 11.4196 8.64289 11.4931C8.55737 11.5477 8.47044 11.5545 8.37321 11.5786C8.42431 11.7674 8.3466 11.8681 8.17769 11.9473C8.05314 12.0058 7.9073 11.9973 7.79837 12.0814C7.6905 12.1648 7.57695 12.1864 7.44921 12.152C7.35127 12.1257 7.28421 12.1779 7.24482 12.2514C7.19585 12.3429 7.2945 12.3511 7.3424 12.3837C7.38533 12.4132 7.41514 12.4472 7.39101 12.5012C7.3715 12.5448 7.32146 12.5732 7.29059 12.5455C7.15859 12.427 7.0894 12.521 7.02624 12.6218C6.88324 12.5686 6.98756 12.4288 6.90736 12.3518C6.77998 12.3582 6.67033 12.3227 6.63733 12.1701C6.63307 12.1506 6.60894 12.1275 6.58907 12.1208C6.45246 12.0743 6.35736 11.9927 6.31407 11.8486C6.29917 11.7986 6.24239 11.7709 6.18243 11.7791C6.12388 11.7869 6.08555 11.8241 6.06533 11.8756C6.04723 11.9224 6.05788 11.9661 6.0962 12.0047C6.23033 12.141 6.31443 12.3152 6.42265 12.4692C6.51207 12.5963 6.56069 12.6616 6.7044 12.5725C6.73953 12.5508 6.78282 12.5466 6.83711 12.5991C6.64798 12.7439 6.72391 12.8858 6.88324 13.0157C6.75549 13.0718 6.65365 13.1161 6.5582 13.158C6.58411 13.3088 6.77394 13.3315 6.76259 13.4866V13.4869Z" fill="#25D366"/>
<path d="M22.8388 1.40794C22.8626 1.46542 22.9385 1.4349 22.9666 1.47358C22.9722 1.53781 22.9179 1.5449 22.8956 1.57684C22.8711 1.61197 22.8818 1.64461 22.9101 1.67123C22.935 1.69465 22.9683 1.69713 22.9889 1.67123C23.166 1.45016 23.452 1.57613 23.6628 1.45903C23.7202 1.4271 23.7738 1.46897 23.8043 1.53036C23.8643 1.65207 23.8011 1.75284 23.7362 1.83871C23.6755 1.91926 23.6007 1.86107 23.5347 1.81671C23.4264 1.74362 23.3306 1.75107 23.2785 1.88307C23.2323 2.00016 23.0975 2.08284 23.1812 2.25529C23.2135 2.3213 23.0567 2.44691 23.1883 2.54697C23.1106 2.64668 23.0244 2.71197 22.9091 2.78365C22.8771 2.64243 22.8473 2.52604 22.7803 2.41781C22.7341 2.34365 22.6919 2.32271 22.6305 2.34542C22.4428 2.41462 22.2359 2.43271 22.0976 2.62149C22.0142 2.73504 21.8382 2.71517 21.7072 2.76414C21.4709 2.85249 21.2399 2.93268 21.0387 3.11507C20.8766 3.26233 20.78 3.46743 20.5835 3.58204C20.483 3.64059 20.5402 3.72114 20.6278 3.7442C20.7502 3.77685 20.8365 3.85208 20.9142 3.94221C20.9631 3.99898 21.027 4.06285 20.9731 4.14482C20.9216 4.22288 20.8386 4.26334 20.7435 4.25092C20.653 4.23921 20.5962 4.17782 20.5746 4.09124C20.4908 3.75414 20.3205 3.69453 20.0416 3.91666C19.9117 4.02027 19.7368 4.02879 19.614 4.15334C19.5054 4.26334 19.3912 4.36056 19.3621 4.52095C19.3543 4.56495 19.3302 4.60966 19.2929 4.61747C19.025 4.67531 18.783 4.85237 18.5101 4.84811C18.1407 4.84244 17.9789 5.05569 17.8207 5.33531C17.7057 5.53899 17.551 5.72954 17.309 5.80867C17.0741 5.88602 16.908 6.0716 16.6994 6.19083C16.6334 6.22844 16.5752 6.28841 16.5049 6.30864C16.1132 6.42112 15.8176 6.6649 15.5884 6.9878C15.4486 7.18509 15.2633 7.33164 15.082 7.47641C14.9198 7.60558 14.8102 7.76738 14.6899 7.92564C14.4632 8.22442 14.2499 8.53632 13.9284 8.74568C13.806 8.82552 13.6499 8.86526 13.5495 8.96426C13.3774 9.13352 13.174 9.2641 13.0058 9.43229C12.8902 9.54797 12.7383 9.57671 12.6116 9.66152C12.5197 9.72326 12.4853 9.87584 12.3228 9.84533C12.2852 9.67004 12.1815 9.50078 12.2678 9.30845C12.3817 9.12607 12.5456 8.98874 12.6957 8.84007C13.0637 8.47529 13.3887 8.06722 13.7861 7.73296C14.1726 7.40793 14.4997 7.02151 14.8794 6.69044C14.9589 6.62125 15.0423 6.55631 15.1239 6.48925C15.231 6.46299 15.3354 6.43318 15.3503 6.29764C15.7399 5.96905 16.0993 5.60641 16.4968 5.28599C17.5432 4.44218 18.6364 3.66614 19.7822 2.96285C20.725 2.38446 21.704 1.87845 22.7224 1.44768C22.76 1.43171 22.7998 1.42071 22.8385 1.40723L22.8388 1.40794Z" fill="#25D366"/>
<path d="M6.76827 13.4871C6.77962 13.332 6.58978 13.3093 6.56388 13.1585C6.65898 13.117 6.76117 13.0723 6.88891 13.0162C6.72959 12.886 6.65365 12.7444 6.84278 12.5997C6.78849 12.5475 6.7452 12.5514 6.71007 12.573C6.56636 12.6621 6.51775 12.5968 6.42833 12.4698C6.3201 12.3158 6.23601 12.1416 6.10188 12.0053C6.06391 11.9666 6.05291 11.923 6.07101 11.8761C6.09088 11.8243 6.12956 11.7871 6.1881 11.7796C6.24807 11.7718 6.30485 11.7991 6.31975 11.8492C6.36304 11.9936 6.45814 12.0752 6.59475 12.1213C6.61462 12.1281 6.63875 12.1515 6.64301 12.1707C6.67601 12.3232 6.78565 12.3587 6.91304 12.3523C6.99324 12.4293 6.88891 12.5691 7.03191 12.6224C7.09508 12.5219 7.16462 12.4279 7.29627 12.5461C7.32714 12.5738 7.37753 12.5454 7.39669 12.5017C7.42082 12.4478 7.39101 12.4137 7.34808 12.3843C7.30017 12.3513 7.20117 12.3431 7.2505 12.2519C7.28988 12.1785 7.35695 12.1263 7.45488 12.1526C7.58227 12.1866 7.69582 12.165 7.80405 12.0819C7.91298 11.9978 8.05882 12.0064 8.18337 11.9478C8.35228 11.8683 8.42999 11.7679 8.37889 11.5791C8.47611 11.555 8.56305 11.5483 8.64857 11.4936C8.76318 11.4205 8.8707 11.5025 8.93173 11.6128C8.96757 11.6774 8.99241 11.7402 9.07579 11.7338C9.13292 11.7016 9.06338 11.6515 9.10986 11.6118C9.16734 11.6806 9.22554 11.6576 9.28054 11.6015C9.30502 11.632 9.32951 11.6625 9.35434 11.693C9.26989 11.7136 9.23121 11.7484 9.28302 11.8424C9.34228 11.9492 9.50089 11.9886 9.48493 12.144C9.51828 12.1462 9.55163 12.1487 9.5857 12.1508C9.61657 12.1859 9.57718 12.2168 9.57896 12.2501C9.6006 12.6224 9.60096 12.6305 9.2447 12.6607C9.03108 12.6788 8.91966 12.8218 8.79228 12.9666C8.85402 13.117 9.03038 13.1702 9.09531 13.3196C9.10454 13.3406 9.19147 13.3498 9.22802 13.3331C9.40544 13.2511 9.60025 13.2859 9.78228 13.2401C9.87064 13.2181 9.97993 13.2114 10.014 13.3125C10.0921 13.5432 10.2989 13.5198 10.4696 13.5599C10.5172 13.5712 10.5558 13.5666 10.5814 13.6152C10.6115 13.672 10.5977 13.7171 10.5544 13.7582C10.4196 13.886 10.2709 13.9974 10.163 14.1556C10.1098 14.2337 9.99625 14.1766 9.91109 14.189C9.85183 14.1975 9.79115 14.1712 9.74644 14.2532C9.60096 14.5208 9.44057 14.5584 9.14179 14.4118C9.04918 14.4622 8.96686 14.5204 8.9076 14.6166C8.85366 14.7039 8.76637 14.7557 8.65566 14.7585C8.58895 14.7603 8.52331 14.7833 8.48995 14.8444C8.44595 14.9246 8.54105 14.9342 8.56873 14.9789C8.62053 15.063 8.68512 15.1442 8.71315 15.2361C8.74792 15.35 8.68831 15.4288 8.56553 15.449C8.56553 15.449 8.56624 15.4465 8.5666 15.4465C8.50592 15.3312 8.44844 15.2134 8.31644 15.1602C8.31644 15.1602 8.31963 15.162 8.31963 15.1616C8.32176 15.1353 8.30934 15.1222 8.28344 15.1215L8.28734 15.1247C8.20608 14.9934 8.13369 14.8536 7.97756 14.7922C7.98005 14.7397 7.94456 14.7049 7.91582 14.6684C7.77424 14.4892 7.73414 14.3079 7.88566 14.1106C7.92682 14.057 7.90802 13.986 7.8956 13.9218C7.88566 13.8703 7.87005 13.8171 7.87395 13.766C7.88637 13.6014 7.85231 13.397 7.78098 13.2543C7.77637 13.2451 7.78027 13.2316 7.78027 13.2231C7.80653 13.1795 7.88211 13.2167 7.89382 13.1301C7.8005 13.0844 7.72634 13.0159 7.78914 12.8874C7.81327 12.8378 7.80476 12.7767 7.74585 12.7505C7.68553 12.7235 7.61705 12.7189 7.55921 12.7565C7.49356 12.7994 7.54466 12.8498 7.56098 12.8967C7.61776 13.0624 7.59079 13.1128 7.41905 13.122C7.3314 13.1266 7.29663 13.1667 7.26859 13.2405C7.21253 13.3878 7.16427 13.5308 7.30159 13.656C7.25901 13.7213 7.22353 13.7752 7.15682 13.7894C7.02801 13.7351 6.98827 13.5666 6.83427 13.5538C6.81227 13.5315 6.79027 13.5091 6.76862 13.4868L6.76827 13.4871Z" fill="#25D366"/>
<path d="M6.83594 13.5542C6.98994 13.567 7.03004 13.7355 7.15849 13.7898C7.22555 13.7753 7.26068 13.7217 7.30326 13.6564C7.16594 13.5311 7.2142 13.3881 7.27026 13.2409C7.29829 13.1671 7.33307 13.127 7.42071 13.1223C7.59246 13.1131 7.61942 13.0627 7.56265 12.897C7.54668 12.8502 7.49559 12.7994 7.56088 12.7569C7.61872 12.7189 7.6872 12.7239 7.74752 12.7508C7.80643 12.7771 7.8153 12.8381 7.79081 12.8878C7.72801 13.0162 7.80217 13.0847 7.89549 13.1305C7.88343 13.2171 7.8082 13.1795 7.78194 13.2235C7.78194 13.232 7.77804 13.2455 7.78265 13.2547C7.85397 13.3973 7.88804 13.6017 7.87562 13.7664C7.87172 13.8175 7.88733 13.8707 7.89727 13.9222C7.90968 13.9867 7.92849 14.0577 7.88733 14.1109C7.73581 14.3082 7.77591 14.4895 7.91749 14.6687C7.94623 14.7049 7.98172 14.7397 7.97923 14.7926C7.59813 14.3799 7.21704 13.9669 6.83594 13.5542Z" fill="#25D366"/>
<path d="M10.8597 10.9315C10.9293 10.8041 11.0414 10.7115 11.133 10.6025L11.1397 10.6096C11.1631 10.8186 11.0329 10.8942 10.8594 10.9318L10.8597 10.9315Z" fill="#25D366"/>
<path d="M7.97636 14.7927C8.13284 14.8541 8.20487 14.9939 8.28613 15.1252C8.16726 15.029 8.06755 14.9148 7.97636 14.7927Z" fill="#25D366"/>
<path d="M10.5938 11.24C10.6523 11.1687 10.7112 11.0973 10.7698 11.0264L10.7783 11.0342C10.8038 11.1754 10.7218 11.2276 10.6008 11.2474L10.5938 11.24Z" fill="#25D366"/>
<path d="M8.3125 15.1602C8.4445 15.213 8.50234 15.3308 8.56266 15.4465C8.46508 15.3635 8.38134 15.2684 8.3125 15.1602Z" fill="#25D366"/>
<path d="M15.3514 6.29883C15.3368 6.43438 15.2322 6.46418 15.125 6.49044C15.1843 6.40741 15.2698 6.3556 15.3514 6.29883Z" fill="#25D366"/>
<path d="M11.3047 10.3873C11.376 10.3046 11.447 10.2223 11.5183 10.1396L11.5261 10.1475C11.4761 10.2482 11.4445 10.365 11.3128 10.3955L11.3047 10.3877V10.3873Z" fill="#25D366"/>
<path d="M11.1328 10.6027C11.191 10.5311 11.2492 10.4594 11.3074 10.3877L11.3156 10.3955C11.279 10.4853 11.2779 10.6038 11.1396 10.6098L11.1328 10.6027Z" fill="#25D366"/>
<path d="M10.7734 11.0254C10.8015 10.9938 10.8295 10.9622 10.8575 10.9307C10.8501 10.9779 10.8472 11.0282 10.782 11.0332L10.7734 11.0254Z" fill="#25D366"/>
<path d="M9.47512 11.8426C9.45702 11.8412 9.43324 11.8443 9.45241 11.8135C9.45986 11.8231 9.46766 11.8326 9.47512 11.8426Z" fill="#25D366"/>
<path d="M8.28125 15.1221C8.30715 15.1228 8.31957 15.1359 8.31744 15.1622C8.30538 15.149 8.29331 15.1356 8.28125 15.1221Z" fill="#25D366"/>
<path d="M10.7784 11.0335C10.8437 11.0289 10.8462 10.9782 10.854 10.931C11.0279 10.8934 11.1577 10.8178 11.1343 10.6088C11.2727 10.6027 11.2738 10.4842 11.3103 10.3945C11.4423 10.3643 11.4735 10.2472 11.5236 10.1464C11.6144 10.0985 11.823 10.1897 11.746 9.95516C11.8007 9.9321 11.8635 9.92465 11.8937 9.88952C12.0235 9.738 12.1023 9.89094 12.1861 9.94061C12.2861 10.0002 12.2013 10.0691 12.1665 10.1315C11.9235 10.5658 11.6183 10.9555 11.3149 11.3483C11.1226 11.597 11.0719 11.9256 10.8809 12.1864C10.7355 12.3851 10.5566 12.4227 10.3469 12.4103C10.239 12.4039 10.1564 12.3592 10.2646 12.2308C10.3668 12.1098 10.2972 12.0665 10.1723 12.0597C10.1738 12.0019 10.1606 11.9373 10.2142 11.8972C10.4324 11.7326 10.5293 11.4973 10.6006 11.2461C10.7213 11.2262 10.8032 11.1744 10.778 11.0328L10.7784 11.0335Z" fill="#25D366"/>
<path d="M10.1709 12.0605C10.1663 12.0861 10.167 12.1163 10.1283 12.1141C10.1244 12.1141 10.1177 12.107 10.1173 12.1031C10.1148 12.0641 10.1454 12.0652 10.1709 12.0605Z" fill="#25D366"/>
</svg>
