<svg version="1.2" xmlns="http://www.w3.org/2000/svg" viewBox="0 0 1366 493" width="560" height="202">
	<title>Aiinbox SVG-svg</title>
	<defs>
		<clipPath clipPathUnits="userSpaceOnUse" id="cp1">
			<path d="m48.93 40.76h1268.13v432.47h-1268.13z"/>
		</clipPath>
		<linearGradient id="g1" x2="1" gradientUnits="userSpaceOnUse" gradientTransform="matrix(1153.02,0,0,302.883,164.05,278.11)">
			<stop offset="0" stop-color="#00695b"/>
			<stop offset="1" stop-color="#0c887b"/>
		</linearGradient>
		<linearGradient id="g2" x2="1" gradientUnits="userSpaceOnUse" gradientTransform="matrix(383.46,0,0,383.46,50.45,235.73)">
			<stop offset="0" stop-color="#00695b"/>
			<stop offset="1" stop-color="#0c887b"/>
		</linearGradient>
	</defs>
	<style>
		.s0 { fill: url(#g1) } 
		.s1 { mix-blend-mode: screen;fill: #ffffff } 
		.s2 { fill: #ffffff } 
		.s3 { fill: url(#g2) } 
		.s4 { fill: #b7b7b7 } 
	</style>
	<g>
		<g id="Layer_1">
			<g id="Clip-Path" clip-path="url(#cp1)">
				<g>
					<g>
						<path class="s0" d="m1165.6 126.7h-850.1c-83.6 0-151.4 67.8-151.4 151.4 0 83.6 67.8 151.4 151.4 151.4h850.1c83.7 0 151.5-67.8 151.5-151.4 0-83.6-67.8-151.4-151.5-151.4z"/>
						<g style="opacity: .1">
							<path class="s1" d="m1165.6 126.5h-33c82 0 148.6 66.5 148.6 148.6v5.7c0 82.1-66.6 148.6-148.6 148.6h33c83.6 0 151.5-67.8 151.5-151.4 0-83.7-67.8-151.5-151.5-151.5z"/>
						</g>
						<g style="opacity: .1">
							<path class="s1" d="m413.8 271.8c0 64-30.5 120.9-77.8 156.8h30.5c47.3-36 77.9-92.8 77.9-156.8 0-57.9-25.1-110-64.9-146.1h-30.5c39.8 36.1 64.8 88.2 64.8 146.1z"/>
						</g>
						<path fill-rule="evenodd" class="s2" d="m577.8 364.8l-6.3-25.9h-51l-6.2 25.9h-41.6l49-166.1h48.6l49 166.1zm-31.6-130.7l-17.7 70.2h35.4z"/>
						<path class="s2" d="m626.8 208.4c0-11.4 9.2-20.9 20.9-20.9 11.7 0 20.7 9.5 20.7 20.9 0 11.5-9.2 21-20.7 21-11.4 0-20.9-9.3-20.9-21zm2.8 156.4v-120.3h36.1v120.3z"/>
						<path class="s2" d="m825 364.8v-76c0-10.9-5.2-15.4-14-15.4-8.7 0-15.1 6.5-18.6 12.7v78.7h-36.1v-120.3h36.1v15c5.9-9 19.4-18 35.3-18 23.2 0 33.4 13.7 33.4 33.2v90.1h-36.1z"/>
						<path fill-rule="evenodd" class="s2" d="m885 364.8v-166.1h36.1v60c7.2-11.9 18.7-17.2 29.6-17.2 27.1 0 45.3 24.2 45.3 63 0 38.9-18.4 63.3-45.3 63.3-11 0-21.9-5.5-29.6-17.2v14.2h-36.1q0 0 0 0zm36.1-40.1c3.5 6.7 11 11.2 17.7 11.2 12.9 0 20.4-12.7 20.4-31.4 0-18.6-7.5-31.1-20.4-31.1-6.8 0-14.2 4.7-17.7 11.2 0 0 0 40.1 0 40.1z"/>
						<path fill-rule="evenodd" class="s2" d="m1007.2 304.5c0-33.6 19.7-63 57-63 37.3 0 57.3 29.4 57.3 63 0 33.6-20 63.3-57.3 63.3-37.3 0-57-29.7-57-63.3zm77.2 0c0-17.4-6.2-31.1-20.2-31.1-13.9 0-19.9 13.7-19.9 31.1 0 17.4 6.3 31.4 19.9 31.4 13.7 0 20.2-13.7 20.2-31.4z"/>
						<path class="s2" d="m1197.9 364.8l-18.1-36.1-18.7 36.1h-38.8l34.8-61-32.9-59.3h38.9l16.4 33.9 16.7-33.9h38.8l-32.9 59.3 34.8 61h-39c0 0 0 0 0 0z"/>
						<path class="s2" d="m734.8 203.1v-4.4h-47.6v4.4h3.6v157.3h-3.6v4.4h47.6v-4.4h-3.7v-157.3z"/>
						<path class="s3" d="m242.2 88.3c-105.9 0-191.8 85.8-191.8 191.7h0.1c0 105.9 85.8 191.7 191.7 191.7 105.9 0 191.7-85.8 191.7-191.7 0-105.9-85.8-191.7-191.7-191.7z"/>
						<path fill-rule="evenodd" class="s2" d="m242.2 473.2c-106.6 0-193.3-86.7-193.3-193.2 0-106.6 86.7-193.3 193.3-193.3 106.6 0 193.3 86.7 193.3 193.3-0.1 106.5-86.7 193.2-193.3 193.2zm0-383.4c-104.9 0-190.2 85.3-190.2 190.2 0 104.9 85.3 190.2 190.2 190.2 104.8 0 190.2-85.3 190.2-190.2 0-104.9-85.3-190.2-190.2-190.2z"/>
						<path class="s2" d="m180.3 73.8c27 0 49 21.9 49 48.9v181.3c-27.1 0-49-22-49-49z"/>
						<path class="s2" d="m253.8 259.9c6.7 0 12.2-5.5 12.2-12.3 0-6.8-5.5-12.2-12.2-12.2-6.8 0-12.3 5.4-12.3 12.2 0 6.8 5.5 12.3 12.3 12.3z"/>
						<path fill-rule="evenodd" class="s2" d="m354.6 235c-9.3-22.3-24.9-41.5-45.1-54.9q-9.1-6.1-19-10.4v-12.7c0-27.1-21.9-49-49-49v100.4c14.6 0 28.8 4.3 40.8 12.4 6.1 4.1 11.5 9 16.1 14.6h26.4l-17.4 13.9q1.1 2.2 2 4.5c5.6 13.4 7 28.2 4.2 42.4-2.9 14.3-9.8 27.4-20.1 37.6-10.3 10.3-23.4 17.3-37.6 20.1-14.3 2.9-29.1 1.4-42.5-4.1-13.4-5.6-24.9-15-33-27.1-8-12.1-12.3-26.3-12.3-40.8v-191c-0.1-27.1-22-49-49.1-49v240c0 24.3 7.2 47.9 20.7 68.1 13.4 20.1 32.6 35.8 54.9 45 22.4 9.3 47 11.7 70.8 7 23.7-4.7 45.6-16.4 62.7-33.5 17.1-17.1 28.8-38.9 33.5-62.7 4.7-23.7 2.3-48.4-7-70.7z"/>
						<g style="opacity: .1">
							<path class="s1" d="m256.2 253.6c4.8 0 8.8-3.9 8.8-8.8 0-4.8-4-8.7-8.8-8.7-4.8 0-8.8 3.9-8.8 8.7 0.1 4.9 4 8.8 8.8 8.8z"/>
						</g>
						<path fill-rule="evenodd" class="s4" d="m230.4 305.1h-1.1c-27.7 0-50.1-22.5-50.1-50.1v-182.4h1.1c27.6 0 50.1 22.5 50.1 50.1zm-49-230.2v180.1c0 26 20.9 47.2 46.7 47.8v-180c0-26-20.8-47.3-46.7-47.9z"/>
						<path fill-rule="evenodd" class="s4" d="m241.4 405.5c-16.1 0-32.1-3.2-47.2-9.4-22.6-9.4-41.8-25.1-55.5-45.5-13.6-20.4-20.8-44.2-20.8-68.7v-241.1h1.2c27.6 0 50.1 22.5 50.1 50.1v191c0 14.4 4.2 28.3 12.2 40.2 7.9 11.9 19.1 21.2 32.4 26.7 13.3 5.5 27.7 6.9 41.8 4.1 14.1-2.8 26.9-9.7 37.1-19.8 10.1-10.2 16.9-23 19.8-37.1 2.7-14.1 1.3-28.5-4.2-41.8q-0.9-2.2-2-4.4l-0.4-0.8 15.6-12.5h-23.7l-0.3-0.4c-4.5-5.5-9.8-10.4-15.8-14.3-11.9-8-25.8-12.2-40.2-12.2h-1.1v-102.7h1.1c27.7 0 50.1 22.5 50.1 50.1v12c6.5 2.8 12.8 6.3 18.6 10.2 20.4 13.6 36.1 32.8 45.5 55.4 9.4 22.7 11.8 47.4 7 71.4-4.8 24.1-16.5 46-33.8 63.3-17.3 17.4-39.2 29.1-63.3 33.8-8 1.6-16.1 2.4-24.2 2.4zm-121.2-362.4v238.8c0 24.1 7 47.4 20.4 67.4 13.4 20 32.2 35.5 54.4 44.7 22.3 9.2 46.5 11.6 70.1 6.9 23.6-4.7 45.1-16.2 62.2-33.2 17-17 28.5-38.5 33.2-62.1 4.7-23.6 2.3-47.9-6.9-70.1-9.2-22.3-24.7-41.1-44.7-54.5-5.9-3.9-12.3-7.4-18.9-10.3l-0.7-0.3v-13.4c0-26-20.8-47.2-46.7-47.8v98.1c14.4 0.3 28.3 4.6 40.3 12.6 6 4 11.4 8.8 16 14.4h29.1l-19.3 15.4q0.9 1.8 1.7 3.7c5.7 13.7 7.2 28.6 4.3 43.1-2.9 14.5-10 27.7-20.5 38.2-10.4 10.5-23.6 17.5-38.2 20.4-14.5 2.9-29.4 1.4-43.1-4.3-13.6-5.6-25.2-15.1-33.4-27.4-8.3-12.3-12.6-26.7-12.6-41.5v-191c0-26-20.9-47.2-46.7-47.8z"/>
					</g>
				</g>
			</g>
		</g>
	</g>
</svg>