<svg width="560" height="191" viewBox="0 0 560 191" fill="none" xmlns="http://www.w3.org/2000/svg">
<g clip-path="url(#clip0_13543_57753)">
<path d="M492.3 37.8701H117.52C80.6439 37.8701 50.75 67.7618 50.75 104.635C50.75 141.508 80.6439 171.4 117.52 171.4H492.3C529.176 171.4 559.07 141.508 559.07 104.635C559.07 67.7618 529.176 37.8701 492.3 37.8701Z" fill="url(#paint0_linear_13543_57753)"/>
<g style="mix-blend-mode:screen" opacity="0.1">
<path d="M492.3 37.8H477.73C513.91 37.8 543.24 67.13 543.24 103.31V105.82C543.24 142 513.91 171.33 477.73 171.33H492.3C529.17 171.33 559.07 141.44 559.07 104.56C559.07 67.69 529.18 37.79 492.3 37.79V37.8Z" fill="white"/>
</g>
<g style="mix-blend-mode:screen" opacity="0.1">
<path d="M160.871 101.86C160.871 130.08 147.401 155.14 126.551 170.99H140.001C160.851 155.13 174.321 130.07 174.321 101.86C174.321 76.31 163.281 53.35 145.721 37.46H132.271C149.831 53.35 160.871 76.31 160.871 101.86Z" fill="white"/>
</g>
<path d="M233.14 142.84L230.4 131.43H207.9L205.15 142.84H186.82L208.44 69.6304H229.84L251.46 142.84H233.13H233.14ZM219.2 85.2204L211.41 116.17H226.99L219.2 85.2204Z" fill="white"/>
<path d="M254.77 73.9202C254.77 68.8702 258.83 64.7002 263.99 64.7002C269.15 64.7002 273.1 68.8702 273.1 73.9202C273.1 78.9702 269.04 83.1402 263.99 83.1402C258.94 83.1402 254.77 79.0802 254.77 73.9202ZM255.97 142.84V89.8302H271.89V142.84H255.97Z" fill="white"/>
<path d="M342.13 142.84V109.37C342.13 104.54 339.83 102.56 335.98 102.56C332.13 102.56 329.29 105.42 327.75 108.16V142.84H311.84V89.83H327.75V96.42C330.38 92.47 336.31 88.52 343.34 88.52C353.55 88.52 358.05 94.56 358.05 103.12V142.85H342.14L342.13 142.84Z" fill="white"/>
<path d="M368.58 142.84V69.6304H384.5V96.0804C387.68 90.8104 392.73 88.5104 397.56 88.5104C409.52 88.5104 417.53 99.1604 417.53 116.28C417.53 133.4 409.41 144.16 397.56 144.16C392.73 144.16 387.9 141.75 384.5 136.59V142.85H368.58V142.84ZM384.5 125.17C386.04 128.13 389.33 130.11 392.29 130.11C398 130.11 401.29 124.51 401.29 116.28C401.29 108.05 398 102.56 392.29 102.56C389.33 102.56 386.04 104.65 384.5 107.5V125.17Z" fill="white"/>
<path d="M422.471 116.28C422.471 101.46 431.141 88.5103 447.601 88.5103C464.061 88.5103 472.841 101.46 472.841 116.28C472.841 131.1 464.061 144.16 447.601 144.16C431.141 144.16 422.471 131.1 422.471 116.28ZM456.501 116.28C456.501 108.6 453.761 102.56 447.611 102.56C441.461 102.56 438.831 108.6 438.831 116.28C438.831 123.96 441.581 130.11 447.611 130.11C453.641 130.11 456.501 124.07 456.501 116.28Z" fill="white"/>
<path d="M506.549 142.84L498.539 126.93L490.309 142.84H473.189L488.549 115.95L474.059 89.8301H491.179L498.419 104.76L505.769 89.8301H522.889L508.399 115.95L523.759 142.84H506.529H506.549Z" fill="white"/>
<path d="M302.351 71.5801V69.6401H300.751H282.971H281.371V71.5801H282.971V140.9H281.371V142.84H282.971H300.751H302.351V140.9H300.751V71.5801H302.351Z" fill="white"/>
<path d="M85.1999 20.9399H85.1899C38.5108 20.9399 0.669922 58.7808 0.669922 105.46V105.47C0.669922 152.149 38.5108 189.99 85.1899 189.99H85.1999C131.879 189.99 169.72 152.149 169.72 105.47V105.46C169.72 58.7808 131.879 20.9399 85.1999 20.9399Z" fill="url(#paint1_linear_13543_57753)"/>
<path d="M85.2 190.66C38.22 190.66 0 152.44 0 105.46C0 58.4798 38.22 20.2598 85.2 20.2598C132.18 20.2598 170.4 58.4798 170.4 105.46C170.4 152.44 132.18 190.66 85.2 190.66ZM85.2 21.6098C38.96 21.6098 1.34 59.2198 1.34 105.46C1.34 151.7 38.96 189.31 85.19 189.31C131.42 189.31 169.04 151.69 169.04 105.46C169.04 59.2298 131.43 21.6098 85.2 21.6098Z" fill="white"/>
<path d="M57.9102 14.54C69.8402 14.54 79.5002 24.21 79.5002 36.13V116.03C67.5702 116.03 57.9102 106.36 57.9102 94.44V14.54Z" fill="white"/>
<path d="M90.3004 96.59C93.2827 96.59 95.7004 94.1724 95.7004 91.19C95.7004 88.2077 93.2827 85.79 90.3004 85.79C87.3181 85.79 84.9004 88.2077 84.9004 91.19C84.9004 94.1724 87.3181 96.59 90.3004 96.59Z" fill="white"/>
<path fill-rule="evenodd" clip-rule="evenodd" d="M134.77 85.65C130.68 75.79 123.76 67.35 114.89 61.42C112.22 59.64 109.41 58.11 106.49 56.83V51.24C106.49 39.31 96.8202 29.65 84.9002 29.65V73.92C91.3102 73.92 97.5702 75.82 102.9 79.38C105.58 81.17 107.95 83.33 109.97 85.8H121.61L113.93 91.94C114.25 92.59 114.55 93.24 114.83 93.91C117.28 99.83 117.92 106.34 116.67 112.62C115.42 118.9 112.34 124.67 107.81 129.2C103.28 133.73 97.5102 136.81 91.2302 138.06C84.9502 139.31 78.4302 138.67 72.5202 136.22C66.6002 133.77 61.5402 129.62 57.9802 124.29C54.4202 118.96 52.5202 112.7 52.5202 106.29V22.09C52.5102 10.17 42.8402 0.5 30.9102 0.5V106.31C30.9102 116.99 34.0802 127.42 40.0102 136.3C45.9402 145.18 54.3702 152.1 64.2402 156.18C74.1002 160.27 84.9602 161.33 95.4302 159.25C105.9 157.17 115.52 152.03 123.07 144.48C130.62 136.93 135.76 127.31 137.84 116.84C139.92 106.37 138.85 95.51 134.77 85.65Z" fill="white"/>
<g style="mix-blend-mode:screen" opacity="0.1">
<path d="M91.3795 93.8201C93.5114 93.8201 95.2395 92.0919 95.2395 89.9601C95.2395 87.8283 93.5114 86.1001 91.3795 86.1001C89.2477 86.1001 87.5195 87.8283 87.5195 89.9601C87.5195 92.0919 89.2477 93.8201 91.3795 93.8201Z" fill="white"/>
</g>
<path d="M80.0002 116.53H79.5002C67.3202 116.53 57.4102 106.62 57.4102 94.44V14.04H57.9102C70.0902 14.04 80.0002 23.95 80.0002 36.13V116.53ZM58.4102 15.04V94.43C58.4102 105.89 67.6002 115.25 79.0002 115.52V36.13C79.0002 24.67 69.8102 15.31 58.4102 15.04Z" fill="#E2E2E2"/>
<path d="M84.8699 160.8C77.7699 160.8 70.7099 159.4 64.0499 156.65C54.0599 152.51 45.5999 145.57 39.5999 136.58C33.5899 127.59 30.4199 117.12 30.4199 106.31V0H30.9199C43.0999 0 53.0099 9.91 53.0099 22.09V106.31C53.0099 112.64 54.8699 118.77 58.3799 124.03C61.8999 129.29 66.8399 133.35 72.6899 135.78C78.5399 138.2 84.9099 138.83 91.1199 137.59C97.3299 136.36 102.97 133.34 107.45 128.86C111.93 124.38 114.94 118.74 116.18 112.53C117.41 106.32 116.79 99.95 114.37 94.1C114.1 93.44 113.8 92.79 113.49 92.16L113.31 91.8L120.19 86.29H109.74L109.59 86.11C107.59 83.67 105.25 81.54 102.63 79.79C97.3699 76.27 91.2399 74.42 84.9099 74.42H84.4099V29.15H84.9099C97.0899 29.15 107 39.06 107 51.24V56.51C109.86 57.78 112.61 59.29 115.18 61.01C124.17 67.02 131.11 75.47 135.25 85.46C139.39 95.45 140.46 106.34 138.35 116.94C136.24 127.54 131.08 137.19 123.44 144.84C115.79 152.49 106.15 157.64 95.5399 159.75C91.9999 160.45 88.4299 160.8 84.8799 160.8H84.8699ZM31.4099 1.01V106.31C31.4099 116.92 34.5299 127.2 40.4199 136.02C46.3199 144.84 54.6199 151.66 64.4199 155.72C74.2299 159.78 84.9099 160.83 95.3199 158.76C105.73 156.69 115.2 151.63 122.71 144.12C130.22 136.61 135.28 127.14 137.35 116.73C139.42 106.32 138.37 95.63 134.31 85.83C130.25 76.02 123.44 67.72 114.61 61.83C112 60.09 109.2 58.56 106.29 57.29L105.99 57.16V51.24C105.99 39.78 96.7999 30.42 85.3999 30.15V73.42C91.7499 73.52 97.8799 75.43 103.17 78.96C105.81 80.72 108.17 82.85 110.2 85.29H123.03L114.55 92.08C114.81 92.62 115.05 93.17 115.28 93.72C117.78 99.75 118.43 106.32 117.15 112.72C115.88 119.12 112.76 124.95 108.15 129.56C103.53 134.18 97.7099 137.29 91.3099 138.56C84.9099 139.83 78.3399 139.19 72.3099 136.69C66.2799 134.19 61.1699 130 57.5499 124.58C53.9199 119.15 52.0099 112.83 52.0099 106.31V22.09C52.0099 10.63 42.8199 1.27 31.4199 1L31.4099 1.01Z" fill="#E2E2E2"/>
</g>
<defs>
<linearGradient id="paint0_linear_13543_57753" x1="50.75" y1="104.63" x2="559.07" y2="104.63" gradientUnits="userSpaceOnUse">
<stop stop-color="#00695A"/>
<stop offset="1" stop-color="#05897B"/>
</linearGradient>
<linearGradient id="paint1_linear_13543_57753" x1="0.669922" y1="105.46" x2="169.72" y2="105.46" gradientUnits="userSpaceOnUse">
<stop stop-color="#00695A"/>
<stop offset="1" stop-color="#05897B"/>
</linearGradient>
<clipPath id="clip0_13543_57753">
<rect width="559.07" height="190.66" fill="white"/>
</clipPath>
</defs>
</svg>
