<svg width="105" height="101" viewBox="0 0 105 101" fill="none" xmlns="http://www.w3.org/2000/svg">
<path d="M99.7393 30.1958C99.7393 28.6309 99.7886 27.066 99.7024 25.501C99.1356 15.4091 91.4095 6.66029 81.4161 4.97214C80.1839 4.76266 78.9394 4.65176 77.6825 4.65176C74.1583 4.65176 70.6342 4.65176 67.11 4.65176C60.0001 4.65176 52.9024 4.65176 45.7925 4.65176C40.1366 4.65176 34.493 4.65176 28.8371 4.65176C27.3214 4.65176 25.8058 4.6148 24.3025 4.78731C19.312 5.35413 14.6295 7.62143 11.093 11.1826C7.58118 14.7314 5.35086 19.4015 4.80868 24.3674C4.61152 26.1911 4.68545 28.0517 4.68545 29.8877C4.68545 36.6527 4.68545 43.4053 4.68545 50.1702C4.68545 52.7579 4.68545 55.3332 4.68545 57.9209C4.68545 60.792 4.91958 63.6138 5.86839 66.3493C7.48261 71.0071 10.6617 75.0488 14.802 77.7104C18.3878 80.0147 22.5651 81.1483 26.8039 81.1607C32.8048 81.1607 38.8058 81.1607 44.7944 81.1607C47.3205 81.1607 49.8342 81.0498 52.2863 81.7398C57.0181 83.0706 60.9489 86.7303 62.5877 91.3635C62.9944 92.4971 63.2655 93.6678 63.3887 94.863C63.4503 95.4791 63.4749 96.0952 63.4749 96.7113C63.4626 97.2782 63.364 97.8573 63.364 98.4241C63.364 98.8678 63.8939 99.2251 64.2882 98.954C66.9868 97.081 69.4759 94.9123 71.7925 92.5834C72.8399 91.536 73.838 90.4516 74.8237 89.3426C75.7726 88.2706 76.6474 87.137 77.6086 86.0772C79.6171 83.8839 82.0816 82.1341 84.8048 80.9512C86.0986 80.3844 87.4787 80.0147 88.7602 79.4232C89.9185 78.8934 91.0275 78.2403 92.0503 77.4763C96.2275 74.3711 98.9877 69.6763 99.5915 64.501C99.801 62.7635 99.7147 60.9768 99.7147 59.2394C99.7147 52.5977 99.7147 45.956 99.7147 39.3143C99.7393 36.2707 99.7393 33.2271 99.7393 30.1958ZM98.5071 62.2706C98.4948 66.7929 96.782 71.1673 93.6645 74.445C91.9394 76.2564 89.8323 77.7104 87.5157 78.6346C86.1972 79.1645 84.8541 79.5588 83.5725 80.1749C82.2417 80.8033 80.9725 81.5796 79.7896 82.4668C77.51 84.1796 75.8342 86.3607 73.9612 88.4678C71.9403 90.7474 69.8086 92.9284 67.492 94.9123C66.5802 95.6886 65.656 96.4403 64.6948 97.155C64.7072 97.0071 64.7195 96.8469 64.7195 96.699C64.7318 96.0213 64.6948 95.3559 64.6209 94.6905C64.4854 93.4952 64.2389 92.3123 63.8446 91.1787C63.056 88.8744 61.7621 86.7673 60.074 85.0052C56.9318 81.7398 52.5574 79.9284 48.0475 79.9161C42.256 79.9038 36.4769 79.9161 30.6854 79.9161C28.3688 79.9161 25.9906 80.0393 23.6987 79.719C18.8191 79.0289 14.2968 76.5645 11.0437 72.8555C7.74137 69.0972 5.94232 64.2176 5.91768 59.227C5.91768 57.81 5.91768 56.3929 5.91768 54.9635C5.91768 48.1493 5.91768 41.3474 5.91768 34.5332C5.91768 32.1797 5.91768 29.8261 5.91768 27.4726C5.91768 24.1825 6.43522 20.9664 7.83995 17.9598C9.93474 13.4868 13.5944 9.85176 18.0797 7.7693C20.9755 6.42617 24.0807 5.88399 27.2475 5.88399C31.8437 5.88399 36.4522 5.88399 41.0484 5.88399C48.2323 5.88399 55.4039 5.88399 62.5877 5.88399C67.3811 5.88399 72.1745 5.88399 76.9678 5.88399C77.2143 5.88399 77.4607 5.88399 77.6948 5.88399C82.636 5.90863 87.4664 7.67072 91.2247 10.8991C94.8967 14.066 97.4104 18.4404 98.236 23.2214C98.5687 25.156 98.5318 27.1029 98.5318 29.0622C98.5318 31.8223 98.5318 34.5702 98.5318 37.3304C98.5318 44.0707 98.5318 50.8109 98.5318 57.5389C98.5071 59.1161 98.5071 60.6934 98.5071 62.2706Z" fill="url(#paint0_linear_1772_10222)"/>
<path d="M30.4359 37.0723C28.9203 37.1463 27.4663 37.6884 26.234 38.5387C25.0018 39.3889 24.2748 41.1264 24.0037 42.5681C23.5108 45.2173 24.5459 47.9036 26.7269 49.5055C29.4625 51.5017 33.0359 50.9842 35.6359 49.0496C35.6852 49.0126 35.7222 48.9756 35.7468 48.9387C35.7838 48.9017 35.8208 48.8647 35.8577 48.8278C37.6075 46.4865 38.2236 43.3937 36.8189 40.732C35.599 38.4155 33.0606 36.9614 30.4359 37.0723ZM34.8843 48.0884C32.9374 49.4808 30.4483 50.1216 28.2179 48.988C26.271 48.0022 25.0511 45.969 25.1004 43.788C25.1374 42.4695 25.6303 41.2126 26.3573 40.1283C27.0227 39.1302 28.5629 38.6003 29.7089 38.3908C31.853 37.9965 34.1326 38.9083 35.3772 40.7197C36.9791 43.0609 36.4615 45.8827 34.8843 48.0884Z" fill="url(#paint1_linear_1772_10222)"/>
<path d="M51.3266 37.183C49.8109 37.257 48.3569 37.7992 47.1247 38.6494C45.8924 39.4996 45.1654 41.2371 44.8943 42.6788C44.4014 45.3281 45.4365 48.0143 47.6176 49.6162C50.3531 51.6124 53.9266 51.0949 56.5265 49.1603C56.5758 49.1233 56.6128 49.0863 56.6375 49.0494C56.6744 49.0124 56.7114 48.9754 56.7484 48.9385C58.4981 46.5972 59.1142 43.5044 57.7095 40.8428C56.4896 38.5138 53.9512 37.0598 51.3266 37.183ZM55.7749 48.1868C53.828 49.5792 51.3389 50.22 49.1086 49.0863C47.1616 48.1006 45.9417 46.0674 45.991 43.8864C46.028 42.5679 46.5209 41.311 47.2479 40.2266C47.9133 39.2285 49.4536 38.6987 50.5995 38.4892C52.7436 38.0949 55.0232 39.0067 56.2678 40.8058C57.8697 43.1593 57.3521 45.9935 55.7749 48.1868Z" fill="url(#paint2_linear_1772_10222)"/>
<path d="M72.3109 37.183C70.7953 37.257 69.3413 37.7992 68.109 38.6617C66.8768 39.5119 66.1498 41.2494 65.8787 42.6911C65.3858 45.3404 66.4209 48.0266 68.6019 49.6285C71.3375 51.6247 74.9109 51.1072 77.5109 49.1726C77.5602 49.1356 77.5972 49.0987 77.6218 49.0617C77.6588 49.0247 77.6958 48.9878 77.7327 48.9508C79.4825 46.6096 80.0986 43.5167 78.6939 40.8551C77.474 38.5138 74.9356 37.0598 72.3109 37.183ZM76.7593 48.1868C74.8123 49.5792 72.3233 50.22 70.0929 49.0863C68.146 48.1006 66.9261 46.0674 66.9754 43.8864C67.0124 42.5679 67.5052 41.311 68.2323 40.2266C68.8977 39.2285 70.4379 38.6987 71.5839 38.4892C73.728 38.0949 76.0076 39.0067 77.2522 40.8058C78.854 43.1593 78.3365 45.9935 76.7593 48.1868Z" fill="url(#paint3_linear_1772_10222)"/>
<path d="M24.3479 12.6843C18.4702 14.7914 13.9356 19.671 12.3214 25.7089C12.1119 26.4729 13.3072 26.8056 13.5043 26.0416C14.9953 20.435 19.2096 15.8388 24.6683 13.8672C25.4076 13.6084 25.0873 12.4132 24.3479 12.6843Z" fill="url(#paint4_linear_1772_10222)"/>
<path d="M92.7166 45.9811C92.7166 43.2455 92.7166 40.51 92.7166 37.7868C92.7166 36.9982 91.4844 36.9982 91.4844 37.7868C91.4844 40.5223 91.4844 43.2579 91.4844 45.9811C91.4844 46.782 92.7166 46.782 92.7166 45.9811Z" fill="url(#paint5_linear_1772_10222)"/>
<path d="M92.718 55.0485C92.718 54.2599 91.4858 54.2599 91.4858 55.0485C91.4858 56.8229 91.4858 58.6096 91.4858 60.384C91.4858 63.2428 90.8081 66.0153 88.9351 68.2456C87.7398 69.6627 86.2488 70.7471 84.6223 71.5973C83.9199 71.967 84.536 73.0267 85.2384 72.657C88.245 71.0921 90.7465 68.6892 91.9294 65.4485C92.8289 63.0087 92.7057 60.4456 92.7057 57.8949C92.718 56.9584 92.718 55.9973 92.718 55.0485Z" fill="url(#paint6_linear_1772_10222)"/>
<path d="M104.419 24.305C104.419 20.14 103.359 16.0244 101.326 12.3893C97.0499 4.82348 88.8803 0.0301211 80.1931 0.00547656C77.667 -0.0068457 75.141 0.00547656 72.6149 0.00547656C71.8263 0.00547656 71.8263 1.2377 72.6149 1.2377C74.9685 1.2377 77.3343 1.2377 79.6879 1.2377C83.3599 1.2377 86.9457 1.92775 90.2481 3.55429C97.9864 7.36186 103.112 15.3713 103.174 24.0216C103.199 26.4244 103.174 28.8396 103.174 31.2424C103.174 32.031 104.406 32.031 104.406 31.2424C104.419 28.9381 104.419 26.6216 104.419 24.305Z" fill="url(#paint7_linear_1772_10222)"/>
<path d="M90.8667 81.4298C89.0923 82.1076 87.3302 82.6867 85.6544 83.5862C84.0772 84.4365 82.5862 85.4715 81.2307 86.6422C79.8383 87.8497 78.68 89.2298 77.4971 90.6346C76.2525 92.1132 74.9464 93.5549 73.6032 94.9474C71.9521 96.6602 70.2146 98.299 68.3909 99.827C67.7871 100.332 68.662 101.207 69.2658 100.702C72.2971 98.1511 75.0819 95.3293 77.6696 92.335C78.8156 91.0042 79.8876 89.6118 81.1568 88.3919C82.4506 87.1474 83.88 86.063 85.4203 85.1512C87.2686 84.0545 89.2155 83.3891 91.1994 82.6374C91.9264 82.3417 91.6061 81.1464 90.8667 81.4298Z" fill="url(#paint8_linear_1772_10222)"/>
<path d="M24.0434 83.663C18.7201 83.6383 13.4832 81.79 9.40452 78.3398C5.42444 74.9881 2.67657 70.3549 1.66615 65.2659C1.14861 62.6289 1.24719 59.955 1.24719 57.281C1.24719 53.5844 1.24719 49.9 1.24719 46.2033C1.24719 43.6649 1.24719 41.1142 1.24719 38.5758C1.24719 37.7872 0.0149653 37.7872 0.0149653 38.5758C0.0149653 44.5891 0.0149653 50.6024 0.0149653 56.6033C0.0149653 59.2033 -0.095935 61.8403 0.286055 64.4279C1.06236 69.7265 3.687 74.6924 7.58083 78.3521C12.0292 82.5417 17.9562 84.8706 24.0557 84.8829C24.8443 84.8952 24.8443 83.663 24.0434 83.663Z" fill="url(#paint9_linear_1772_10222)"/>
<defs>
<linearGradient id="paint0_linear_1772_10222" x1="4.67187" y1="6.93314" x2="43.329" y2="117.775" gradientUnits="userSpaceOnUse">
<stop stop-color="#01F5B8"/>
<stop offset="0.145" stop-color="#02DFA7"/>
<stop offset="0.345" stop-color="#14B58C"/>
<stop offset="0.599194" stop-color="#009A73"/>
<stop offset="0.83" stop-color="#038A68"/>
<stop offset="1" stop-color="#00664C"/>
</linearGradient>
<linearGradient id="paint1_linear_1772_10222" x1="23.8828" y1="37.3982" x2="29.5268" y2="53.4687" gradientUnits="userSpaceOnUse">
<stop stop-color="#01F5B8"/>
<stop offset="0.145" stop-color="#02DFA7"/>
<stop offset="0.345" stop-color="#14B58C"/>
<stop offset="0.599194" stop-color="#009A73"/>
<stop offset="0.83" stop-color="#038A68"/>
<stop offset="1" stop-color="#00664C"/>
</linearGradient>
<linearGradient id="paint2_linear_1772_10222" x1="44.7734" y1="37.5076" x2="50.4184" y2="53.5794" gradientUnits="userSpaceOnUse">
<stop stop-color="#01F5B8"/>
<stop offset="0.145" stop-color="#02DFA7"/>
<stop offset="0.345" stop-color="#14B58C"/>
<stop offset="0.599194" stop-color="#009A73"/>
<stop offset="0.83" stop-color="#038A68"/>
<stop offset="1" stop-color="#00664C"/>
</linearGradient>
<linearGradient id="paint3_linear_1772_10222" x1="65.7578" y1="37.5079" x2="71.4118" y2="53.5909" gradientUnits="userSpaceOnUse">
<stop stop-color="#01F5B8"/>
<stop offset="0.145" stop-color="#02DFA7"/>
<stop offset="0.345" stop-color="#14B58C"/>
<stop offset="0.599194" stop-color="#009A73"/>
<stop offset="0.83" stop-color="#038A68"/>
<stop offset="1" stop-color="#00664C"/>
</linearGradient>
<linearGradient id="paint4_linear_1772_10222" x1="12.2969" y1="12.9793" x2="18.3427" y2="28.8971" gradientUnits="userSpaceOnUse">
<stop stop-color="#01F5B8"/>
<stop offset="0.145" stop-color="#02DFA7"/>
<stop offset="0.345" stop-color="#14B58C"/>
<stop offset="0.599194" stop-color="#009A73"/>
<stop offset="0.83" stop-color="#038A68"/>
<stop offset="1" stop-color="#00664C"/>
</linearGradient>
<linearGradient id="paint5_linear_1772_10222" x1="91.4844" y1="37.4225" x2="95.538" y2="38.9374" gradientUnits="userSpaceOnUse">
<stop stop-color="#01F5B8"/>
<stop offset="0.145" stop-color="#02DFA7"/>
<stop offset="0.345" stop-color="#14B58C"/>
<stop offset="0.599194" stop-color="#009A73"/>
<stop offset="0.83" stop-color="#038A68"/>
<stop offset="1" stop-color="#00664C"/>
</linearGradient>
<linearGradient id="paint6_linear_1772_10222" x1="84.3125" y1="54.8994" x2="95.9239" y2="70.1011" gradientUnits="userSpaceOnUse">
<stop stop-color="#01F5B8"/>
<stop offset="0.145" stop-color="#02DFA7"/>
<stop offset="0.345" stop-color="#14B58C"/>
<stop offset="0.599194" stop-color="#009A73"/>
<stop offset="0.83" stop-color="#038A68"/>
<stop offset="1" stop-color="#00664C"/>
</linearGradient>
<linearGradient id="paint7_linear_1772_10222" x1="72.0234" y1="0.770457" x2="84.9547" y2="38.2317" gradientUnits="userSpaceOnUse">
<stop stop-color="#01F5B8"/>
<stop offset="0.145" stop-color="#02DFA7"/>
<stop offset="0.345" stop-color="#14B58C"/>
<stop offset="0.599194" stop-color="#009A73"/>
<stop offset="0.83" stop-color="#038A68"/>
<stop offset="1" stop-color="#00664C"/>
</linearGradient>
<linearGradient id="paint8_linear_1772_10222" x1="68.1875" y1="81.8579" x2="75.0849" y2="105.482" gradientUnits="userSpaceOnUse">
<stop stop-color="#01F5B8"/>
<stop offset="0.145" stop-color="#02DFA7"/>
<stop offset="0.345" stop-color="#14B58C"/>
<stop offset="0.599194" stop-color="#009A73"/>
<stop offset="0.83" stop-color="#038A68"/>
<stop offset="1" stop-color="#00664C"/>
</linearGradient>
<linearGradient id="paint9_linear_1772_10222" x1="-6.39131e-07" y1="39.1194" x2="28.5363" y2="81.8094" gradientUnits="userSpaceOnUse">
<stop stop-color="#01F5B8"/>
<stop offset="0.145" stop-color="#02DFA7"/>
<stop offset="0.345" stop-color="#14B58C"/>
<stop offset="0.599194" stop-color="#009A73"/>
<stop offset="0.83" stop-color="#038A68"/>
<stop offset="1" stop-color="#00664C"/>
</linearGradient>
</defs>
</svg>
