<svg width="130" height="278" viewBox="0 0 130 278" fill="none" xmlns="http://www.w3.org/2000/svg">
<path opacity="0.15" d="M168.996 111.258C156.449 121.631 143.817 127.771 131.253 134.032C110.942 144.151 89.5259 152.096 70.536 164.849C63.8906 169.313 57.8527 174.439 53.8634 181.569C45.1739 197.115 52.3647 214.686 69.5108 219.464C83.7418 223.433 97.5215 220.261 110.947 215.771C128.876 209.774 145.403 200.51 162.41 192.371C172.855 187.366 183.253 182.232 194.363 178.727C197.09 177.863 199.823 176.677 203.376 177.622C201.378 183.346 197.553 187.475 193.539 191.354C179.306 205.058 162.52 215.029 144.774 223.362C125.039 232.634 105.02 241.324 85.3167 250.683C76.6357 254.805 73.8095 262.372 77.1652 269.614C80.3188 276.365 88.4089 279.689 96.4471 276.094C129.169 261.46 162.958 248.892 192.684 228.283C204.678 219.973 215.794 210.656 224.145 198.443C229.102 191.208 232.592 183.376 233.065 174.455C233.731 162.203 226.354 152.249 214.412 149.388C205.286 147.199 196.353 148.593 187.556 151.31C165.926 157.984 146.298 169.179 125.943 178.701C113.175 184.669 100.532 190.984 86.2548 192.644C84.9175 192.81 83.5561 193.179 81.8764 191.924C89.134 185.156 97.9211 181.192 106.541 176.971C125.689 167.567 145.452 159.387 164.052 148.809C172.167 144.206 179.926 139.095 187.048 133.037C191.373 129.34 195.353 125.302 198.527 120.525C210.762 102.176 201.38 83.0205 179.404 81.5594C170.187 80.9479 161.297 82.8654 152.634 85.6812C136.616 90.864 121.011 97.1226 105.378 103.367C90.1479 109.442 74.5495 114.497 57.8784 114.352C54.6549 114.317 49.8072 115.213 48.9011 111.693C48.181 108.89 52.6933 107.134 55.3287 105.544C72.0241 95.4586 90.5849 89.9196 108.967 83.9549C124.782 78.821 140.397 73.2693 154.234 63.7527C160.082 59.7252 165.156 54.8498 168.984 48.8321C180.474 30.728 173.107 9.96063 152.743 3.33298C137.495 -1.61654 122.117 0.0502555 106.985 3.68668C72.9541 11.8573 41.1426 25.8919 9.9529 41.4418C1.62239 45.5834 -1.46071 52.5082 1.45497 59.0762C4.50211 65.9399 11.9695 68.2873 20.7723 64.367C39.4892 56.0753 58.1687 47.748 77.5858 41.1883C93.5254 35.7888 109.665 31.0768 126.424 28.9593C131.395 28.3371 136.383 28.3708 141.344 29.3456C145.902 30.2214 146.642 32.4045 143.528 35.7865C138.497 41.2587 132.213 45.0275 125.38 47.5489C105.568 54.9134 85.6066 61.8661 65.7413 69.1517C55.2668 72.9906 45.2259 77.8245 36.1786 84.4561C32.9078 86.8651 29.7389 89.5558 27.0894 92.5979C11.8667 110.141 18.079 132.527 40.1856 139.701C56.1318 144.888 72.0371 142.442 87.911 138.758C110.439 133.548 130.868 122.602 152.645 115.385C157.316 113.866 161.861 111.658 168.996 111.258Z" fill="url(#paint0_linear_1772_10233)"/>
<defs>
<linearGradient id="paint0_linear_1772_10233" x1="-4.02302" y1="41.7397" x2="230.152" y2="18.6968" gradientUnits="userSpaceOnUse">
<stop stop-color="#01F5B8"/>
<stop offset="0.145" stop-color="#02DFA7"/>
<stop offset="0.345" stop-color="#14B58C"/>
<stop offset="0.599194" stop-color="#009A73"/>
<stop offset="0.83" stop-color="#038A68"/>
<stop offset="1" stop-color="#00664C"/>
</linearGradient>
</defs>
</svg>
