<svg width="680" height="435" viewBox="0 0 680 435" fill="none" xmlns="http://www.w3.org/2000/svg">
<g opacity="0.2">
<path d="M653.735 156.478C656.52 154.258 657.379 151.605 656.615 148.51C655.789 145.169 653.325 143.427 650.092 142.974C648.255 142.717 646.29 142.92 644.426 143.191C606.435 148.608 572.153 163.096 541.215 185.65C537.08 188.67 535.991 192.778 538.196 196.147C540.463 199.615 544.528 200.378 548.881 197.449C564.599 186.884 581.215 178.066 598.932 171.358C614.712 165.388 630.83 160.64 647.629 158.528C649.898 158.233 652.138 157.879 653.735 156.478Z" fill="url(#paint0_linear_1772_10585)"/>
<path d="M549.023 171.689C561.159 163.578 574.958 156.482 589.612 151.036C605.455 145.147 621.718 141.02 638.563 139.363C640.973 139.121 643.381 138.669 645.081 136.712C647.026 134.464 647.838 131.897 646.762 128.966C645.647 125.902 643.314 124.203 640.214 123.94C637.723 123.723 635.152 123.927 632.652 124.241C599.211 128.373 568.763 140.291 541.196 159.624C538.586 161.462 536.262 163.582 534.627 166.37C532.6 169.826 533.023 173.32 535.737 175.651C538.252 177.812 541.73 177.744 544.795 175.402C546.014 174.477 547.096 173.398 549.023 171.689Z" fill="url(#paint1_linear_1772_10585)"/>
<path d="M528.583 139.42C528.154 139.872 527.317 140.659 526.617 141.537C524.211 144.571 524.116 147.948 526.312 150.556C528.482 153.151 531.804 153.697 535.252 151.822C552.992 142.187 571.413 134.19 590.72 128.277C600.054 125.424 609.493 123.079 619.187 121.725C625.623 120.822 628.707 116.487 626.956 111.323C625.651 107.476 622.575 106.099 618.951 106.232C615.43 106.349 611.897 106.95 608.421 107.604C585.832 111.877 564.743 120.35 544.357 130.757C539.164 133.43 533.826 135.792 528.583 139.42Z" fill="url(#paint2_linear_1772_10585)"/>
<path d="M670.544 124.259C668.219 121.425 664.271 121.061 661.433 123.421C658.655 125.733 658.328 129.833 660.701 132.563C662.987 135.181 666.845 135.535 669.561 133.352C672.437 131.06 672.858 127.1 670.544 124.259Z" fill="url(#paint3_linear_1772_10585)"/>
</g>
<g opacity="0.25">
<path d="M149.765 298.557H80.9612V313.563C80.9612 319.792 77.8466 325.172 72.75 328.287H164.488V313.28C164.488 305.069 157.976 298.557 149.765 298.557ZM109.559 319.226C106.727 319.226 104.462 316.961 104.462 314.13C104.462 311.298 106.727 309.033 109.559 309.033C112.39 309.033 114.655 311.298 114.655 314.13C114.655 316.678 112.39 319.226 109.559 319.226ZM126.547 319.226C123.716 319.226 121.451 316.961 121.451 314.13C121.451 311.298 123.716 309.033 126.547 309.033C129.379 309.033 131.644 311.298 131.644 314.13C131.644 316.678 129.379 319.226 126.547 319.226ZM143.536 319.226C140.704 319.226 138.439 316.961 138.439 314.13C138.439 311.298 140.704 309.033 143.536 309.033C146.367 309.033 148.632 311.298 148.632 314.13C148.632 316.678 146.367 319.226 143.536 319.226Z" fill="url(#paint4_linear_1772_10585)"/>
<path d="M78.105 313.563V298.557L48.375 328.287H63.3816C71.5927 328.287 78.105 321.774 78.105 313.563Z" fill="url(#paint5_linear_1772_10585)"/>
<path d="M48.375 419.743C48.375 427.954 54.8873 434.466 63.0984 434.466H149.74C157.951 434.466 164.464 427.954 164.464 419.743V331.119H48.375V419.743ZM150.307 410.399H120.86V402.754H150.307V410.399ZM150.307 373.307H121.143V365.663H150.307V373.307ZM97.0756 346.975H150.307V354.62H97.0756V346.975ZM97.0756 384.35H150.307V391.995H97.0756V384.35ZM62.5322 346.975H90.2802V373.874H62.5322V346.975ZM62.5322 384.35H90.2802V411.249H62.5322V384.35Z" fill="url(#paint6_linear_1772_10585)"/>
<path d="M74.6955 397.659L70.4484 393.128L66.4844 397.092L74.6955 405.587L86.3044 393.978L82.3404 390.014L74.6955 397.659Z" fill="url(#paint7_linear_1772_10585)"/>
</g>
<g filter="url(#filter0_d_1772_10585)">
<rect x="98.4531" y="58.8535" width="498.28" height="334.589" rx="12.3541" fill="white"/>
</g>
<rect x="115.953" y="95.916" width="463.277" height="53.5342" rx="6.17703" fill="#E5F5F1"/>
<path d="M206.277 116.962V127.209H204.51V116.962H206.277ZM210.457 121.445V122.846H205.826V121.445H210.457ZM211.041 116.962V118.37H205.826V116.962H211.041ZM211.801 123.486V123.324C211.801 122.775 211.881 122.266 212.041 121.797C212.2 121.323 212.43 120.913 212.73 120.565C213.035 120.214 213.406 119.941 213.842 119.749C214.283 119.552 214.781 119.454 215.334 119.454C215.893 119.454 216.39 119.552 216.826 119.749C217.267 119.941 217.64 120.214 217.945 120.565C218.25 120.913 218.482 121.323 218.642 121.797C218.801 122.266 218.881 122.775 218.881 123.324V123.486C218.881 124.035 218.801 124.544 218.642 125.013C218.482 125.482 218.25 125.893 217.945 126.245C217.64 126.592 217.27 126.864 216.833 127.061C216.397 127.254 215.902 127.35 215.348 127.35C214.79 127.35 214.29 127.254 213.849 127.061C213.413 126.864 213.042 126.592 212.737 126.245C212.432 125.893 212.2 125.482 212.041 125.013C211.881 124.544 211.801 124.035 211.801 123.486ZM213.497 123.324V123.486C213.497 123.829 213.533 124.152 213.603 124.457C213.673 124.762 213.784 125.03 213.934 125.26C214.084 125.489 214.276 125.67 214.511 125.801C214.745 125.933 215.025 125.999 215.348 125.999C215.663 125.999 215.935 125.933 216.165 125.801C216.399 125.67 216.592 125.489 216.742 125.26C216.892 125.03 217.002 124.762 217.072 124.457C217.148 124.152 217.185 123.829 217.185 123.486V123.324C217.185 122.986 217.148 122.667 217.072 122.367C217.002 122.062 216.89 121.792 216.735 121.558C216.585 121.323 216.392 121.14 216.158 121.009C215.928 120.873 215.653 120.805 215.334 120.805C215.015 120.805 214.738 120.873 214.504 121.009C214.274 121.14 214.084 121.323 213.934 121.558C213.784 121.792 213.673 122.062 213.603 122.367C213.533 122.667 213.497 122.986 213.497 123.324ZM222.006 121.044V127.209H220.31V119.594H221.928L222.006 121.044ZM224.335 119.545L224.321 121.121C224.218 121.103 224.105 121.089 223.983 121.079C223.866 121.07 223.749 121.065 223.632 121.065C223.341 121.065 223.085 121.107 222.864 121.192C222.644 121.272 222.459 121.389 222.308 121.544C222.163 121.694 222.05 121.877 221.971 122.093C221.891 122.308 221.844 122.55 221.83 122.818L221.443 122.846C221.443 122.367 221.49 121.924 221.584 121.516C221.677 121.107 221.818 120.748 222.006 120.439C222.198 120.129 222.438 119.888 222.724 119.714C223.015 119.54 223.35 119.454 223.73 119.454C223.833 119.454 223.944 119.463 224.061 119.482C224.183 119.5 224.274 119.522 224.335 119.545ZM227.094 121.143V127.209H225.398V119.594H226.996L227.094 121.143ZM226.82 123.12L226.243 123.113C226.243 122.588 226.308 122.102 226.44 121.656C226.571 121.211 226.763 120.824 227.017 120.495C227.27 120.162 227.584 119.906 227.96 119.728C228.34 119.545 228.778 119.454 229.276 119.454C229.623 119.454 229.94 119.505 230.226 119.608C230.517 119.707 230.768 119.864 230.979 120.08C231.195 120.296 231.359 120.573 231.471 120.91C231.589 121.248 231.647 121.656 231.647 122.135V127.209H229.951V122.283C229.951 121.912 229.895 121.621 229.782 121.41C229.675 121.199 229.517 121.049 229.311 120.96C229.109 120.866 228.868 120.819 228.586 120.819C228.267 120.819 227.995 120.88 227.77 121.002C227.549 121.124 227.369 121.29 227.228 121.501C227.087 121.713 226.984 121.957 226.918 122.233C226.852 122.51 226.82 122.806 226.82 123.12ZM231.542 122.67L230.747 122.846C230.747 122.386 230.81 121.952 230.937 121.544C231.068 121.131 231.258 120.77 231.507 120.46C231.76 120.146 232.072 119.899 232.443 119.721C232.813 119.543 233.238 119.454 233.716 119.454C234.106 119.454 234.453 119.507 234.758 119.615C235.068 119.719 235.33 119.883 235.546 120.108C235.762 120.333 235.926 120.626 236.039 120.988C236.151 121.344 236.208 121.776 236.208 122.283V127.209H234.505V122.276C234.505 121.891 234.448 121.593 234.336 121.382C234.228 121.171 234.073 121.025 233.871 120.945C233.67 120.861 233.428 120.819 233.146 120.819C232.884 120.819 232.651 120.868 232.45 120.967C232.253 121.06 232.086 121.194 231.95 121.368C231.814 121.537 231.711 121.731 231.64 121.952C231.575 122.172 231.542 122.412 231.542 122.67ZM249.84 116.962V127.209H248.073L243.478 119.869V127.209H241.711V116.962H243.478L248.087 124.317V116.962H249.84ZM256.068 125.682V122.05C256.068 121.778 256.019 121.544 255.92 121.347C255.822 121.15 255.672 120.997 255.47 120.889C255.273 120.781 255.024 120.727 254.724 120.727C254.447 120.727 254.208 120.774 254.006 120.868C253.804 120.962 253.647 121.089 253.534 121.248C253.422 121.408 253.366 121.588 253.366 121.79H251.677C251.677 121.49 251.749 121.199 251.895 120.917C252.04 120.636 252.251 120.385 252.528 120.164C252.805 119.944 253.136 119.77 253.52 119.644C253.905 119.517 254.337 119.454 254.815 119.454C255.388 119.454 255.894 119.55 256.335 119.742C256.781 119.934 257.131 120.225 257.384 120.615C257.642 120.999 257.771 121.483 257.771 122.064V125.45C257.771 125.797 257.795 126.109 257.841 126.386C257.893 126.658 257.966 126.895 258.06 127.096V127.209H256.321C256.242 127.026 256.178 126.794 256.131 126.512C256.089 126.226 256.068 125.949 256.068 125.682ZM256.314 122.578L256.328 123.627H255.111C254.797 123.627 254.52 123.657 254.28 123.718C254.041 123.775 253.842 123.859 253.682 123.972C253.523 124.084 253.403 124.22 253.323 124.38C253.244 124.539 253.204 124.72 253.204 124.922C253.204 125.124 253.251 125.309 253.344 125.478C253.438 125.642 253.574 125.771 253.753 125.865C253.936 125.959 254.156 126.006 254.414 126.006C254.761 126.006 255.064 125.935 255.322 125.794C255.585 125.649 255.791 125.473 255.941 125.267C256.091 125.055 256.171 124.856 256.181 124.668L256.73 125.421C256.673 125.614 256.577 125.82 256.441 126.041C256.305 126.261 256.127 126.472 255.906 126.674C255.69 126.871 255.43 127.033 255.125 127.16C254.825 127.286 254.477 127.35 254.083 127.35C253.586 127.35 253.143 127.251 252.753 127.054C252.364 126.852 252.059 126.583 251.838 126.245C251.618 125.902 251.508 125.515 251.508 125.084C251.508 124.68 251.583 124.324 251.733 124.014C251.888 123.7 252.113 123.437 252.408 123.226C252.709 123.015 253.075 122.855 253.506 122.747C253.938 122.635 254.431 122.578 254.984 122.578H256.314ZM261.241 121.143V127.209H259.545V119.594H261.142L261.241 121.143ZM260.966 123.12L260.389 123.113C260.389 122.588 260.455 122.102 260.586 121.656C260.718 121.211 260.91 120.824 261.163 120.495C261.417 120.162 261.731 119.906 262.106 119.728C262.486 119.545 262.925 119.454 263.422 119.454C263.77 119.454 264.086 119.505 264.372 119.608C264.663 119.707 264.914 119.864 265.125 120.08C265.341 120.296 265.505 120.573 265.618 120.91C265.735 121.248 265.794 121.656 265.794 122.135V127.209H264.098V122.283C264.098 121.912 264.042 121.621 263.929 121.41C263.821 121.199 263.664 121.049 263.458 120.96C263.256 120.866 263.014 120.819 262.733 120.819C262.414 120.819 262.141 120.88 261.916 121.002C261.696 121.124 261.515 121.29 261.374 121.501C261.234 121.713 261.13 121.957 261.065 122.233C260.999 122.51 260.966 122.806 260.966 123.12ZM265.688 122.67L264.893 122.846C264.893 122.386 264.957 121.952 265.083 121.544C265.215 121.131 265.405 120.77 265.653 120.46C265.907 120.146 266.219 119.899 266.589 119.721C266.96 119.543 267.384 119.454 267.863 119.454C268.252 119.454 268.6 119.507 268.905 119.615C269.214 119.719 269.477 119.883 269.693 120.108C269.909 120.333 270.073 120.626 270.185 120.988C270.298 121.344 270.354 121.776 270.354 122.283V127.209H268.651V122.276C268.651 121.891 268.595 121.593 268.482 121.382C268.374 121.171 268.22 121.025 268.018 120.945C267.816 120.861 267.575 120.819 267.293 120.819C267.03 120.819 266.798 120.868 266.596 120.967C266.399 121.06 266.233 121.194 266.097 121.368C265.961 121.537 265.857 121.731 265.787 121.952C265.721 122.172 265.688 122.412 265.688 122.67ZM275.457 127.35C274.894 127.35 274.385 127.258 273.929 127.075C273.479 126.888 273.094 126.627 272.775 126.294C272.461 125.961 272.219 125.569 272.05 125.119C271.882 124.668 271.797 124.183 271.797 123.662V123.381C271.797 122.785 271.884 122.245 272.057 121.762C272.231 121.279 272.473 120.866 272.782 120.523C273.092 120.176 273.458 119.911 273.88 119.728C274.302 119.545 274.76 119.454 275.253 119.454C275.797 119.454 276.273 119.545 276.681 119.728C277.089 119.911 277.427 120.169 277.695 120.502C277.967 120.831 278.168 121.222 278.3 121.677C278.436 122.133 278.504 122.635 278.504 123.183V123.908H272.62V122.691H276.829V122.557C276.82 122.252 276.759 121.966 276.646 121.699C276.538 121.431 276.372 121.215 276.146 121.051C275.921 120.887 275.621 120.805 275.246 120.805C274.964 120.805 274.713 120.866 274.493 120.988C274.277 121.105 274.096 121.276 273.951 121.501C273.805 121.727 273.693 121.999 273.613 122.318C273.538 122.632 273.5 122.986 273.5 123.381V123.662C273.5 123.995 273.545 124.305 273.634 124.591C273.728 124.872 273.864 125.119 274.042 125.33C274.22 125.541 274.436 125.708 274.69 125.83C274.943 125.947 275.231 126.006 275.555 126.006C275.963 126.006 276.327 125.923 276.646 125.759C276.965 125.595 277.242 125.363 277.476 125.063L278.37 125.928C278.206 126.167 277.993 126.397 277.73 126.618C277.467 126.834 277.146 127.01 276.766 127.146C276.39 127.282 275.954 127.35 275.457 127.35Z" fill="#4B4B4B"/>
<rect x="129.859" y="114.958" width="15.4426" height="15.4426" rx="3.60327" fill="#F6F8F9"/>
<rect x="129.859" y="114.958" width="15.4426" height="15.4426" rx="3.60327" stroke="#B0BABF" stroke-width="1.0295"/>
<path d="M450.534 123.99L447.957 126.447L445.381 123.99C445.268 123.882 445.114 123.822 444.955 123.822C444.795 123.822 444.641 123.882 444.528 123.99C444.415 124.097 444.352 124.243 444.352 124.395C444.352 124.548 444.415 124.694 444.528 124.801L447.531 127.659C447.587 127.713 447.653 127.755 447.726 127.784C447.8 127.813 447.878 127.828 447.957 127.828C448.037 127.828 448.115 127.813 448.188 127.784C448.261 127.755 448.328 127.713 448.384 127.659L451.386 124.801C451.442 124.748 451.487 124.685 451.517 124.615C451.547 124.545 451.563 124.471 451.563 124.395C451.563 124.32 451.547 124.245 451.517 124.176C451.487 124.106 451.442 124.043 451.386 123.99C451.33 123.936 451.264 123.894 451.191 123.865C451.118 123.836 451.039 123.822 450.96 123.822C450.881 123.822 450.802 123.836 450.729 123.865C450.656 123.894 450.59 123.936 450.534 123.99ZM445.381 121.372L447.957 118.914L450.534 121.372C450.589 121.425 450.656 121.468 450.729 121.497C450.802 121.526 450.881 121.541 450.96 121.541C451.039 121.541 451.118 121.526 451.191 121.497C451.264 121.468 451.331 121.425 451.386 121.372C451.443 121.319 451.487 121.255 451.518 121.186C451.548 121.116 451.564 121.041 451.564 120.966C451.564 120.891 451.548 120.816 451.518 120.746C451.487 120.677 451.443 120.613 451.386 120.56L448.384 117.702C448.328 117.649 448.261 117.606 448.188 117.577C448.115 117.548 448.037 117.533 447.957 117.533C447.878 117.533 447.8 117.548 447.726 117.577C447.653 117.606 447.587 117.649 447.531 117.702L444.528 120.56C444.472 120.613 444.428 120.677 444.397 120.746C444.367 120.816 444.352 120.891 444.352 120.966C444.352 121.118 444.415 121.264 444.528 121.372C444.641 121.479 444.795 121.54 444.955 121.54C445.114 121.54 445.268 121.479 445.381 121.372Z" fill="#4B4B4B"/>
<path d="M371.133 123.861H372.892C372.836 124.532 372.648 125.131 372.329 125.656C372.01 126.177 371.562 126.587 370.985 126.888C370.408 127.188 369.707 127.338 368.881 127.338C368.248 127.338 367.678 127.225 367.171 127C366.664 126.77 366.23 126.447 365.869 126.029C365.508 125.607 365.231 125.098 365.038 124.502C364.851 123.906 364.757 123.24 364.757 122.503V121.652C364.757 120.915 364.853 120.249 365.045 119.653C365.242 119.057 365.524 118.548 365.89 118.126C366.256 117.699 366.695 117.373 367.206 117.148C367.722 116.922 368.302 116.81 368.944 116.81C369.761 116.81 370.45 116.96 371.013 117.26C371.576 117.56 372.013 117.976 372.322 118.506C372.637 119.036 372.829 119.644 372.899 120.329H371.14C371.093 119.888 370.99 119.51 370.83 119.195C370.676 118.881 370.446 118.642 370.141 118.478C369.836 118.309 369.437 118.224 368.944 118.224C368.541 118.224 368.189 118.299 367.889 118.449C367.588 118.6 367.337 118.82 367.136 119.111C366.934 119.402 366.781 119.761 366.678 120.188C366.58 120.61 366.53 121.093 366.53 121.638V122.503C366.53 123.019 366.575 123.488 366.664 123.911C366.758 124.328 366.899 124.687 367.086 124.987C367.279 125.288 367.523 125.52 367.818 125.684C368.114 125.848 368.468 125.93 368.881 125.93C369.383 125.93 369.789 125.851 370.098 125.691C370.413 125.532 370.65 125.299 370.809 124.994C370.973 124.685 371.081 124.307 371.133 123.861ZM376.031 121.032V127.197H374.335V119.583H375.954L376.031 121.032ZM378.361 119.533L378.347 121.11C378.243 121.091 378.131 121.077 378.009 121.067C377.891 121.058 377.774 121.053 377.657 121.053C377.366 121.053 377.11 121.096 376.89 121.18C376.669 121.26 376.484 121.377 376.334 121.532C376.188 121.682 376.076 121.865 375.996 122.081C375.916 122.297 375.869 122.538 375.855 122.806L375.468 122.834C375.468 122.355 375.515 121.912 375.609 121.504C375.703 121.096 375.844 120.737 376.031 120.427C376.224 120.117 376.463 119.876 376.749 119.702C377.04 119.529 377.375 119.442 377.755 119.442C377.859 119.442 377.969 119.451 378.086 119.47C378.208 119.489 378.3 119.51 378.361 119.533ZM382.64 127.338C382.077 127.338 381.567 127.247 381.112 127.064C380.662 126.876 380.277 126.615 379.958 126.282C379.644 125.949 379.402 125.557 379.233 125.107C379.064 124.657 378.98 124.171 378.98 123.65V123.369C378.98 122.773 379.067 122.233 379.24 121.75C379.414 121.267 379.656 120.854 379.965 120.512C380.275 120.164 380.641 119.899 381.063 119.716C381.485 119.533 381.943 119.442 382.435 119.442C382.98 119.442 383.456 119.533 383.864 119.716C384.272 119.899 384.61 120.157 384.877 120.49C385.15 120.819 385.351 121.211 385.483 121.666C385.619 122.121 385.687 122.623 385.687 123.172V123.897H379.803V122.679H384.012V122.545C384.002 122.24 383.941 121.954 383.829 121.687C383.721 121.419 383.554 121.204 383.329 121.039C383.104 120.875 382.804 120.793 382.428 120.793C382.147 120.793 381.896 120.854 381.675 120.976C381.46 121.093 381.279 121.265 381.133 121.49C380.988 121.715 380.875 121.987 380.796 122.306C380.721 122.62 380.683 122.975 380.683 123.369V123.65C380.683 123.983 380.728 124.293 380.817 124.579C380.911 124.861 381.047 125.107 381.225 125.318C381.403 125.529 381.619 125.696 381.872 125.818C382.126 125.935 382.414 125.994 382.738 125.994C383.146 125.994 383.51 125.912 383.829 125.748C384.148 125.583 384.425 125.351 384.659 125.051L385.553 125.916C385.389 126.156 385.175 126.386 384.913 126.606C384.65 126.822 384.329 126.998 383.949 127.134C383.573 127.27 383.137 127.338 382.64 127.338ZM391.303 125.67V122.039C391.303 121.767 391.254 121.532 391.155 121.335C391.057 121.138 390.906 120.985 390.705 120.877C390.508 120.77 390.259 120.716 389.959 120.716C389.682 120.716 389.443 120.763 389.241 120.856C389.039 120.95 388.882 121.077 388.769 121.236C388.657 121.396 388.6 121.577 388.6 121.778H386.911C386.911 121.478 386.984 121.187 387.13 120.906C387.275 120.624 387.486 120.373 387.763 120.153C388.04 119.932 388.37 119.758 388.755 119.632C389.14 119.505 389.572 119.442 390.05 119.442C390.623 119.442 391.129 119.538 391.57 119.73C392.016 119.923 392.366 120.214 392.619 120.603C392.877 120.988 393.006 121.471 393.006 122.053V125.438C393.006 125.785 393.029 126.097 393.076 126.374C393.128 126.646 393.201 126.883 393.294 127.085V127.197H391.556C391.476 127.014 391.413 126.782 391.366 126.501C391.324 126.214 391.303 125.938 391.303 125.67ZM391.549 122.567L391.563 123.615H390.346C390.031 123.615 389.755 123.646 389.515 123.707C389.276 123.763 389.077 123.847 388.917 123.96C388.758 124.073 388.638 124.209 388.558 124.368C388.478 124.528 388.439 124.708 388.439 124.91C388.439 125.112 388.485 125.297 388.579 125.466C388.673 125.63 388.809 125.759 388.987 125.853C389.17 125.947 389.391 125.994 389.649 125.994C389.996 125.994 390.299 125.923 390.557 125.783C390.82 125.637 391.026 125.461 391.176 125.255C391.326 125.044 391.406 124.844 391.415 124.657L391.964 125.41C391.908 125.602 391.812 125.809 391.676 126.029C391.54 126.25 391.361 126.461 391.141 126.662C390.925 126.859 390.665 127.021 390.36 127.148C390.06 127.275 389.712 127.338 389.318 127.338C388.821 127.338 388.378 127.239 387.988 127.042C387.599 126.841 387.294 126.571 387.073 126.233C386.853 125.891 386.742 125.504 386.742 125.072C386.742 124.668 386.818 124.312 386.968 124.002C387.122 123.688 387.348 123.425 387.643 123.214C387.944 123.003 388.309 122.843 388.741 122.735C389.173 122.623 389.665 122.567 390.219 122.567H391.549ZM398.27 119.583V120.821H393.977V119.583H398.27ZM395.216 117.718H396.912V125.093C396.912 125.328 396.945 125.508 397.01 125.635C397.081 125.757 397.177 125.839 397.299 125.881C397.421 125.923 397.564 125.945 397.728 125.945C397.845 125.945 397.958 125.938 398.066 125.923C398.174 125.909 398.261 125.895 398.326 125.881L398.333 127.176C398.193 127.218 398.028 127.256 397.841 127.289C397.658 127.322 397.447 127.338 397.207 127.338C396.818 127.338 396.473 127.27 396.173 127.134C395.873 126.993 395.638 126.766 395.469 126.451C395.3 126.137 395.216 125.719 395.216 125.199V117.718ZM402.936 127.338C402.373 127.338 401.864 127.247 401.409 127.064C400.958 126.876 400.574 126.615 400.255 126.282C399.94 125.949 399.699 125.557 399.53 125.107C399.361 124.657 399.276 124.171 399.276 123.65V123.369C399.276 122.773 399.363 122.233 399.537 121.75C399.71 121.267 399.952 120.854 400.262 120.512C400.571 120.164 400.937 119.899 401.36 119.716C401.782 119.533 402.239 119.442 402.732 119.442C403.276 119.442 403.752 119.533 404.161 119.716C404.569 119.899 404.907 120.157 405.174 120.49C405.446 120.819 405.648 121.211 405.779 121.666C405.915 122.121 405.983 122.623 405.983 123.172V123.897H400.1V122.679H404.308V122.545C404.299 122.24 404.238 121.954 404.125 121.687C404.017 121.419 403.851 121.204 403.626 121.039C403.401 120.875 403.1 120.793 402.725 120.793C402.443 120.793 402.192 120.854 401.972 120.976C401.756 121.093 401.575 121.265 401.43 121.49C401.285 121.715 401.172 121.987 401.092 122.306C401.017 122.62 400.98 122.975 400.98 123.369V123.65C400.98 123.983 401.024 124.293 401.113 124.579C401.207 124.861 401.343 125.107 401.521 125.318C401.7 125.529 401.916 125.696 402.169 125.818C402.422 125.935 402.711 125.994 403.035 125.994C403.443 125.994 403.806 125.912 404.125 125.748C404.444 125.583 404.721 125.351 404.956 125.051L405.85 125.916C405.685 126.156 405.472 126.386 405.209 126.606C404.946 126.822 404.625 126.998 404.245 127.134C403.87 127.27 403.433 127.338 402.936 127.338ZM411.951 125.621V116.387H413.654V127.197H412.113L411.951 125.621ZM406.997 123.474V123.327C406.997 122.749 407.065 122.224 407.201 121.75C407.337 121.272 407.534 120.861 407.792 120.519C408.05 120.171 408.364 119.906 408.735 119.723C409.106 119.536 409.523 119.442 409.988 119.442C410.448 119.442 410.851 119.531 411.198 119.709C411.545 119.888 411.841 120.143 412.085 120.476C412.329 120.805 412.524 121.199 412.669 121.659C412.815 122.114 412.918 122.62 412.979 123.179V123.65C412.918 124.195 412.815 124.692 412.669 125.142C412.524 125.593 412.329 125.982 412.085 126.311C411.841 126.639 411.543 126.892 411.191 127.071C410.844 127.249 410.438 127.338 409.974 127.338C409.514 127.338 409.099 127.242 408.728 127.049C408.362 126.857 408.05 126.587 407.792 126.24C407.534 125.893 407.337 125.485 407.201 125.016C407.065 124.542 406.997 124.028 406.997 123.474ZM408.693 123.327V123.474C408.693 123.822 408.723 124.145 408.784 124.446C408.85 124.746 408.951 125.011 409.087 125.241C409.223 125.466 409.399 125.644 409.615 125.776C409.835 125.902 410.098 125.966 410.403 125.966C410.788 125.966 411.104 125.881 411.353 125.712C411.602 125.543 411.796 125.316 411.937 125.03C412.083 124.739 412.181 124.415 412.233 124.058V122.785C412.205 122.508 412.146 122.25 412.057 122.011C411.972 121.771 411.857 121.562 411.712 121.384C411.567 121.201 411.386 121.06 411.17 120.962C410.959 120.859 410.708 120.807 410.417 120.807C410.107 120.807 409.845 120.873 409.629 121.004C409.413 121.136 409.235 121.316 409.094 121.546C408.958 121.776 408.857 122.043 408.791 122.348C408.726 122.653 408.693 122.979 408.693 123.327ZM418.693 123.474V123.312C418.693 122.764 418.773 122.255 418.933 121.785C419.092 121.311 419.322 120.901 419.622 120.554C419.927 120.202 420.298 119.93 420.734 119.737C421.175 119.54 421.673 119.442 422.226 119.442C422.784 119.442 423.282 119.54 423.718 119.737C424.159 119.93 424.532 120.202 424.837 120.554C425.142 120.901 425.374 121.311 425.534 121.785C425.693 122.255 425.773 122.764 425.773 123.312V123.474C425.773 124.023 425.693 124.532 425.534 125.002C425.374 125.471 425.142 125.881 424.837 126.233C424.532 126.58 424.162 126.852 423.725 127.049C423.289 127.242 422.794 127.338 422.24 127.338C421.682 127.338 421.182 127.242 420.741 127.049C420.305 126.852 419.934 126.58 419.629 126.233C419.324 125.881 419.092 125.471 418.933 125.002C418.773 124.532 418.693 124.023 418.693 123.474ZM420.389 123.312V123.474C420.389 123.817 420.425 124.141 420.495 124.446C420.565 124.751 420.676 125.018 420.826 125.248C420.976 125.478 421.168 125.658 421.403 125.79C421.637 125.921 421.917 125.987 422.24 125.987C422.555 125.987 422.827 125.921 423.057 125.79C423.291 125.658 423.484 125.478 423.634 125.248C423.784 125.018 423.894 124.751 423.964 124.446C424.04 124.141 424.077 123.817 424.077 123.474V123.312C424.077 122.975 424.04 122.656 423.964 122.355C423.894 122.05 423.781 121.781 423.627 121.546C423.477 121.311 423.284 121.128 423.05 120.997C422.82 120.861 422.545 120.793 422.226 120.793C421.907 120.793 421.63 120.861 421.396 120.997C421.166 121.128 420.976 121.311 420.826 121.546C420.676 121.781 420.565 122.05 420.495 122.355C420.425 122.656 420.389 122.975 420.389 123.312ZM428.877 121.208V127.197H427.181V119.583H428.778L428.877 121.208ZM428.574 123.108L428.025 123.101C428.03 122.562 428.105 122.067 428.25 121.616C428.401 121.166 428.607 120.779 428.87 120.455C429.137 120.131 429.456 119.883 429.827 119.709C430.197 119.531 430.61 119.442 431.065 119.442C431.431 119.442 431.762 119.493 432.058 119.597C432.358 119.695 432.614 119.857 432.825 120.082C433.041 120.307 433.205 120.601 433.317 120.962C433.43 121.318 433.486 121.757 433.486 122.278V127.197H431.783V122.271C431.783 121.905 431.729 121.616 431.621 121.405C431.518 121.189 431.366 121.037 431.164 120.948C430.967 120.854 430.721 120.807 430.425 120.807C430.134 120.807 429.874 120.868 429.644 120.99C429.414 121.112 429.219 121.279 429.06 121.49C428.905 121.701 428.785 121.945 428.701 122.222C428.616 122.498 428.574 122.794 428.574 123.108Z" fill="#4B4B4B"/>
<path d="M528.034 124.566C528.034 124.355 528.001 124.167 527.935 124.003C527.874 123.839 527.764 123.689 527.605 123.553C527.445 123.416 527.22 123.285 526.929 123.158C526.643 123.027 526.277 122.893 525.831 122.757C525.343 122.607 524.893 122.441 524.48 122.258C524.072 122.07 523.715 121.854 523.41 121.61C523.105 121.362 522.868 121.078 522.699 120.759C522.531 120.435 522.446 120.062 522.446 119.64C522.446 119.222 522.533 118.842 522.706 118.5C522.885 118.157 523.136 117.861 523.459 117.613C523.788 117.359 524.175 117.165 524.621 117.029C525.066 116.888 525.559 116.818 526.099 116.818C526.859 116.818 527.513 116.958 528.062 117.24C528.616 117.521 529.04 117.899 529.336 118.373C529.636 118.847 529.786 119.37 529.786 119.942H528.034C528.034 119.604 527.961 119.307 527.816 119.048C527.675 118.786 527.459 118.579 527.168 118.429C526.882 118.279 526.519 118.204 526.077 118.204C525.66 118.204 525.313 118.267 525.036 118.394C524.759 118.521 524.553 118.692 524.417 118.908C524.281 119.124 524.213 119.368 524.213 119.64C524.213 119.832 524.257 120.008 524.346 120.167C524.435 120.322 524.571 120.468 524.754 120.604C524.937 120.735 525.167 120.859 525.444 120.977C525.721 121.094 526.047 121.207 526.422 121.315C526.99 121.483 527.485 121.671 527.907 121.878C528.33 122.079 528.681 122.309 528.963 122.567C529.244 122.825 529.456 123.119 529.596 123.447C529.737 123.771 529.807 124.139 529.807 124.552C529.807 124.984 529.721 125.373 529.547 125.72C529.373 126.063 529.125 126.356 528.801 126.6C528.482 126.839 528.097 127.024 527.647 127.156C527.201 127.282 526.704 127.346 526.155 127.346C525.662 127.346 525.177 127.28 524.698 127.149C524.224 127.017 523.793 126.818 523.403 126.551C523.014 126.278 522.704 125.941 522.474 125.537C522.244 125.129 522.129 124.653 522.129 124.109H523.896C523.896 124.442 523.952 124.725 524.065 124.96C524.182 125.195 524.344 125.387 524.55 125.537C524.757 125.683 524.996 125.791 525.268 125.861C525.545 125.931 525.841 125.966 526.155 125.966C526.568 125.966 526.913 125.908 527.189 125.791C527.471 125.673 527.682 125.509 527.823 125.298C527.964 125.087 528.034 124.843 528.034 124.566ZM534.692 119.59V120.829H530.399V119.59H534.692ZM531.637 117.725H533.333V125.101C533.333 125.335 533.366 125.516 533.432 125.643C533.502 125.765 533.598 125.847 533.72 125.889C533.842 125.931 533.985 125.952 534.15 125.952C534.267 125.952 534.38 125.945 534.487 125.931C534.595 125.917 534.682 125.903 534.748 125.889L534.755 127.184C534.614 127.226 534.45 127.264 534.262 127.297C534.079 127.329 533.868 127.346 533.629 127.346C533.239 127.346 532.895 127.278 532.594 127.142C532.294 127.001 532.059 126.773 531.891 126.459C531.722 126.145 531.637 125.727 531.637 125.206V117.725ZM540.294 125.678V122.046C540.294 121.774 540.244 121.54 540.146 121.343C540.047 121.146 539.897 120.993 539.695 120.885C539.498 120.777 539.25 120.723 538.949 120.723C538.673 120.723 538.433 120.77 538.231 120.864C538.03 120.958 537.873 121.085 537.76 121.244C537.647 121.404 537.591 121.584 537.591 121.786H535.902C535.902 121.486 535.975 121.195 536.12 120.913C536.266 120.632 536.477 120.381 536.754 120.16C537.03 119.94 537.361 119.766 537.746 119.64C538.131 119.513 538.562 119.45 539.041 119.45C539.613 119.45 540.12 119.546 540.561 119.738C541.007 119.931 541.356 120.221 541.61 120.611C541.868 120.996 541.997 121.479 541.997 122.061V125.446C541.997 125.793 542.02 126.105 542.067 126.382C542.119 126.654 542.191 126.891 542.285 127.092V127.205H540.547C540.467 127.022 540.404 126.79 540.357 126.508C540.315 126.222 540.294 125.945 540.294 125.678ZM540.54 122.574L540.554 123.623H539.336C539.022 123.623 538.745 123.653 538.506 123.714C538.267 123.771 538.067 123.855 537.908 123.968C537.748 124.08 537.629 124.216 537.549 124.376C537.469 124.535 537.429 124.716 537.429 124.918C537.429 125.12 537.476 125.305 537.57 125.474C537.664 125.638 537.8 125.767 537.978 125.861C538.161 125.955 538.382 126.002 538.64 126.002C538.987 126.002 539.289 125.931 539.548 125.791C539.81 125.645 540.017 125.469 540.167 125.263C540.317 125.052 540.397 124.852 540.406 124.664L540.955 125.418C540.899 125.61 540.803 125.816 540.666 126.037C540.53 126.257 540.352 126.468 540.132 126.67C539.916 126.867 539.655 127.029 539.35 127.156C539.05 127.282 538.703 127.346 538.309 127.346C537.812 127.346 537.368 127.247 536.979 127.05C536.589 126.849 536.284 126.579 536.064 126.241C535.843 125.898 535.733 125.511 535.733 125.08C535.733 124.676 535.808 124.32 535.958 124.01C536.113 123.696 536.338 123.433 536.634 123.222C536.934 123.011 537.3 122.851 537.732 122.743C538.163 122.631 538.656 122.574 539.21 122.574H540.54ZM547.261 119.59V120.829H542.968V119.59H547.261ZM544.206 117.725H545.902V125.101C545.902 125.335 545.935 125.516 546.001 125.643C546.071 125.765 546.168 125.847 546.29 125.889C546.412 125.931 546.555 125.952 546.719 125.952C546.836 125.952 546.949 125.945 547.057 125.931C547.165 125.917 547.251 125.903 547.317 125.889L547.324 127.184C547.183 127.226 547.019 127.264 546.831 127.297C546.648 127.329 546.437 127.346 546.198 127.346C545.809 127.346 545.464 127.278 545.164 127.142C544.863 127.001 544.629 126.773 544.46 126.459C544.291 126.145 544.206 125.727 544.206 125.206V117.725ZM553.151 125.41V119.59H554.854V127.205H553.25L553.151 125.41ZM553.391 123.827L553.961 123.813C553.961 124.324 553.904 124.796 553.792 125.228C553.679 125.654 553.505 126.027 553.271 126.346C553.036 126.661 552.736 126.907 552.37 127.085C552.004 127.259 551.565 127.346 551.054 127.346C550.683 127.346 550.343 127.292 550.034 127.184C549.724 127.076 549.456 126.909 549.231 126.684C549.011 126.459 548.84 126.166 548.718 125.805C548.596 125.443 548.535 125.012 548.535 124.51V119.59H550.231V124.524C550.231 124.801 550.263 125.033 550.329 125.22C550.395 125.403 550.484 125.551 550.597 125.664C550.709 125.776 550.841 125.856 550.991 125.903C551.141 125.95 551.3 125.973 551.469 125.973C551.953 125.973 552.333 125.88 552.609 125.692C552.891 125.5 553.09 125.242 553.208 124.918C553.33 124.594 553.391 124.231 553.391 123.827ZM560.864 125.143C560.864 124.974 560.822 124.822 560.738 124.686C560.653 124.545 560.491 124.418 560.252 124.306C560.018 124.193 559.67 124.09 559.211 123.996C558.807 123.907 558.437 123.801 558.099 123.679C557.766 123.553 557.479 123.4 557.24 123.222C557.001 123.043 556.816 122.832 556.684 122.588C556.553 122.344 556.487 122.063 556.487 121.744C556.487 121.434 556.555 121.141 556.691 120.864C556.827 120.587 557.022 120.343 557.275 120.132C557.529 119.921 557.836 119.755 558.197 119.633C558.563 119.511 558.971 119.45 559.422 119.45C560.06 119.45 560.606 119.558 561.062 119.773C561.521 119.984 561.873 120.273 562.117 120.639C562.361 121 562.483 121.408 562.483 121.864H560.787C560.787 121.662 560.735 121.474 560.632 121.301C560.534 121.122 560.384 120.979 560.182 120.871C559.98 120.759 559.727 120.702 559.422 120.702C559.131 120.702 558.889 120.749 558.697 120.843C558.509 120.932 558.368 121.049 558.275 121.195C558.186 121.34 558.141 121.5 558.141 121.674C558.141 121.8 558.164 121.915 558.211 122.018C558.263 122.117 558.347 122.208 558.465 122.293C558.582 122.373 558.741 122.448 558.943 122.518C559.15 122.588 559.408 122.656 559.717 122.722C560.299 122.844 560.799 123.001 561.216 123.194C561.639 123.381 561.962 123.625 562.188 123.926C562.413 124.221 562.525 124.596 562.525 125.052C562.525 125.389 562.453 125.699 562.307 125.981C562.166 126.257 561.96 126.499 561.688 126.705C561.416 126.907 561.09 127.064 560.71 127.177C560.334 127.29 559.912 127.346 559.443 127.346C558.753 127.346 558.169 127.224 557.691 126.98C557.212 126.731 556.848 126.415 556.6 126.03C556.356 125.64 556.234 125.237 556.234 124.819H557.874C557.892 125.134 557.979 125.385 558.134 125.572C558.293 125.755 558.49 125.889 558.725 125.973C558.964 126.053 559.211 126.093 559.464 126.093C559.769 126.093 560.025 126.053 560.231 125.973C560.438 125.889 560.595 125.776 560.703 125.636C560.811 125.49 560.864 125.326 560.864 125.143Z" fill="#4B4B4B"/>
<path d="M181.962 179.928L181.962 179.928L176.613 179.421L176.303 179.391L176.185 179.103L174.071 173.939C174.071 173.939 174.071 173.939 174.071 173.939C173.99 173.743 173.816 173.634 173.641 173.634C173.464 173.634 173.291 173.743 173.211 173.938L173.211 173.939L171.097 179.103L170.979 179.392L170.669 179.421L165.32 179.928C165.32 179.928 165.32 179.928 165.32 179.928C165.145 179.945 164.979 180.071 164.915 180.275C164.851 180.481 164.913 180.701 165.058 180.834C165.058 180.834 165.058 180.834 165.058 180.834L169.102 184.534L169.32 184.734L169.257 185.023L168.065 190.502C168.065 190.502 168.065 190.502 168.065 190.502C168.019 190.717 168.101 190.927 168.255 191.043L168.256 191.044C168.338 191.106 168.431 191.135 168.523 191.135C168.601 191.135 168.681 191.114 168.755 191.068L168.755 191.068L173.368 188.19L173.641 188.02L173.913 188.19L178.525 191.068C178.681 191.165 178.875 191.157 179.025 191.044L179.026 191.043C179.18 190.927 179.262 190.717 179.216 190.503L181.962 179.928ZM181.962 179.928C182.137 179.944 182.303 180.07 182.366 180.274C182.43 180.481 182.368 180.701 182.223 180.834C182.223 180.834 182.223 180.834 182.223 180.834L178.179 184.534L177.961 184.734L178.024 185.023L179.216 190.502L181.962 179.928Z" fill="#FAC300" stroke="#FAC300" stroke-width="1.0295"/>
<rect x="129.874" y="174.665" width="15.4426" height="15.4426" rx="3.60327" fill="#F6F8F9"/>
<rect x="129.874" y="174.665" width="15.4426" height="15.4426" rx="3.60327" stroke="#B0BABF" stroke-width="1.0295"/>
<rect x="203.477" y="179.295" width="99.8619" height="6.17703" rx="3.08851" fill="#D9D9D9"/>
<rect x="364.078" y="179.299" width="96.7734" height="6.17703" rx="3.08851" fill="#D9D9D9"/>
<rect x="521.578" y="179.299" width="41.1802" height="6.17703" rx="3.08851" fill="#D9D9D9"/>
<path d="M181.962 235.521L181.962 235.521L176.613 235.015L176.303 234.985L176.185 234.697L174.071 229.533C174.071 229.533 174.071 229.533 174.071 229.533C173.99 229.336 173.816 229.228 173.641 229.228C173.464 229.228 173.291 229.337 173.211 229.532L173.211 229.532L171.097 234.697L170.979 234.985L170.669 235.015L165.32 235.521C165.32 235.521 165.32 235.521 165.32 235.521C165.145 235.538 164.979 235.664 164.915 235.868C164.851 236.075 164.913 236.295 165.058 236.427C165.058 236.427 165.058 236.427 165.058 236.427L169.102 240.127L169.32 240.327L169.257 240.617L168.065 246.096C168.065 246.096 168.065 246.096 168.065 246.096C168.019 246.311 168.101 246.521 168.255 246.637L168.256 246.638C168.338 246.7 168.431 246.729 168.523 246.729C168.601 246.729 168.681 246.708 168.755 246.662L168.755 246.661L173.368 243.783L173.641 243.613L173.913 243.783L178.525 246.661C178.681 246.759 178.875 246.751 179.025 246.638L179.026 246.637C179.18 246.521 179.262 246.311 179.216 246.096L181.962 235.521ZM181.962 235.521C182.137 235.538 182.303 235.664 182.366 235.868C182.43 236.075 182.368 236.294 182.223 236.427C182.223 236.428 182.223 236.428 182.223 236.428L178.179 240.127L177.961 240.327L178.024 240.617L179.216 246.096L181.962 235.521Z" fill="#FAC300" stroke="#FAC300" stroke-width="1.0295"/>
<rect x="129.874" y="230.259" width="15.4426" height="15.4426" rx="3.60327" fill="#F6F8F9"/>
<rect x="129.874" y="230.259" width="15.4426" height="15.4426" rx="3.60327" stroke="#B0BABF" stroke-width="1.0295"/>
<rect x="203.477" y="234.889" width="99.8619" height="6.17703" rx="3.08851" fill="#D9D9D9"/>
<rect x="364.078" y="234.896" width="96.7734" height="6.17703" rx="3.08851" fill="#D9D9D9"/>
<rect x="521.578" y="234.893" width="41.1802" height="6.17703" rx="3.08851" fill="#D9D9D9"/>
<path d="M181.962 291.115L181.962 291.115L176.613 290.608L176.303 290.579L176.185 290.291L174.071 285.127C174.071 285.127 174.071 285.127 174.071 285.127C173.99 284.93 173.816 284.821 173.641 284.821C173.464 284.821 173.291 284.93 173.211 285.126L173.211 285.126L171.097 290.291L170.979 290.579L170.669 290.608L165.32 291.115C165.32 291.115 165.32 291.115 165.32 291.115C165.145 291.132 164.979 291.258 164.915 291.462C164.851 291.668 164.913 291.888 165.058 292.021C165.058 292.021 165.058 292.021 165.058 292.021L169.102 295.721L169.32 295.921L169.257 296.21L168.065 301.69C168.065 301.69 168.065 301.69 168.065 301.69C168.019 301.904 168.101 302.115 168.255 302.231L168.256 302.232C168.338 302.294 168.431 302.323 168.523 302.323C168.601 302.323 168.681 302.301 168.755 302.255L168.755 302.255L173.368 299.377L173.641 299.207L173.913 299.377L178.525 302.255C178.681 302.353 178.875 302.345 179.025 302.231L179.026 302.231C179.18 302.115 179.262 301.904 179.216 301.69L181.962 291.115ZM181.962 291.115C182.137 291.132 182.303 291.258 182.366 291.462C182.43 291.669 182.368 291.888 182.223 292.021C182.223 292.021 182.223 292.021 182.223 292.021L178.179 295.721L177.961 295.921L178.024 296.21L179.216 301.69L181.962 291.115Z" fill="#FAC300" stroke="#FAC300" stroke-width="1.0295"/>
<rect x="129.874" y="285.853" width="15.4426" height="15.4426" rx="3.60327" fill="#F6F8F9"/>
<rect x="129.874" y="285.853" width="15.4426" height="15.4426" rx="3.60327" stroke="#B0BABF" stroke-width="1.0295"/>
<rect x="203.477" y="290.482" width="99.8619" height="6.17703" rx="3.08851" fill="#D9D9D9"/>
<rect x="364.078" y="290.49" width="96.7734" height="6.17703" rx="3.08851" fill="#D9D9D9"/>
<rect x="521.578" y="290.49" width="41.1802" height="6.17703" rx="3.08851" fill="#D9D9D9"/>
<path d="M181.962 346.713L181.962 346.713L176.613 346.206L176.303 346.177L176.185 345.889L174.071 340.724C174.071 340.724 174.071 340.724 174.071 340.724C173.99 340.528 173.816 340.419 173.641 340.419C173.464 340.419 173.291 340.528 173.211 340.723L173.211 340.724L171.097 345.889L170.979 346.177L170.669 346.206L165.32 346.713C165.32 346.713 165.32 346.713 165.32 346.713C165.145 346.73 164.979 346.856 164.915 347.06C164.851 347.266 164.913 347.486 165.058 347.619C165.058 347.619 165.058 347.619 165.058 347.619L169.102 351.319L169.32 351.519L169.257 351.808L168.065 357.287C168.065 357.287 168.065 357.288 168.065 357.288C168.019 357.502 168.101 357.713 168.255 357.829L168.256 357.829C168.338 357.892 168.431 357.921 168.523 357.921C168.601 357.921 168.681 357.899 168.755 357.853L168.755 357.853L173.368 354.975L173.641 354.805L173.913 354.975L178.525 357.853C178.681 357.951 178.875 357.943 179.025 357.829L179.026 357.829C179.18 357.713 179.262 357.502 179.216 357.288L181.962 346.713ZM181.962 346.713C182.137 346.729 182.303 346.855 182.366 347.059C182.43 347.266 182.368 347.486 182.223 347.619C182.223 347.619 182.223 347.619 182.223 347.619L178.179 351.319L177.961 351.519L178.024 351.808L179.216 357.287L181.962 346.713Z" fill="#FAC300" stroke="#FAC300" stroke-width="1.0295"/>
<rect x="129.874" y="341.45" width="15.4426" height="15.4426" rx="3.60327" fill="#F6F8F9"/>
<rect x="129.874" y="341.45" width="15.4426" height="15.4426" rx="3.60327" stroke="#B0BABF" stroke-width="1.0295"/>
<rect x="203.477" y="346.08" width="99.8619" height="6.17703" rx="3.08851" fill="#D9D9D9"/>
<rect x="364.078" y="346.08" width="96.7734" height="6.17703" rx="3.08851" fill="#D9D9D9"/>
<rect x="521.609" y="346.08" width="41.1802" height="6.17703" rx="3.08851" fill="#D9D9D9"/>
<rect x="451.586" y="39.291" width="127.659" height="39.1212" rx="4.11802" fill="#009A73"/>
<path d="M487.339 53.1341V63.3809H485.573V53.1341H487.339ZM491.52 57.617V59.0175H486.889V57.617H491.52ZM492.104 53.1341V54.5416H486.889V53.1341H492.104ZM492.864 59.658V59.4961C492.864 58.9472 492.944 58.4381 493.103 57.9689C493.263 57.4951 493.492 57.0845 493.793 56.7373C494.098 56.3855 494.468 56.1133 494.905 55.921C495.346 55.7239 495.843 55.6254 496.397 55.6254C496.955 55.6254 497.452 55.7239 497.889 55.921C498.33 56.1133 498.703 56.3855 499.008 56.7373C499.313 57.0845 499.545 57.4951 499.704 57.9689C499.864 58.4381 499.944 58.9472 499.944 59.4961V59.658C499.944 60.2069 499.864 60.7159 499.704 61.1851C499.545 61.6543 499.313 62.0648 499.008 62.4167C498.703 62.7639 498.332 63.036 497.896 63.2331C497.459 63.4254 496.964 63.5216 496.411 63.5216C495.852 63.5216 495.353 63.4254 494.912 63.2331C494.475 63.036 494.105 62.7639 493.8 62.4167C493.495 62.0648 493.263 61.6543 493.103 61.1851C492.944 60.7159 492.864 60.2069 492.864 59.658ZM494.56 59.4961V59.658C494.56 60.0005 494.595 60.3242 494.665 60.6291C494.736 60.9341 494.846 61.2015 494.996 61.4314C495.146 61.6613 495.339 61.842 495.573 61.9733C495.808 62.1047 496.087 62.1704 496.411 62.1704C496.725 62.1704 496.997 62.1047 497.227 61.9733C497.462 61.842 497.654 61.6613 497.804 61.4314C497.954 61.2015 498.065 60.9341 498.135 60.6291C498.21 60.3242 498.248 60.0005 498.248 59.658V59.4961C498.248 59.1583 498.21 58.8392 498.135 58.539C498.065 58.234 497.952 57.9642 497.797 57.7296C497.647 57.4951 497.455 57.3121 497.22 57.1807C496.99 57.0446 496.716 56.9766 496.397 56.9766C496.078 56.9766 495.801 57.0446 495.566 57.1807C495.336 57.3121 495.146 57.4951 494.996 57.7296C494.846 57.9642 494.736 58.234 494.665 58.539C494.595 58.8392 494.56 59.1583 494.56 59.4961ZM503.068 57.2159V63.3809H501.372V55.7661H502.991L503.068 57.2159ZM505.398 55.7169L505.384 57.2933C505.281 57.2745 505.168 57.2605 505.046 57.2511C504.929 57.2417 504.811 57.237 504.694 57.237C504.403 57.237 504.147 57.2792 503.927 57.3637C503.706 57.4434 503.521 57.5607 503.371 57.7156C503.226 57.8657 503.113 58.0487 503.033 58.2645C502.953 58.4803 502.906 58.7219 502.892 58.9894L502.505 59.0175C502.505 58.539 502.552 58.0956 502.646 57.6874C502.74 57.2792 502.881 56.9203 503.068 56.6107C503.261 56.301 503.5 56.0594 503.786 55.8858C504.077 55.7122 504.413 55.6254 504.793 55.6254C504.896 55.6254 505.006 55.6348 505.123 55.6535C505.245 55.6723 505.337 55.6934 505.398 55.7169ZM508.157 57.3144V63.3809H506.461V55.7661H508.058L508.157 57.3144ZM507.882 59.292L507.305 59.285C507.305 58.7595 507.371 58.2739 507.502 57.8282C507.633 57.3825 507.826 56.9954 508.079 56.667C508.333 56.3338 508.647 56.0781 509.022 55.8999C509.402 55.7169 509.841 55.6254 510.338 55.6254C510.685 55.6254 511.002 55.677 511.288 55.7802C511.579 55.8787 511.83 56.0359 512.041 56.2517C512.257 56.4676 512.421 56.7444 512.534 57.0822C512.651 57.42 512.71 57.8282 512.71 58.3067V63.3809H511.014V58.4545C511.014 58.0839 510.958 57.793 510.845 57.5819C510.737 57.3707 510.58 57.2206 510.373 57.1314C510.172 57.0376 509.93 56.9907 509.649 56.9907C509.33 56.9907 509.057 57.0517 508.832 57.1737C508.612 57.2957 508.431 57.4622 508.29 57.6733C508.15 57.8845 508.046 58.1284 507.981 58.4053C507.915 58.6821 507.882 58.9776 507.882 59.292ZM512.604 58.8416L511.809 59.0175C511.809 58.5577 511.872 58.1238 511.999 57.7156C512.13 57.3027 512.321 56.9414 512.569 56.6318C512.823 56.3174 513.135 56.0711 513.505 55.8928C513.876 55.7145 514.3 55.6254 514.779 55.6254C515.168 55.6254 515.516 55.6793 515.821 55.7873C516.13 55.8905 516.393 56.0547 516.609 56.2799C516.825 56.5051 516.989 56.7983 517.101 57.1596C517.214 57.5162 517.27 57.9478 517.27 58.4545V63.3809H515.567V58.4475C515.567 58.0628 515.511 57.7648 515.398 57.5537C515.29 57.3426 515.136 57.1971 514.934 57.1174C514.732 57.0329 514.49 56.9907 514.209 56.9907C513.946 56.9907 513.714 57.04 513.512 57.1385C513.315 57.2323 513.149 57.366 513.013 57.5396C512.876 57.7085 512.773 57.9032 512.703 58.1238C512.637 58.3443 512.604 58.5835 512.604 58.8416ZM529.192 61.9804V63.3809H524.048V61.9804H529.192ZM524.54 53.1341V63.3809H522.774V53.1341H524.54ZM532.204 55.7661V63.3809H530.501V55.7661H532.204ZM530.388 53.7675C530.388 53.5094 530.473 53.2959 530.642 53.127C530.815 52.9534 531.055 52.8666 531.36 52.8666C531.66 52.8666 531.897 52.9534 532.07 53.127C532.244 53.2959 532.331 53.5094 532.331 53.7675C532.331 54.0208 532.244 54.2319 532.07 54.4008C531.897 54.5697 531.66 54.6542 531.36 54.6542C531.055 54.6542 530.815 54.5697 530.642 54.4008C530.473 54.2319 530.388 54.0208 530.388 53.7675ZM538.334 61.3188C538.334 61.1499 538.292 60.9974 538.207 60.8614C538.123 60.7206 537.961 60.594 537.722 60.4814C537.487 60.3688 537.14 60.2655 536.68 60.1717C536.277 60.0826 535.906 59.977 535.568 59.855C535.235 59.7283 534.949 59.5758 534.71 59.3976C534.47 59.2193 534.285 59.0081 534.154 58.7642C534.022 58.5202 533.957 58.2387 533.957 57.9197C533.957 57.61 534.025 57.3168 534.161 57.04C534.297 56.7631 534.491 56.5192 534.745 56.308C534.998 56.0969 535.305 55.9304 535.667 55.8084C536.033 55.6864 536.441 55.6254 536.891 55.6254C537.529 55.6254 538.076 55.7333 538.531 55.9491C538.991 56.1603 539.343 56.4488 539.587 56.8148C539.831 57.176 539.953 57.5842 539.953 58.0393H538.257C538.257 57.8376 538.205 57.6499 538.102 57.4763C538.003 57.298 537.853 57.1549 537.651 57.047C537.45 56.9344 537.196 56.8781 536.891 56.8781C536.6 56.8781 536.359 56.925 536.166 57.0188C535.979 57.108 535.838 57.2253 535.744 57.3707C535.655 57.5162 535.61 57.6757 535.61 57.8493C535.61 57.976 535.634 58.0909 535.681 58.1941C535.732 58.2927 535.817 58.3841 535.934 58.4686C536.051 58.5484 536.211 58.6234 536.413 58.6938C536.619 58.7642 536.877 58.8322 537.187 58.8979C537.769 59.0199 538.268 59.177 538.686 59.3694C539.108 59.5571 539.432 59.8011 539.657 60.1013C539.882 60.3969 539.995 60.7722 539.995 61.2273C539.995 61.5652 539.922 61.8748 539.777 62.1563C539.636 62.4331 539.429 62.6748 539.157 62.8812C538.885 63.0829 538.559 63.2401 538.179 63.3527C537.804 63.4653 537.381 63.5216 536.912 63.5216C536.223 63.5216 535.639 63.3996 535.16 63.1557C534.681 62.907 534.318 62.5903 534.069 62.2056C533.825 61.8162 533.703 61.4127 533.703 60.9951H535.343C535.362 61.3095 535.448 61.5605 535.603 61.7481C535.763 61.9311 535.96 62.0648 536.194 62.1493C536.434 62.229 536.68 62.2689 536.933 62.2689C537.238 62.2689 537.494 62.229 537.701 62.1493C537.907 62.0648 538.064 61.9522 538.172 61.8115C538.28 61.666 538.334 61.5018 538.334 61.3188ZM544.97 55.7661V57.0048H540.677V55.7661H544.97ZM541.916 53.9012H543.612V61.2766C543.612 61.5112 543.645 61.6918 543.711 61.8185C543.781 61.9405 543.877 62.0226 543.999 62.0648C544.121 62.107 544.264 62.1282 544.429 62.1282C544.546 62.1282 544.658 62.1211 544.766 62.107C544.874 62.093 544.961 62.0789 545.027 62.0648L545.034 63.3597C544.893 63.402 544.729 63.4395 544.541 63.4723C544.358 63.5052 544.147 63.5216 543.908 63.5216C543.518 63.5216 543.173 63.4536 542.873 63.3175C542.573 63.1768 542.338 62.9492 542.169 62.6349C542.001 62.3205 541.916 61.903 541.916 61.3822V53.9012Z" fill="white"/>
<g filter="url(#filter1_d_1772_10585)">
<g clip-path="url(#clip0_1772_10585)">
<rect x="6" y="4.4668" width="185.087" height="246.572" rx="5.70474" fill="white"/>
<rect width="185.087" height="44.3702" transform="translate(6.02344 173.705)" fill="white"/>
<rect x="16.3777" y="50.2937" width="164.423" height="18.6355" rx="3.613" stroke="#CBD5E1" stroke-width="0.380316"/>
<path d="M170.186 58.4757L168.601 60.036L167.017 58.4757C166.953 58.4107 166.827 58.3457 166.763 58.3457C166.7 58.3457 166.573 58.4107 166.51 58.4757C166.446 58.5407 166.383 58.6057 166.383 58.7358C166.383 58.8658 166.446 58.9308 166.51 58.9958L168.348 60.8161C168.348 60.8161 168.411 60.8161 168.475 60.8811C168.538 60.8811 168.538 60.8811 168.601 60.8811C168.665 60.8811 168.728 60.8811 168.728 60.8811C168.791 60.8811 168.791 60.8161 168.855 60.8161L170.693 58.9958C170.756 58.9308 170.756 58.8658 170.82 58.8658C170.82 58.8008 170.82 58.8008 170.82 58.7358C170.82 58.6708 170.82 58.6708 170.82 58.6057C170.82 58.5407 170.756 58.5407 170.756 58.4757C170.693 58.4107 170.63 58.4107 170.566 58.4107C170.503 58.4107 170.503 58.4107 170.44 58.4107C170.376 58.4107 170.313 58.4107 170.313 58.4107C170.249 58.4107 170.249 58.4107 170.186 58.4757Z" fill="#939393"/>
<rect x="16.3777" y="96.5671" width="164.423" height="18.6355" rx="3.613" stroke="#CBD5E1" stroke-width="0.380316"/>
<path d="M170.186 104.749L168.601 106.309L167.017 104.749C166.953 104.684 166.827 104.619 166.763 104.619C166.7 104.619 166.573 104.684 166.51 104.749C166.446 104.814 166.383 104.879 166.383 105.009C166.383 105.139 166.446 105.204 166.51 105.269L168.348 107.09C168.348 107.09 168.411 107.09 168.475 107.155C168.538 107.155 168.538 107.155 168.601 107.155C168.665 107.155 168.728 107.155 168.728 107.155C168.791 107.155 168.791 107.09 168.855 107.09L170.693 105.269C170.756 105.204 170.756 105.139 170.82 105.139C170.82 105.074 170.82 105.074 170.82 105.009C170.82 104.944 170.82 104.944 170.82 104.879C170.82 104.814 170.756 104.814 170.756 104.749C170.693 104.684 170.63 104.684 170.566 104.684C170.503 104.684 170.503 104.684 170.44 104.684C170.376 104.684 170.313 104.684 170.313 104.684C170.249 104.684 170.249 104.684 170.186 104.749Z" fill="#939393"/>
<rect x="16.3777" y="142.837" width="164.423" height="18.6355" rx="3.613" stroke="#CBD5E1" stroke-width="0.380316"/>
<path d="M170.186 151.019L168.601 152.579L167.017 151.019C166.953 150.954 166.827 150.889 166.763 150.889C166.7 150.889 166.573 150.954 166.51 151.019C166.446 151.084 166.383 151.149 166.383 151.279C166.383 151.409 166.446 151.474 166.51 151.539L168.348 153.359C168.348 153.359 168.411 153.359 168.475 153.424C168.538 153.424 168.538 153.424 168.601 153.424C168.665 153.424 168.728 153.424 168.728 153.424C168.791 153.424 168.791 153.359 168.855 153.359L170.693 151.539C170.756 151.474 170.756 151.409 170.82 151.409C170.82 151.344 170.82 151.344 170.82 151.279C170.82 151.214 170.82 151.214 170.82 151.149C170.82 151.084 170.756 151.084 170.756 151.019C170.693 150.954 170.63 150.954 170.566 150.954C170.503 150.954 170.503 150.954 170.44 150.954C170.376 150.954 170.313 150.954 170.313 150.954C170.249 150.954 170.249 150.954 170.186 151.019Z" fill="#939393"/>
<rect x="16.7734" y="178.611" width="40.8497" height="4.29997" rx="2.14998" fill="#D9D9D9"/>
<rect x="16.7734" y="133.463" width="53.7496" height="4.29997" rx="2.14998" fill="#D9D9D9"/>
<rect x="16.7734" y="87.2402" width="53.7496" height="4.29997" rx="2.14998" fill="#D9D9D9"/>
<rect x="16.7734" y="39.9395" width="40.8497" height="4.29997" rx="2.14998" fill="#D9D9D9"/>
<path d="M6 10.1715C6 7.02089 8.5541 4.4668 11.7047 4.4668H185.382C188.533 4.4668 191.087 7.0209 191.087 10.1715V29.8212H6V10.1715Z" fill="#E5F5F1"/>
<rect x="16.3542" y="189.11" width="164.423" height="18.6355" rx="3.613" stroke="#CBD5E1" stroke-width="0.380316"/>
<path d="M161.922 196.652V196.209C161.922 195.475 162.54 194.878 163.299 194.878H163.758V193.99H164.676V194.878H165.9V193.99H166.818V194.878H168.042V193.99H168.96V194.878H169.419C170.178 194.878 170.796 195.475 170.796 196.209V196.652H161.922ZM170.796 197.54V201.533C170.796 202.267 170.178 202.864 169.419 202.864H163.299C162.54 202.864 161.922 202.267 161.922 201.533V197.54H170.796ZM164.676 200.498H163.758V201.385H164.676V200.498ZM164.676 198.723H163.758V199.61H164.676V198.723ZM166.818 200.498H165.9V201.385H166.818V200.498ZM166.818 198.723H165.9V199.61H166.818V198.723ZM168.96 200.498H168.042V201.385H168.96V200.498ZM168.96 198.723H168.042V199.61H168.96V198.723Z" fill="#939393"/>
<rect x="16.1641" y="221.881" width="79.7848" height="19.0158" rx="3.80316" fill="#009A73"/>
<path d="M47.6545 228.92L45.7696 234.389H44.6301L47.0046 228.08H47.7325L47.6545 228.92ZM49.2317 234.389L47.3425 228.92L47.2602 228.08H47.9925L50.3757 234.389H49.2317ZM49.1407 232.049V232.911H45.709V232.049H49.1407ZM51.9485 230.602V236.191H50.9043V229.7H51.8662L51.9485 230.602ZM55.0033 232.001V232.092C55.0033 232.433 54.9629 232.749 54.882 233.041C54.804 233.33 54.687 233.583 54.531 233.799C54.3779 234.013 54.1887 234.179 53.9634 234.298C53.7381 234.416 53.4781 234.475 53.1835 234.475C52.8917 234.475 52.6361 234.422 52.4165 234.315C52.1999 234.205 52.0164 234.051 51.8662 233.851C51.716 233.652 51.5947 233.418 51.5022 233.149C51.4127 232.878 51.3491 232.58 51.3116 232.257V231.906C51.3491 231.562 51.4127 231.25 51.5022 230.97C51.5947 230.69 51.716 230.449 51.8662 230.246C52.0164 230.044 52.1999 229.888 52.4165 229.778C52.6332 229.669 52.8859 229.614 53.1748 229.614C53.4694 229.614 53.7309 229.671 53.9591 229.787C54.1873 229.9 54.3794 230.061 54.5354 230.272C54.6914 230.48 54.8083 230.732 54.8863 231.026C54.9643 231.318 55.0033 231.643 55.0033 232.001ZM53.9591 232.092V232.001C53.9591 231.785 53.9388 231.584 53.8984 231.399C53.858 231.211 53.7944 231.046 53.7078 230.905C53.6211 230.763 53.5099 230.654 53.3741 230.576C53.2412 230.495 53.0809 230.454 52.8931 230.454C52.7083 230.454 52.5494 230.486 52.4165 230.55C52.2836 230.61 52.1724 230.695 52.0829 230.805C51.9933 230.915 51.924 231.044 51.8749 231.191C51.8258 231.335 51.7911 231.493 51.7709 231.663V232.504C51.8056 232.712 51.8648 232.902 51.9485 233.076C52.0323 233.249 52.1508 233.388 52.3039 233.492C52.4598 233.593 52.6592 233.643 52.9018 233.643C53.0896 233.643 53.2499 233.603 53.3828 233.522C53.5157 233.441 53.624 233.33 53.7078 233.188C53.7944 233.044 53.858 232.878 53.8984 232.69C53.9388 232.502 53.9591 232.303 53.9591 232.092ZM56.9402 230.602V236.191H55.8959V229.7H56.8579L56.9402 230.602ZM59.995 232.001V232.092C59.995 232.433 59.9545 232.749 59.8737 233.041C59.7957 233.33 59.6787 233.583 59.5227 233.799C59.3696 234.013 59.1804 234.179 58.9551 234.298C58.7297 234.416 58.4698 234.475 58.1751 234.475C57.8833 234.475 57.6277 234.422 57.4082 234.315C57.1915 234.205 57.0081 234.051 56.8579 233.851C56.7077 233.652 56.5863 233.418 56.4939 233.149C56.4043 232.878 56.3408 232.58 56.3032 232.257V231.906C56.3408 231.562 56.4043 231.25 56.4939 230.97C56.5863 230.69 56.7077 230.449 56.8579 230.246C57.0081 230.044 57.1915 229.888 57.4082 229.778C57.6248 229.669 57.8776 229.614 58.1664 229.614C58.4611 229.614 58.7225 229.671 58.9507 229.787C59.1789 229.9 59.371 230.061 59.527 230.272C59.683 230.48 59.8 230.732 59.878 231.026C59.956 231.318 59.995 231.643 59.995 232.001ZM58.9507 232.092V232.001C58.9507 231.785 58.9305 231.584 58.8901 231.399C58.8496 231.211 58.7861 231.046 58.6994 230.905C58.6127 230.763 58.5015 230.654 58.3658 230.576C58.2329 230.495 58.0726 230.454 57.8848 230.454C57.6999 230.454 57.541 230.486 57.4082 230.55C57.2753 230.61 57.1641 230.695 57.0745 230.805C56.985 230.915 56.9156 231.044 56.8665 231.191C56.8174 231.335 56.7828 231.493 56.7625 231.663V232.504C56.7972 232.712 56.8564 232.902 56.9402 233.076C57.024 233.249 57.1424 233.388 57.2955 233.492C57.4515 233.593 57.6508 233.643 57.8935 233.643C58.0812 233.643 58.2415 233.603 58.3744 233.522C58.5073 233.441 58.6156 233.33 58.6994 233.188C58.7861 233.044 58.8496 232.878 58.8901 232.69C58.9305 232.502 58.9507 232.303 58.9507 232.092ZM62.0012 227.733V234.389H60.9526V227.733H62.0012ZM64.5057 233.877L65.7796 229.7H66.8975L65.017 235.104C64.9736 235.219 64.9173 235.345 64.848 235.481C64.7786 235.616 64.6876 235.745 64.575 235.866C64.4652 235.99 64.328 236.09 64.1634 236.165C63.9987 236.243 63.7994 236.282 63.5654 236.282C63.473 236.282 63.3834 236.274 63.2967 236.256C63.213 236.242 63.1335 236.226 63.0584 236.209L63.0541 235.411C63.083 235.414 63.1176 235.417 63.1581 235.42C63.2014 235.423 63.2361 235.424 63.2621 235.424C63.4354 235.424 63.5798 235.403 63.6954 235.359C63.8109 235.319 63.9048 235.252 63.977 235.16C64.0521 235.068 64.1157 234.943 64.1677 234.787L64.5057 233.877ZM63.7864 229.7L64.9 233.21L65.0863 234.311L64.3627 234.497L62.6598 229.7H63.7864Z" fill="white"/>
<rect x="101.425" y="222.134" width="79.2777" height="18.5087" rx="3.54962" stroke="#D9D9D9" stroke-width="0.507088"/>
<path d="M131.432 232.335H132.515C132.48 232.748 132.365 233.116 132.169 233.44C131.972 233.76 131.696 234.013 131.341 234.198C130.986 234.383 130.554 234.475 130.045 234.475C129.655 234.475 129.304 234.406 128.992 234.267C128.68 234.126 128.413 233.926 128.191 233.669C127.968 233.409 127.798 233.096 127.679 232.729C127.564 232.362 127.506 231.952 127.506 231.499V230.974C127.506 230.521 127.565 230.111 127.684 229.744C127.805 229.377 127.978 229.063 128.204 228.803C128.429 228.541 128.699 228.34 129.014 228.201C129.332 228.062 129.689 227.993 130.084 227.993C130.587 227.993 131.012 228.086 131.358 228.27C131.705 228.455 131.974 228.711 132.164 229.037C132.358 229.364 132.476 229.738 132.519 230.16H131.436C131.407 229.888 131.344 229.656 131.246 229.462C131.15 229.268 131.009 229.121 130.821 229.02C130.633 228.916 130.388 228.864 130.084 228.864C129.836 228.864 129.619 228.91 129.434 229.003C129.249 229.095 129.095 229.231 128.971 229.41C128.847 229.589 128.753 229.81 128.689 230.073C128.628 230.333 128.598 230.63 128.598 230.966V231.499C128.598 231.816 128.626 232.105 128.68 232.365C128.738 232.622 128.825 232.843 128.94 233.028C129.059 233.213 129.209 233.356 129.391 233.457C129.573 233.558 129.791 233.609 130.045 233.609C130.354 233.609 130.604 233.56 130.795 233.461C130.988 233.363 131.134 233.22 131.233 233.032C131.334 232.842 131.4 232.609 131.432 232.335ZM136.042 233.448V231.213C136.042 231.045 136.012 230.901 135.951 230.779C135.891 230.658 135.798 230.564 135.674 230.498C135.553 230.431 135.4 230.398 135.215 230.398C135.044 230.398 134.897 230.427 134.773 230.485C134.648 230.542 134.552 230.62 134.482 230.719C134.413 230.817 134.378 230.928 134.378 231.052H133.338C133.338 230.867 133.383 230.688 133.473 230.515C133.562 230.342 133.692 230.187 133.863 230.051C134.033 229.916 134.237 229.809 134.474 229.731C134.711 229.653 134.976 229.614 135.271 229.614C135.623 229.614 135.935 229.673 136.207 229.791C136.481 229.91 136.697 230.089 136.853 230.329C137.011 230.565 137.091 230.863 137.091 231.221V233.305C137.091 233.519 137.105 233.711 137.134 233.882C137.166 234.049 137.211 234.195 137.268 234.319V234.389H136.198C136.149 234.276 136.11 234.133 136.081 233.96C136.055 233.783 136.042 233.613 136.042 233.448ZM136.194 231.538L136.203 232.183H135.453C135.259 232.183 135.089 232.202 134.942 232.239C134.794 232.274 134.672 232.326 134.573 232.395C134.475 232.465 134.401 232.549 134.352 232.647C134.303 232.745 134.279 232.856 134.279 232.98C134.279 233.105 134.308 233.219 134.365 233.323C134.423 233.424 134.507 233.503 134.617 233.561C134.729 233.619 134.865 233.648 135.024 233.648C135.238 233.648 135.424 233.604 135.583 233.518C135.745 233.428 135.872 233.32 135.964 233.193C136.057 233.063 136.106 232.94 136.112 232.824L136.45 233.288C136.415 233.407 136.356 233.534 136.272 233.669C136.188 233.805 136.078 233.935 135.943 234.059C135.81 234.181 135.649 234.28 135.462 234.358C135.277 234.436 135.063 234.475 134.82 234.475C134.514 234.475 134.241 234.415 134.001 234.293C133.762 234.169 133.574 234.003 133.438 233.795C133.302 233.584 133.234 233.346 133.234 233.08C133.234 232.832 133.281 232.612 133.373 232.421C133.468 232.228 133.607 232.066 133.789 231.936C133.974 231.806 134.199 231.708 134.465 231.642C134.731 231.572 135.034 231.538 135.375 231.538H136.194ZM139.218 230.701V234.389H138.174V229.7H139.158L139.218 230.701ZM139.032 231.871L138.694 231.867C138.697 231.535 138.743 231.23 138.833 230.953C138.925 230.675 139.052 230.437 139.214 230.238C139.379 230.038 139.575 229.885 139.803 229.778C140.032 229.669 140.286 229.614 140.566 229.614C140.791 229.614 140.995 229.645 141.177 229.709C141.362 229.77 141.519 229.869 141.649 230.008C141.782 230.147 141.883 230.327 141.952 230.55C142.022 230.769 142.056 231.039 142.056 231.36V234.389H141.008V231.356C141.008 231.13 140.975 230.953 140.908 230.823C140.845 230.69 140.751 230.596 140.627 230.541C140.505 230.483 140.354 230.454 140.172 230.454C139.993 230.454 139.832 230.492 139.691 230.567C139.549 230.642 139.429 230.745 139.331 230.875C139.236 231.005 139.162 231.155 139.11 231.325C139.058 231.496 139.032 231.678 139.032 231.871ZM145.038 233.643C145.208 233.643 145.361 233.61 145.497 233.544C145.636 233.474 145.747 233.379 145.831 233.258C145.917 233.136 145.965 232.996 145.974 232.837H146.957C146.951 233.141 146.862 233.417 146.688 233.665C146.515 233.913 146.286 234.111 146 234.259C145.714 234.403 145.397 234.475 145.051 234.475C144.692 234.475 144.38 234.415 144.115 234.293C143.849 234.169 143.628 233.999 143.452 233.782C143.276 233.565 143.143 233.316 143.053 233.032C142.966 232.749 142.923 232.446 142.923 232.122V231.971C142.923 231.647 142.966 231.344 143.053 231.061C143.143 230.775 143.276 230.524 143.452 230.307C143.628 230.09 143.849 229.921 144.115 229.8C144.38 229.676 144.691 229.614 145.046 229.614C145.422 229.614 145.751 229.689 146.034 229.839C146.317 229.986 146.54 230.193 146.701 230.459C146.866 230.721 146.951 231.028 146.957 231.377H145.974C145.965 231.204 145.922 231.048 145.844 230.909C145.768 230.768 145.662 230.655 145.523 230.571C145.387 230.488 145.224 230.446 145.033 230.446C144.822 230.446 144.648 230.489 144.509 230.576C144.37 230.659 144.262 230.775 144.184 230.922C144.106 231.067 144.05 231.23 144.015 231.412C143.983 231.591 143.967 231.777 143.967 231.971V232.122C143.967 232.316 143.983 232.504 144.015 232.686C144.047 232.868 144.102 233.031 144.18 233.175C144.261 233.317 144.37 233.431 144.509 233.518C144.648 233.602 144.824 233.643 145.038 233.643ZM149.826 234.475C149.479 234.475 149.166 234.419 148.885 234.306C148.608 234.191 148.371 234.03 148.175 233.825C147.981 233.62 147.832 233.379 147.728 233.102C147.624 232.824 147.572 232.525 147.572 232.205V232.032C147.572 231.665 147.626 231.332 147.733 231.035C147.84 230.737 147.988 230.483 148.179 230.272C148.37 230.059 148.595 229.895 148.855 229.783C149.115 229.67 149.397 229.614 149.7 229.614C150.035 229.614 150.328 229.67 150.58 229.783C150.831 229.895 151.039 230.054 151.204 230.259C151.371 230.462 151.495 230.703 151.576 230.983C151.66 231.263 151.702 231.572 151.702 231.91V232.356H148.079V231.607H150.671V231.525C150.665 231.337 150.627 231.161 150.558 230.996C150.491 230.831 150.389 230.698 150.25 230.597C150.112 230.496 149.927 230.446 149.696 230.446C149.522 230.446 149.368 230.483 149.232 230.558C149.099 230.63 148.988 230.736 148.898 230.875C148.809 231.013 148.739 231.181 148.69 231.377C148.644 231.571 148.621 231.789 148.621 232.032V232.205C148.621 232.41 148.648 232.601 148.703 232.777C148.761 232.95 148.845 233.102 148.955 233.232C149.064 233.362 149.197 233.464 149.353 233.539C149.509 233.612 149.687 233.648 149.886 233.648C150.138 233.648 150.361 233.597 150.558 233.496C150.754 233.395 150.925 233.252 151.069 233.067L151.619 233.6C151.518 233.747 151.387 233.889 151.225 234.025C151.063 234.158 150.866 234.266 150.632 234.35C150.4 234.433 150.132 234.475 149.826 234.475ZM153.634 227.733V234.389H152.586V227.733H153.634Z" fill="#484848"/>
<path d="M17.2445 13.4978V19.8066H16.1569V13.4978H17.2445ZM19.8183 16.2579V17.1202H16.9672V16.2579H19.8183ZM20.178 13.4978V14.3644H16.9672V13.4978H20.178ZM22.0585 15.1183V19.8066H21.0099V15.1183H22.0585ZM20.9406 13.8877C20.9406 13.7288 20.9926 13.5974 21.0966 13.4934C21.2034 13.3865 21.3508 13.3331 21.5385 13.3331C21.7234 13.3331 21.8693 13.3865 21.9762 13.4934C22.0831 13.5974 22.1365 13.7288 22.1365 13.8877C22.1365 14.0437 22.0831 14.1737 21.9762 14.2777C21.8693 14.3817 21.7234 14.4337 21.5385 14.4337C21.3508 14.4337 21.2034 14.3817 21.0966 14.2777C20.9926 14.1737 20.9406 14.0437 20.9406 13.8877ZM24.3203 13.1511V19.8066H23.2717V13.1511H24.3203ZM27.6134 15.1183V15.8809H24.9703V15.1183H27.6134ZM25.7329 13.9701H26.7772V18.5111C26.7772 18.6555 26.7974 18.7667 26.8378 18.8447C26.8812 18.9198 26.9404 18.9704 27.0155 18.9964C27.0906 19.0224 27.1787 19.0354 27.2798 19.0354C27.352 19.0354 27.4213 19.031 27.4878 19.0224C27.5542 19.0137 27.6077 19.005 27.6481 18.9964L27.6524 19.7936C27.5658 19.8196 27.4647 19.8427 27.3491 19.863C27.2365 19.8832 27.1065 19.8933 26.9592 19.8933C26.7194 19.8933 26.5071 19.8514 26.3222 19.7676C26.1373 19.681 25.9929 19.5409 25.8889 19.3473C25.7849 19.1538 25.7329 18.8967 25.7329 18.5761V13.9701ZM30.4862 19.8933C30.1396 19.8933 29.8262 19.837 29.546 19.7243C29.2687 19.6088 29.0318 19.4484 28.8354 19.2433C28.6418 19.0383 28.493 18.797 28.3891 18.5197C28.2851 18.2424 28.2331 17.9434 28.2331 17.6228V17.4495C28.2331 17.0826 28.2865 16.7504 28.3934 16.4529C28.5003 16.1553 28.649 15.9011 28.8397 15.6903C29.0303 15.4765 29.2557 15.3133 29.5156 15.2006C29.7756 15.088 30.0573 15.0316 30.3606 15.0316C30.6957 15.0316 30.9889 15.088 31.2402 15.2006C31.4915 15.3133 31.6995 15.4722 31.8641 15.6773C32.0317 15.8795 32.1559 16.1207 32.2368 16.4009C32.3206 16.6811 32.3624 16.9902 32.3624 17.3281V17.7745H28.74V17.0248H31.3312V16.9425C31.3254 16.7547 31.2879 16.5785 31.2185 16.4139C31.1521 16.2492 31.0495 16.1163 30.9109 16.0152C30.7722 15.9141 30.5873 15.8636 30.3562 15.8636C30.1829 15.8636 30.0284 15.9011 29.8926 15.9762C29.7597 16.0485 29.6485 16.1539 29.559 16.2926C29.4694 16.4312 29.4001 16.5988 29.351 16.7952C29.3048 16.9887 29.2817 17.2068 29.2817 17.4495V17.6228C29.2817 17.8279 29.3091 18.0185 29.364 18.1948C29.4218 18.3681 29.5055 18.5197 29.6153 18.6497C29.7251 18.7797 29.858 18.8823 30.0139 18.9574C30.1699 19.0296 30.3476 19.0657 30.5469 19.0657C30.7982 19.0657 31.0221 19.0151 31.2185 18.914C31.415 18.8129 31.5854 18.6699 31.7298 18.4851L32.2801 19.018C32.179 19.1654 32.0476 19.3069 31.8858 19.4427C31.724 19.5755 31.5262 19.6839 31.2922 19.7676C31.0611 19.8514 30.7924 19.8933 30.4862 19.8933ZM34.2256 16.0109V19.8066H33.1814V15.1183H34.178L34.2256 16.0109ZM35.6599 15.088L35.6512 16.0586C35.5877 16.047 35.5183 16.0383 35.4432 16.0326C35.371 16.0268 35.2988 16.0239 35.2266 16.0239C35.0475 16.0239 34.89 16.0499 34.7543 16.1019C34.6185 16.151 34.5044 16.2232 34.412 16.3186C34.3224 16.411 34.2531 16.5236 34.204 16.6565C34.1549 16.7894 34.126 16.9382 34.1173 17.1028L33.879 17.1202C33.879 16.8255 33.9079 16.5525 33.9657 16.3012C34.0234 16.0499 34.1101 15.8289 34.2256 15.6383C34.3441 15.4476 34.4914 15.2988 34.6676 15.192C34.8467 15.0851 35.0533 15.0316 35.2872 15.0316C35.3508 15.0316 35.4187 15.0374 35.4909 15.049C35.566 15.0605 35.6223 15.0735 35.6599 15.088ZM38.5283 13.1511H39.5726V18.8057L39.4729 19.8066H38.5283V13.1511ZM42.6317 17.4191V17.5101C42.6317 17.8568 42.5927 18.176 42.5147 18.4677C42.4396 18.7566 42.3241 19.0079 42.1681 19.2217C42.015 19.4354 41.8243 19.6015 41.5961 19.72C41.3708 19.8355 41.1094 19.8933 40.8118 19.8933C40.5201 19.8933 40.2659 19.8384 40.0492 19.7286C39.8326 19.6189 39.6506 19.4629 39.5033 19.2607C39.3588 19.0585 39.2418 18.8173 39.1523 18.5371C39.0627 18.2569 38.9992 17.9478 38.9616 17.6098V17.3195C38.9992 16.9786 39.0627 16.6695 39.1523 16.3922C39.2418 16.112 39.3588 15.8708 39.5033 15.6686C39.6506 15.4635 39.8311 15.3061 40.0449 15.1963C40.2616 15.0865 40.5143 15.0316 40.8032 15.0316C41.1036 15.0316 41.3679 15.0894 41.5961 15.205C41.8272 15.3205 42.0193 15.4852 42.1724 15.6989C42.3255 15.9098 42.4396 16.1611 42.5147 16.4529C42.5927 16.7446 42.6317 17.0667 42.6317 17.4191ZM41.5875 17.5101V17.4191C41.5875 17.2083 41.5701 17.0104 41.5355 16.8255C41.5008 16.6378 41.443 16.4731 41.3621 16.3316C41.2841 16.19 41.1773 16.0788 41.0415 15.9979C40.9086 15.9141 40.7425 15.8723 40.5432 15.8723C40.3583 15.8723 40.1994 15.904 40.0666 15.9676C39.9337 16.0311 39.8225 16.1178 39.7329 16.2276C39.6434 16.3373 39.5726 16.4644 39.5206 16.6089C39.4715 16.7533 39.4383 16.9093 39.4209 17.0768V17.8611C39.4469 18.0778 39.5018 18.2771 39.5856 18.4591C39.6723 18.6382 39.7936 18.7826 39.9496 18.8924C40.1056 18.9993 40.3063 19.0527 40.5519 19.0527C40.7454 19.0527 40.9086 19.0137 41.0415 18.9357C41.1744 18.8577 41.2798 18.7494 41.3578 18.6107C41.4387 18.4692 41.4965 18.3045 41.5311 18.1168C41.5687 17.929 41.5875 17.7268 41.5875 17.5101ZM44.8242 19.2953L46.0981 15.1183H47.2161L45.3355 20.5216C45.2922 20.6371 45.2359 20.7628 45.1665 20.8986C45.0972 21.0343 45.0062 21.1629 44.8936 21.2842C44.7838 21.4084 44.6466 21.5081 44.4819 21.5832C44.3173 21.6612 44.1179 21.7002 43.884 21.7002C43.7915 21.7002 43.702 21.6915 43.6153 21.6742C43.5315 21.6597 43.4521 21.6438 43.377 21.6265L43.3727 20.8292C43.4016 20.8321 43.4362 20.835 43.4767 20.8379C43.52 20.8408 43.5547 20.8422 43.5807 20.8422C43.754 20.8422 43.8984 20.8206 44.014 20.7772C44.1295 20.7368 44.2234 20.6704 44.2956 20.5779C44.3707 20.4855 44.4343 20.3613 44.4863 20.2053L44.8242 19.2953ZM44.105 15.1183L45.2185 18.6281L45.4049 19.7286L44.6812 19.915L42.9784 15.1183H44.105Z" fill="#484848"/>
</g>
</g>
<g filter="url(#filter2_d_1772_10585)">
<circle cx="618.387" cy="218.039" r="46.2322" transform="rotate(15 618.387 218.039)" fill="white"/>
<circle cx="618.387" cy="218.039" r="45.8223" transform="rotate(15 618.387 218.039)" stroke="#FFC350" stroke-width="0.819684"/>
</g>
<path d="M614.914 221.692V236.563C614.914 237.025 615.4 237.325 615.813 237.119L620.441 234.805C620.862 234.594 621.128 234.164 621.128 233.693V221.692C621.128 221.263 621.276 220.847 621.547 220.514L634.379 204.765C634.65 204.432 634.798 204.017 634.798 203.588V199.901C634.798 199.215 634.242 198.658 633.555 198.658H602.485C601.799 198.658 601.243 199.215 601.243 199.901V203.587C601.243 204.017 601.391 204.432 601.662 204.765L614.494 220.514C614.765 220.847 614.914 221.263 614.914 221.692Z" fill="#FFE17D"/>
<path d="M629.184 203.629H613.671C613.328 203.629 613.049 203.351 613.049 203.008V198.658H602.485C601.799 198.658 601.243 199.215 601.243 199.901V203.587C601.243 204.017 601.391 204.432 601.662 204.765L614.494 220.514C614.765 220.847 614.914 221.263 614.914 221.692V236.563C614.914 237.025 615.4 237.325 615.813 237.119L617.1 236.475V221.65C617.1 221.307 617.378 221.029 617.721 221.029H618.605C619.017 221.029 619.402 220.824 619.633 220.484L630.011 205.19C630.461 204.526 629.986 203.629 629.184 203.629Z" fill="#FFD164"/>
<path d="M608.047 203.631H601.243C601.252 204.045 601.396 204.445 601.658 204.766L614.491 220.516C614.617 220.671 614.714 220.846 614.785 221.03H615.241C615.679 221.03 615.979 220.589 615.819 220.181L609.782 204.813C609.502 204.1 608.813 203.631 608.047 203.631Z" fill="#FFC350"/>
<g filter="url(#filter3_d_1772_10585)">
<circle cx="332.143" cy="394.052" r="27.6849" fill="white" stroke="#F99778" stroke-width="1.40122"/>
</g>
<path d="M342.828 381.521H334.128C333.553 381.521 332.749 381.855 332.342 382.261L320.415 394.188C319.601 395.001 319.601 396.335 320.415 397.147L329.296 406.027C330.108 406.841 331.441 406.841 332.254 406.026L344.181 394.102C344.587 393.695 344.921 392.89 344.921 392.316V383.615C344.921 382.464 343.978 381.521 342.828 381.521ZM338.641 389.894C337.485 389.894 336.548 388.955 336.548 387.8C336.548 386.644 337.485 385.707 338.641 385.707C339.797 385.707 340.735 386.644 340.735 387.8C340.735 388.955 339.797 389.894 338.641 389.894Z" fill="#F99778"/>
<defs>
<filter id="filter0_d_1772_10585" x="90.2171" y="52.6765" width="514.752" height="351.061" filterUnits="userSpaceOnUse" color-interpolation-filters="sRGB">
<feFlood flood-opacity="0" result="BackgroundImageFix"/>
<feColorMatrix in="SourceAlpha" type="matrix" values="0 0 0 0 0 0 0 0 0 0 0 0 0 0 0 0 0 0 127 0" result="hardAlpha"/>
<feOffset dy="2.05901"/>
<feGaussianBlur stdDeviation="4.11802"/>
<feColorMatrix type="matrix" values="0 0 0 0 0.388235 0 0 0 0 0.388235 0 0 0 0 0.388235 0 0 0 0.2 0"/>
<feBlend mode="normal" in2="BackgroundImageFix" result="effect1_dropShadow_1772_10585"/>
<feBlend mode="normal" in="SourceGraphic" in2="effect1_dropShadow_1772_10585" result="shape"/>
</filter>
<filter id="filter1_d_1772_10585" x="0.929118" y="0.663635" width="195.229" height="256.713" filterUnits="userSpaceOnUse" color-interpolation-filters="sRGB">
<feFlood flood-opacity="0" result="BackgroundImageFix"/>
<feColorMatrix in="SourceAlpha" type="matrix" values="0 0 0 0 0 0 0 0 0 0 0 0 0 0 0 0 0 0 127 0" result="hardAlpha"/>
<feOffset dy="1.26772"/>
<feGaussianBlur stdDeviation="2.53544"/>
<feColorMatrix type="matrix" values="0 0 0 0 0.388235 0 0 0 0 0.388235 0 0 0 0 0.388235 0 0 0 0.2 0"/>
<feBlend mode="normal" in2="BackgroundImageFix" result="effect1_dropShadow_1772_10585"/>
<feBlend mode="normal" in="SourceGraphic" in2="effect1_dropShadow_1772_10585" result="shape"/>
</filter>
<filter id="filter2_d_1772_10585" x="561.869" y="164.09" width="113.035" height="113.035" filterUnits="userSpaceOnUse" color-interpolation-filters="sRGB">
<feFlood flood-opacity="0" result="BackgroundImageFix"/>
<feColorMatrix in="SourceAlpha" type="matrix" values="0 0 0 0 0 0 0 0 0 0 0 0 0 0 0 0 0 0 127 0" result="hardAlpha"/>
<feOffset dy="2.56845"/>
<feGaussianBlur stdDeviation="5.13691"/>
<feColorMatrix type="matrix" values="0 0 0 0 0.388235 0 0 0 0 0.388235 0 0 0 0 0.388235 0 0 0 0.2 0"/>
<feBlend mode="normal" in2="BackgroundImageFix" result="effect1_dropShadow_1772_10585"/>
<feBlend mode="normal" in="SourceGraphic" in2="effect1_dropShadow_1772_10585" result="shape"/>
</filter>
<filter id="filter3_d_1772_10585" x="298.153" y="365.666" width="67.9808" height="67.9813" filterUnits="userSpaceOnUse" color-interpolation-filters="sRGB">
<feFlood flood-opacity="0" result="BackgroundImageFix"/>
<feColorMatrix in="SourceAlpha" type="matrix" values="0 0 0 0 0 0 0 0 0 0 0 0 0 0 0 0 0 0 127 0" result="hardAlpha"/>
<feOffset dy="5.60489"/>
<feGaussianBlur stdDeviation="2.80245"/>
<feComposite in2="hardAlpha" operator="out"/>
<feColorMatrix type="matrix" values="0 0 0 0 0 0 0 0 0 0 0 0 0 0 0 0 0 0 0.25 0"/>
<feBlend mode="normal" in2="BackgroundImageFix" result="effect1_dropShadow_1772_10585"/>
<feBlend mode="normal" in="SourceGraphic" in2="effect1_dropShadow_1772_10585" result="shape"/>
</filter>
<linearGradient id="paint0_linear_1772_10585" x1="536.565" y1="189.292" x2="655.063" y2="199.154" gradientUnits="userSpaceOnUse">
<stop stop-color="#01F5B8"/>
<stop offset="0.145" stop-color="#02DFA7"/>
<stop offset="0.345" stop-color="#14B58C"/>
<stop offset="0.599194" stop-color="#009A73"/>
<stop offset="0.83" stop-color="#038A68"/>
<stop offset="1" stop-color="#00664C"/>
</linearGradient>
<linearGradient id="paint1_linear_1772_10585" x1="532.112" y1="166.698" x2="647.022" y2="173.456" gradientUnits="userSpaceOnUse">
<stop stop-color="#01F5B8"/>
<stop offset="0.145" stop-color="#02DFA7"/>
<stop offset="0.345" stop-color="#14B58C"/>
<stop offset="0.599194" stop-color="#009A73"/>
<stop offset="0.83" stop-color="#038A68"/>
<stop offset="1" stop-color="#00664C"/>
</linearGradient>
<linearGradient id="paint2_linear_1772_10585" x1="523.743" y1="143.222" x2="628.786" y2="146.265" gradientUnits="userSpaceOnUse">
<stop stop-color="#01F5B8"/>
<stop offset="0.145" stop-color="#02DFA7"/>
<stop offset="0.345" stop-color="#14B58C"/>
<stop offset="0.599194" stop-color="#009A73"/>
<stop offset="0.83" stop-color="#038A68"/>
<stop offset="1" stop-color="#00664C"/>
</linearGradient>
<linearGradient id="paint3_linear_1772_10585" x1="656.776" y1="127.075" x2="671.926" y2="121.937" gradientUnits="userSpaceOnUse">
<stop stop-color="#01F5B8"/>
<stop offset="0.145" stop-color="#02DFA7"/>
<stop offset="0.345" stop-color="#14B58C"/>
<stop offset="0.599194" stop-color="#009A73"/>
<stop offset="0.83" stop-color="#038A68"/>
<stop offset="1" stop-color="#00664C"/>
</linearGradient>
<linearGradient id="paint4_linear_1772_10585" x1="118.619" y1="298.557" x2="118.619" y2="328.287" gradientUnits="userSpaceOnUse">
<stop stop-color="#B4EEF1"/>
<stop offset="1" stop-color="#5ECBD1"/>
</linearGradient>
<linearGradient id="paint5_linear_1772_10585" x1="63.24" y1="298.557" x2="63.24" y2="328.287" gradientUnits="userSpaceOnUse">
<stop stop-color="#B4EEF1"/>
<stop offset="1" stop-color="#5ECBD1"/>
</linearGradient>
<linearGradient id="paint6_linear_1772_10585" x1="106.419" y1="331.119" x2="106.419" y2="434.466" gradientUnits="userSpaceOnUse">
<stop stop-color="#B4EEF1"/>
<stop offset="1" stop-color="#5ECBD1"/>
</linearGradient>
<linearGradient id="paint7_linear_1772_10585" x1="76.3944" y1="390.014" x2="76.3944" y2="405.587" gradientUnits="userSpaceOnUse">
<stop stop-color="#B4EEF1"/>
<stop offset="1" stop-color="#5ECBD1"/>
</linearGradient>
<clipPath id="clip0_1772_10585">
<rect x="6" y="4.4668" width="185.087" height="246.572" rx="5.70474" fill="white"/>
</clipPath>
</defs>
</svg>
