<svg width="77" height="65" viewBox="0 0 77 65" fill="none" xmlns="http://www.w3.org/2000/svg">
<g clip-path="url(#clip0_1077_1591)">
<path d="M61.5876 36.6252C61.5779 33.4945 61.6713 30.3657 61.8171 27.2385C61.8876 25.7333 61.97 24.2283 62.0555 22.7244C62.1414 21.2235 61.8412 18.9231 63.5674 18.2352C64.2469 17.9639 64.9455 18.0901 65.6254 18.2618C66.4648 18.4737 67.2954 18.7135 68.1244 18.9654C68.799 19.1704 69.4696 19.3923 70.1327 19.6284C70.8054 19.8694 71.5162 20.0778 72.0633 20.5566C73.6224 21.9244 72.3573 23.9896 71.7101 25.498C71.1315 26.8467 70.5357 28.1883 69.924 29.5213C68.5218 32.5756 67.0316 35.589 65.4606 38.5608C64.994 39.4436 63.9745 39.9288 63.0156 39.502C62.2923 39.1817 61.7957 38.314 61.923 37.5183C61.7201 37.2636 61.5906 36.9589 61.5888 36.6221L61.5876 36.6252ZM68.766 23.0665C68.721 23.0506 68.6756 23.0318 68.6291 23.0161C68.0979 22.8264 67.5634 22.6475 67.0255 22.4779C66.6144 22.3494 66.2016 22.2314 65.7863 22.1183C65.7801 22.2233 65.7739 22.3284 65.7678 22.4335C65.7274 23.1136 65.6884 23.792 65.651 24.4718C65.5781 25.7819 65.5098 27.0929 65.452 28.4043C65.4213 29.1042 65.3937 29.8052 65.3691 30.5059C65.5396 30.1498 65.7116 29.7935 65.879 29.4363C66.8594 27.3463 67.9114 25.2289 68.766 23.0665Z" fill="#DADADA"/>
<path d="M42.1666 3.93397C44.7724 3.59069 47.3414 3.06509 49.8639 2.32397C51.0132 1.98531 52.2329 2.55744 52.3924 3.83857C53.686 14.2035 54.61 24.6112 55.1622 35.041C55.2992 35.4268 55.4378 35.8125 55.5748 36.1984C55.8689 37.029 55.5832 37.9692 54.8591 38.4423C54.5744 38.8171 54.1519 39.0805 53.6305 39.1388C52.6819 39.2447 51.6317 38.5075 51.5836 37.5033C51.5556 36.9322 51.5262 36.3614 51.4965 35.789C47.9973 25.9717 44.3832 16.1941 40.652 6.46246C40.2145 5.32274 40.9643 4.09214 42.1666 3.93397ZM48.9709 6.38471C47.6306 6.72234 46.2807 7.01332 44.9192 7.25489C46.8409 12.2957 48.7325 17.3473 50.5925 22.4099C50.1499 17.0592 49.6083 11.7166 48.9696 6.38634L48.9709 6.38471Z" fill="#DADADA"/>
<path d="M28.1845 21.5898C29.0763 20.7624 29.9682 19.935 30.8617 19.1089C31.9428 18.1068 33.3322 17.5817 34.5642 18.7177C35.3722 19.4626 35.898 20.6715 36.4615 21.6047C37.0895 22.6471 37.7077 23.695 38.3132 24.7504C40.724 28.9491 42.9704 33.2393 45.0302 37.6204C45.4565 38.5257 44.8868 39.6735 43.9974 40.0294C43.9074 40.0648 43.8164 40.0914 43.7263 40.1119C43.0816 40.4687 42.2159 40.476 41.6544 39.9615C36.4824 35.2212 31.8236 29.9359 27.806 24.1823C27.1864 23.2955 27.4304 22.2885 28.1845 21.5898ZM34.4963 25.5063C34.0453 24.7395 33.5887 23.9762 33.1265 23.2166C32.977 22.9723 32.8326 22.708 32.6824 22.4445L32.1486 22.9395C32.0122 23.0666 31.8756 23.1923 31.7391 23.3193C33.3913 25.6 35.1439 27.8052 36.9943 29.925C36.9587 29.8604 36.9247 29.7956 36.8893 29.7324C36.1131 28.3114 35.3132 26.9049 34.4937 25.5096L34.4963 25.5063Z" fill="#DADADA"/>
<path d="M4.59099 31.9374C4.99823 30.59 5.47537 29.2675 6.01308 27.9667C6.6013 26.5439 8.22107 26.6657 9.05074 27.5244C13.5816 30.1829 17.9107 33.1577 22.2072 36.1749C26.8114 39.4098 31.4128 42.6465 36.0172 45.8828C36.8361 46.458 36.9061 47.7387 36.3081 48.487C36.1786 48.6491 36.0305 48.779 35.872 48.8817C35.4016 49.3563 34.6968 49.5886 33.8987 49.2528C28.9822 47.1877 24.0643 45.1227 19.148 43.0591C16.6899 42.0273 14.2315 40.994 11.7719 39.9624C10.5421 39.4466 9.31378 38.9306 8.08381 38.4133C7.49232 38.1647 6.90082 37.9161 6.30786 37.6677C5.62403 37.3802 4.86084 37.1299 4.38224 36.5301C3.31955 35.2008 4.15974 33.3635 4.58935 31.9361L4.59099 31.9374ZM8.63315 34.6266C9.1793 34.8564 9.72544 35.0862 10.2714 35.3145C11.4544 35.8117 12.6389 36.3087 13.8219 36.8059C16.1814 37.7965 18.541 38.7872 20.9006 39.7778C20.6417 39.5964 20.3827 39.4136 20.1238 39.2322C16.3465 36.5776 12.5563 33.9273 8.60432 31.5383C8.48602 31.8676 8.37099 32.1996 8.26349 32.5323C8.08671 33.0725 7.87003 33.656 7.71472 34.2415C8.01988 34.37 8.32652 34.4983 8.63168 34.6267L8.63315 34.6266Z" fill="#DADADA"/>
<path d="M5.91049 60.2093C5.8703 58.9551 5.91146 57.6948 6.02104 56.4463C6.02998 56.3394 6.05299 56.2384 6.0837 56.1395C5.50852 54.9555 6.28079 53.1378 7.97889 53.4134L28.825 56.8069C31.0351 57.167 30.6609 60.4256 28.6463 60.4941C28.4228 60.6294 28.1713 60.7276 27.9016 60.7831C23.3161 61.7204 18.6999 62.503 14.0606 63.1197C12.9011 63.273 11.7391 63.4178 10.5773 63.5505C9.41119 63.6853 7.99958 64.0652 6.96752 63.317C5.95166 62.5804 5.94537 61.3493 5.90754 60.2096L5.91049 60.2093ZM10.313 59.8502C11.1361 59.7553 11.9585 59.6545 12.7804 59.5493C14.4242 59.3388 16.0655 59.1062 17.7032 58.8547C17.8117 58.8381 17.9186 58.8202 18.0255 58.8023L9.64532 57.4373C9.60211 57.985 9.57248 58.5341 9.57739 59.0853C9.57903 59.367 9.58656 59.648 9.59703 59.9287C9.83565 59.9021 10.0728 59.8756 10.3114 59.8489L10.313 59.8502Z" fill="#DADADA"/>
</g>
<defs>
<clipPath id="clip0_1077_1591">
<rect width="70.7842" height="56.55" fill="white" transform="matrix(-0.993818 0.111019 0.111019 0.993818 70.3477 0)"/>
</clipPath>
</defs>
</svg>
