<svg width="269" height="389" viewBox="0 0 269 389" fill="none" xmlns="http://www.w3.org/2000/svg">
<g opacity="0.2">
<line x1="32.5" y1="389" x2="32.5" y2="2.18557e-08" stroke="url(#paint0_linear_2076_5771)"/>
<line x1="78.5" y1="389" x2="78.5" y2="2.18557e-08" stroke="url(#paint1_linear_2076_5771)"/>
<line x1="124.5" y1="389" x2="124.5" y2="2.18557e-08" stroke="url(#paint2_linear_2076_5771)"/>
<line x1="170.5" y1="389" x2="170.5" y2="2.18557e-08" stroke="url(#paint3_linear_2076_5771)"/>
<line x1="216.5" y1="389" x2="216.5" y2="2.18557e-08" stroke="url(#paint4_linear_2076_5771)"/>
<line x1="262.5" y1="389" x2="262.5" y2="2.18557e-08" stroke="url(#paint5_linear_2076_5771)"/>
<line y1="33.5" x2="389" y2="33.5" stroke="url(#paint6_linear_2076_5771)"/>
<line y1="79.5" x2="389" y2="79.5" stroke="url(#paint7_linear_2076_5771)"/>
<line y1="125.5" x2="389" y2="125.5" stroke="url(#paint8_linear_2076_5771)"/>
<line y1="171.5" x2="389" y2="171.5" stroke="url(#paint9_linear_2076_5771)"/>
<line y1="217.5" x2="389" y2="217.5" stroke="url(#paint10_linear_2076_5771)"/>
<line y1="263.5" x2="389" y2="263.5" stroke="url(#paint11_linear_2076_5771)"/>
<line y1="309.5" x2="389" y2="309.5" stroke="url(#paint12_linear_2076_5771)"/>
<line y1="355.5" x2="389" y2="355.5" stroke="url(#paint13_linear_2076_5771)"/>
<path d="M102 80C90.0726 86.1062 85.1265 91.0726 79 103C72.8938 91.0726 67.9274 86.1265 56 80C67.9478 73.8735 72.8938 68.9274 79.0204 57C85.1266 68.9274 90.0929 73.8735 102.02 80H102Z" fill="#484848"/>
</g>
<defs>
<linearGradient id="paint0_linear_2076_5771" x1="33" y1="194.5" x2="34" y2="194.5" gradientUnits="userSpaceOnUse">
<stop stop-color="#484848" stop-opacity="0.5"/>
<stop offset="1" stop-color="#484848"/>
</linearGradient>
<linearGradient id="paint1_linear_2076_5771" x1="79" y1="194.5" x2="80" y2="194.5" gradientUnits="userSpaceOnUse">
<stop stop-color="#484848" stop-opacity="0.5"/>
<stop offset="1" stop-color="#484848"/>
</linearGradient>
<linearGradient id="paint2_linear_2076_5771" x1="125" y1="194.5" x2="126" y2="194.5" gradientUnits="userSpaceOnUse">
<stop stop-color="#484848" stop-opacity="0.5"/>
<stop offset="1" stop-color="#484848"/>
</linearGradient>
<linearGradient id="paint3_linear_2076_5771" x1="171" y1="194.5" x2="172" y2="194.5" gradientUnits="userSpaceOnUse">
<stop stop-color="#484848" stop-opacity="0.5"/>
<stop offset="1" stop-color="#484848"/>
</linearGradient>
<linearGradient id="paint4_linear_2076_5771" x1="217" y1="194.5" x2="218" y2="194.5" gradientUnits="userSpaceOnUse">
<stop stop-color="#484848" stop-opacity="0.5"/>
<stop offset="1" stop-color="#484848"/>
</linearGradient>
<linearGradient id="paint5_linear_2076_5771" x1="263" y1="194.5" x2="264" y2="194.5" gradientUnits="userSpaceOnUse">
<stop stop-color="#484848" stop-opacity="0.5"/>
<stop offset="1" stop-color="#484848"/>
</linearGradient>
<linearGradient id="paint6_linear_2076_5771" x1="194.5" y1="34" x2="194.5" y2="35" gradientUnits="userSpaceOnUse">
<stop stop-color="#484848" stop-opacity="0.5"/>
<stop offset="1" stop-color="#484848"/>
</linearGradient>
<linearGradient id="paint7_linear_2076_5771" x1="194.5" y1="80" x2="194.5" y2="81" gradientUnits="userSpaceOnUse">
<stop stop-color="#484848" stop-opacity="0.5"/>
<stop offset="1" stop-color="#484848"/>
</linearGradient>
<linearGradient id="paint8_linear_2076_5771" x1="194.5" y1="126" x2="194.5" y2="127" gradientUnits="userSpaceOnUse">
<stop stop-color="#484848" stop-opacity="0.5"/>
<stop offset="1" stop-color="#484848"/>
</linearGradient>
<linearGradient id="paint9_linear_2076_5771" x1="194.5" y1="172" x2="194.5" y2="173" gradientUnits="userSpaceOnUse">
<stop stop-color="#484848" stop-opacity="0.5"/>
<stop offset="1" stop-color="#484848"/>
</linearGradient>
<linearGradient id="paint10_linear_2076_5771" x1="194.5" y1="218" x2="194.5" y2="219" gradientUnits="userSpaceOnUse">
<stop stop-color="#484848" stop-opacity="0.5"/>
<stop offset="1" stop-color="#484848"/>
</linearGradient>
<linearGradient id="paint11_linear_2076_5771" x1="194.5" y1="264" x2="194.5" y2="265" gradientUnits="userSpaceOnUse">
<stop stop-color="#484848" stop-opacity="0.5"/>
<stop offset="1" stop-color="#484848"/>
</linearGradient>
<linearGradient id="paint12_linear_2076_5771" x1="194.5" y1="310" x2="194.5" y2="311" gradientUnits="userSpaceOnUse">
<stop stop-color="#484848" stop-opacity="0.5"/>
<stop offset="1" stop-color="#484848"/>
</linearGradient>
<linearGradient id="paint13_linear_2076_5771" x1="194.5" y1="356" x2="194.5" y2="357" gradientUnits="userSpaceOnUse">
<stop stop-color="#484848" stop-opacity="0.5"/>
<stop offset="1" stop-color="#484848"/>
</linearGradient>
</defs>
</svg>
