<svg width="30" height="24" viewBox="0 0 30 24" fill="none" xmlns="http://www.w3.org/2000/svg">
<path fill-rule="evenodd" clip-rule="evenodd" d="M2.40942 1.33534L11.4255 10.3553C13.3919 12.318 16.6064 12.3197 18.5744 10.3553L27.5905 1.33534C27.6813 1.24454 27.6681 1.09501 27.5627 1.02155C26.6432 0.380212 25.5243 0 24.3191 0H5.68094C4.47565 0 3.35678 0.380277 2.43719 1.02155C2.33185 1.09501 2.31862 1.24454 2.40942 1.33534ZM0 5.68088C0 4.73312 0.234984 3.83764 0.648895 3.05056C0.713621 2.92743 0.877687 2.90253 0.976048 3.00089L9.878 11.9028C12.697 14.7259 17.3013 14.7275 20.122 11.9028L29.024 3.00089C29.1223 2.90253 29.2864 2.92743 29.3511 3.05056C29.765 3.83764 30 4.73319 30 5.68088V17.54C30 20.6749 27.45 23.221 24.3191 23.221H5.68094C2.55008 23.221 0 20.6749 0 17.54V5.68088Z" fill="white"/>
</svg>
