<svg width="108" height="112" viewBox="0 0 108 112" fill="none" xmlns="http://www.w3.org/2000/svg">
<circle cx="53.8465" cy="58.1531" r="53.308" fill="#484848" stroke="#484848" stroke-width="1.07693"/>
<circle cx="53.8465" cy="53.8465" r="53.308" fill="#267EFF" stroke="#484848" stroke-width="1.07693"/>
<path d="M73.9165 51.2624C73.1837 45.9216 70.3594 41.0907 66.0647 37.8324C61.7701 34.574 56.357 33.1552 51.0163 33.888C45.6755 34.6207 40.8446 37.4451 37.5863 41.7397C34.3279 46.0343 32.9091 51.4474 33.6419 56.7882C34.2456 61.2086 36.2769 65.3107 39.4268 68.4702C42.5766 71.6298 46.6725 73.6738 51.091 74.2911C51.9951 74.4095 52.906 74.469 53.8178 74.4694C57.5019 74.4754 61.117 73.4701 64.269 71.5629C64.4902 71.4297 64.683 71.2541 64.8364 71.0464C64.9898 70.8386 65.1008 70.6027 65.163 70.352C65.2252 70.1013 65.2374 69.8409 65.199 69.5855C65.1605 69.3301 65.0721 69.0848 64.9389 68.8636C64.8056 68.6424 64.6301 68.4496 64.4224 68.2962C64.2146 68.1428 63.9786 68.0318 63.728 67.9696C63.2218 67.844 62.6864 67.9246 62.2396 68.1937C59.996 69.5403 57.4626 70.3301 54.8513 70.497C52.24 70.6639 49.6266 70.2031 47.2299 69.153C44.8332 68.103 42.7227 66.4942 41.0751 64.4614C39.4276 62.4286 38.2907 60.0307 37.7597 57.4685C37.2288 54.9063 37.3191 52.2542 38.0231 49.734C38.7271 47.2138 40.0245 44.8989 41.8065 42.9828C43.5885 41.0668 45.8035 39.6053 48.2661 38.7207C50.7287 37.8361 53.3674 37.5541 55.9613 37.8982C58.3706 38.2186 60.6786 39.0709 62.7178 40.3933C64.7571 41.7158 66.4767 43.4754 67.7519 45.5445C69.0272 47.6136 69.8262 49.9405 70.0911 52.3566C70.356 54.7727 70.0801 57.2174 69.2835 59.5137C69.0768 60.0659 68.7033 60.54 68.2149 60.8703C67.7265 61.2006 67.1474 61.3707 66.558 61.3569C65.7812 61.3559 65.0365 61.0469 64.4873 60.4976C63.938 59.9483 63.629 59.2037 63.6279 58.4269V46.2807C63.6279 45.7591 63.4207 45.2589 63.0519 44.8901C62.6832 44.5214 62.183 44.3142 61.6614 44.3142C61.1399 44.3142 60.6397 44.5214 60.2709 44.8901C59.9022 45.2589 59.695 45.7591 59.695 46.2807V46.299C58.2042 45.1738 56.4238 44.4966 54.5621 44.3464C52.7004 44.1963 50.8345 44.5795 49.1827 45.4512C47.5309 46.3229 46.1615 47.6471 45.2349 49.2687C44.3082 50.8904 43.8626 52.7424 43.9502 54.6081C44.0378 56.4737 44.655 58.2759 45.7295 59.8036C46.804 61.3312 48.2914 62.5213 50.0176 63.2344C51.7438 63.9475 53.6375 64.1542 55.4769 63.8303C57.3163 63.5064 59.0254 62.6653 60.4042 61.4054C60.9613 62.5657 61.8341 63.5456 62.9225 64.2326C64.0109 64.9197 65.2709 65.2861 66.558 65.2899C67.965 65.3034 69.3413 64.8785 70.4957 64.0741C71.6502 63.2697 72.5255 62.1257 73.0001 60.8011C74.0599 57.7396 74.374 54.4696 73.9165 51.2624ZM53.7956 60.0459C52.6288 60.0459 51.4882 59.7 50.518 59.0517C49.5479 58.4035 48.7917 57.4821 48.3452 56.4041C47.8987 55.3262 47.7819 54.14 48.0095 52.9956C48.2371 51.8512 48.799 50.8001 49.624 49.975C50.4491 49.15 51.5003 48.5881 52.6446 48.3605C53.789 48.1328 54.9752 48.2497 56.0532 48.6962C57.1311 49.1427 58.0525 49.8988 58.7007 50.869C59.349 51.8392 59.695 52.9797 59.695 54.1465C59.6932 55.7106 59.0711 57.2102 57.9652 58.3161C56.8592 59.4221 55.3596 60.0442 53.7956 60.0459Z" fill="#484848"/>
</svg>
