<svg width="108" height="112" viewBox="0 0 108 112" fill="none" xmlns="http://www.w3.org/2000/svg">
<circle cx="53.8465" cy="58.1531" r="53.308" fill="#484848" stroke="#484848" stroke-width="1.07693"/>
<circle cx="53.8465" cy="53.8465" r="53.308" fill="#F6E702" stroke="#484848" stroke-width="1.07693"/>
<path fill-rule="evenodd" clip-rule="evenodd" d="M54.006 33.6992C46.9639 33.6992 41.2383 39.4759 41.2383 46.6012C41.2383 49.0148 42.3013 52.0091 43.8486 54.9958C47.2552 61.5725 52.9297 68.1966 52.9297 68.1966C53.1983 68.5106 53.5918 68.6922 54.006 68.6922C54.4203 68.6922 54.8137 68.5106 55.0823 68.1966C55.0823 68.1966 60.7568 61.5725 64.1634 54.9958C65.7107 52.0091 66.7737 49.0148 66.7737 46.6012C66.7737 39.4759 61.0481 33.6992 54.006 33.6992ZM54.006 36.5365C59.4914 36.5365 63.9365 41.0515 63.9365 46.6012C63.9365 49.3742 62.1774 52.987 60.1459 56.3558C57.9668 59.9685 55.4171 63.2863 54.006 65.0416C52.595 63.2863 50.0452 59.9685 47.8662 56.3558C45.8347 52.987 44.0756 49.3742 44.0756 46.6012C44.0756 41.0515 48.5206 36.5365 54.006 36.5365Z" fill="#484848"/>
<path fill-rule="evenodd" clip-rule="evenodd" d="M54.0025 41.2656C51.1312 41.2656 48.8008 43.596 48.8008 46.4673C48.8008 49.3386 51.1312 51.6689 54.0025 51.6689C56.8738 51.6689 59.2041 49.3386 59.2041 46.4673C59.2041 43.596 56.8738 41.2656 54.0025 41.2656ZM54.0025 44.1029C55.3076 44.1029 56.3669 45.1621 56.3669 46.4673C56.3669 47.7724 55.3076 48.8317 54.0025 48.8317C52.6973 48.8317 51.6381 47.7724 51.6381 46.4673C51.6381 45.1621 52.6973 44.1029 54.0025 44.1029Z" fill="#484848"/>
<path fill-rule="evenodd" clip-rule="evenodd" d="M63.0529 64.2041C64.5907 64.6656 65.858 65.2369 66.7338 65.9064C67.3012 66.3377 67.7174 66.7595 67.7174 67.274C67.7174 67.5767 67.5452 67.8509 67.3031 68.1252C66.9021 68.5773 66.3063 68.9839 65.5686 69.3622C62.9621 70.6958 58.7478 71.5299 54.0039 71.5299C49.26 71.5299 45.0457 70.6958 42.4392 69.3622C41.7015 68.9839 41.1057 68.5773 40.7047 68.1252C40.4626 67.8509 40.2904 67.5767 40.2904 67.274C40.2904 66.7595 40.7066 66.3377 41.274 65.9064C42.1498 65.2369 43.4171 64.6656 44.9549 64.2041C45.7039 63.979 46.1295 63.1865 45.9044 62.4374C45.6793 61.6865 44.8868 61.2609 44.1378 61.486C41.7961 62.1915 39.9764 63.1581 38.8831 64.2268C37.9223 65.1631 37.4532 66.211 37.4532 67.274C37.4532 68.6019 38.2041 69.9259 39.7305 71.0306C42.4089 72.9675 47.7884 74.3672 54.0039 74.3672C60.2194 74.3672 65.5989 72.9675 68.2772 71.0306C69.8037 69.9259 70.5546 68.6019 70.5546 67.274C70.5546 66.211 70.0855 65.1631 69.1246 64.2268C68.0313 63.1581 66.2117 62.1915 63.87 61.486C63.121 61.2609 62.3284 61.6865 62.1033 62.4374C61.8783 63.1865 62.3038 63.979 63.0529 64.2041Z" fill="#484848"/>
</svg>
