<svg width="108" height="112" viewBox="0 0 108 112" fill="none" xmlns="http://www.w3.org/2000/svg">
<circle cx="53.8465" cy="58.1531" r="53.308" fill="#484848" stroke="#484848" stroke-width="1.07693"/>
<circle cx="53.8465" cy="53.8465" r="53.308" fill="#00D085" stroke="#484848" stroke-width="1.07693"/>
<path d="M63.475 74.3667C62.4755 74.3637 61.4868 74.161 60.5668 73.7705C48.6942 68.6874 39.2368 59.2248 34.1602 47.3494C33.5862 46.013 33.4263 44.5351 33.701 43.1068C33.9758 41.6785 34.6727 40.3654 35.7016 39.3373L40.0639 34.975C40.8818 34.1581 41.9906 33.6992 43.1466 33.6992C44.3026 33.6992 45.4113 34.1581 46.2293 34.975L51.3623 40.108C52.1792 40.9259 52.6381 42.0347 52.6381 43.1907C52.6381 44.3467 52.1792 45.4555 51.3623 46.2734L48.9921 48.6727C49.909 50.9997 51.2948 53.1133 53.0634 54.8819C54.832 56.6505 56.9456 58.0363 59.2726 58.9532L61.7155 56.5248C62.5335 55.7079 63.6422 55.2491 64.7982 55.2491C65.9542 55.2491 67.063 55.7079 67.8809 56.5248L73.0139 61.6578C73.8308 62.4758 74.2897 63.5845 74.2897 64.7405C74.2897 65.8966 73.8308 67.0053 73.0139 67.8233L68.6516 72.1856C67.9765 72.8743 67.1712 73.4218 66.2825 73.7963C65.3937 74.1708 64.4394 74.3647 63.475 74.3667ZM43.2047 36.56C43.0134 36.5589 42.8237 36.5955 42.6465 36.6679C42.4693 36.7403 42.3082 36.8469 42.1723 36.9817L37.81 41.344C37.1905 41.9607 36.7706 42.7492 36.6047 43.6074C36.4387 44.4656 36.5344 45.3539 36.8794 46.1571C41.6385 57.3708 50.5476 66.3112 61.7446 71.1095C62.5478 71.4545 63.436 71.5502 64.2942 71.3843C65.1524 71.2183 65.941 70.7984 66.5577 70.1789L70.92 65.8166C71.0563 65.6814 71.1645 65.5206 71.2383 65.3434C71.3121 65.1662 71.3501 64.9761 71.3501 64.7842C71.3501 64.5922 71.3121 64.4022 71.2383 64.225C71.1645 64.0478 71.0563 63.8869 70.92 63.7518L65.7725 58.6188C65.5 58.3479 65.1315 58.1959 64.7473 58.1959C64.3632 58.1959 63.9946 58.3479 63.7222 58.6188L60.6395 61.7015C60.4514 61.8859 60.2168 62.0157 59.9607 62.0772C59.7046 62.1387 59.4366 62.1294 59.1854 62.0505C56.0972 61.0211 53.2911 59.2868 50.9893 56.985C48.6876 54.6832 46.9533 51.8772 45.9239 48.789C45.845 48.5377 45.8357 48.2698 45.8972 48.0137C45.9586 47.7575 46.0885 47.5229 46.2729 47.3349L49.3556 44.2522C49.4904 44.1163 49.597 43.9552 49.6694 43.778C49.7417 43.6009 49.7784 43.4111 49.7773 43.2198C49.7757 42.8383 49.6243 42.4727 49.3556 42.2019L44.2372 36.9817C44.1013 36.8469 43.9401 36.7403 43.763 36.6679C43.5858 36.5955 43.3961 36.5589 43.2047 36.56Z" fill="#484848"/>
</svg>
