<svg width="30" height="31" viewBox="0 0 30 31" fill="none" xmlns="http://www.w3.org/2000/svg">
<path d="M29.2133 22.0633L25.0179 17.8679C23.5196 16.3695 20.9724 16.9689 20.373 18.9168C19.9235 20.2653 18.4251 21.0145 17.0766 20.7148C14.0799 19.9656 10.0344 16.0699 9.28518 12.9233C8.83567 11.5747 9.73468 10.0764 11.0832 9.62694C13.0311 9.0276 13.6304 6.48039 12.1321 4.98204L7.93666 0.786637C6.73797 -0.262212 4.93994 -0.262212 3.89109 0.786637L1.04422 3.63351C-1.80266 6.63023 1.34389 14.5715 8.38616 21.6138C15.4284 28.6561 23.3697 31.9525 26.3664 28.9557L29.2133 26.1089C30.2622 24.9102 30.2622 23.1121 29.2133 22.0633Z" fill="white"/>
</svg>
