<svg width="27" height="32" viewBox="0 0 27 32" fill="none" xmlns="http://www.w3.org/2000/svg">
<path d="M4.93419 15.9799C4.93419 16.6591 4.3826 17.2084 3.70064 17.2084H1.23355C0.551586 17.2084 0 16.6591 0 15.9799C0 15.3008 0.551586 14.7515 1.23355 14.7515H3.70064C4.3826 14.7515 4.93419 15.3008 4.93419 15.9799Z" fill="#FF5050"/>
<path d="M4.93419 8.10981C4.93419 7.43066 4.3826 6.88135 3.70064 6.88135H1.23355C0.551586 6.88135 0 7.43066 0 8.10981C0 8.78896 0.551586 9.33828 1.23355 9.33828H3.70064C4.3826 9.33828 4.93419 8.78896 4.93419 8.10981Z" fill="#FF5050"/>
<path d="M4.93419 23.8508C4.93419 23.1716 4.3826 22.6223 3.70064 22.6223H1.23355C0.551586 22.6223 0 23.1716 0 23.8508C0 24.5299 0.551586 25.0792 1.23355 25.0792H3.70064C4.3826 25.0792 4.93419 24.5299 4.93419 23.8508Z" fill="#FF5050"/>
<path d="M22.7154 0H5.43574C3.24945 0 1.48438 1.7578 1.48438 3.93508V5.90262H3.71078C4.9343 5.90262 5.93718 6.89139 5.93718 8.11985C5.93718 9.34831 4.94432 10.3371 3.71078 10.3371H1.48438V13.7828H3.71078C4.9343 13.7828 5.93718 14.7715 5.93718 16C5.93718 17.2185 4.94432 18.2172 3.71078 18.2172H1.48438V21.6629H3.71078C4.9343 21.6629 5.93718 22.6517 5.93718 23.8801C5.93718 25.0986 4.94432 26.0974 3.71078 26.0974H1.48438V28.0649C1.48438 30.2422 3.24945 32 5.43574 32H22.7154C24.8917 32 26.6668 30.2422 26.6668 28.0649V3.93508C26.6568 1.7578 24.8917 0 22.7154 0ZM14.8127 7.87016C16.9188 7.87016 18.6237 9.56804 18.6237 11.6654C18.6237 13.7628 16.9188 15.4607 14.8127 15.4607C12.7066 15.4607 11.0017 13.7628 11.0017 11.6654C11.0017 9.56804 12.7066 7.87016 14.8127 7.87016ZM20.7397 22.6217H8.88566V20.9338C8.88566 18.6067 10.7811 16.7191 13.1178 16.7191H16.5076C18.8443 16.7191 20.7397 18.6067 20.7397 20.9338V22.6217Z" fill="#FF5050"/>
</svg>
