<svg width="83" height="83" viewBox="0 0 83 83" fill="none" xmlns="http://www.w3.org/2000/svg">
<path d="M77.3183 60.1516C80.3258 54.457 82.035 47.9707 82.0452 41.0853C82.079 18.4815 63.6369 0.00577017 41.0333 1.358e-06C18.3687 -0.00576746 -0.00576746 18.3687 1.358e-06 41.0333C0.00577017 63.6369 18.4815 82.079 41.0852 82.0452C47.9708 82.035 54.457 80.3258 60.1514 77.3183L76.5644 79.4936C78.267 79.7193 79.7193 78.267 79.4936 76.5644L77.3183 60.1516Z" fill="#C9A3FF"/>
<path d="M79.4949 76.5654C79.7209 78.2672 78.2675 79.7206 76.5657 79.4946L60.1518 77.3185C54.4583 80.3263 47.9716 82.0361 41.0858 82.0457C20.7331 82.0762 3.72633 67.1269 0.539062 47.6476C6.65721 60.8534 20.0313 70.013 35.5446 70.013C56.8411 70.013 74.1059 52.7482 74.1059 31.4516C74.1059 23.3256 71.5933 15.7861 67.3019 9.57019C76.3189 17.1209 82.0653 28.4583 82.046 41.0856C82.0364 47.9713 80.3266 54.458 77.3188 60.1515L79.4949 76.5654Z" fill="#C29AFB"/>
<path d="M4.50451 38.9718C6.47104 38.9718 8.14063 37.5437 8.4592 35.6033C9.56825 28.8475 12.7462 22.6209 17.6826 17.6831C22.949 12.4139 29.6846 9.14704 36.9666 8.26008C38.9766 8.01523 40.4881 6.31054 40.4881 4.28569C40.4881 1.88634 38.3917 0.0167632 36.0099 0.307287C17.921 2.51274 3.46693 16.4907 0.544862 34.3484C0.147935 36.7749 2.04572 38.9718 4.50451 38.9718Z" fill="#D0AFFE"/>
<path d="M15.9954 8.52251C11.01 12.3671 6.93388 17.3331 4.14481 23.0428C3.13335 25.1136 4.07767 27.6181 6.21934 28.4692C6.24418 28.4791 6.26902 28.4889 6.29386 28.4988C8.21712 29.2649 10.4184 28.4445 11.3246 26.5832C12.9105 23.3259 15.0455 20.3205 17.6823 17.6831C18.6896 16.6751 19.7511 15.7411 20.8596 14.8828C22.5187 13.5983 22.904 11.2462 21.7258 9.5101C21.7107 9.48799 21.6958 9.46587 21.6807 9.44376C20.4033 7.56473 17.7946 7.13495 15.9954 8.52251Z" fill="#D7BCFD"/>
<path d="M76.5628 79.4944L64.7734 77.9314C69.1994 76.6046 76.2042 67.5706 77.3161 60.1517L79.4921 76.5651C79.718 78.2669 78.2646 79.7204 76.5628 79.4944Z" fill="#B88DF3"/>
<circle cx="27" cy="41" r="5" fill="white"/>
<circle cx="41" cy="41" r="5" fill="white"/>
<circle cx="55" cy="41" r="5" fill="white"/>
</svg>
