<svg  viewBox="0 0 286 139" fill="none" xmlns="http://www.w3.org/2000/svg">
<g clip-path="url(#clip0_4_2)">
<path d="M282.411 70.0704C281.842 70.0663 281.273 70.0663 280.705 70.0622C279.125 70.054 277.541 70.0499 275.962 70.0416C273.556 70.0334 271.154 70.0211 268.747 70.0129C265.711 70.0006 262.671 69.9883 259.634 69.9759C256.131 69.9595 252.633 69.9472 249.13 69.9308C245.39 69.9143 241.649 69.8979 237.913 69.8815C234.107 69.8651 230.302 69.8486 226.5 69.8322C222.817 69.8158 219.138 69.7994 215.455 69.787C212.088 69.7747 208.72 69.7583 205.348 69.746C202.479 69.7337 199.615 69.7213 196.746 69.709C194.569 69.7008 192.396 69.6926 190.219 69.6803C188.922 69.6762 187.629 69.6679 186.332 69.6638C186.074 69.6638 185.816 69.6638 185.554 69.6597C185.133 69.6556 184.719 69.6105 184.314 69.4996C183.578 69.2984 182.293 68.781 182.211 67.8858C182.207 67.8242 182.203 67.7626 182.207 67.701C182.317 67.6024 182.424 67.5039 182.53 67.3971C182.538 67.393 182.542 67.3848 182.551 67.3766C182.555 67.3724 182.555 67.3724 182.559 67.3683C182.641 67.2862 182.722 67.2041 182.804 67.1178C184.011 65.9147 185.309 64.81 186.667 63.7834C188.03 62.7568 189.446 61.7384 190.96 60.9459C192.527 60.1287 194.254 59.5497 196.022 59.4265C197.814 59.3033 199.521 59.7386 201.227 60.2519C204.022 61.0937 207.451 62.0751 210.033 60.1164C211.167 59.2581 211.859 57.9851 212.378 56.6875C213.021 55.086 213.504 53.4023 213.978 51.7433C214.981 48.2364 215.877 44.6063 216.303 40.9762C216.475 39.5102 216.47 37.9703 215.852 36.6029C215.284 35.3422 214.203 34.4305 212.976 33.8392C211.707 33.2274 210.332 32.9029 208.965 32.5991C207.083 32.1802 205.201 31.7572 203.318 31.3466C199.586 30.5294 195.85 29.7451 192.093 29.0511C188.386 28.3653 184.662 27.7699 180.922 27.3223C178.139 26.9897 174.968 26.579 172.406 28.004C169.767 29.47 169.161 32.4882 169.026 35.2724C168.846 38.96 168.789 42.6599 168.711 46.3516C168.678 47.9161 168.699 49.5546 169.292 51.0247C169.816 52.3264 170.769 53.3407 171.952 54.0635C173.233 54.8437 174.689 55.2913 176.13 55.665C177.865 56.1126 179.629 56.4534 181.405 56.6916C182.256 56.8066 183.127 56.8394 183.975 56.9872C184.674 57.1063 185.493 57.3568 185.718 58.1206C185.976 59.0158 185.337 60.0178 184.961 60.7857C184.547 61.6275 184.118 62.4652 183.68 63.2947C183.258 64.0914 182.821 64.8839 182.375 65.6683C182.076 66.198 181.732 66.7688 181.626 67.3807C181.568 67.434 181.507 67.4833 181.446 67.5326C181.266 67.6845 181.077 67.8283 180.885 67.9679C180.819 68.0131 180.721 68.0582 180.668 68.1157C180.676 68.1157 180.684 68.1116 180.693 68.1116C180.684 68.1116 180.676 68.1157 180.668 68.1198C180.656 68.1362 180.627 68.1362 180.627 68.1321C180.623 68.1321 180.623 68.1321 180.619 68.1321C180.599 68.1362 180.59 68.1362 180.586 68.1362H180.582C180.488 68.1404 180.394 68.1445 180.3 68.1404C180.177 68.1362 180.058 68.1239 179.94 68.1116C179.878 68.1034 179.817 68.0993 179.751 68.0911C179.715 68.087 179.678 68.0829 179.641 68.0788C179.621 68.0746 179.612 68.0746 179.612 68.0746C179.608 68.0746 179.596 68.0705 179.576 68.0705C179.228 68.0213 178.88 67.9638 178.528 67.9104C177.64 67.7667 176.748 67.6188 175.856 67.5039C173.924 67.2534 171.907 67.0932 169.988 67.5039C169.128 67.6886 168.289 68.0172 167.594 68.5674C167.164 68.9083 166.816 69.3312 166.562 69.8117C166.509 67.894 166.456 65.9763 166.403 64.0544C166.333 61.5372 166.28 59.0158 166.19 56.4945C166.121 54.4864 165.981 52.4619 165.499 50.5073C165.04 48.6594 164.234 46.8854 162.92 45.4851C161.693 44.1751 160.089 43.2923 158.382 42.7831C154.515 41.625 150.354 42.1671 146.421 42.6393C136.236 43.8713 126.144 45.7561 116.106 47.8668C111.053 48.9304 106.011 50.0515 100.974 51.1766C97.3564 51.9856 93.2643 52.7412 90.5307 55.472C87.4821 58.5189 87.7481 62.9991 88.3865 66.9372C89.1967 71.9265 90.3015 76.8748 91.652 81.7491C92.3231 84.176 93.0596 86.5906 93.8617 88.9765C94.496 90.8572 95.208 92.7626 96.3416 94.4052C97.4301 95.982 98.8869 97.2099 100.691 97.871C102.652 98.5855 104.804 98.6184 106.85 98.3433C111.572 97.7109 115.914 95.3168 120.759 95.4318C125.625 95.5468 129.844 97.7273 133.842 100.31C137.562 102.713 141.326 105.139 144.453 108.31C144.735 109.057 144.866 109.874 144.42 110.523C143.97 111.184 143.065 111.537 142.345 111.788C141.51 112.079 140.668 112.268 139.788 112.268C138.257 112.272 136.727 112.272 135.196 112.276C132.246 112.281 129.295 112.285 126.349 112.293C122.331 112.301 118.312 112.305 114.298 112.313C109.563 112.322 104.829 112.33 100.09 112.338C94.9871 112.346 89.8842 112.354 84.7813 112.363C79.662 112.371 74.5387 112.379 69.4194 112.387C64.6316 112.396 59.8438 112.404 55.056 112.412C50.9516 112.42 46.8472 112.424 42.7428 112.432C39.6737 112.437 36.6045 112.445 33.5314 112.449C31.8454 112.453 30.1594 112.453 28.4735 112.457C28.2607 112.457 -11.5557 113.073 -11.7685 113.073C-12.1654 113.073 -375 112.363 -375 112.363C-297.066 112.363 29.6807 113.069 30.6055 113.069C33.1344 113.065 35.6593 113.061 38.1882 113.057C41.9489 113.048 45.7096 113.044 49.4703 113.036C54.0944 113.028 58.7185 113.02 63.3426 113.011C68.4618 113.003 73.577 112.995 78.6963 112.987C83.9383 112.979 89.1803 112.97 94.4223 112.958C99.4393 112.95 104.46 112.942 109.477 112.933C113.856 112.925 118.238 112.917 122.617 112.909C126.014 112.905 129.406 112.897 132.802 112.892C134.844 112.888 136.882 112.884 138.924 112.88C139.321 112.88 139.718 112.884 140.115 112.876C140.635 112.868 141.134 112.773 141.633 112.642C142.84 112.322 144.535 111.804 145.099 110.556C145.963 108.642 144.158 106.371 143.286 104.803C142.042 102.565 140.856 100.294 139.726 97.9942C139.166 96.8526 138.421 95.6084 138.376 94.3025C138.335 93.1034 139.039 92.2329 140.115 91.8017C140.962 91.4609 141.891 91.3623 142.791 91.2761C144.015 91.1611 145.234 91.0215 146.454 90.849C148.966 90.4958 151.458 90.0113 153.922 89.3953C155.902 88.9025 157.875 88.34 159.733 87.4858C161.451 86.6974 163.084 85.6256 164.287 84.1432C165.572 82.5581 166.227 80.6239 166.501 78.62C166.788 76.5052 166.702 74.3616 166.636 72.2345C166.64 71.3064 166.833 70.4235 167.369 69.6721C167.414 69.6105 167.45 69.5612 167.524 69.479C167.59 69.401 167.663 69.3271 167.737 69.2573C167.892 69.1054 168.019 69.0027 168.171 68.9C168.51 68.666 168.875 68.4853 169.222 68.358C170.974 67.7174 172.942 67.8036 174.788 67.9884C176.437 68.1527 178.07 68.4935 179.735 68.6988C180.112 68.744 180.627 68.8467 180.979 68.6496C181.212 68.5181 181.437 68.3457 181.654 68.1691C181.965 69.4175 183.709 70.0581 184.83 70.21C185.587 70.3127 186.381 70.2634 187.138 70.2675C188.742 70.2757 190.342 70.2798 191.946 70.288C194.405 70.3003 196.865 70.3086 199.324 70.3209C202.438 70.3332 205.552 70.3455 208.667 70.3619C212.255 70.3784 215.84 70.3907 219.429 70.4071C223.251 70.4235 227.077 70.44 230.899 70.4564C234.774 70.4728 238.654 70.4892 242.529 70.5057C246.257 70.5221 249.985 70.5385 253.713 70.5549C257.093 70.5673 260.473 70.5837 263.853 70.596C266.697 70.6083 269.537 70.6206 272.381 70.633C274.46 70.6412 276.535 70.6494 278.614 70.6576C279.739 70.6617 280.864 70.6658 281.99 70.6699C282.133 70.6699 282.276 70.6699 282.419 70.6699C282.804 70.6905 282.804 70.0745 282.411 70.0704ZM185.824 60.4284C186.352 59.3156 186.786 57.8783 185.636 56.9872C184.568 56.1619 182.886 56.2809 181.622 56.1167C179.792 55.8785 177.975 55.5254 176.191 55.0572C174.726 54.6753 173.249 54.2113 171.98 53.3613C170.634 52.4619 169.812 51.1397 169.505 49.5546C169.181 47.8874 169.333 46.138 169.378 44.4503C169.431 42.5613 169.484 40.6723 169.533 38.7793C169.578 37.1449 169.562 35.4941 169.75 33.868C169.922 32.3445 170.331 30.7553 171.387 29.5931C173.401 27.3798 176.768 27.4989 179.49 27.7781C186.941 28.5501 194.32 30.0325 201.636 31.6135C203.449 32.0036 205.258 32.4061 207.071 32.8085C208.609 33.1534 210.185 33.4368 211.674 33.9665C213.012 34.4388 214.33 35.1779 215.075 36.4345C215.914 37.8512 215.869 39.5841 215.668 41.1651C215.206 44.787 214.314 48.3966 213.299 51.8953C212.828 53.5173 212.362 55.1681 211.703 56.7285C211.106 58.1453 210.234 59.4881 208.793 60.1451C205.642 61.5906 202.176 59.6852 199.087 59.0405C195.875 58.3711 192.666 59.1965 189.875 60.8432C188.161 61.8534 186.499 63.0319 184.948 64.3255C185.104 64.0791 185.259 63.8286 185.411 63.5781C185.931 62.9868 186.467 62.4119 187.027 61.8534C188.635 60.2519 190.379 58.7941 192.539 58.0221C194.725 57.2377 196.869 57.3856 199.038 58.1412C201.043 58.8393 202.983 59.792 205.147 59.8494C207.009 59.8987 208.72 59.1883 209.78 57.6114C210.32 56.8066 210.668 55.8826 210.966 54.9669C211.343 53.8089 211.687 52.6426 212.026 51.4723C212.73 49.0454 213.373 46.602 213.954 44.1464C214.445 42.0726 215.03 39.851 213.884 37.8882C212.89 36.184 211.044 34.9521 209.154 34.4798C208.036 34.2006 206.854 34.1143 205.72 33.9049C204.517 33.6832 203.318 33.4327 202.115 33.1904C202.095 33.1822 202.074 33.174 202.054 33.1699C197.651 32.5046 193.243 31.8394 188.84 31.17C186.639 30.8374 184.437 30.5048 182.231 30.1722C181.131 30.0038 180.03 29.8395 178.929 29.6712C177.902 29.5151 176.854 29.2893 175.811 29.2523C174.91 29.2195 174.022 29.4371 173.36 30.0736C172.795 30.6198 172.467 31.3671 172.259 32.1145C172.017 32.981 171.923 33.8885 171.817 34.7796C171.686 35.8883 171.592 36.9971 171.518 38.1099C171.379 40.311 171.334 42.512 171.326 44.7172C171.322 45.8054 171.33 46.8936 171.334 47.9818C171.342 48.992 171.285 50.0638 171.686 51.0124C172.32 52.5153 173.92 53.1847 175.397 53.5707C176.339 53.813 177.3 53.9895 178.25 54.1908C179.33 54.4166 180.414 54.6466 181.495 54.8724C182.456 55.0736 183.43 55.242 184.376 55.5007C185.1 55.6978 185.857 55.973 186.405 56.5109C187.866 57.9482 186.671 60.1081 185.861 61.5495C185.55 62.108 185.235 62.6665 184.903 63.2167C184.392 63.8039 183.901 64.4117 183.43 65.0318C184.277 63.5247 185.084 61.993 185.824 60.4284ZM187.277 56.6136C186.847 55.9278 186.156 55.4966 185.423 55.1968C184.629 54.8765 183.778 54.7205 182.943 54.548C181.875 54.3222 180.807 54.1004 179.739 53.8746C178.671 53.6487 177.603 53.427 176.535 53.2011C175.77 53.041 175.005 52.8603 174.28 52.5605C173.621 52.2854 172.963 51.887 172.549 51.2916C172.005 50.5114 171.972 49.5669 171.964 48.6471C171.948 46.4583 171.935 44.2696 171.98 42.085C172.026 39.8962 172.132 37.7116 172.357 35.5352C172.455 34.5907 172.545 33.6298 172.754 32.6976C172.918 31.9749 173.159 31.2152 173.662 30.6567C174.264 29.9915 175.099 29.8272 175.962 29.8806C176.997 29.9422 178.037 30.1598 179.064 30.3159C181.253 30.6485 183.443 30.977 185.628 31.3096C189.99 31.9708 194.356 32.6278 198.719 33.289C199.733 33.4409 200.744 33.5969 201.755 33.7489C203.83 34.1636 205.896 34.6071 207.991 34.9028C209.861 35.1656 211.617 35.9992 212.845 37.4775C213.528 38.2988 213.933 39.2761 213.958 40.352C213.986 41.5511 213.667 42.7297 213.393 43.8877C212.837 46.2366 212.227 48.5731 211.564 50.8933C211.237 52.0349 210.897 53.1765 210.541 54.3098C210.242 55.2666 209.923 56.2358 209.395 57.094C208.237 58.983 206.166 59.4799 204.087 59.1472C201.984 58.8105 200.094 57.7469 198.052 57.2008C196.1 56.6793 194.099 56.7942 192.208 57.5047C190.084 58.3054 188.349 59.7098 186.745 61.2867C186.733 61.299 186.72 61.3113 186.708 61.3237C187.06 60.6748 187.379 60.0055 187.567 59.291C187.797 58.3917 187.784 57.4184 187.277 56.6136ZM166.071 76.037C166.022 78.271 165.752 80.587 164.635 82.5622C162.585 86.1923 158.321 87.6295 154.532 88.6233C152.121 89.2557 149.678 89.7608 147.215 90.1386C145.922 90.3357 144.625 90.4999 143.323 90.6272C142.431 90.7135 141.531 90.7751 140.659 91.0009C139.047 91.4157 137.688 92.5121 137.766 94.3189C137.807 95.3497 138.233 96.3147 138.671 97.2304C139.211 98.3679 139.775 99.4931 140.348 100.61C141.048 101.977 141.789 103.324 142.533 104.667C141.654 103.608 140.721 102.598 139.755 101.616C138.961 100.495 138.229 99.3329 137.59 98.1174C136.682 96.3927 135.741 94.2697 136.375 92.2986C136.915 90.6067 138.519 89.6992 140.107 89.1777C140.938 88.9067 141.793 88.7177 142.648 88.5412C143.806 88.2989 144.96 88.0566 146.118 87.8143C148.43 87.3298 150.746 86.8452 153.058 86.3607C156.16 85.7118 160.265 85.0178 161.713 81.745C162.131 80.8005 162.262 79.7698 162.298 78.7473C162.343 77.618 162.327 76.4847 162.331 75.3554C162.344 73.0106 162.348 70.6658 162.315 68.321C162.249 63.6397 162.041 58.9542 161.472 54.3016C161.079 51.0904 160.49 46.5528 156.582 45.9039C155.587 45.7397 154.585 45.8259 153.595 45.9614C152.453 46.1175 151.319 46.3023 150.182 46.4747C147.837 46.8279 145.492 47.1852 143.147 47.5383C138.458 48.2487 133.768 48.955 129.079 49.6655C124.409 50.3718 119.74 51.0781 115.071 51.7844C113.917 51.9569 112.767 52.1334 111.613 52.3059C111.577 52.31 111.544 52.3223 111.515 52.3346C108.02 53.0327 104.534 53.7349 101.002 54.2524C97.9988 54.6917 95.0812 56.2933 93.121 58.6257C92.1307 59.8043 91.3737 61.1922 91.1241 62.7281C90.8335 64.5226 91.1323 66.3458 91.5128 68.0993C92.3722 72.0456 93.3993 75.9631 94.4837 79.856C95.0402 81.8559 95.6213 83.8475 96.227 85.835C96.7303 87.4858 97.2091 89.153 97.917 90.7299C99.2347 93.6578 101.51 95.711 104.759 96.1052C108.151 96.5159 111.376 95.2922 114.486 94.1054C116.254 93.4278 118.038 92.7585 119.908 92.4259C121.754 92.0974 123.648 92.1713 125.473 92.5901C129.557 93.5264 132.774 95.9697 135.822 98.7293C137.013 99.8052 138.192 100.91 139.321 102.051C140.021 103.025 140.762 103.965 141.523 104.889C139.243 103.082 136.784 101.489 134.349 99.9119C130.589 97.4809 126.73 95.3948 122.204 94.9144C119.92 94.6721 117.666 94.9308 115.444 95.4852C113.115 96.0642 110.856 96.9019 108.512 97.4275C106.425 97.8957 104.203 98.1051 102.095 97.6411C99.9631 97.177 98.1871 95.9697 96.9267 94.1875C95.7441 92.508 95.028 90.5492 94.3814 88.6151C93.5916 86.2498 92.8673 83.8639 92.2044 81.4617C90.8826 76.6694 89.7982 71.8033 88.9962 66.892C88.2964 62.6336 88.1491 57.8373 92.0039 55.0244C95.3021 52.618 99.7789 52.0759 103.658 51.2136C113.557 49.0084 123.476 46.8525 133.478 45.1566C138.511 44.3024 143.569 43.5551 148.647 43.0007C152.387 42.5942 156.59 42.3313 160.048 44.1053C163.923 46.0928 165.143 50.2609 165.458 54.3304C165.638 56.6095 165.646 58.905 165.707 61.1881C165.777 63.7423 165.851 66.2925 165.92 68.8467C165.949 69.8774 165.99 70.9081 166.022 71.9388C166.018 72.0456 166.014 72.1524 166.014 72.2591C166.014 72.3043 166.022 72.3454 166.035 72.3782C166.076 73.6019 166.096 74.8215 166.071 76.037ZM161.595 79.8355C161.472 80.7841 161.161 81.7039 160.568 82.4636C160.076 83.096 159.43 83.5888 158.738 83.9789C157.286 84.7961 155.624 85.1944 154.008 85.5353C151.72 86.0157 149.433 86.4962 147.145 86.9725C145.042 87.4119 142.91 87.7815 140.831 88.3276C139.28 88.7342 137.635 89.3543 136.592 90.6396C135.356 92.1672 135.376 94.1506 135.966 95.9451C136.387 97.2345 137.013 98.4706 137.717 99.645C135.282 97.3495 132.806 95.0458 129.799 93.5305C126.93 92.0809 123.689 91.3089 120.477 91.7278C116.802 92.2041 113.541 94.0808 109.997 95.0253C106.907 95.8506 103.175 95.9985 100.659 93.6824C98.1093 91.3377 97.34 87.4365 96.3906 84.254C95.2407 80.4063 94.185 76.5298 93.2192 72.6287C92.7527 70.7479 92.2617 68.859 91.9057 66.9536C91.5497 65.04 91.4146 63.0073 92.2208 61.1881C93.6407 57.981 97.0454 55.7019 100.397 54.9915C102.247 54.6014 104.145 54.4166 106.007 54.0676C108.012 53.6898 110.009 53.2709 112.01 52.8726C116.581 52.1827 121.152 51.4887 125.723 50.7988C130.392 50.0925 135.061 49.3862 139.73 48.6799C144.35 47.9818 148.97 47.2385 153.599 46.5856C155.473 46.3187 157.49 46.2941 158.845 47.8299C159.946 49.0782 160.342 50.8399 160.6 52.4373C161.32 56.9585 161.546 61.5741 161.656 66.1446C161.713 68.4689 161.726 70.7931 161.722 73.1174C161.722 74.2877 161.713 75.4621 161.705 76.6325C161.697 77.696 161.734 78.776 161.595 79.8355Z" fill="white"/>
<path d="M169.025 68.1281C168.992 68.1363 168.979 68.1404 168.979 68.1445C168.992 68.1404 169.004 68.1363 169.025 68.1281C169.021 68.1281 169.021 68.1281 169.025 68.1281Z" fill="white"/>
</g>
<defs>
<clipPath id="clip0_4_2">
<rect width="286" height="139" fill="white"/>
</clipPath>
</defs>
</svg>
