<svg width="660" height="87" viewBox="0 0 660 87" fill="none" xmlns="http://www.w3.org/2000/svg">
<path d="M659.71 43.0704C659.139 43.0663 658.568 43.0663 657.997 43.0622C656.412 43.054 654.823 43.0499 653.238 43.0416C650.823 43.0334 648.413 43.0211 645.998 43.0129C642.951 43.0006 639.9 42.9883 636.853 42.9759C633.338 42.9595 629.827 42.9472 626.312 42.9308C622.559 42.9143 618.805 42.8979 615.056 42.8815C611.237 42.8651 607.418 42.8486 603.603 42.8322C599.908 42.8158 596.216 42.7994 592.52 42.787C589.14 42.7747 585.761 42.7583 582.377 42.746C579.498 42.7337 576.624 42.7213 573.745 42.709C571.561 42.7008 569.38 42.6926 567.195 42.6803C565.894 42.6762 564.596 42.6679 563.294 42.6638C563.036 42.6638 562.777 42.6638 562.514 42.6597C562.091 42.6556 561.676 42.6105 561.27 42.4996C560.531 42.2984 559.241 41.781 559.159 40.8858C559.155 40.8242 559.151 40.7626 559.155 40.701C559.266 40.6024 559.373 40.5038 559.479 40.3971C559.488 40.393 559.492 40.3848 559.5 40.3766C559.504 40.3724 559.504 40.3724 559.508 40.3683C559.59 40.2862 559.672 40.2041 559.755 40.1178C560.966 38.9147 562.268 37.81 563.631 36.7834C564.998 35.7568 566.419 34.7384 567.939 33.9459C569.511 33.1287 571.244 32.5497 573.018 32.4265C574.817 32.3033 576.529 32.7386 578.242 33.2519C581.047 34.0937 584.488 35.0751 587.079 33.1164C588.216 32.2581 588.91 30.9851 589.432 29.6875C590.077 28.086 590.561 26.4023 591.038 24.7433C592.044 21.2364 592.943 17.6063 593.37 13.9762C593.543 12.5102 593.538 10.9703 592.918 9.60285C592.348 8.34217 591.263 7.43054 590.032 6.83921C588.759 6.22735 587.379 5.90294 586.007 5.59907C584.118 5.18021 582.229 4.75725 580.34 4.3466C576.595 3.52942 572.846 2.74509 569.076 2.0511C565.356 1.36532 561.619 0.769887 557.866 0.322285C555.073 -0.0103371 551.891 -0.420982 549.32 1.00395C546.671 2.46996 546.064 5.48819 545.928 8.27236C545.747 11.96 545.69 15.6599 545.612 19.3516C545.579 20.9161 545.6 22.5546 546.195 24.0247C546.721 25.3264 547.677 26.3407 548.864 27.0635C550.15 27.8437 551.611 28.2913 553.057 28.665C554.798 29.1126 556.568 29.4534 558.35 29.6916C559.204 29.8066 560.079 29.8394 560.929 29.9872C561.631 30.1063 562.453 30.3568 562.678 31.1206C562.937 32.0158 562.296 33.0178 561.919 33.7857C561.504 34.6275 561.073 35.4652 560.633 36.2947C560.21 37.0914 559.771 37.8839 559.323 38.6683C559.024 39.198 558.679 39.7688 558.572 40.3807C558.514 40.434 558.453 40.4833 558.391 40.5326C558.211 40.6845 558.022 40.8283 557.829 40.9679C557.763 41.0131 557.664 41.0582 557.611 41.1157C557.619 41.1157 557.627 41.1116 557.636 41.1116C557.627 41.1116 557.619 41.1157 557.611 41.1198C557.599 41.1362 557.57 41.1362 557.57 41.1321C557.566 41.1321 557.566 41.1321 557.562 41.1321C557.541 41.1362 557.533 41.1362 557.529 41.1362H557.525C557.43 41.1404 557.336 41.1445 557.241 41.1404C557.118 41.1362 556.999 41.1239 556.88 41.1116C556.818 41.1034 556.757 41.0993 556.691 41.0911C556.654 41.087 556.617 41.0829 556.58 41.0788C556.56 41.0746 556.552 41.0746 556.552 41.0746C556.547 41.0746 556.535 41.0705 556.515 41.0705C556.166 41.0213 555.816 40.9638 555.463 40.9104C554.572 40.7667 553.677 40.6188 552.782 40.5039C550.844 40.2534 548.819 40.0932 546.893 40.5039C546.031 40.6886 545.189 41.0172 544.491 41.5674C544.06 41.9083 543.711 42.3312 543.456 42.8117C543.403 40.894 543.349 38.9763 543.296 37.0544C543.226 34.5372 543.173 32.0158 543.082 29.4945C543.013 27.4864 542.873 25.4619 542.388 23.5073C541.929 21.6594 541.12 19.8854 539.801 18.4851C538.569 17.1751 536.96 16.2923 535.247 15.7831C531.367 14.625 527.19 15.1671 523.244 15.6393C513.023 16.8713 502.897 18.7561 492.824 20.8668C487.752 21.9304 482.693 23.0515 477.638 24.1766C474.008 24.9856 469.902 25.7412 467.158 28.472C464.099 31.5189 464.366 35.9991 465.007 39.9372C465.82 44.9265 466.928 49.8748 468.284 54.7491C468.957 57.176 469.696 59.5906 470.501 61.9765C471.138 63.8572 471.852 65.7626 472.99 67.4052C474.082 68.982 475.544 70.2099 477.355 70.871C479.322 71.5855 481.482 71.6184 483.535 71.3433C488.274 70.7109 492.631 68.3168 497.493 68.4318C502.375 68.5468 506.609 70.7273 510.621 73.3102C514.354 75.7125 518.132 78.1394 521.269 81.3096C521.552 82.057 521.684 82.8742 521.236 83.523C520.784 84.1841 519.877 84.5373 519.154 84.7878C518.316 85.0793 517.471 85.2682 516.588 85.2682C515.052 85.2723 513.516 85.2723 511.98 85.2764C509.019 85.2805 506.059 85.2846 503.102 85.2929C499.07 85.3011 495.037 85.3052 491.009 85.3134C486.257 85.3216 481.506 85.3298 476.751 85.338C471.63 85.3462 466.51 85.3545 461.389 85.3627C456.252 85.3709 451.111 85.3791 445.973 85.3873C441.169 85.3955 436.364 85.4037 431.56 85.4119C427.441 85.4201 423.322 85.4243 419.203 85.4325C416.124 85.4366 413.044 85.4448 409.96 85.4489C408.268 85.453 406.576 85.453 404.884 85.4571C404.671 85.4571 364.715 86.0731 364.502 86.0731C364.103 86.0731 0 85.3627 0 85.3627C78.2063 85.3627 406.096 86.069 407.024 86.069C409.561 86.0649 412.095 86.0608 414.633 86.0566C418.407 86.0484 422.181 86.0443 425.954 86.0361C430.595 86.0279 435.235 86.0197 439.875 86.0115C445.012 86.0033 450.145 85.995 455.283 85.9868C460.543 85.9786 465.803 85.9704 471.064 85.9581C476.098 85.9499 481.137 85.9417 486.171 85.9335C490.565 85.9252 494.963 85.917 499.357 85.9088C502.765 85.9047 506.17 85.8965 509.578 85.8924C511.627 85.8883 513.672 85.8842 515.721 85.8801C516.119 85.8801 516.518 85.8842 516.916 85.876C517.438 85.8678 517.939 85.7733 518.44 85.6419C519.651 85.3216 521.351 84.8042 521.918 83.5558C522.784 81.6422 520.973 79.3714 520.099 77.8027C518.85 75.5647 517.659 73.2938 516.526 70.9942C515.963 69.8526 515.216 68.6084 515.171 67.3025C515.13 66.1034 515.836 65.2329 516.916 64.8017C517.766 64.4609 518.698 64.3623 519.602 64.2761C520.83 64.1611 522.053 64.0215 523.277 63.849C525.798 63.4958 528.299 63.0113 530.771 62.3953C532.759 61.9025 534.738 61.34 536.602 60.4858C538.327 59.6974 539.966 58.6256 541.173 57.1432C542.462 55.5581 543.119 53.6239 543.394 51.62C543.682 49.5052 543.596 47.3616 543.53 45.2345C543.534 44.3064 543.727 43.4235 544.265 42.6721C544.31 42.6105 544.347 42.5612 544.421 42.479C544.487 42.401 544.561 42.3271 544.635 42.2573C544.791 42.1054 544.918 42.0027 545.07 41.9C545.411 41.666 545.776 41.4853 546.125 41.358C547.883 40.7174 549.858 40.8036 551.71 40.9884C553.365 41.1527 555.003 41.4935 556.675 41.6988C557.053 41.744 557.57 41.8467 557.923 41.6496C558.157 41.5181 558.383 41.3457 558.601 41.1691C558.913 42.4175 560.662 43.0581 561.787 43.21C562.547 43.3127 563.344 43.2634 564.103 43.2675C565.713 43.2757 567.319 43.2798 568.928 43.288C571.396 43.3003 573.864 43.3086 576.332 43.3209C579.457 43.3332 582.582 43.3455 585.707 43.3619C589.309 43.3784 592.906 43.3907 596.507 43.4071C600.343 43.4235 604.182 43.44 608.018 43.4564C611.907 43.4728 615.799 43.4892 619.688 43.5057C623.429 43.5221 627.17 43.5385 630.911 43.5549C634.303 43.5673 637.695 43.5837 641.087 43.596C643.941 43.6083 646.791 43.6207 649.645 43.633C651.731 43.6412 653.813 43.6494 655.899 43.6576C657.028 43.6617 658.157 43.6658 659.287 43.6699C659.43 43.6699 659.574 43.6699 659.718 43.6699C660.104 43.6905 660.104 43.0745 659.71 43.0704ZM562.785 33.4284C563.315 32.3156 563.75 30.8783 562.596 29.9872C561.524 29.1619 559.837 29.2809 558.568 29.1167C556.732 28.8785 554.909 28.5254 553.119 28.0572C551.648 27.6753 550.166 27.2113 548.893 26.3613C547.542 25.4619 546.717 24.1397 546.409 22.5546C546.084 20.8874 546.236 19.138 546.281 17.4503C546.335 15.5613 546.388 13.6723 546.437 11.7793C546.483 10.1449 546.466 8.49411 546.655 6.86796C546.828 5.34447 547.238 3.75527 548.298 2.59315C550.318 0.379775 553.698 0.498862 556.428 0.7781C563.906 1.55011 571.31 3.03254 578.652 4.61352C580.472 5.00363 582.287 5.40606 584.106 5.8085C585.65 6.15344 587.231 6.43678 588.726 6.96651C590.068 7.43876 591.391 8.17792 592.138 9.43449C592.98 10.8512 592.935 12.5841 592.734 14.1651C592.27 17.787 591.374 21.3966 590.356 24.8953C589.884 26.5173 589.416 28.1681 588.754 29.7285C588.155 31.1453 587.28 32.4881 585.835 33.1451C582.673 34.5906 579.195 32.6852 576.094 32.0405C572.871 31.3711 569.651 32.1965 566.851 33.8432C565.13 34.8534 563.463 36.0319 561.906 37.3255C562.062 37.0791 562.218 36.8286 562.37 36.5781C562.892 35.9868 563.43 35.4119 563.992 34.8534C565.606 33.2519 567.356 31.7941 569.524 31.0221C571.717 30.2377 573.869 30.3856 576.045 31.1412C578.057 31.8393 580.003 32.792 582.176 32.8494C584.044 32.8987 585.761 32.1883 586.824 30.6114C587.366 29.8066 587.716 28.8826 588.015 27.9669C588.393 26.8089 588.738 25.6426 589.079 24.4723C589.785 22.0454 590.43 19.602 591.013 17.1464C591.506 15.0726 592.093 12.851 590.943 10.8882C589.945 9.18399 588.093 7.95206 586.196 7.47982C585.075 7.20058 583.888 7.11435 582.751 6.90492C581.543 6.68317 580.34 6.43268 579.133 6.1904C579.112 6.18218 579.092 6.17397 579.071 6.16986C574.653 5.50462 570.23 4.83938 565.812 4.17002C563.602 3.8374 561.393 3.50478 559.18 3.17216C558.075 3.00379 556.97 2.83954 555.866 2.67117C554.835 2.51513 553.784 2.28927 552.737 2.25231C551.833 2.21946 550.942 2.4371 550.277 3.0736C549.71 3.61976 549.382 4.36713 549.172 5.11451C548.93 5.98097 548.836 6.88849 548.729 7.77959C548.597 8.88833 548.503 9.99707 548.429 11.1099C548.289 13.311 548.244 15.512 548.236 17.7172C548.232 18.8054 548.24 19.8936 548.244 20.9818C548.252 21.992 548.195 23.0638 548.597 24.0124C549.234 25.5153 550.839 26.1847 552.322 26.5707C553.266 26.813 554.231 26.9895 555.184 27.1908C556.268 27.4166 557.356 27.6466 558.44 27.8724C559.406 28.0736 560.383 28.242 561.331 28.5007C562.058 28.6978 562.818 28.973 563.368 29.5109C564.834 30.9482 563.635 33.1081 562.822 34.5495C562.51 35.108 562.194 35.6665 561.861 36.2167C561.348 36.8039 560.855 37.4117 560.383 38.0318C561.233 36.5247 562.042 34.993 562.785 33.4284ZM564.243 29.6136C563.812 28.9278 563.118 28.4966 562.383 28.1968C561.586 27.8765 560.732 27.7205 559.894 27.548C558.822 27.3222 557.751 27.1004 556.679 26.8746C555.607 26.6487 554.535 26.427 553.464 26.2011C552.696 26.041 551.928 25.8603 551.201 25.5605C550.54 25.2854 549.879 24.887 549.464 24.2916C548.918 23.5114 548.885 22.5669 548.877 21.6471C548.86 19.4583 548.848 17.2696 548.893 15.085C548.938 12.8962 549.045 10.7116 549.271 8.53518C549.369 7.59069 549.46 6.62979 549.669 5.69762C549.833 4.97489 550.076 4.2152 550.581 3.65672C551.184 2.99147 552.022 2.82722 552.889 2.8806C553.927 2.9422 554.971 3.15984 556.001 3.31588C558.198 3.64851 560.395 3.97702 562.588 4.30964C566.965 4.97078 571.347 5.62781 575.725 6.28895C576.743 6.44089 577.757 6.59693 578.772 6.74887C580.854 7.16362 582.927 7.60712 585.03 7.90278C586.906 8.1656 588.668 8.9992 589.9 10.4775C590.586 11.2988 590.992 12.2761 591.017 13.352C591.046 14.5511 590.726 15.7297 590.45 16.8877C589.892 19.2366 589.28 21.5731 588.615 23.8933C588.286 25.0349 587.945 26.1765 587.588 27.3098C587.288 28.2666 586.968 29.2358 586.438 30.094C585.276 31.983 583.198 32.4799 581.112 32.1472C579.002 31.8105 577.104 30.7469 575.055 30.2008C573.096 29.6793 571.088 29.7942 569.191 30.5047C567.06 31.3054 565.319 32.7098 563.709 34.2867C563.697 34.299 563.684 34.3113 563.672 34.3237C564.025 33.6748 564.346 33.0055 564.534 32.291C564.764 31.3917 564.752 30.4184 564.243 29.6136ZM542.963 49.037C542.914 51.271 542.643 53.587 541.522 55.5622C539.465 59.1923 535.186 60.6295 531.383 61.6233C528.964 62.2557 526.513 62.7608 524.041 63.1386C522.743 63.3357 521.441 63.4999 520.136 63.6272C519.24 63.7135 518.337 63.7751 517.462 64.0009C515.844 64.4157 514.481 65.5121 514.559 67.3189C514.6 68.3497 515.027 69.3147 515.467 70.2304C516.009 71.3679 516.575 72.4931 517.15 73.61C517.852 74.9775 518.596 76.3244 519.343 77.6672C518.46 76.6077 517.524 75.5975 516.555 74.6161C515.758 73.495 515.023 72.3329 514.382 71.1174C513.471 69.3927 512.526 67.2697 513.163 65.2986C513.705 63.6067 515.315 62.6992 516.908 62.1777C517.742 61.9067 518.6 61.7178 519.458 61.5412C520.62 61.2989 521.778 61.0566 522.94 60.8143C525.26 60.3298 527.585 59.8452 529.905 59.3607C533.017 58.7118 537.136 58.0178 538.59 54.745C539.009 53.8005 539.14 52.7698 539.177 51.7473C539.222 50.618 539.206 49.4847 539.21 48.3554C539.222 46.0106 539.226 43.6658 539.194 41.321C539.128 36.6397 538.918 31.9542 538.348 27.3016C537.953 24.0904 537.362 19.5528 533.44 18.9039C532.443 18.7397 531.437 18.8259 530.443 18.9614C529.297 19.1175 528.16 19.3023 527.018 19.4747C524.665 19.8279 522.312 20.1852 519.959 20.5383C515.253 21.2487 510.547 21.955 505.841 22.6655C501.156 23.3718 496.47 24.0781 491.785 24.7844C490.627 24.9569 489.473 25.1334 488.315 25.3059C488.278 25.31 488.245 25.3223 488.216 25.3346C484.709 26.0327 481.211 26.7349 477.667 27.2524C474.653 27.6917 471.725 29.2933 469.758 31.6257C468.764 32.8043 468.004 34.1922 467.754 35.7281C467.462 37.5226 467.762 39.3458 468.144 41.0993C469.006 45.0456 470.037 48.9631 471.125 52.856C471.684 54.8559 472.267 56.8475 472.875 58.835C473.38 60.4858 473.86 62.153 474.571 63.7299C475.893 66.6578 478.176 68.711 481.437 69.1052C484.841 69.5159 488.077 68.2922 491.197 67.1054C492.971 66.4278 494.762 65.7585 496.639 65.4259C498.491 65.0974 500.392 65.1713 502.223 65.5901C506.322 66.5264 509.549 68.9697 512.608 71.7293C513.803 72.8052 514.986 73.9098 516.119 75.0514C516.822 76.0246 517.565 76.965 518.329 77.8889C516.041 76.0821 513.573 74.4888 511.13 72.9119C507.356 70.4809 503.484 68.3948 498.942 67.9144C496.651 67.6721 494.388 67.9308 492.158 68.4852C489.822 69.0642 487.555 69.9019 485.202 70.4275C483.108 70.8957 480.878 71.1051 478.763 70.6411C476.624 70.177 474.842 68.9697 473.577 67.1875C472.39 65.508 471.671 63.5492 471.023 61.6151C470.23 59.2498 469.503 56.8639 468.838 54.4617C467.512 49.6694 466.423 44.8033 465.619 39.892C464.916 35.6336 464.768 30.8373 468.637 28.0244C471.947 25.618 476.439 25.0759 480.332 24.2136C490.265 22.0084 500.219 19.8525 510.255 18.1566C515.306 17.3024 520.382 16.5551 525.478 16.0007C529.231 15.5942 533.449 15.3313 536.919 17.1053C540.807 19.0928 542.031 23.2609 542.347 27.3304C542.528 29.6095 542.536 31.905 542.598 34.1881C542.668 36.7424 542.742 39.2924 542.811 41.8467C542.84 42.8774 542.881 43.9081 542.914 44.9388C542.91 45.0456 542.906 45.1524 542.906 45.2591C542.906 45.3043 542.914 45.3454 542.926 45.3782C542.967 46.6019 542.988 47.8215 542.963 49.037ZM538.471 52.8355C538.348 53.7841 538.036 54.7039 537.44 55.4636C536.947 56.096 536.299 56.5888 535.605 56.9789C534.147 57.7961 532.48 58.1944 530.858 58.5353C528.562 59.0157 526.267 59.4962 523.971 59.9725C521.86 60.4119 519.721 60.7815 517.635 61.3276C516.078 61.7342 514.428 62.3543 513.38 63.6396C512.14 65.1672 512.161 67.1506 512.752 68.9451C513.175 70.2345 513.803 71.4706 514.51 72.645C512.066 70.3495 509.582 68.0458 506.564 66.5305C503.685 65.0809 500.433 64.3089 497.209 64.7278C493.522 65.2041 490.249 67.0808 486.693 68.0253C483.592 68.8506 479.847 68.9985 477.322 66.6824C474.764 64.3377 473.992 60.4365 473.039 57.254C471.885 53.4063 470.825 49.5298 469.856 45.6287C469.388 43.7479 468.895 41.859 468.538 39.9536C468.181 38.04 468.045 36.0073 468.854 34.1881C470.279 30.981 473.696 28.7019 477.059 27.9915C478.915 27.6014 480.821 27.4166 482.689 27.0676C484.701 26.6898 486.705 26.2709 488.713 25.8726C493.3 25.1827 497.887 24.4887 502.474 23.7988C507.159 23.0925 511.845 22.3862 516.53 21.6799C521.166 20.9818 525.802 20.2385 530.447 19.5856C532.328 19.3187 534.352 19.2941 535.711 20.8299C536.816 22.0782 537.214 23.8399 537.473 25.4373C538.196 29.9585 538.422 34.5742 538.532 39.1446C538.59 41.4689 538.602 43.7931 538.598 46.1174C538.598 47.2877 538.59 48.4621 538.582 49.6325C538.573 50.696 538.61 51.776 538.471 52.8355Z" fill="white"/>
<path d="M557.615 41.1282C557.583 41.1364 557.57 41.1405 557.57 41.1446C557.583 41.1405 557.595 41.1364 557.615 41.1282C557.611 41.1282 557.611 41.1282 557.615 41.1282Z" fill="white"/>
</svg>
