<svg width="140" height="135" viewBox="0 0 140 135" fill="none" xmlns="http://www.w3.org/2000/svg">
<path d="M115.19 30.8578C111.869 27.5362 107.279 25.6587 102.543 25.6587H94.388V4.81402C94.388 3.51423 93.8509 2.31073 92.972 1.39606C92.0442 0.529542 90.8234 0 89.505 0C88.1866 0 86.9658 0.529542 86.0381 1.39606C85.1591 2.31073 84.622 3.51423 84.622 4.81402V25.6587H37.452C32.7154 25.6587 28.1254 27.5362 24.8049 30.8097C21.4356 34.1314 19.5312 38.6566 19.5312 43.3262V101.094C19.5312 105.764 21.4356 110.289 24.7561 113.563C28.1254 116.884 32.6666 118.714 37.4031 118.714H41.2607V125.887C41.2607 127.427 41.7002 128.919 42.5303 130.219C43.3604 131.519 44.5812 132.53 45.9972 133.156C47.0227 133.733 48.1946 134.119 49.3665 134.167C51.3197 134.167 53.1753 133.445 54.6402 132.193L70.4612 118.714H102.543C107.279 118.714 111.869 116.836 115.19 113.563C118.51 110.289 120.415 105.764 120.415 101.094V43.3262C120.463 38.6566 118.559 34.1314 115.19 30.8578ZM92.972 88.4335C92.0442 89.3482 90.8234 89.8296 89.5538 89.8777H50.4896C49.1712 89.8777 47.9505 89.3481 47.0227 88.4816C46.0949 87.567 45.6066 86.3635 45.6066 85.0637C45.6066 83.7639 46.1437 82.5604 47.0227 81.6457C47.9505 80.7311 49.1712 80.2497 50.4896 80.2497H89.5538C90.8234 80.2497 92.093 80.7792 92.972 81.6939C93.8509 82.6085 94.388 83.812 94.4369 85.0637C94.388 86.3153 93.8509 87.5188 92.972 88.4335ZM92.972 62.7748C92.0442 63.6894 90.8234 64.1708 89.5538 64.219H50.4896C49.1712 64.219 47.9505 63.6894 47.0227 62.8229C46.0949 61.9083 45.6066 60.7048 45.6066 59.405C45.6066 58.1052 46.1437 56.9017 47.0227 55.987C47.9505 55.0724 49.1712 54.591 50.4896 54.591H89.5538C90.8234 54.591 92.093 55.1205 92.972 56.0352C93.8997 56.9498 94.388 58.1533 94.4369 59.405C94.388 60.6566 93.8509 61.8601 92.972 62.7748Z" fill="#F9853C" fill-opacity="0.12"/>
<path d="M0.00192929 59.3421V72.1956C-0.046901 75.5172 0.832044 78.7426 2.5411 81.5829C4.25016 84.4232 6.78934 86.7339 9.76798 88.2262V43.6484C6.83817 45.1408 4.34782 47.3552 2.63876 50.1474C0.929704 52.8914 0.00192929 56.1167 0.00192929 59.3421Z" fill="#F9853C" fill-opacity="0.12"/>
<path d="M139.977 59.3421V72.1956C140.026 75.5172 139.147 78.7426 137.438 81.5829C135.729 84.4232 133.19 86.7339 130.211 88.2262V43.6484C133.141 45.1408 135.631 47.3552 137.34 50.1474C139.049 52.8914 139.977 56.1167 139.977 59.3421Z" fill="#F9853C" fill-opacity="0.12"/>
</svg>
