<svg width="120" height="117" viewBox="0 0 120 117" fill="none" xmlns="http://www.w3.org/2000/svg">
<g clip-path="url(#clip0_2397_6705)">
<path d="M54.046 2.42388C54.1707 2.42388 54.2976 2.39388 54.4145 2.32926C55.3599 1.81156 56.4307 1.53848 57.513 1.53848H87.7542C88.1796 1.53848 88.5234 1.19463 88.5234 0.769241C88.5234 0.343851 88.1796 0 87.7542 0H57.513C56.173 0 54.8461 0.338466 53.6753 0.980013C53.303 1.18463 53.166 1.65156 53.3699 2.02387C53.5099 2.27926 53.773 2.42388 54.0453 2.42388H54.046Z" fill="#939393"/>
<path d="M119.231 26.088C119.656 26.088 120 25.7442 120 25.3188V8.00088C120 3.58928 116.411 0 111.999 0H99.519C99.0936 0 98.7497 0.343851 98.7497 0.769241C98.7497 1.19463 99.0936 1.53848 99.519 1.53848H111.999C115.563 1.53848 118.462 4.43775 118.462 8.00088V25.3188C118.462 25.7442 118.805 26.088 119.231 26.088Z" fill="#939393"/>
<path d="M70.6786 116.514H111.999C116.411 116.514 120 112.925 120 108.514V37.738C120 37.3126 119.656 36.9688 119.231 36.9688C118.805 36.9688 118.462 37.3126 118.462 37.738V108.514C118.462 112.077 115.562 114.976 111.999 114.976H70.6786C70.2532 114.976 69.9093 115.32 69.9093 115.745C69.9093 116.171 70.2532 116.514 70.6786 116.514Z" fill="#939393"/>
<path d="M57.512 116.514C57.9374 116.514 58.2812 116.17 58.2812 115.745C58.2812 115.32 57.9374 114.976 57.512 114.976C53.9489 114.976 51.0504 112.077 51.0504 108.513V61.3474C51.0504 60.922 50.7065 60.5781 50.2811 60.5781C49.8558 60.5781 49.5119 60.922 49.5119 61.3474V108.513C49.5119 112.925 53.1012 116.514 57.512 116.514Z" fill="#939393"/>
<path d="M77.7805 9.06973H91.7229C92.1483 9.06973 92.4922 8.72588 92.4922 8.30049C92.4922 7.8751 92.1483 7.53125 91.7229 7.53125H77.7805C77.3551 7.53125 77.0112 7.8751 77.0112 8.30049C77.0112 8.72588 77.3551 9.06973 77.7805 9.06973Z" fill="#939393"/>
<path d="M81.247 111.475H88.2602C90.1933 111.475 91.7656 109.903 91.7656 107.972C91.7656 106.04 90.1933 104.469 88.2602 104.469C87.8348 104.469 87.491 104.813 87.491 105.238C87.491 105.663 87.8348 106.007 88.2602 106.007C89.3448 106.007 90.2271 106.888 90.2271 107.972C90.2271 109.056 89.3456 109.937 88.2602 109.937H81.247C80.1639 109.937 79.2824 109.055 79.2824 107.972C79.2824 106.889 80.1632 106.007 81.247 106.007C81.6724 106.007 82.0163 105.663 82.0163 105.238C82.0163 104.813 81.6724 104.469 81.247 104.469C79.3155 104.469 77.7439 106.04 77.7439 107.972C77.7439 109.903 79.3155 111.475 81.247 111.475Z" fill="#939393"/>
<path d="M93.0984 59.0991C93.2707 59.0991 93.4438 59.0414 93.5869 58.9237C93.9154 58.6529 93.9615 58.1683 93.6915 57.8414C92.3253 56.1844 89.5299 56.1921 88.1714 57.8414C87.9014 58.1699 87.9491 58.6545 88.2768 58.9245C88.6061 59.196 89.0899 59.1476 89.3599 58.8191C90.1369 57.8737 91.7184 57.8668 92.5046 58.8191C92.6561 59.0037 92.8761 59.0991 93.0984 59.0991Z" fill="#939393"/>
<path d="M76.406 59.0997C76.6283 59.0997 76.8483 59.0043 77.0007 58.8197C77.7776 57.8743 79.3615 57.8674 80.1445 58.8197C80.4145 59.1481 80.8976 59.1958 81.2276 58.9251C81.5553 58.6551 81.6023 58.1704 81.333 57.842C79.9676 56.185 77.1722 56.1912 75.8122 57.842C75.5422 58.1704 75.5899 58.6551 75.9176 58.9251C76.0614 59.0428 76.2337 59.1004 76.406 59.1004V59.0997Z" fill="#939393"/>
<path d="M84.4098 71.3886C86.1967 71.3886 87.8714 70.6009 89.0037 69.2262C89.2745 68.8985 89.2275 68.4132 88.8991 68.1439C88.5698 67.8739 88.086 67.9216 87.8168 68.2485C86.9775 69.267 85.736 69.8509 84.4098 69.8509C83.0836 69.8509 81.8559 69.267 81.0167 68.2485C80.7474 67.9216 80.2644 67.8739 79.9343 68.1439C79.6059 68.4139 79.5597 68.8993 79.8297 69.2262C80.962 70.6009 82.6313 71.3886 84.4098 71.3886Z" fill="#939393"/>
<path d="M84.7542 46.9141C85.1796 46.9141 85.5234 46.5703 85.5234 46.1449V40.7302C85.5234 40.3048 85.1796 39.9609 84.7542 39.9609C84.3288 39.9609 83.985 40.3048 83.985 40.7302V46.1449C83.985 46.5703 84.3288 46.9141 84.7542 46.9141Z" fill="#939393"/>
<path d="M70.5103 82.5425H84.4104C84.8358 82.5425 85.1797 82.1987 85.1797 81.7733C85.1797 81.3479 84.8358 81.0041 84.4104 81.0041H70.5103C69.1087 81.0041 67.9679 79.8717 67.9679 78.4802V49.4452C67.9679 48.0528 69.1079 46.9213 70.5103 46.9213C70.9357 46.9213 71.2795 46.5774 71.2795 46.1521C71.2795 45.7267 70.9357 45.3828 70.5103 45.3828C68.2602 45.3828 66.4294 47.2051 66.4294 49.4452V78.4802C66.4294 80.7202 68.2602 82.5425 70.5103 82.5425Z" fill="#939393"/>
<path d="M94.9589 82.5425H99.0051C101.255 82.5425 103.086 80.7202 103.086 78.4802V49.4452C103.086 47.2051 101.255 45.3828 99.0051 45.3828H80.4226C79.9972 45.3828 79.6533 45.7267 79.6533 46.1521C79.6533 46.5774 79.9972 46.9213 80.4226 46.9213H99.0051C100.407 46.9213 101.547 48.0536 101.547 49.4452V78.4802C101.547 79.8725 100.407 81.0041 99.0051 81.0041H94.9589C94.5335 81.0041 94.1897 81.3479 94.1897 81.7733C94.1897 82.1987 94.5335 82.5425 94.9589 82.5425Z" fill="#939393"/>
<path d="M102.313 69.848C105.088 69.848 107.344 67.2042 107.344 63.9549C107.344 60.7056 105.087 58.0625 102.313 58.0625C101.888 58.0625 101.544 58.4064 101.544 58.8317V69.0788C101.544 69.5042 101.888 69.848 102.313 69.848ZM103.082 59.7071C104.639 60.1448 105.805 61.8833 105.805 63.9541C105.805 66.0249 104.638 67.7642 103.082 68.2019V59.7064V59.7071Z" fill="#939393"/>
<path d="M67.1995 69.848C67.6249 69.848 67.9688 69.5042 67.9688 69.0788V58.8317C67.9688 58.4064 67.6249 58.0625 67.1995 58.0625C64.4249 58.0625 62.1687 60.7064 62.1687 63.9549C62.1687 67.2034 64.4256 69.848 67.1995 69.848ZM66.4303 59.7071V68.2026C64.8733 67.7649 63.7072 66.0265 63.7072 63.9549C63.7072 61.8833 64.8741 60.1456 66.4303 59.7071Z" fill="#939393"/>
<path d="M84.7572 41.498C86.8342 41.498 88.5234 39.8072 88.5234 37.7294C88.5234 35.6517 86.8342 33.9609 84.7572 33.9609C84.3318 33.9609 83.988 34.3048 83.988 34.7302C83.988 35.1556 84.3318 35.4994 84.7572 35.4994C85.9857 35.4994 86.985 36.5002 86.985 37.7294C86.985 38.9587 85.9849 39.9595 84.7572 39.9595C83.5295 39.9595 82.5272 38.9587 82.5272 37.7294C82.5272 37.3041 82.1834 36.9602 81.758 36.9602C81.3326 36.9602 80.9887 37.3041 80.9887 37.7294C80.9887 39.8072 82.6795 41.498 84.7572 41.498Z" fill="#939393"/>
<path d="M56.317 54.3495C56.5239 54.3495 56.7278 54.2664 56.8778 54.108C57.1147 53.8556 57.1539 53.4772 56.9747 53.181L51.3392 43.9124C57.5586 39.6108 61.1094 33.5792 61.1094 27.2645C61.1094 14.7243 47.4038 4.52344 30.5559 4.52344C13.708 4.52344 0.0031662 14.7251 0.0031662 27.2645C0.0031662 30.7769 1.04625 34.1431 3.10474 37.2716C3.33628 37.6262 3.81245 37.727 4.17015 37.4908C4.52477 37.2577 4.62323 36.7808 4.38938 36.4254C2.50013 33.5531 1.54165 30.4707 1.54165 27.2645C1.54165 15.5736 14.5572 6.06192 30.5559 6.06192C46.5546 6.06192 59.5709 15.5736 59.5709 27.2645C59.5709 33.2569 56.0378 39.007 49.8785 43.0401C49.5315 43.2678 49.4269 43.7286 49.6423 44.0832L54.2124 51.5979L44.1068 46.2625C43.9145 46.1602 43.6868 46.1463 43.4838 46.2194C39.4029 47.7109 35.0536 48.4671 30.5551 48.4671C29.8751 48.4671 29.202 48.4502 28.5343 48.4163C28.1051 48.4056 27.7482 48.721 27.7266 49.1456C27.7051 49.5702 28.0312 49.931 28.4559 49.9533C29.1489 49.9887 29.8497 50.0056 30.5551 50.0056C35.116 50.0056 39.5322 49.2571 43.6884 47.7809L55.957 54.2595C56.0701 54.3195 56.1939 54.3487 56.3162 54.3487L56.317 54.3495Z" fill="#939393"/>
<path d="M15.3236 46.9157C15.6198 46.9157 15.9021 46.7442 16.0282 46.4557C16.1998 46.0665 16.0228 45.6126 15.6336 45.4426C13.1836 44.3657 10.9651 43.0311 9.03813 41.4756C8.70736 41.2072 8.2235 41.2618 7.95657 41.591C7.68965 41.9218 7.74195 42.4057 8.07196 42.6726C10.1051 44.3134 12.4405 45.7188 15.0144 46.8503C15.1151 46.895 15.2205 46.9157 15.3228 46.9157H15.3236Z" fill="#939393"/>
<path d="M38.8596 30.1984C39.6142 30.1984 40.3242 29.9045 40.8596 29.3707C41.1611 29.0699 41.1611 28.5837 40.8611 28.283C40.5604 27.9814 40.0742 27.9822 39.7734 28.2814C39.5288 28.5253 39.2042 28.6599 38.8596 28.6599C38.1472 28.6599 37.568 28.0806 37.568 27.3691C37.568 26.6576 38.1472 26.0775 38.8596 26.0775C39.285 26.0775 39.6288 25.7337 39.6288 25.3083C39.6288 24.8829 39.285 24.5391 38.8596 24.5391C37.2995 24.5391 36.0295 25.8083 36.0295 27.3691C36.0295 28.9299 37.2988 30.1984 38.8596 30.1984Z" fill="#939393"/>
<path d="M30.5535 30.1984C32.1136 30.1984 33.3828 28.9299 33.3828 27.3691C33.3828 25.8083 32.1143 24.5391 30.5535 24.5391C28.9928 24.5391 27.7235 25.8083 27.7235 27.3691C27.7235 28.9299 28.9928 30.1984 30.5535 30.1984ZM30.5535 26.0775C31.2651 26.0775 31.8443 26.6568 31.8443 27.3691C31.8443 28.0814 31.2651 28.6599 30.5535 28.6599C29.842 28.6599 29.262 28.0806 29.262 27.3691C29.262 26.6576 29.8412 26.0775 30.5535 26.0775Z" fill="#939393"/>
<path d="M22.2481 30.1984C23.8081 30.1984 25.0781 28.9299 25.0781 27.3691C25.0781 25.8083 23.8089 24.5391 22.2481 24.5391C20.6873 24.5391 19.418 25.8083 19.418 27.3691C19.418 28.9299 20.6873 30.1984 22.2481 30.1984ZM22.2481 26.0775C22.9604 26.0775 23.5396 26.6568 23.5396 27.3691C23.5396 28.0814 22.9604 28.6599 22.2481 28.6599C21.5358 28.6599 20.9565 28.0806 20.9565 27.3691C20.9565 26.6576 21.5358 26.0775 22.2481 26.0775Z" fill="#939393"/>
</g>
<defs>
<clipPath id="clip0_2397_6705">
<rect width="120.002" height="116.516" fill="white" transform="matrix(-1 0 0 1 120 0)"/>
</clipPath>
</defs>
</svg>
