<svg width="233" height="78" viewBox="0 0 233 78" fill="none" xmlns="http://www.w3.org/2000/svg">
<g clip-path="url(#clip0_2315_11564)">
<path d="M162.914 0.0624991C162.914 11.1017 171.875 20.0625 182.914 20.0625C171.875 20.0625 162.914 29.0233 162.914 40.0625C162.914 29.0233 153.953 20.0625 142.914 20.0625C153.953 20.0625 162.914 11.1017 162.914 0.0624991Z" fill="#00A3AD" fill-opacity="0.25"/>
<path d="M213 0.0624991C213 11.1017 221.961 20.0625 233 20.0625C221.961 20.0625 213 29.0233 213 40.0625C213 29.0233 204.039 20.0625 193 20.0625C204.039 20.0625 213 11.1017 213 0.0624991Z" fill="#00A3AD" fill-opacity="0.25"/>
<path d="M132.828 20.0547L0.613464 20.0547" stroke="#00A3AD" stroke-opacity="0.25" stroke-width="1.70358" stroke-linecap="round" stroke-linejoin="round"/>
</g>
<g clip-path="url(#clip1_2315_11564)">
<path d="M105.555 52.063C105.555 59.2211 111.365 65.0315 118.523 65.0315C111.365 65.0315 105.555 70.8419 105.555 78C105.555 70.8419 99.7445 65.0315 92.5864 65.0315C99.7445 65.0315 105.555 59.2211 105.555 52.063Z" fill="#00A3AD" fill-opacity="0.4"/>
<path d="M138.031 52.063C138.031 59.2211 143.842 65.0315 151 65.0315C143.842 65.0315 138.031 70.8419 138.031 78C138.031 70.8419 132.221 65.0315 125.063 65.0315C132.221 65.0315 138.031 59.2211 138.031 52.063Z" fill="#00A3AD" fill-opacity="0.4"/>
<path d="M86.0469 65.0234L0.315449 65.0234" stroke="#00A3AD" stroke-opacity="0.4" stroke-width="1.10464" stroke-linecap="round" stroke-linejoin="round"/>
</g>
<defs>
<clipPath id="clip0_2315_11564">
<rect width="40" height="233.237" fill="white" transform="matrix(4.37114e-08 -1 -1 -4.37114e-08 233 40.0625)"/>
</clipPath>
<clipPath id="clip1_2315_11564">
<rect width="25.937" height="151.237" fill="white" transform="matrix(4.37114e-08 -1 -1 -4.37114e-08 151 78)"/>
</clipPath>
</defs>
</svg>
