<svg width="250" height="258" viewBox="0 0 250 258" fill="none" xmlns="http://www.w3.org/2000/svg">
<path d="M205.357 126.248C204.694 122.104 205.352 116.156 205.273 111.511C205.157 104.846 205.299 98.0971 205.678 91.4427C206.264 81.0177 207.407 70.5704 207.446 60.1326C196.99 63.3369 186.926 68.1338 176.889 72.3669C172.478 74.2239 168.026 76.4049 163.44 77.8684C160.666 78.7547 157.89 79.1412 155.171 80.2949C155.541 81.8629 157.984 83.7384 159.09 84.9309C160.752 86.7086 162.74 88.1859 164.514 89.837C167.592 92.6939 171.183 94.7991 174.468 97.378C178.446 100.513 174.082 103.109 172.641 106.883C171.778 109.126 170.769 111.23 169.515 113.275C168.747 114.524 166.783 116.754 166.669 118.073C170.365 117.436 173.876 115.972 177.554 115.17C180.937 114.434 184.395 114.224 187.757 113.751C191.403 113.238 192.818 115.915 194.754 118.561C196.818 121.384 198.837 123.819 201.361 126.239C202.084 126.934 202.973 127.503 203.632 128.316C203.841 128.304 203.97 128.192 204.169 128.152" fill="white"/>
<path d="M205.509 126.232L205.465 124.161C205.458 123.472 205.407 122.777 205.466 122.095C205.55 120.723 205.585 119.39 205.716 118.001C205.818 116.622 205.96 115.26 206.002 113.861L206.18 109.718L206.414 101.445L206.875 93.2378C206.927 91.8665 207.031 90.519 207.13 89.1305L207.432 85.006L208.015 76.7545C208.157 73.9981 208.274 71.2298 208.337 68.4598C208.364 67.0766 208.333 65.6823 208.338 64.2965L208.319 60.1401L208.318 60.0769C208.317 59.6087 207.936 59.2368 207.468 59.2376C207.364 59.2438 207.263 59.2593 207.169 59.2937L200.569 61.802C199.461 62.2071 198.402 62.6899 197.311 63.1419L194.073 64.5066C192.991 64.9553 191.899 65.3757 190.831 65.8619L187.616 67.2608L181.158 69.9833C179.004 70.8771 176.837 71.765 174.663 72.6341C172.495 73.4904 170.336 74.4287 168.157 75.2252L166.53 75.8413L164.881 76.3695L163.242 76.8942C162.739 77.0352 162.12 77.1764 161.577 77.3216C160.431 77.6234 159.354 77.7936 158.17 78.1091C157.007 78.3639 155.843 78.7896 154.677 79.1837L154.639 79.1975C154.073 79.3941 153.774 80.0037 153.97 80.5707C154.094 80.9088 154.21 81.3136 154.376 81.5935C154.539 81.8641 154.706 82.1756 154.883 82.3983C155.242 82.8847 155.618 83.301 155.99 83.7079C156.757 84.5243 157.481 85.1647 158.199 85.935L160.434 88.0885C161.185 88.804 161.977 89.4836 162.753 90.1795L163.964 91.2488L165.135 92.2687C165.885 92.9526 166.78 93.5945 167.624 94.2441C168.498 94.915 169.318 95.4989 170.158 96.1075C171.008 96.7127 171.797 97.329 172.606 97.9386L173.21 98.3989L173.359 98.5148L173.434 98.5728L173.44 98.5916L173.463 98.5941C173.479 98.6095 173.323 98.4747 173.388 98.5361L173.421 98.5668L173.707 98.8244L173.992 99.0819C174.064 99.1621 174.069 99.2031 174.121 99.2586C174.16 99.308 174.2 99.3575 174.239 99.407C174.26 99.4634 174.284 99.5291 174.323 99.5786C174.459 99.8056 174.451 99.9577 174.442 100.195C174.439 100.42 174.306 100.756 174.136 101.106C173.774 101.834 173.162 102.665 172.574 103.561C172.28 104.009 171.974 104.483 171.698 105.01C171.56 105.273 171.419 105.527 171.3 105.815L170.989 106.536L169.764 109.39C169.318 110.266 168.845 111.099 168.392 111.957C168.284 112.156 168.155 112.416 168.049 112.562C167.907 112.784 167.77 112.994 167.633 113.172L166.752 114.431C166.445 114.873 166.132 115.328 165.841 115.871C165.558 116.379 165.244 117.005 165.112 117.926C164.995 118.714 165.542 119.451 166.33 119.568C166.511 119.597 166.697 119.582 166.873 119.539L169.667 118.88L172.338 118.063L174.931 117.233L177.492 116.52L177.652 116.462L177.734 116.453L177.771 116.44C177.831 116.428 177.705 116.464 177.724 116.457L177.752 116.446L178.092 116.386L178.772 116.265L180.119 116.018L182.813 115.523L188.15 114.743C188.263 114.734 188.383 114.711 188.478 114.709L188.721 114.705C188.885 114.688 189.066 114.717 189.244 114.737C189.603 114.787 189.944 114.875 190.268 115.034C190.932 115.334 191.538 115.858 192.104 116.503C192.676 117.135 193.209 117.866 193.774 118.597C194.379 119.376 194.954 120.018 195.547 120.738L197.331 122.822L199.32 124.768C199.999 125.403 200.617 126.072 201.33 126.684C202.046 127.274 202.832 127.764 203.42 128.412L203.453 128.442C203.453 128.442 203.533 128.487 203.571 128.474L203.897 128.376L204.132 128.29L204.166 128.267C204.241 128.239 204.283 128.15 204.246 128.078C204.218 128.003 204.141 127.967 204.066 127.994L203.768 128.082L203.548 128.12L203.702 128.192C203.123 127.424 202.41 126.843 201.762 126.207C201.137 125.573 200.572 124.843 199.977 124.176L198.225 122.123L196.624 119.897C196.1 119.163 195.502 118.401 195.042 117.697C194.543 116.942 194.043 116.156 193.445 115.395C192.848 114.634 192.12 113.867 191.146 113.329C190.664 113.058 190.127 112.871 189.586 112.76C189.316 112.72 189.048 112.658 188.751 112.66L188.311 112.651L187.957 112.674C186.941 112.747 186.095 112.822 185.158 112.909L182.413 113.178L179.694 113.544L178.332 113.722L177.651 113.811L177.308 113.862L177.16 113.895L177.076 113.926L176.896 113.959L174.147 114.623L171.492 115.37L168.893 116.065L166.33 116.597L168.091 118.211C168.142 118.117 168.227 117.767 168.472 117.39C168.677 117.017 168.96 116.626 169.239 116.226L170.161 114.962C170.341 114.726 170.484 114.504 170.623 114.304C170.821 114.029 170.913 113.815 171.058 113.57C171.59 112.609 172.154 111.647 172.655 110.686L173.892 107.838L174.198 107.13C174.275 106.932 174.377 106.746 174.485 106.546C174.692 106.151 174.94 105.752 175.216 105.342C175.752 104.508 176.396 103.676 176.964 102.552C177.229 101.966 177.512 101.341 177.583 100.516C177.668 99.7294 177.484 98.8172 177.101 98.148C177.007 97.9799 176.914 97.8117 176.811 97.647L176.444 97.1957C176.32 97.06 176.182 96.8868 176.068 96.7794L175.773 96.5253L175.478 96.2712L175.445 96.2405L175.351 96.1577L175.344 96.139L175.251 96.0879L175.093 95.9753L174.453 95.5065C173.597 94.8826 172.737 94.2492 171.888 93.6756C171.046 93.0893 170.168 92.4944 169.383 91.919C168.582 91.3283 167.769 90.7948 166.971 90.0964L165.778 89.1056L164.64 88.1481C163.862 87.4744 163.062 86.8299 162.308 86.1366L160.011 84.0481C159.292 83.3316 158.445 82.6188 157.765 81.9518C157.079 81.2977 156.43 80.5127 156.286 80.0328L155.589 81.4164C156.615 81.0199 157.635 80.6047 158.749 80.3038C159.809 79.9697 161.027 79.6627 162.125 79.3148C162.695 79.1276 163.216 78.9798 163.821 78.7695L165.479 78.1208L167.137 77.4721L168.749 76.7552C170.92 75.8229 173.001 74.7856 175.137 73.8132C177.253 72.816 179.377 71.8693 181.517 70.9063C183.647 69.9467 185.803 69.0306 187.94 68.0898L191.166 66.7191C192.24 66.2517 193.326 65.8441 194.415 65.4142L197.689 64.1751C198.784 63.764 199.86 63.3282 200.984 63.0239L207.644 60.9725L206.503 60.1226L206.26 64.2359C206.176 65.6082 206.111 66.9735 206.005 68.3433C205.889 69.7164 205.739 71.0811 205.645 72.4567L205.317 76.5693C205.112 79.3275 204.868 82.0679 204.716 84.8277L204.48 88.9598C204.393 90.3226 204.31 91.7265 204.286 93.1191L204.114 101.444L204.317 109.718L204.432 113.849L204.503 117.975C204.505 119.348 204.599 120.772 204.645 122.15C204.646 122.853 204.754 123.527 204.856 124.213L205.159 126.264C205.167 126.346 205.251 126.401 205.333 126.392C205.415 126.383 205.464 126.312 205.458 126.24L205.509 126.232Z" fill="#DDDDDD"/>
<path d="M176.023 100.063C176.023 100.063 176.676 99.5788 177.775 98.7089C178.328 98.2722 178.914 97.6322 179.625 96.9253C180.341 96.2056 181.048 95.3723 181.841 94.4542C182.615 93.543 183.447 92.5574 184.335 91.5196C185.232 90.4784 186.194 89.3815 187.145 88.2248C187.632 87.6635 188.107 87.0424 188.589 86.4085C189.058 85.7687 189.598 85.1774 190.004 84.454C190.439 83.7518 190.875 83.0497 191.32 82.3441L192.537 80.3445C192.934 79.6245 193.379 79.036 193.797 78.4039C194.219 77.7812 194.634 77.1398 195.113 76.5281C195.57 75.9139 196.024 75.2903 196.475 74.689C196.948 74.0901 197.402 73.4981 197.86 72.9155C198.785 71.7469 199.692 70.6168 200.538 69.5517C201.406 68.4892 202.195 67.4447 202.917 66.478C203.656 65.5268 204.287 64.6039 204.843 63.7938C205.415 62.9992 205.852 62.2432 206.237 61.6659C206.626 61.0979 206.922 60.6275 207.194 60.3793C207.442 60.097 207.58 59.9506 207.58 59.9506C207.58 59.9506 207.406 60.0569 207.082 60.2496C206.746 60.4365 206.304 60.8003 205.78 61.2899C204.777 62.2741 203.349 63.669 201.623 65.3542C200.767 66.1886 199.832 67.0949 198.86 68.0782C197.885 69.0521 196.858 70.0876 195.844 71.2145C194.832 72.3507 193.764 73.5076 192.786 74.7917C192.275 75.4042 191.785 76.0732 191.318 76.7762C190.853 77.4571 190.333 78.1585 189.954 78.8401L188.727 80.9601C188.337 81.6135 187.948 82.2668 187.565 82.9074C187.388 83.2383 187.172 83.5514 186.953 83.855C186.737 84.1681 186.534 84.4871 186.319 84.8002C185.897 85.4229 185.484 86.0421 185.037 86.6529C184.144 87.8522 183.328 89.0556 182.551 90.1915C181.754 91.3026 181.076 92.4768 180.44 93.4758C179.791 94.4688 179.257 95.4522 178.726 96.2425C178.182 97.0268 177.786 97.7785 177.336 98.326C176.476 99.439 176.005 100.101 176.005 100.101L176.023 100.063Z" fill="#DDDDDD"/>
<path d="M190.595 113.446C190.595 113.446 190.972 112.669 191.587 111.295C191.864 110.597 192.332 109.808 192.767 108.872C193.222 107.961 193.741 106.876 194.264 105.685C194.793 104.512 195.243 103.091 195.689 101.661C196.053 100.239 196.449 98.7316 196.823 97.1897C197.222 95.6597 197.586 94.0358 198.044 92.4631C198.486 90.8749 198.904 89.2527 199.515 87.7198C200.067 86.1127 200.628 84.5021 201.178 82.9172C201.727 81.3323 202.239 79.7611 202.707 78.2165C203.133 76.6446 203.488 75.1096 203.832 73.6635C204.004 72.9404 204.17 72.2302 204.328 71.5549C204.476 70.8516 204.581 70.2063 204.702 69.5765C204.931 68.3108 205.12 67.1665 205.354 66.1759C205.48 65.7041 205.601 65.1913 205.71 64.8211C205.862 64.3612 206.003 64.1073 206.203 63.7789C206.648 63.1903 206.934 62.5747 207.001 62.1773C207.053 61.7646 207.063 61.5586 207.063 61.5586C207.063 61.5586 206.986 61.757 206.835 62.1314C206.663 62.5034 206.326 62.8927 205.746 63.4029C205.474 63.6511 205.129 64.0754 204.925 64.4482C204.659 64.8861 204.501 65.3272 204.255 65.8215C203.815 66.8021 203.411 67.94 203.026 69.1564C202.232 71.5866 201.172 74.3377 200.214 77.339C199.665 78.8385 199.007 80.3569 198.435 81.9393C198.138 82.7292 197.841 83.5191 197.548 84.3184C197.258 85.1271 196.968 85.9359 196.678 86.7446C196.058 88.3979 195.658 90.0988 195.234 91.7655C195.129 92.1766 195.014 92.5912 194.922 93.0082C194.848 93.4185 194.765 93.8321 194.691 94.2423C194.541 95.0534 194.39 95.8644 194.236 96.666C193.93 98.2471 193.724 99.781 193.497 101.227C193.388 101.948 193.197 102.593 193.074 103.245C192.941 103.9 192.832 104.536 192.638 105.14C192.29 106.374 191.969 107.503 191.684 108.501C191.397 109.522 191.131 110.397 191.01 111.143C190.717 112.613 190.583 113.471 190.583 113.471L190.595 113.446Z" fill="#DDDDDD"/>
<path d="M190.549 108.979C190.549 108.979 190.607 108.99 190.601 109.003C190.61 109 190.578 109 190.549 108.979L190.539 108.951C190.539 108.951 190.476 108.836 190.528 108.774C190.57 108.716 190.583 108.722 190.574 108.725C190.621 108.708 190.592 108.719 190.592 108.719L190.463 108.713L190.174 108.68L189.593 108.605L188.434 108.464L186.124 108.116L184.968 107.953C184.593 107.888 184.229 107.797 183.86 107.719L182.759 107.504C182.381 107.429 182.053 107.379 181.646 107.283C180.13 106.953 178.639 106.338 177.071 106.272C176.313 106.208 175.551 106.221 174.761 106.275C173.997 106.31 173.217 106.36 172.387 106.536L172.572 107.246C172.572 107.246 172.597 107.141 172.629 107.054C172.672 106.996 172.724 106.935 172.795 106.866L172.841 106.817C172.893 106.756 172.903 106.667 172.838 106.605C172.818 106.581 172.793 106.569 172.761 106.57C172.656 106.544 172.523 106.529 172.389 106.514C172.26 106.54 172.125 106.578 171.984 106.63C171.825 106.688 171.751 106.864 171.809 107.024C171.83 107.08 171.869 107.13 171.911 107.157L172.173 107.349C172.858 107.855 173.593 108.235 174.35 108.587C175.099 108.888 175.868 109.128 176.645 109.302C177.409 109.47 178.173 109.521 178.948 109.515C179.726 109.518 180.512 109.539 181.288 109.596L182.482 109.628L183.704 109.65C184.109 109.651 184.517 109.662 184.906 109.647L186.077 109.56L188.428 109.35L189.601 109.209L190.186 109.122L190.485 109.066L190.643 109.03C190.643 109.03 190.661 109.023 190.727 108.999L190.746 108.993C190.746 108.993 190.746 108.993 190.798 108.931C190.84 108.873 190.825 108.772 190.792 108.741C190.786 108.722 190.786 108.722 190.763 108.72C190.731 108.689 190.683 108.675 190.683 108.675C190.635 108.66 190.616 108.667 190.594 108.665C190.509 108.664 190.434 108.723 190.434 108.808C190.426 108.875 190.482 108.94 190.542 108.96L190.549 108.979Z" fill="#DDDDDD"/>
<path d="M191.901 104.838C191.901 104.838 191.622 104.802 191.136 104.724C190.891 104.697 190.601 104.632 190.292 104.543C189.973 104.457 189.639 104.388 189.242 104.235C188.862 104.097 188.444 103.973 188.011 103.78C187.582 103.596 187.119 103.435 186.644 103.215C185.687 102.809 184.671 102.36 183.649 101.924C183.115 101.715 182.617 101.46 182.048 101.243C181.434 101.02 180.961 100.863 180.449 100.741C179.437 100.536 178.492 100.487 177.679 100.476C177.274 100.475 176.904 100.482 176.572 100.476C176.243 100.479 175.968 100.484 175.734 100.484C175.5 100.485 175.344 100.467 175.224 100.458C175.135 100.448 175.058 100.412 175.058 100.412L174.981 100.376C174.904 100.34 174.823 100.381 174.784 100.448C174.778 100.461 174.775 100.483 174.773 100.506C174.773 100.506 174.772 100.591 174.825 100.795C174.887 100.964 175.027 101.201 175.217 101.429C175.613 101.902 176.262 102.367 177.046 102.794C177.84 103.217 178.784 103.586 179.818 103.793C180.321 103.886 180.904 103.939 181.357 103.955C181.848 103.988 182.399 104.096 182.927 104.201C184.003 104.436 185.083 104.711 186.139 104.89C186.654 104.989 187.175 105.075 187.664 105.131C188.15 105.209 188.625 105.227 189.053 105.262C189.476 105.31 189.893 105.285 190.247 105.294C190.602 105.303 190.902 105.278 191.141 105.234C191.626 105.163 191.906 105.113 191.906 105.113C191.988 105.105 192.042 105.021 192.034 104.939C192.019 104.87 191.97 104.824 191.904 104.816L191.901 104.838Z" fill="#DDDDDD"/>
<path d="M193.411 99.2397C192.8 99.2288 192.216 99.176 191.669 99.0778C191.1 98.977 190.545 98.8285 190.002 98.6542C189.46 98.48 188.913 98.2963 188.388 98.0836C187.854 97.8744 187.32 97.6651 186.788 97.4336C186.256 97.2021 185.736 96.9449 185.216 96.6562C184.704 96.364 184.165 96.1137 183.598 95.9592C183.021 95.8081 182.414 95.7211 181.793 95.682C181.166 95.6557 180.512 95.6713 179.851 95.8168L179.656 96.8252C179.819 96.7763 179.966 96.712 180.087 96.6357C180.173 96.551 180.256 96.4569 180.338 96.3628C180.409 96.2943 180.4 96.1807 180.331 96.1099C180.315 96.0945 180.289 96.0826 180.276 96.0766L179.947 95.9627C179.873 95.9047 179.817 95.8399 179.785 95.8092C179.615 95.6369 179.34 95.6416 179.177 95.8077C179.005 95.9771 179.01 96.2522 179.176 96.4151L179.586 96.8083C180.526 97.7209 181.5 98.3762 182.578 98.8768C183.113 99.1177 183.705 99.2525 184.306 99.3524C184.916 99.4487 185.517 99.5485 186.115 99.6706C187.312 99.9146 188.553 100.078 189.797 100.103C190.427 100.107 191.052 100.07 191.664 99.9954C191.97 99.9581 192.293 99.8824 192.592 99.8263C192.884 99.7515 193.166 99.6485 193.451 99.5549C193.526 99.5275 193.581 99.4436 193.553 99.3685C193.529 99.3028 193.471 99.2601 193.408 99.2619L193.411 99.2397Z" fill="#DDDDDD"/>
<path d="M193.739 95.546L193.022 95.3926C192.79 95.3391 192.536 95.3148 192.31 95.2485L191.676 95.001C191.465 94.9184 191.274 94.8607 191.065 94.7559C190.648 94.5465 190.231 94.3686 189.823 94.1557C189.409 93.924 188.995 93.7239 188.578 93.5144C188.157 93.2956 187.739 93.0545 187.323 92.7912C186.898 92.5313 186.454 92.2783 185.985 92.1304C185.487 91.9929 184.946 91.9673 184.43 91.9536C184.154 91.9584 183.865 92.011 183.588 92.0695C183.317 92.1152 183.042 92.2054 182.775 92.2922L182.76 93.6497C182.987 93.4819 183.222 93.3106 183.462 93.0633L183.481 93.0565C183.557 92.9752 183.554 92.8487 183.485 92.7779C183.485 92.7779 183.482 92.7686 183.469 92.7626C183.213 92.558 182.95 92.42 182.668 92.2889C182.408 92.1603 182.085 92.2677 181.956 92.5276C181.846 92.7491 181.914 93.0224 182.095 93.169L182.659 93.6337C183.074 93.9824 183.445 94.2407 183.821 94.4545C184.215 94.7153 184.591 94.9291 185.006 95.0753C185.432 95.2498 185.889 95.3062 186.359 95.3687C186.842 95.4371 187.313 95.5311 187.781 95.6474C188.265 95.7474 188.743 95.8602 189.233 95.9474C189.738 96.0183 190.239 96.0799 190.734 96.1226C190.988 96.147 191.269 96.1294 191.535 96.1281L192.306 96.1123C192.795 96.0508 193.259 95.9236 193.731 95.8152C193.809 95.7971 193.864 95.7133 193.846 95.6347C193.825 95.5783 193.786 95.5289 193.728 95.5178L193.739 95.546Z" fill="#DDDDDD"/>
<path d="M193.431 89.6763C193.431 89.6763 193.321 89.6099 193.132 89.4983C192.948 89.3738 192.66 89.2556 192.353 89.0587C192.041 88.8747 191.706 88.6565 191.295 88.4342C190.912 88.2016 190.463 87.9931 190.02 87.7717C189.555 87.5794 189.13 87.2025 188.637 87.1059C188.153 87.0059 187.648 87.1375 187.229 87.3013C186.819 87.4618 186.479 87.7563 186.274 87.9804C186.068 88.2046 185.975 88.3876 185.975 88.3876C185.924 88.4808 185.937 88.6038 186.006 88.6746L186.009 88.684C186.009 88.684 186.156 88.8538 186.358 89.0568C186.459 89.1583 186.573 89.2657 186.7 89.3792C186.823 89.4832 186.959 89.5932 187.111 89.7185C187.26 89.8345 187.412 89.9282 187.578 90.0057C187.739 90.096 187.928 90.1759 188.115 90.1927C188.489 90.2263 188.986 90.0981 189.444 90.1008C189.919 90.1188 190.388 90.1496 190.853 90.1394C191.306 90.1549 191.764 90.1259 192.14 90.1057C192.892 90.0651 193.376 89.9626 193.376 89.9626C193.464 89.9411 193.528 89.8539 193.51 89.7753C193.493 89.7283 193.479 89.6908 193.44 89.6729L193.431 89.6763Z" fill="#DDDDDD"/>
<path d="M196.767 86.4624C196.767 86.4624 196.266 86.1984 195.497 85.8725C194.712 85.5312 193.695 85.1365 192.71 84.7725C192.233 84.5742 191.775 84.252 191.356 84.0964C191.139 84.0267 190.91 84.0143 190.702 84.0266C190.496 84.0167 190.291 84.0384 190.089 84.0695C189.888 84.1005 189.684 84.1538 189.514 84.184C189.338 84.227 189.171 84.2666 189.027 84.3087C188.729 84.3964 188.516 84.4847 188.516 84.4847C188.404 84.5259 188.347 84.632 188.353 84.7362C188.353 84.7362 188.378 84.9506 188.497 85.2477C188.611 85.5577 188.847 85.9716 189.192 86.3034C189.544 86.6539 190 86.9983 190.544 87.1187C190.815 87.1901 191.103 87.1913 191.403 87.1669C191.693 87.1459 191.987 87.1343 192.275 87.1355C192.835 87.1226 193.404 87.1379 193.925 87.0755C194.446 87.0447 194.921 86.9773 195.332 86.9339C196.152 86.8471 196.715 86.7581 196.715 86.7581C196.807 86.746 196.861 86.6622 196.853 86.5802C196.845 86.5298 196.818 86.4863 196.767 86.4624Z" fill="#DDDDDD"/>
<path d="M196.486 83.2533C196.486 83.2533 196.42 83.1603 196.295 82.9931C196.161 82.8293 196.03 82.5894 195.701 82.3584C195.539 82.2365 195.361 82.0993 195.18 81.9526C195 81.8376 194.81 81.726 194.607 81.6084C194.195 81.3545 193.767 81.2023 193.34 80.9963C192.927 80.8278 192.528 80.4944 192.184 80.3967C191.802 80.3128 191.465 80.3825 191.13 80.4839C190.961 80.5457 190.792 80.6075 190.66 80.6556C190.51 80.7105 190.376 80.7808 190.248 80.8382C189.992 80.9532 189.808 81.0628 189.808 81.0628C189.702 81.1228 189.651 81.216 189.657 81.3202C189.657 81.3202 189.666 81.5193 189.769 81.8011C189.859 82.0769 190.08 82.4755 190.366 82.7646C190.666 83.0597 191.076 83.3675 191.505 83.4343C191.963 83.5223 192.439 83.3379 192.898 83.3405C193.328 83.3218 193.761 83.3126 194.168 83.2914C194.367 83.2825 194.566 83.2736 194.747 83.2716C194.917 83.273 195.066 83.2719 195.215 83.2708C195.367 83.2791 195.521 83.2652 195.659 83.3214C195.79 83.3587 195.917 83.3867 196.022 83.4122C196.22 83.4571 196.338 83.4885 196.338 83.4885C196.421 83.5115 196.508 83.4583 196.527 83.366C196.542 83.3182 196.524 83.2712 196.501 83.2371L196.486 83.2533Z" fill="#DDDDDD"/>
<path d="M197.707 79.6595C197.707 79.6595 197.672 79.5655 197.605 79.4093C197.574 79.3248 197.54 79.2309 197.483 79.1344C197.445 79.0311 197.372 78.9193 197.252 78.7931C197.14 78.6634 197.007 78.5312 196.854 78.3742C196.704 78.2267 196.556 78.1423 196.385 78.0239C196.214 77.9054 196.039 77.7775 195.863 77.7035L195.318 77.4344C194.978 77.2923 194.622 76.9862 194.322 76.9252C193.995 76.8745 193.711 76.9997 193.456 77.1462C193.325 77.2259 193.188 77.3184 193.09 77.3972C192.972 77.4828 192.867 77.5744 192.771 77.6625C192.577 77.8295 192.435 77.9664 192.435 77.9664C192.355 78.0383 192.32 78.1469 192.326 78.2511C192.326 78.2511 192.351 78.4339 192.443 78.6875C192.536 78.9411 192.738 79.2611 192.979 79.5136C193.23 79.7626 193.559 79.9936 193.88 80.0256C194.232 80.0566 194.571 79.8475 194.918 79.806C195.236 79.7747 195.551 79.734 195.838 79.7036C195.984 79.6931 196.129 79.6826 196.261 79.6662C196.388 79.6625 196.501 79.6529 196.606 79.6468C196.725 79.6244 196.852 79.6523 196.958 79.7094C197.067 79.7443 197.166 79.7825 197.249 79.8055C197.415 79.8513 197.501 79.8837 197.501 79.8837C197.584 79.9066 197.684 79.8594 197.707 79.7765C197.716 79.7415 197.711 79.7005 197.697 79.6629L197.707 79.6595Z" fill="#DDDDDD"/>
<path d="M200.098 75.3854C200.098 75.3854 200.033 75.324 199.925 75.2037C199.808 75.0868 199.671 74.9452 199.442 74.7841C199.222 74.6196 198.944 74.4125 198.673 74.2557C198.393 74.0708 198.104 73.9209 197.811 73.7617C197.532 73.6083 197.273 73.3089 197.049 73.2204C196.928 73.1796 196.795 73.196 196.661 73.2347C196.541 73.2571 196.422 73.3111 196.294 73.3686C196.166 73.4261 196.039 73.5151 195.924 73.5785C195.793 73.6582 195.681 73.731 195.588 73.797C195.359 73.9554 195.222 74.0479 195.222 74.0479C195.139 74.1104 195.078 74.2071 195.072 74.3053C195.072 74.3053 195.055 74.4925 195.097 74.7538C195.13 75.0186 195.263 75.3533 195.461 75.6324C195.668 75.908 195.948 76.1783 196.273 76.2513C196.62 76.3267 196.993 76.1262 197.341 76.1162C197.679 76.078 198.01 76.0527 198.315 75.9838C198.627 75.9338 198.9 75.8658 199.136 75.8116C199.377 75.7446 199.605 75.757 199.759 75.7115C199.92 75.6847 199.998 75.6666 199.998 75.6666C200.09 75.6545 200.154 75.5673 200.138 75.4665C200.124 75.4289 200.114 75.4007 200.094 75.376L200.098 75.3854Z" fill="#DDDDDD"/>
<path d="M200.282 72.2883C200.282 72.2883 200.302 72.2276 200.343 72.1063C200.36 72.0362 200.338 71.9166 200.293 71.7945C200.259 71.7006 200.211 71.5691 200.138 71.4573C200.065 71.3455 199.979 71.2277 199.884 71.1134C199.786 70.9897 199.682 70.9104 199.559 70.8064C199.338 70.6102 199.072 70.4629 198.83 70.3274C198.583 70.2048 198.332 69.9242 198.097 69.8929C197.856 69.8746 197.63 70.0424 197.442 70.2281C197.252 70.436 197.113 70.6678 197.015 70.8952C196.914 71.1132 196.858 71.2825 196.858 71.2825C196.83 71.3782 196.826 71.4859 196.861 71.5798C196.861 71.5798 196.922 71.7489 197.024 71.9674C197.125 72.186 197.264 72.4224 197.416 72.6332C197.57 72.8217 197.734 73.0068 197.914 73.0048C198.091 72.9934 198.302 72.7564 198.493 72.6971C198.879 72.5564 199.238 72.4037 199.517 72.3229C199.592 72.2955 199.637 72.3005 199.706 72.2859C199.734 72.2756 199.79 72.255 199.851 72.2754C199.951 72.3453 200.009 72.3879 200.009 72.3879C200.093 72.4424 200.213 72.42 200.267 72.3362C200.283 72.3199 200.289 72.3071 200.291 72.2849L200.282 72.2883Z" fill="#DDDDDD"/>
<path d="M163.194 122.256L162.168 124.541C162.113 124.676 161.956 124.729 161.821 124.675C161.686 124.62 161.633 124.464 161.687 124.329C161.687 124.329 161.688 124.319 161.689 124.309L162.916 122.126C162.954 122.05 163.047 122.029 163.123 122.067C163.189 122.105 163.221 122.188 163.183 122.265L163.194 122.256Z" fill="#DDDDDD"/>
<path d="M159.621 129.018L156.651 133.138C156.452 133.409 156.072 133.479 155.792 133.278C155.511 133.078 155.451 132.699 155.651 132.419C155.652 132.409 155.663 132.4 155.675 132.381L158.915 128.47C159.075 128.286 159.35 128.255 159.544 128.416C159.729 128.567 159.752 128.83 159.621 129.018Z" fill="#DDDDDD"/>
<path d="M153.177 137.009L149.435 140.444C149.068 140.778 148.507 140.758 148.174 140.391C147.841 140.024 147.86 139.463 148.227 139.13C148.228 139.12 148.249 139.112 148.26 139.103L152.163 135.856C152.493 135.589 152.971 135.63 153.239 135.95C153.497 136.268 153.469 136.728 153.167 137.008L153.177 137.009Z" fill="#DDDDDD"/>
<path d="M145.269 143.617L140.988 146.342C140.481 146.67 139.803 146.518 139.485 146.012C139.166 145.505 139.309 144.827 139.815 144.508C139.815 144.508 139.837 144.49 139.847 144.491L144.231 141.928C144.703 141.646 145.319 141.812 145.591 142.283C145.864 142.745 145.71 143.342 145.268 143.627L145.269 143.617Z" fill="#DDDDDD"/>
<path d="M136.334 148.773L131.678 150.774C131.057 151.04 130.333 150.752 130.067 150.131C129.801 149.509 130.088 148.786 130.71 148.52C130.71 148.52 130.731 148.512 130.741 148.513L135.445 146.627C136.043 146.389 136.716 146.681 136.956 147.27C137.195 147.858 136.914 148.522 136.334 148.773Z" fill="#DDDDDD"/>
<path d="M126.701 152.482L121.79 153.752C121.087 153.929 120.377 153.512 120.2 152.81C120.023 152.107 120.44 151.397 121.143 151.22L121.153 151.221L126.077 150.013C126.759 149.843 127.459 150.259 127.627 150.951C127.796 151.632 127.381 152.323 126.71 152.493L126.701 152.482Z" fill="#DDDDDD"/>
<path d="M116.615 154.693L111.572 155.215C110.83 155.288 110.172 154.755 110.1 154.014C110.028 153.272 110.56 152.614 111.302 152.542L116.353 152.031C117.085 151.957 117.743 152.489 117.815 153.231C117.888 153.973 117.357 154.62 116.625 154.694L116.615 154.693Z" fill="#DDDDDD"/>
<path d="M106.291 155.354L101.224 155.059C100.514 155.014 99.9845 154.415 100.019 153.705C100.063 153.006 100.652 152.475 101.344 152.498L106.412 152.692C107.143 152.719 107.72 153.343 107.693 154.074C107.666 154.806 107.042 155.383 106.311 155.356C106.311 155.356 106.291 155.354 106.281 155.353L106.291 155.354Z" fill="#DDDDDD"/>
<path d="M96.0053 154.31L91.0595 153.153C90.4702 153.021 90.1104 152.429 90.2432 151.84C90.3738 151.271 90.9351 150.908 91.5066 151.019L96.4964 151.949C97.1475 152.068 97.5837 152.697 97.4536 153.357C97.3344 154.008 96.705 154.444 96.0451 154.314C96.0252 154.312 96.0053 154.31 95.9954 154.309L96.0053 154.31Z" fill="#DDDDDD"/>
<path d="M86.0609 151.542L81.3815 149.579C80.9387 149.391 80.7307 148.887 80.9183 148.444C81.0939 148.02 81.5787 147.81 82.0146 147.967L86.7768 149.717C87.2803 149.901 87.5427 150.462 87.3577 150.975C87.1737 151.479 86.613 151.741 86.0996 151.556C86.0897 151.555 86.0698 151.553 86.0609 151.542Z" fill="#DDDDDD"/>
<path d="M76.7661 147.152L72.5022 144.398C72.2107 144.207 72.1214 143.815 72.3132 143.524C72.4939 143.241 72.8755 143.151 73.1591 143.321L77.5446 145.877C77.9046 146.086 78.0174 146.54 77.8084 146.9C77.5994 147.26 77.145 147.373 76.7839 147.174C76.7839 147.174 76.7651 147.162 76.7551 147.161L76.7661 147.152Z" fill="#DDDDDD"/>
<path d="M68.4015 141.23L64.6509 137.807C64.4489 137.624 64.4407 137.322 64.623 137.12C64.8042 136.928 65.1078 136.91 65.3008 137.081L69.1316 140.412C69.3623 140.608 69.3862 140.952 69.1909 141.183C68.9955 141.414 68.6412 141.436 68.4204 141.242C68.4204 141.242 68.4204 141.242 68.4104 141.241L68.4015 141.23Z" fill="#DDDDDD"/>
<path d="M61.1284 134.049L57.9579 130.084C57.7979 129.886 57.8284 129.598 58.0263 129.438C58.2242 129.277 58.5126 129.308 58.6727 129.506L61.8442 133.461C62.0042 133.659 61.9737 133.948 61.7758 134.108C61.5779 134.268 61.2895 134.237 61.1294 134.039L61.1284 134.049Z" fill="#DDDDDD"/>
<path d="M55.048 125.837L52.4739 121.462C52.3291 121.215 52.4135 120.892 52.6601 120.748C52.9067 120.603 53.2296 120.687 53.3745 120.934L55.8627 125.36C55.9897 125.585 55.9084 125.878 55.6838 126.005C55.4592 126.132 55.1661 126.051 55.038 125.836L55.048 125.837Z" fill="#DDDDDD"/>
<path d="M50.1742 116.858L48.174 112.191C48.0297 111.844 48.1822 111.448 48.5304 111.294C48.8775 111.15 49.2736 111.302 49.4278 111.65C49.4278 111.65 49.4257 111.67 49.4357 111.671L51.2673 116.41C51.386 116.714 51.2398 117.051 50.9356 117.169C50.6414 117.289 50.3049 117.143 50.1841 116.859L50.1742 116.858Z" fill="#DDDDDD"/>
<path d="M46.4181 107.328L44.9723 102.459C44.8307 101.992 45.1032 101.508 45.5597 101.375C46.0271 101.233 46.5112 101.506 46.6439 101.962C46.6439 101.962 46.6507 101.993 46.6496 102.003L47.8991 106.922C48.0062 107.335 47.75 107.761 47.3375 107.858C46.935 107.956 46.5174 107.721 46.4082 107.327L46.4181 107.328Z" fill="#DDDDDD"/>
<path d="M43.9423 97.3075C43.9423 97.3075 43.9153 96.9929 43.8653 96.515C43.8408 96.2711 43.8085 96.0062 43.7914 95.6926C43.7852 95.3702 43.7702 95.0368 43.7563 94.6934C43.7324 94.349 43.7681 94.0109 43.772 93.6895C43.7857 93.3692 43.7875 93.0677 43.8347 92.8112C43.9104 92.2863 43.9571 91.9393 43.9571 91.9393C44.0401 91.3447 44.5868 90.9299 45.1913 91.014C45.7859 91.097 46.2007 91.6436 46.1166 92.2481C46.1156 92.2581 46.1135 92.278 46.1124 92.2879L46.0998 92.4073C46.0998 92.4073 46.0405 92.6826 45.9654 93.107C45.9135 93.3127 45.906 93.5734 45.8876 93.8429C45.8691 94.1125 45.8276 94.4097 45.8369 94.7023C45.8362 94.9939 45.8355 95.2854 45.826 95.566C45.8263 95.8476 45.8566 96.1323 45.8622 96.3642C45.8923 96.84 45.9094 97.1536 45.9094 97.1536C45.9421 97.7 45.5315 98.1594 44.985 98.1921C44.4585 98.2269 43.9981 97.8262 43.9523 97.3085L43.9423 97.3075Z" fill="#DDDDDD"/>
<path d="M48.1863 87.5159C48.1863 87.5159 48.5087 87.5098 48.9814 87.5095C49.1007 87.5222 49.2143 87.4939 49.4011 87.5338C49.5791 87.5627 49.757 87.5916 49.9439 87.6315C50.1307 87.6713 50.3275 87.7123 50.5253 87.7432C50.7331 87.7753 50.8969 87.8429 51.0618 87.9005C51.4004 88.0269 51.7301 88.1422 52.0388 88.2654C52.2037 88.323 52.3256 88.4063 52.4606 88.4608C52.5946 88.5253 52.7186 88.5887 52.8327 88.651C53.29 88.8904 53.5956 89.0434 53.5956 89.0434C54.2058 89.3594 54.4482 90.1091 54.1323 90.7192C53.8164 91.3294 53.0667 91.5718 52.4565 91.2559L52.4366 91.2538L52.3226 91.1914C52.3226 91.1914 52.0656 91.0537 51.6857 90.8425C51.5905 90.7922 51.4864 90.7309 51.3823 90.6696C51.2771 90.6183 51.1552 90.535 51.039 90.4925C50.7977 90.3966 50.5376 90.2887 50.2765 90.1906C50.1514 90.1372 50.0075 90.0717 49.918 90.0622C49.8097 90.0407 49.7024 90.0093 49.604 89.9888C49.5067 89.9584 49.4093 89.928 49.3109 89.9075C49.2345 89.8693 49.0822 89.8833 48.9629 89.8707C48.4913 89.861 48.1699 89.8572 48.1699 89.8572L48.15 89.8551C47.4973 89.8464 46.9909 89.3101 46.9996 88.6574C47.0162 88.0257 47.5325 87.5172 48.1575 87.5028L48.1863 87.5159Z" fill="#DDDDDD"/>
<path d="M57.9407 92.2275C57.9407 92.2275 58.1693 92.4428 58.5167 92.7711C58.8641 93.0995 59.3224 93.52 59.7875 93.9715C60.6904 94.9418 61.5944 95.9023 61.5944 95.9023C62.1086 96.4595 62.0878 97.322 61.5306 97.8363C60.9734 98.3505 60.1108 98.3297 59.5966 97.7725C59.5966 97.7725 59.5966 97.7725 59.5877 97.7615L59.5333 97.7054C59.5333 97.7054 58.7235 96.8053 57.9037 95.904C57.4685 95.4558 57.0133 95.0054 56.6759 94.6781C56.3395 94.3408 56.1119 94.1156 56.1119 94.1156C55.5924 93.6081 55.5902 92.7733 56.1077 92.2548C56.6141 91.7453 57.429 91.741 57.9417 92.2176L57.9407 92.2275Z" fill="#DDDDDD"/>
<path d="M64.8922 99.9759L67.7689 104.152C68.2218 104.813 68.0565 105.711 67.3941 106.174C66.7328 106.626 65.8352 106.461 65.3723 105.799C65.3723 105.799 65.3645 105.778 65.3545 105.777L62.5438 101.548C62.1097 100.898 62.2829 100.022 62.9322 99.5876C63.5705 99.1624 64.4382 99.3246 64.8734 99.9639L64.8922 99.9759Z" fill="#DDDDDD"/>
<path d="M70.4569 108.703L72.7424 113.239C73.1252 113.993 72.8164 114.916 72.062 115.299C71.3075 115.681 70.3849 115.373 70.0021 114.618L69.9943 114.597L67.7826 110.029C67.4186 109.287 67.7342 108.395 68.4766 108.031C69.208 107.676 70.0909 107.981 70.4569 108.703Z" fill="#DDDDDD"/>
<path d="M74.7998 118.092L76.455 122.883C76.7388 123.718 76.3007 124.627 75.4663 124.91C74.6318 125.194 73.7228 124.756 73.439 123.922L71.8278 119.095C71.5529 118.272 71.9988 117.384 72.8233 117.099C73.6468 116.824 74.5259 117.259 74.8108 118.084L74.7998 118.092Z" fill="#DDDDDD"/>
<path d="M77.8107 128.017L78.7513 133.003C78.9105 133.875 78.3385 134.719 77.4669 134.878C76.5953 135.038 75.7608 134.467 75.5916 133.594L74.662 128.599C74.5028 127.727 75.0737 126.892 75.9453 126.733C76.8169 126.574 77.6515 127.145 77.8107 128.017Z" fill="#DDDDDD"/>
<path d="M79.2976 138.298L79.385 143.366C79.405 144.223 78.7174 144.924 77.8605 144.944C77.0147 144.955 76.311 144.287 76.2801 143.439L76.123 138.365C76.0952 137.487 76.7849 136.766 77.6528 136.737C78.5306 136.709 79.252 137.399 79.2809 138.266L79.2788 138.286L79.2976 138.298Z" fill="#DDDDDD"/>
<path d="M79.001 148.703L78.1405 153.7C78.0056 154.5 77.2453 155.033 76.455 154.899C75.6647 154.765 75.1396 154.026 75.2525 153.243L76.0046 148.225C76.1328 147.394 76.8973 146.821 77.7284 146.949C78.5595 147.077 79.1323 147.842 79.0041 148.673C79.0041 148.673 79.002 148.693 79.001 148.703Z" fill="#DDDDDD"/>
<path d="M76.7188 158.871L74.8807 163.604C74.6181 164.28 73.848 164.621 73.1718 164.358C72.5057 164.097 72.1716 163.357 72.4033 162.688L74.1053 157.911C74.3632 157.184 75.1574 156.805 75.8843 157.063C76.6112 157.321 76.9898 158.115 76.7319 158.842C76.7308 158.852 76.7287 158.872 76.7277 158.882L76.7188 158.871Z" fill="#DDDDDD"/>
<path d="M72.4724 168.343L69.7374 172.619C69.388 173.165 68.6666 173.33 68.1203 172.981C67.583 172.643 67.4169 171.931 67.7453 171.393L70.3474 167.042C70.701 166.456 71.4664 166.256 72.0525 166.609C72.6385 166.963 72.8391 167.728 72.4855 168.314C72.4855 168.314 72.4734 168.333 72.4624 168.342L72.4724 168.343Z" fill="#DDDDDD"/>
<path d="M66.4815 176.77L62.9936 180.463C62.6312 180.847 62.0151 180.873 61.6322 180.5C61.257 180.149 61.2296 179.553 61.5622 179.165L64.8759 175.313C65.2655 174.861 65.9554 174.803 66.4069 175.193C66.8585 175.583 66.9162 176.273 66.5265 176.724C66.5255 176.734 66.5035 176.752 66.4925 176.761L66.4815 176.77Z" fill="#DDDDDD"/>
<path d="M59.1266 183.959L55.1166 187.075C54.7988 187.323 54.3424 187.264 54.0944 186.947C53.8554 186.64 53.9027 186.192 54.2007 185.942L58.0584 182.65C58.4124 182.345 58.9505 182.392 59.2549 182.746C59.5594 183.1 59.5125 183.638 59.1585 183.943C59.1585 183.943 59.1365 183.96 59.1255 183.969L59.1266 183.959Z" fill="#DDDDDD"/>
<path d="M50.8205 189.935L46.4287 192.477C46.2251 192.596 45.9707 192.529 45.8515 192.326C45.7411 192.133 45.7973 191.887 45.9811 191.766L50.2013 188.944C50.472 188.762 50.8357 188.841 51.0094 189.1C51.1919 189.371 51.1132 189.735 50.8535 189.908C50.8535 189.908 50.8315 189.926 50.8216 189.925L50.8205 189.935Z" fill="#DDDDDD"/>
<path d="M41.7515 194.86L39.4699 195.896C39.3961 195.929 39.3087 195.899 39.2663 195.824C39.2339 195.751 39.2622 195.673 39.3272 195.63L41.5162 194.423C41.634 194.355 41.79 194.402 41.858 194.52C41.9259 194.638 41.8793 194.793 41.7615 194.861C41.7615 194.861 41.7515 194.86 41.7405 194.869L41.7515 194.86Z" fill="#DDDDDD"/>
</svg>
