<svg width="38" height="38" viewBox="0 0 38 38" fill="none" xmlns="http://www.w3.org/2000/svg">
<path d="M33.7101 22.3602V0H28.0234V20.4813C29.0557 21.6732 29.8596 23.0868 30.3486 24.5864H37.9938V22.3602H33.7101Z" fill="#009A73"/>
<path d="M18.9977 18.5752C13.6422 18.5752 9.28516 22.9322 9.28516 28.2877C9.28516 33.6431 13.6422 38.0002 18.9977 38.0002C24.3532 38.0002 28.7102 33.6431 28.7102 28.2877C28.7102 22.9322 24.3532 18.5752 18.9977 18.5752ZM18.9977 27.1746C21.0696 27.1746 22.7553 28.8602 22.7553 30.9322C22.7553 32.6167 21.641 34.0459 20.1108 34.5214V36.2182H17.8846V34.5214C16.3545 34.0459 15.2401 32.6168 15.2401 30.9322H17.4663C17.4663 31.7767 18.1533 32.4637 18.9977 32.4637C19.8421 32.4637 20.5291 31.7767 20.5291 30.9322C20.5291 30.0878 19.8421 29.4007 18.9977 29.4007C16.9258 29.4007 15.2401 27.7151 15.2401 25.6432C15.2401 23.9586 16.3544 22.5295 17.8846 22.054V20.3572H20.1108V22.054C21.6409 22.5295 22.7553 23.9586 22.7553 25.6432H20.5291C20.5291 24.7987 19.8421 24.1117 18.9977 24.1117C18.1533 24.1117 17.4663 24.7987 17.4663 25.6432C17.4663 26.4876 18.1533 27.1746 18.9977 27.1746Z" fill="#009A73"/>
<path d="M9.97048 20.4814V14.752H4.28382V22.3604H0V24.5865H7.64528C8.13436 23.0864 8.93762 21.674 9.97048 20.4814Z" fill="#009A73"/>
<path d="M25.7961 4.91699H20.1094V16.4009C22.2089 16.596 24.1523 17.3369 25.7961 18.4801V4.91699Z" fill="#009A73"/>
<path d="M17.882 9.83398H12.1953V18.4798C13.8392 17.3365 15.7825 16.5956 17.882 16.4006V9.83398Z" fill="#009A73"/>
</svg>
