<svg width="51" height="38" viewBox="0 0 51 38" fill="none" xmlns="http://www.w3.org/2000/svg">
<path d="M41.1677 22.6885V29.5762C41.1677 32.0779 39.6951 34.3105 37.4151 35.3556C34.6441 36.6223 30.4482 37.9998 25.3338 37.9998C20.2195 37.9998 16.0235 36.6223 13.2368 35.3556C10.9725 34.3105 9.5 32.0779 9.5 29.5762V22.6885L20.7579 27.8345C22.1987 28.4995 23.7505 28.832 25.3338 28.832C26.9172 28.832 28.4689 28.4995 29.9098 27.8345L41.1677 22.6885Z" fill="#009A73"/>
<path d="M47.5027 19.791V30.083C47.5027 30.9539 46.7902 31.6664 45.9193 31.6664C45.0485 31.6664 44.3359 30.9539 44.3359 30.083V21.2477L47.5027 19.791Z" fill="#009A73"/>
<path d="M22.0692 24.9593C23.1063 25.4327 24.2194 25.6702 25.3342 25.6702C26.4489 25.6702 27.5604 25.4343 28.5991 24.9593L48.8205 15.7155C49.9605 15.1946 50.6683 14.0909 50.6683 12.8353C50.6683 11.5797 49.9605 10.4745 48.8205 9.95355L28.5991 0.711335C26.5233 -0.237112 24.1466 -0.237112 22.0708 0.711335L1.84781 9.95197C0.707773 10.4745 0 11.5781 0 12.8337C0 14.0894 0.707773 15.193 1.84781 15.7155L22.0692 24.9593Z" fill="#009A73"/>
</svg>
