<svg width="37" height="38" viewBox="0 0 37 38" fill="none" xmlns="http://www.w3.org/2000/svg">
<path fill-rule="evenodd" clip-rule="evenodd" d="M9.66235 1.55689L15.2 0.0730707C15.6881 -0.0577124 16.1945 0.234649 16.3252 0.722711L18.7875 9.91204H10.95L9.01271 2.68208C8.88193 2.19402 9.17421 1.68767 9.66235 1.55689ZM7.7147 11.1787L6.41565 5.7976C6.13572 4.63773 5.11796 3.83229 3.92389 3.83229H1.19478C0.534928 3.83229 0 4.36722 0 5.02707C0 5.68693 0.534928 6.22185 1.19478 6.22185H3.92397C4.01358 6.22185 4.07945 6.26927 4.10082 6.35762L8.65401 25.2188C6.86342 25.8395 5.64394 27.5343 5.64394 29.4391C5.64394 31.8153 7.52573 33.7872 9.89748 33.8986C9.89447 33.962 9.89281 34.0257 9.89281 34.0898C9.89281 36.2494 11.6435 38 13.803 38C15.9626 38 17.7132 36.2494 17.7132 34.0898C17.7132 34.0273 17.7116 33.9654 17.7087 33.9036H24.3646C24.3617 33.9654 24.3601 34.0273 24.3601 34.0898C24.3601 36.2494 26.1108 38 28.2703 38C30.4299 38 32.1805 36.2494 32.1805 34.0898C32.1805 31.9302 30.4299 30.1796 28.2703 30.1796C27.0973 30.1796 26.0451 30.6962 25.3285 31.5141H16.7448C16.0281 30.6963 14.9759 30.1796 13.803 30.1796C12.6301 30.1796 11.5779 30.6962 10.8612 31.5141H10.1085C8.96964 31.5141 8.0335 30.5781 8.0335 29.4391C8.0335 28.3002 8.96964 27.3641 10.1085 27.3641H28.5332C30.533 27.3641 32.2531 26.0895 32.8421 24.1796L36.3476 12.8147C36.6557 12.0398 36.087 11.1788 35.2369 11.1788L7.7147 11.1787ZM9.0477 16.7003L8.29158 13.5682H14.7148V16.7003H9.0477ZM9.35344 17.9669H14.7148V20.5023H9.96556L9.35344 17.9669ZM15.9815 20.5023V17.9669H20.1959V20.5023H15.9815ZM21.4625 20.5023V17.9669H25.6769V20.5023H21.4625ZM15.9815 16.7003V13.5682H20.1959V16.7003H15.9815ZM26.9436 20.5023V17.9669H32.2649L31.4829 20.5023H26.9436ZM26.9436 21.769H31.0922L30.5647 23.4794C30.2819 24.3963 29.4913 24.9744 28.5333 24.9744H26.9437V21.769H26.9436ZM21.4625 21.769H25.6769V24.9744H21.4625V21.769ZM15.9815 21.769H20.1959V24.9744H15.9815V21.769ZM10.2713 21.769H14.7148V24.9744H11.0452L10.2713 21.769ZM21.4625 16.7003V13.5682H25.6769V16.7003H21.4625ZM26.9436 16.7003V13.5682H33.6217L32.6556 16.7003H26.9436ZM28.2704 32.4977C29.1497 32.4977 29.8624 33.2104 29.8624 34.0897C29.8624 34.969 29.1497 35.6818 28.2704 35.6818C27.3911 35.6818 26.6783 34.969 26.6783 34.0897C26.6783 33.2104 27.3911 32.4977 28.2704 32.4977ZM13.803 32.4977C14.6823 32.4977 15.395 33.2104 15.395 34.0897C15.395 34.969 14.6822 35.6818 13.803 35.6818C12.9238 35.6818 12.211 34.969 12.211 34.0897C12.211 33.2104 12.9238 32.4977 13.803 32.4977ZM28.4703 3.57508H34.0461C34.5376 3.57508 34.9396 3.97709 34.9396 4.46855V9.91196H27.5769V4.46855C27.5769 3.97717 27.9789 3.57508 28.4703 3.57508ZM19.6585 0C19.1531 0 18.7397 0.413407 18.7397 0.918727V4.84008L20.0988 9.91204H26.3102V0.918727C26.3102 0.413407 25.8968 0 25.3915 0H19.6585Z" fill="#009A73"/>
</svg>
