<svg width="34" height="38" viewBox="0 0 34 38" fill="none" xmlns="http://www.w3.org/2000/svg">
<path fill-rule="evenodd" clip-rule="evenodd" d="M7.21385 19.8647V30.4487H4.93829V19.8647H7.21385ZM4.10307 31.6946H8.04899C8.43678 31.6946 8.75316 32.0109 8.75316 32.3988V32.4273H3.3989V32.3988C3.3989 32.0109 3.7152 31.6946 4.10307 31.6946ZM25.7877 31.6946H29.7336C30.1214 31.6946 30.4378 32.0109 30.4378 32.3988V32.4273H25.0835V32.3988C25.0835 32.0109 25.3998 31.6946 25.7877 31.6946ZM18.5594 31.6946H22.5053C22.8931 31.6946 23.2095 32.0109 23.2095 32.3988V32.4273H17.8553V32.3988C17.8553 32.0109 18.1716 31.6946 18.5594 31.6946ZM11.3312 31.6946H15.2772C15.665 31.6946 15.9813 32.0109 15.9813 32.3988V32.4273H10.6272V32.3988C10.6272 32.0109 10.9435 31.6946 11.3312 31.6946ZM16.9183 0H21.061C21.5564 0 21.8462 0.547963 21.5875 0.956074L20.9057 2.1484L21.6013 3.36479C21.8407 3.78334 21.532 4.29665 21.061 4.29626L17.5413 4.2968V6.09254L33.8367 13.3341V14.39H0V13.3341L16.2954 6.09254L16.2953 0.622951C16.2953 0.278926 16.5742 0 16.9183 0ZM0 38H33.8366V36.6275C33.8366 36.2397 33.5202 35.9233 33.1324 35.9233H0.704168C0.316381 35.9233 7.78261e-05 36.2397 7.78261e-05 36.6275L0 38ZM2.49904 33.6732H31.3376C31.7254 33.6732 32.0417 33.9895 32.0417 34.3773V34.6775H1.79488V34.3773C1.79488 33.9895 2.11118 33.6732 2.49904 33.6732ZM32.0418 15.6359V15.9361C32.0418 16.3239 31.7255 16.6403 31.3377 16.6403H2.49904C2.11126 16.6403 1.79488 16.324 1.79488 15.9361V15.6359H32.0418ZM30.4377 17.8862V17.9147C30.4377 18.3025 30.1214 18.6188 29.7335 18.6188H25.7876C25.3997 18.6188 25.0834 18.3025 25.0834 17.9147V17.8862H30.4377ZM8.75316 17.8862V17.9147C8.75316 18.3025 8.43686 18.6188 8.04899 18.6188H4.10307C3.7152 18.6188 3.3989 18.3025 3.3989 17.9147V17.8862H8.75316ZM15.9813 17.8862V17.9147C15.9813 18.3025 15.665 18.6188 15.2772 18.6188H11.3312C10.9435 18.6188 10.6272 18.3025 10.6272 17.9147V17.8862H15.9813ZM23.2095 17.8862V17.9147C23.2095 18.3025 22.8932 18.6188 22.5053 18.6188H18.5594C18.1716 18.6188 17.8553 18.3025 17.8553 17.9147V17.8862H23.2095ZM28.8984 19.8647V30.4487H26.6228V19.8647H28.8984ZM21.6702 19.8647V30.4487H19.3946V19.8647H21.6702ZM14.442 19.8647V30.4487H12.1665V19.8647H14.442Z" fill="#009A73"/>
</svg>
