<svg width="42" height="38" viewBox="0 0 42 38" fill="none" xmlns="http://www.w3.org/2000/svg">
<path d="M40.7189 14.1965L21.7404 0.394055C21.0503 -0.123539 20.3602 -0.123539 19.6701 0.394055L0.691583 14.1965C-0.688696 15.0592 0.173988 17.3021 1.72677 17.3021H5.17743V36.2806C5.17743 37.3158 5.86753 38.0059 6.90272 38.0059H34.5077C35.5429 38.0059 36.233 37.3158 36.233 36.2806V17.3021H39.6837C41.2365 17.3021 42.0991 15.0592 40.7189 14.1965ZM20.7053 34.5553C15.0117 34.5553 10.3534 29.8969 10.3534 24.2034C10.3534 18.5099 15.0117 13.8515 20.7053 13.8515C26.3988 13.8515 31.0571 18.5099 31.0571 24.2034C31.0571 29.8969 26.3988 34.5553 20.7053 34.5553Z" fill="#009A73"/>
<path d="M23.2972 21.6154V16.4395H18.1213V21.6154H12.9453V26.7913H18.1213V31.9673H23.2972V26.7913H28.4731V21.6154H23.2972Z" fill="#009A73"/>
</svg>
