<svg width="42" height="38" viewBox="0 0 42 38" fill="none" xmlns="http://www.w3.org/2000/svg">
<path d="M40.7189 14.1907L21.7404 0.388196C21.0503 -0.129399 20.3602 -0.129399 19.6701 0.388196L0.691583 14.1907C-0.688696 15.0533 0.173988 17.2962 1.72677 17.2962H5.17743V36.2747C5.17743 37.3099 5.86753 38 6.90272 38H34.5077C35.5429 38 36.233 37.3099 36.233 36.2747V17.2962H39.6837C41.2365 17.2962 42.0991 15.0533 40.7189 14.1907ZM20.7053 34.5494C15.0117 34.5494 10.3534 29.8911 10.3534 24.1975C10.3534 18.504 15.0117 13.8456 20.7053 13.8456C26.3988 13.8456 31.0571 18.504 31.0571 24.1975C31.0571 29.8911 26.3988 34.5494 20.7053 34.5494Z" fill="#009A73"/>
</svg>
