<svg width="40" height="38" viewBox="0 0 40 38" fill="none" xmlns="http://www.w3.org/2000/svg">
<path d="M37.5063 31.2074C37.0585 31.0162 36.5767 30.9174 36.0897 30.917H3.50818C-1.14009 31.0421 -1.19864 37.8428 3.50827 37.9999H36.0897C36.8993 37.9913 37.6817 37.7063 38.3072 37.1922C38.9327 36.6782 39.3638 35.9658 39.5291 35.1732C39.6944 34.3806 39.584 33.5553 39.2161 32.8341C38.8482 32.1128 38.245 31.5389 37.5063 31.2074ZM6.15008 35.1668C5.96515 35.1632 5.78893 35.0876 5.65906 34.9558C5.5292 34.8241 5.45598 34.6469 5.45506 34.4619C5.45414 34.277 5.52559 34.099 5.65415 33.966C5.7827 33.833 5.95816 33.7556 6.14304 33.7502C6.32787 33.7539 6.50394 33.8296 6.63369 33.9613C6.76343 34.093 6.83656 34.2702 6.83748 34.455C6.8384 34.6399 6.76703 34.8178 6.6386 34.9508C6.51017 35.0837 6.33486 35.1613 6.15008 35.1668ZM11.6181 35.1668C11.4308 35.1659 11.2515 35.0909 11.1194 34.9582C10.9872 34.8254 10.913 34.6458 10.913 34.4585C10.9131 34.2712 10.9872 34.0915 11.1194 33.9588C11.2515 33.826 11.4309 33.751 11.6182 33.7502C11.8051 33.7517 11.9838 33.8269 12.1155 33.9596C12.2471 34.0923 12.321 34.2716 12.321 34.4585C12.321 34.6454 12.2471 34.8247 12.1154 34.9574C11.9838 35.09 11.805 35.1653 11.6181 35.1668ZM17.0791 35.1668C16.8941 35.1632 16.7179 35.0875 16.5881 34.9558C16.4582 34.8241 16.385 34.6469 16.3841 34.4619C16.3832 34.2769 16.4546 34.099 16.5832 33.966C16.7117 33.833 16.8872 33.7556 17.0721 33.7502C17.2569 33.7539 17.433 33.8296 17.5627 33.9613C17.6924 34.093 17.7656 34.2702 17.7665 34.4551C17.7674 34.6399 17.696 34.8178 17.5676 34.9508C17.4392 35.0837 17.2639 35.1613 17.0791 35.1668ZM22.5471 35.1668C22.3598 35.1659 22.1805 35.0909 22.0484 34.9582C21.9162 34.8254 21.842 34.6458 21.842 34.4585C21.842 34.2712 21.9162 34.0915 22.0484 33.9588C22.1805 33.826 22.3599 33.751 22.5472 33.7502C22.7341 33.7517 22.9128 33.8269 23.0445 33.9596C23.1761 34.0923 23.25 34.2716 23.25 34.4585C23.25 34.6454 23.1761 34.8247 23.0444 34.9574C22.9128 35.09 22.734 35.1653 22.5471 35.1668ZM28.0081 35.1668C27.8232 35.1632 27.647 35.0876 27.5171 34.9559C27.3872 34.8242 27.314 34.6469 27.3131 34.4619C27.3121 34.277 27.3836 34.099 27.5121 33.966C27.6407 33.833 27.8162 33.7556 28.001 33.7502C28.1859 33.7539 28.3619 33.8296 28.4917 33.9613C28.6214 34.093 28.6946 34.2702 28.6955 34.455C28.6964 34.6399 28.6251 34.8178 28.4966 34.9507C28.3682 35.0837 28.1929 35.1613 28.0081 35.1668ZM33.4761 35.1668C33.2899 35.1652 33.1117 35.0904 32.9803 34.9585C32.8488 34.8266 32.7745 34.6482 32.7736 34.462C32.7727 34.2757 32.8451 34.0966 32.9753 33.9634C33.1054 33.8302 33.2828 33.7536 33.469 33.7502C33.6551 33.752 33.833 33.8269 33.9642 33.9588C34.0955 34.0907 34.1696 34.2689 34.1705 34.455C34.1715 34.641 34.0992 34.82 33.9692 34.9532C33.8393 35.0864 33.6621 35.1631 33.4761 35.1668Z" fill="#009A73"/>
<path d="M27.5898 23.1263V29.5009H36.0894C36.5689 29.5017 37.046 29.5708 37.506 29.7064V23.1263C37.5063 23.0332 37.4882 22.9409 37.4527 22.8548C37.4172 22.7688 37.3651 22.6906 37.2992 22.6247C37.2334 22.5589 37.1552 22.5067 37.0691 22.4712C36.983 22.4357 36.8908 22.4176 36.7976 22.418H28.2981C28.205 22.4177 28.1128 22.4358 28.0267 22.4712C27.9406 22.5067 27.8624 22.5589 27.7966 22.6247C27.7307 22.6906 27.6786 22.7688 27.6431 22.8549C27.6076 22.9409 27.5895 23.0332 27.5898 23.1263Z" fill="#009A73"/>
<path d="M12.006 29.5009V23.1263C12.0063 23.0332 11.9882 22.9409 11.9527 22.8548C11.9172 22.7688 11.8651 22.6906 11.7992 22.6247C11.7334 22.5589 11.6552 22.5067 11.5691 22.4712C11.483 22.4358 11.3908 22.4176 11.2977 22.418H2.79813C2.70502 22.4177 2.61277 22.4358 2.5267 22.4712C2.44062 22.5067 2.36241 22.5589 2.29658 22.6247C2.23074 22.6906 2.17858 22.7688 2.1431 22.8549C2.10762 22.9409 2.08952 23.0332 2.08985 23.1263V29.7064C2.54997 29.5713 3.02691 29.5022 3.50644 29.5009H12.006Z" fill="#009A73"/>
<path d="M24.0476 22.418H15.5481C15.455 22.4177 15.3628 22.4358 15.2767 22.4712C15.1906 22.5067 15.1124 22.5589 15.0466 22.6247C14.9807 22.6906 14.9286 22.7688 14.8931 22.8549C14.8576 22.9409 14.8395 23.0332 14.8398 23.1263V29.5009H24.756V23.1263C24.7563 23.0332 24.7382 22.9409 24.7027 22.8548C24.6672 22.7688 24.615 22.6906 24.5492 22.6247C24.4834 22.5589 24.4052 22.5067 24.3191 22.4712C24.233 22.4357 24.1407 22.4176 24.0476 22.418Z" fill="#009A73"/>
<path d="M10.2355 12.4731C11.0549 12.4095 11.8919 12.5578 12.2329 13.401C12.5935 14.2369 12.1008 14.9453 11.475 15.4691C11.3423 15.6028 11.2678 15.7836 11.2678 15.972C11.2679 16.1605 11.3423 16.3412 11.475 16.475L13.5928 18.5928C13.7266 18.7255 13.9073 18.7999 14.0957 18.7999C14.2841 18.7999 14.4649 18.7255 14.5986 18.5928L15.0236 18.1607C15.2358 17.9548 15.5036 17.8155 15.794 17.7598C16.0844 17.7042 16.3848 17.7348 16.658 17.8477C16.9313 17.9606 17.1656 18.151 17.332 18.3954C17.4984 18.6398 17.5897 18.9276 17.5947 19.2232L17.5947 19.8323C17.5944 19.9254 17.6125 20.0176 17.648 20.1037C17.6835 20.1898 17.7356 20.268 17.8015 20.3338C17.8673 20.3997 17.9455 20.4518 18.0316 20.4873C18.1177 20.5228 18.2099 20.5409 18.303 20.5406H21.292C21.3851 20.5409 21.4773 20.5228 21.5634 20.4873C21.6495 20.4518 21.7277 20.3997 21.7935 20.3338C21.8594 20.268 21.9115 20.1898 21.947 20.1037C21.9825 20.0176 22.0006 19.9254 22.0003 19.8323V19.2232C22.0053 18.9275 22.0966 18.6398 22.263 18.3954C22.4294 18.151 22.6637 17.9606 22.937 17.8477C23.2103 17.7348 23.5106 17.7042 23.801 17.7599C24.0914 17.8155 24.3592 17.9548 24.5714 18.1607L24.9964 18.5928C25.1301 18.7255 25.3109 18.7999 25.4993 18.7999C25.6877 18.7999 25.8684 18.7255 26.0022 18.5928L28.12 16.475C28.2527 16.3412 28.3271 16.1605 28.3271 15.972C28.3271 15.7836 28.2527 15.6029 28.12 15.4691L27.6879 15.0442C27.482 14.832 27.3427 14.5642 27.2871 14.2738C27.2315 13.9833 27.262 13.683 27.3749 13.4098C27.4879 13.1365 27.6782 12.9022 27.9226 12.7358C28.167 12.5693 28.4548 12.478 28.7504 12.4731H29.3595C29.5472 12.4725 29.727 12.3977 29.8597 12.265C29.9924 12.1323 30.0672 11.9525 30.0678 11.7648V8.77581C30.0672 8.58813 29.9924 8.40828 29.8597 8.27557C29.727 8.14285 29.5472 8.06805 29.3595 8.0675C27.3124 8.34184 26.4821 6.30516 28.12 5.07138C28.2498 4.93614 28.3223 4.75595 28.3223 4.56849C28.3223 4.38103 28.2498 4.20085 28.12 4.06563L26.0022 1.94783C25.8685 1.81512 25.6877 1.74065 25.4993 1.74065C25.3109 1.74065 25.1302 1.81512 24.9964 1.94783C23.7494 3.59776 21.7255 2.73757 22.0004 0.708235C22.0007 0.615136 21.9826 0.522899 21.9471 0.436831C21.9116 0.350764 21.8594 0.272567 21.7936 0.206742C21.7277 0.140916 21.6495 0.0887619 21.5635 0.0532812C21.4774 0.0178005 21.3851 -0.000306009 21.2921 4.11116e-06H18.3031C18.21 -0.000313641 18.1177 0.017791 18.0316 0.0532751C17.9456 0.0887593 17.8674 0.140922 17.8015 0.206759C17.7357 0.272596 17.6835 0.350807 17.6481 0.436887C17.6126 0.522967 17.5945 0.615215 17.5948 0.70832C17.6585 1.52767 17.51 2.36468 16.6669 2.70569C15.8314 3.06632 15.1222 2.57346 14.5987 1.9478C14.465 1.81511 14.2842 1.74065 14.0958 1.74066C13.9074 1.74067 13.7266 1.81514 13.5929 1.94785L11.4751 4.06564C10.9715 4.61393 11.4796 5.12147 11.9073 5.49635C12.1131 5.70858 12.2525 5.97638 12.3081 6.26679C12.3637 6.5572 12.3331 6.85752 12.2202 7.13079C12.1072 7.40406 11.9169 7.63833 11.6725 7.80475C11.4281 7.97118 11.1403 8.0625 10.8447 8.06746L10.2356 8.06751C10.0479 8.06806 9.86809 8.14286 9.73538 8.27557C9.60267 8.40829 9.52788 8.58814 9.52734 8.77582V11.7648C9.52789 11.9525 9.60268 12.1323 9.73537 12.265C9.86806 12.3977 10.0479 12.4725 10.2355 12.4731ZM19.7976 6.02053C25.4142 6.19753 25.4129 14.3438 19.7975 14.5201C14.1809 14.343 14.1822 6.19671 19.7976 6.02053Z" fill="#009A73"/>
</svg>
