<svg width="34" height="38" viewBox="0 0 34 38" fill="none" xmlns="http://www.w3.org/2000/svg">
<path d="M32.4266 15.7777L17.606 0.954905C16.7319 0.0829817 15.318 0.0932981 14.4553 0.953792C13.5878 1.82356 13.5878 3.2358 14.4553 4.10446L29.2781 18.9262C30.1465 19.7946 31.5582 19.7946 32.4266 18.9262C33.2974 18.0555 33.2974 16.6483 32.4266 15.7777Z" fill="#009A73"/>
<path d="M13.3547 6.15234L13.2431 6.71151C12.4574 10.642 10.5477 14.376 7.96484 17.4024L16.0285 25.4661C19.0546 22.8837 22.7371 20.9228 26.6678 20.1361L27.228 20.0245L13.3547 6.15234Z" fill="#009A73"/>
<path d="M6.48964 19.0732L0.978661 24.5831C-0.32351 25.8853 -0.328928 27.9993 0.978661 29.3069L4.12717 32.4554C5.42934 33.7576 7.5434 33.7629 8.85098 32.4554L14.3614 26.945L6.48964 19.0732ZM7.2768 27.7327C6.84195 28.1676 6.13739 28.1676 5.70254 27.7327C5.2677 27.2979 5.2677 26.5933 5.70254 26.1585L7.2768 24.5842C7.71165 24.1494 8.41621 24.1494 8.85106 24.5842C9.28591 25.0191 9.28591 25.7236 8.85106 26.1585L7.2768 27.7327Z" fill="#009A73"/>
<path d="M19.0102 33.0483L20.5246 31.5338C21.8323 30.2264 21.828 28.1124 20.5247 26.8112L19.3998 25.6855C18.7781 26.1032 18.1844 26.5569 17.6071 27.0412L18.9504 28.3865C19.3843 28.8181 19.3873 29.5205 18.9504 29.9597L17.411 31.4991L15.1487 29.3072L12 32.4559L17.0511 37.3504C17.9131 38.2146 19.3284 38.2195 20.1985 37.3493C21.0672 36.4806 21.0672 35.0684 20.1985 34.1996L19.0102 33.0483Z" fill="#009A73"/>
<path d="M23.5039 0C22.8886 0 22.3906 0.497934 22.3906 1.11328V3.33985C22.3906 3.9552 22.8886 4.45313 23.5039 4.45313C24.1193 4.45313 24.6172 3.9552 24.6172 3.33985V1.11328C24.6172 0.497934 24.1193 0 23.5039 0Z" fill="#009A73"/>
<path d="M32.4102 8.90625H30.1836C29.5682 8.90625 29.0703 9.40418 29.0703 10.0195C29.0703 10.6349 29.5682 11.1328 30.1836 11.1328H32.4102C33.0255 11.1328 33.5234 10.6349 33.5234 10.0195C33.5234 9.40418 33.0255 8.90625 32.4102 8.90625Z" fill="#009A73"/>
<path d="M30.9707 2.5527C30.5359 2.11785 29.8313 2.11785 29.3965 2.5527L27.1699 4.77926C26.735 5.21411 26.735 5.91867 27.1699 6.35352C27.6047 6.78837 28.3093 6.78844 28.7441 6.35352L30.9707 4.12696C31.4056 3.69211 31.4056 2.98755 30.9707 2.5527Z" fill="#009A73"/>
</svg>
