<svg width="38" height="38" viewBox="0 0 38 38" fill="none" xmlns="http://www.w3.org/2000/svg">
<path d="M6.67969 31.3203H31.3203V15.7344H6.67969V31.3203ZM15.6602 19.0742C15.6602 18.6633 15.8863 18.286 16.2483 18.0925C16.6104 17.8989 17.0485 17.9196 17.391 18.1479L24.0707 22.601C24.3806 22.8076 24.5665 23.1555 24.5665 23.5273C24.5665 23.899 24.3806 24.247 24.0707 24.4535L17.391 28.9066C17.0458 29.1368 16.6053 29.1536 16.2483 28.9621C15.8863 28.7687 15.6602 28.3914 15.6602 27.9805V19.0742Z" fill="#009A73"/>
<path d="M17.8867 21.1543V25.901L21.4462 23.5277L17.8867 21.1543Z" fill="#009A73"/>
<path d="M34.6601 9.05469H3.33984C1.49818 9.05469 0 10.5529 0 12.3945V34.6601C0 36.5018 1.49818 38 3.33984 38H34.6601C36.5018 38 38 36.5018 38 34.6601V12.3945C38 10.5529 36.5018 9.05469 34.6601 9.05469ZM33.5469 32.4336C33.5469 33.0489 33.0489 33.5469 32.4336 33.5469H5.56641C4.95106 33.5469 4.45312 33.0489 4.45312 32.4336V14.6211C4.45312 14.0057 4.95106 13.5078 5.56641 13.5078H32.4336C33.0489 13.5078 33.5469 14.0057 33.5469 14.6211V32.4336Z" fill="#009A73"/>
<path d="M27.1192 0.326201L20.7656 6.6797H23.9141L28.6934 1.90038C29.1283 1.46553 29.1283 0.760974 28.6934 0.326126C28.2586 -0.108721 27.554 -0.108721 27.1192 0.326201Z" fill="#009A73"/>
<path d="M9.3066 0.326191C8.87176 0.761039 8.87176 1.4656 9.3066 1.90044L14.0858 6.67969H17.2344L10.8808 0.326191C10.4459 -0.10873 9.74145 -0.10873 9.3066 0.326191Z" fill="#009A73"/>
</svg>
