<svg width="38" height="38" viewBox="0 0 38 38" fill="none" xmlns="http://www.w3.org/2000/svg">
<path fill-rule="evenodd" clip-rule="evenodd" d="M36.6744 35.3486H1.32558C0.59386 35.3486 0 35.9425 0 36.6742C0 37.4059 0.59386 37.9998 1.32558 37.9998H36.6744C37.4061 37.9998 38 37.4059 38 36.6742C38 35.9425 37.4061 35.3486 36.6744 35.3486Z" fill="#009A73"/>
<path fill-rule="evenodd" clip-rule="evenodd" d="M17.2332 3.97674V1.32558C17.2332 0.59386 16.6393 0 15.9076 0C15.1759 0 14.582 0.59386 14.582 1.32558V3.97674C14.582 4.70846 15.1759 5.30233 15.9076 5.30233C16.6393 5.30233 17.2332 4.70846 17.2332 3.97674Z" fill="#009A73"/>
<path fill-rule="evenodd" clip-rule="evenodd" d="M7.51326 13.7617L2.94443 16.047C2.4955 16.2715 2.21094 16.731 2.21094 17.233V36.6748C2.21094 37.4066 2.8048 38.0004 3.53652 38.0004H7.81019C7.61931 37.5992 7.51326 37.1485 7.51326 36.6748V13.7617Z" fill="#009A73"/>
<path fill-rule="evenodd" clip-rule="evenodd" d="M27.3972 37.9996C28.1289 37.9996 28.7227 37.4058 28.7227 36.6741V9.27871C28.7227 8.54699 28.1289 7.95312 27.3972 7.95312H18.56C17.8282 7.95312 17.2344 8.54699 17.2344 9.27871V36.6741C17.2344 37.4058 17.8282 37.9996 18.56 37.9996H27.3972ZM21.653 28.7206V30.488C21.653 31.2197 22.2468 31.8136 22.9786 31.8136C23.7103 31.8136 24.3041 31.2197 24.3041 30.488V28.7206C24.3041 27.9888 23.7103 27.395 22.9786 27.395C22.2468 27.395 21.653 27.9888 21.653 28.7206ZM21.653 21.6508V23.4182C21.653 24.15 22.2468 24.7438 22.9786 24.7438C23.7103 24.7438 24.3041 24.15 24.3041 23.4182V21.6508C24.3041 20.9191 23.7103 20.3252 22.9786 20.3252C22.2468 20.3252 21.653 20.9191 21.653 21.6508ZM21.653 14.581V16.3485C21.653 17.0802 22.2468 17.6741 22.9786 17.6741C23.7103 17.6741 24.3041 17.0802 24.3041 16.3485V14.581C24.3041 13.8493 23.7103 13.2555 22.9786 13.2555C22.2468 13.2555 21.653 13.8493 21.653 14.581Z" fill="#009A73"/>
<path fill-rule="evenodd" clip-rule="evenodd" d="M30.4883 18.7705V36.6747C30.4883 37.1484 30.3823 37.5991 30.1914 38.0003H34.4651C35.1968 38.0003 35.7907 37.4064 35.7907 36.6747V21.7186C35.7907 21.1707 35.4531 20.6793 34.9405 20.4814L30.4883 18.7705Z" fill="#009A73"/>
<path fill-rule="evenodd" clip-rule="evenodd" d="M15.7603 38.0002C15.5694 37.599 15.4634 37.1483 15.4634 36.6746V9.27927C15.4634 7.57193 16.8491 6.18625 18.5564 6.18625H22.5332V3.97695C22.5332 3.24523 21.9393 2.65137 21.2076 2.65137H10.6029C9.8712 2.65137 9.27734 3.24523 9.27734 3.97695V36.6746C9.27734 37.4063 9.8712 38.0002 10.6029 38.0002H15.7603Z" fill="#009A73"/>
</svg>
