<svg width="40" height="38" viewBox="0 0 40 38" fill="none" xmlns="http://www.w3.org/2000/svg">
<path d="M1.65217 2.27851e-07C0.739703 2.27851e-07 0 0.739704 0 1.65217C0 2.56464 0.739703 3.30435 1.65217 3.30435H4.59188C4.83243 3.30435 5.06688 3.38004 5.26203 3.5207C5.45717 3.66135 5.6031 3.85985 5.67916 4.08806L11.1264 20.4327C11.3683 21.1584 11.399 21.9398 11.2135 22.6819L10.7649 24.4793C10.1068 27.1118 12.156 29.7391 14.8696 29.7391H34.6957C35.6081 29.7391 36.3478 28.9994 36.3478 28.087C36.3478 27.1745 35.6081 26.4348 34.6957 26.4348H14.8696C14.2262 26.4348 13.8132 25.9069 13.9693 25.2828L14.3075 23.9318C14.3648 23.7029 14.497 23.4997 14.683 23.3545C14.8691 23.2093 15.0983 23.1304 15.3342 23.1304H33.0435C33.7549 23.1308 34.3866 22.6758 34.6118 22.001L39.0165 8.78363C39.3733 7.71337 38.5764 6.60818 37.4482 6.6087H10.8295C10.5889 6.6087 10.3545 6.53301 10.1593 6.39235C9.96418 6.2517 9.81824 6.05321 9.74217 5.825L8.17697 1.12942C7.95184 0.454603 7.32007 -0.000371693 6.6087 2.27851e-07H1.65217ZM13.2174 31.3913C11.3925 31.3913 9.91304 32.8707 9.91304 34.6957C9.91304 36.5206 11.3925 38 13.2174 38C15.0423 38 16.5217 36.5206 16.5217 34.6957C16.5217 32.8707 15.0423 31.3913 13.2174 31.3913ZM33.0435 31.3913C31.2185 31.3913 29.7391 32.8707 29.7391 34.6957C29.7391 36.5206 31.2185 38 33.0435 38C34.8684 38 36.3478 36.5206 36.3478 34.6957C36.3478 32.8707 34.8684 31.3913 33.0435 31.3913Z" fill="#009A73"/>
</svg>
