<svg width="38" height="38" viewBox="0 0 38 38" fill="none" xmlns="http://www.w3.org/2000/svg">
<path d="M19.0008 2.97559C10.1503 2.97559 2.97656 10.1493 2.97656 18.9999C2.97656 25.3769 6.71128 30.8668 12.1037 33.4459L12.6053 23.7545C12.6053 23.7545 11.6619 23.4448 11.4554 23.344C9.45437 22.4626 8.00073 19.8673 8.00073 16.499C8.00073 12.8235 10.8512 9.65761 13.6071 9.63146C13.6106 9.63146 13.6106 9.63146 13.6129 9.63146C13.6141 9.63146 13.6164 9.63146 13.6175 9.63146C16.3739 9.65751 19.2245 12.8234 19.2245 16.499C19.2245 19.8673 17.7691 22.4615 15.7722 23.344C15.7565 23.3509 14.6131 23.7661 14.6131 23.7661L15.1732 34.5418C16.4024 34.8443 17.6804 35.0219 19.003 35.0219C20.7866 35.0219 22.4947 34.7181 24.0974 34.1811L24.5937 24.5779C23.2857 24.2902 22.17 23.4575 21.4708 22.4128C20.6045 21.1152 22.1376 9.63036 22.1376 9.63036H23.1349V20.4077H24.1253V9.63156H25.2085V20.4101H26.1942V9.63156H27.318V20.4101H28.3071V9.63156H29.0725C29.0725 9.63156 30.6055 21.1164 29.7382 22.414C29.0458 23.4484 27.9406 24.2788 26.6488 24.5733C26.6257 24.5815 26.6047 24.5895 26.6047 24.5895L27.0361 32.8499C31.8094 30.0748 35.0263 24.9189 35.0263 19C35.0239 10.1494 27.8502 2.97559 19.0008 2.97559Z" fill="#009A73"/>
<path d="M10.3481 14.8697C10.4055 14.636 10.4826 14.414 10.4861 14.41C10.5111 14.3224 10.4647 14.2331 10.3696 14.1763C10.2791 14.1276 10.1689 14.1526 10.1179 14.2308C10.1179 14.2308 10.0083 14.4054 9.84944 14.6634C9.72019 14.8855 9.52885 15.2403 9.3983 15.6822C9.28521 16.0694 9.15017 16.5843 9.08928 17.1607C9.06323 17.4634 9.05734 17.7365 9.06663 18.0176C9.08928 18.3382 9.13789 18.6125 9.23072 18.9262C9.54552 19.8209 9.78796 20.6873 10.6629 21.5418C10.9395 21.826 11.2236 22.0196 11.4288 22.1623L11.5013 22.2133C11.5454 22.2423 11.5877 22.2691 11.6295 22.2934C11.8017 22.3838 11.917 22.4163 11.938 22.4209C12.0237 22.444 12.1119 22.4023 12.1484 22.3327C12.1826 22.2597 12.1577 22.1681 12.0864 22.1102C12.0864 22.1102 11.9866 22.0232 11.8585 21.8608C11.771 21.7622 11.6759 21.6196 11.5652 21.4585C11.4869 21.3448 11.3947 21.2161 11.3089 21.0908C10.8827 20.4402 10.6369 19.5323 10.2971 18.6021C10.2304 18.4003 10.1759 18.1388 10.1556 17.9167C10.1284 17.6604 10.1156 17.4135 10.1156 17.1844C10.1058 16.6521 10.1295 16.1952 10.1759 15.8247C10.2292 15.4067 10.2709 15.093 10.3481 14.8697Z" fill="#009A73"/>
<path d="M19.0011 0C8.52532 0 0 8.52353 0 19C0 29.4741 8.52532 38 19.0011 38C29.4765 38 38.0001 29.4741 38.0001 19C38 8.52353 29.4765 0 19.0011 0ZM19.0011 36.5829C9.30514 36.5829 1.41651 28.6949 1.41651 19C1.41651 9.30395 9.30514 1.41531 19.0011 1.41531C28.6961 1.41531 36.5853 9.30395 36.5853 19C36.5852 28.6949 28.696 36.5829 19.0011 36.5829Z" fill="#009A73"/>
</svg>
