<svg width="41" height="38" viewBox="0 0 41 38" fill="none" xmlns="http://www.w3.org/2000/svg">
<path d="M37.6513 33.6459H35.003V31.4277H5.72043V33.6459H3.15713V35.779H1.19531V37.9997H39.5306V35.779H37.6513V33.6459Z" fill="#009A73"/>
<path d="M12.0373 29.6333V18.5324H13.3177V17.0744C13.3177 16.1823 12.5957 15.459 11.7023 15.459H6.05162C5.15954 15.459 4.4375 16.1823 4.4375 17.0744V18.5324H5.80417V29.6333H12.0373Z" fill="#009A73"/>
<path d="M35.0045 29.6337V18.5328H36.3699V17.0773C36.3699 16.1852 35.6479 15.4619 34.7571 15.4619H29.1089C28.2169 15.4619 27.4961 16.1852 27.4961 17.0773V18.5341H28.8615V29.6337H35.0045Z" fill="#009A73"/>
<path d="M23.4758 29.6333V18.5324H24.8425V17.0744C24.8425 16.1823 24.1205 15.459 23.2296 15.459H17.579C16.6869 15.459 15.9648 16.1823 15.9648 17.0744V18.5324H17.244V29.6333H23.4758Z" fill="#009A73"/>
<path d="M21.7107 0.38164C20.7869 -0.127213 19.6752 -0.127213 18.7552 0.38164L1.77401 9.7783C0.678894 10.3823 0 11.5345 0 12.787V13.8402H40.4684V12.787C40.4684 11.5358 39.7896 10.3811 38.697 9.77703L21.7107 0.38164ZM13.7936 9.22884C13.6248 9.22884 13.4789 9.1159 13.437 8.95221C13.3952 8.78978 13.4675 8.61974 13.616 8.53726L18.7476 5.69351C19.6689 5.18593 20.7856 5.18593 21.7069 5.69351L26.836 8.53726C26.9845 8.61847 27.0606 8.78851 27.0187 8.95221C26.9769 9.1159 26.8322 9.22884 26.6634 9.22884H13.7936Z" fill="#009A73"/>
</svg>
