<svg width="44" height="38" viewBox="0 0 44 38" fill="none" xmlns="http://www.w3.org/2000/svg">
<path d="M25.5819 2.19905C25.5819 0.98649 24.5954 0 23.3828 0H20.1014C18.8888 0 17.9023 0.98649 17.9023 2.19905V5.48676H25.5819V2.19905Z" fill="#009A73"/>
<path d="M22.0627 13.7575L34.8095 17.0881V8.86831C34.8095 8.40836 34.4354 8.03418 33.9754 8.03418H9.50601C9.04605 8.03418 8.67188 8.40836 8.67188 8.86831V17.0881L21.4187 13.7575C21.6298 13.7024 21.8516 13.7024 22.0627 13.7575Z" fill="#009A73"/>
<path d="M42.2077 35.4517C40.8018 35.4517 40.1675 35.1358 39.3645 34.7359C38.9875 34.5482 38.59 34.3503 38.1156 34.1817C37.457 33.9475 36.6499 33.77 35.5439 33.7544L40.208 22.0133C40.3112 21.7345 40.2287 21.5024 40.1698 21.3883C40.1106 21.2733 39.9676 21.0691 39.6761 20.9929L21.7407 16.3066L3.80549 20.9929C3.51386 21.0691 3.37093 21.2733 3.31174 21.3883C3.25289 21.5024 3.17025 21.7348 3.27378 22.0137L7.92742 33.7546C6.82187 33.7712 6.01559 33.9499 5.35742 34.1849C4.88702 34.3528 4.49203 34.5494 4.11742 34.736C3.31429 35.1358 2.67998 35.4517 1.27388 35.4517C0.570357 35.4517 0 36.0221 0 36.7256C0 37.4291 0.570357 37.9995 1.27388 37.9995C3.27913 37.9995 4.32778 37.4774 5.25296 37.0167C5.61347 36.8373 5.94034 36.6751 6.31783 36.5504C6.78144 36.3973 7.32148 36.3011 8.09651 36.3011C8.27341 36.3011 8.43799 36.3061 8.59238 36.3157C9.66482 36.3819 10.238 36.6673 10.9401 37.0168C11.8652 37.4775 12.9139 37.9996 14.9191 37.9996C16.9243 37.9996 17.9729 37.4775 18.8981 37.0168C19.7012 36.617 20.3355 36.3011 21.7414 36.3011C23.1474 36.3011 23.7816 36.6169 24.5846 37.0168C25.5098 37.4775 26.5584 37.9996 28.5635 37.9996C30.5687 37.9996 31.6173 37.4775 32.5425 37.0168C33.2467 36.6662 33.8214 36.3802 34.9003 36.3151C35.0517 36.306 35.2128 36.3011 35.3857 36.3011C36.1523 36.3011 36.6888 36.3954 37.149 36.5457C37.5328 36.6709 37.8638 36.835 38.229 37.0168C39.1541 37.4775 40.2027 37.9996 42.2079 37.9996C42.9114 37.9996 43.4818 37.4292 43.4818 36.7257C43.4818 36.0222 42.9112 35.4517 42.2077 35.4517ZM9.96358 22.8258L21.4187 19.8327C21.6298 19.7776 21.8517 19.7776 22.0628 19.8327L33.5179 22.8258C34.1986 23.0037 34.6062 23.6997 34.4284 24.3804C34.2788 24.9531 33.7622 25.3326 33.1968 25.3326C33.0902 25.3326 32.9819 25.3191 32.8739 25.2909L21.7407 22.3819L10.6077 25.2909C9.92698 25.4687 9.23094 25.0611 9.0531 24.3804C8.87527 23.6997 9.28291 23.0037 9.96358 22.8258Z" fill="#009A73"/>
</svg>
