<svg width="38" height="38" viewBox="0 0 38 38" fill="none" xmlns="http://www.w3.org/2000/svg">
<path fill-rule="evenodd" clip-rule="evenodd" d="M36.3071 9.10308C36.2894 9.83481 35.6832 10.4145 34.9514 10.3986C34.2197 10.381 33.64 9.77471 33.6559 9.04298L33.7283 5.85094L30.5381 5.77847C29.8063 5.7608 29.2266 5.15456 29.2425 4.42283C29.2602 3.69109 29.8664 3.11137 30.5982 3.12727L35.1158 3.23155C35.8475 3.24746 36.4273 3.8537 36.4096 4.58543L36.3071 9.10308Z" fill="#009A73"/>
<path fill-rule="evenodd" clip-rule="evenodd" d="M8.08969 14.3085V35.7673C8.08969 37.001 7.09107 37.9996 5.85738 37.9996H2.23231C0.998618 37.9996 0 37.001 0 35.7673V14.3085C0 13.0766 0.998618 12.0762 2.23231 12.0762H5.85738C7.09107 12.0762 8.08969 13.0766 8.08969 14.3085Z" fill="#009A73"/>
<path fill-rule="evenodd" clip-rule="evenodd" d="M28.0311 25.1854V35.7673C28.0311 36.3594 27.796 36.9267 27.3771 37.3456C26.9582 37.7645 26.3909 37.9996 25.7988 37.9996H22.1737C21.5816 37.9996 21.0143 37.7645 20.5954 37.3456C20.1765 36.9267 19.9414 36.3594 19.9414 35.7673V25.1854C19.9414 24.5933 20.1765 24.026 20.5954 23.6071C21.0143 23.1882 21.5816 22.9531 22.1737 22.9531H25.7988C26.3909 22.9531 26.9582 23.1882 27.3771 23.6071C27.796 24.026 28.0311 24.5933 28.0311 25.1854Z" fill="#009A73"/>
<path fill-rule="evenodd" clip-rule="evenodd" d="M18.0584 19.7479V35.7682C18.0584 37.0019 17.0598 38.0006 15.8261 38.0006H12.2011C10.9674 38.0006 9.96875 37.0019 9.96875 35.7682V19.7479C9.96875 19.1558 10.2038 18.5885 10.6227 18.1696C11.0416 17.7507 11.609 17.5156 12.2011 17.5156H15.8261C17.0598 17.5156 18.0584 18.516 18.0584 19.7479Z" fill="#009A73"/>
<path fill-rule="evenodd" clip-rule="evenodd" d="M37.9998 19.7479V35.7682C37.9998 37.0019 37.0012 38.0006 35.7675 38.0006H32.1425C30.9088 38.0006 29.9102 37.0019 29.9102 35.7682V19.7479C29.9102 19.1558 30.1452 18.5885 30.5641 18.1696C30.983 17.7507 31.5504 17.5156 32.1425 17.5156H35.7675C37.0012 17.5156 37.9998 18.516 37.9998 19.7479Z" fill="#009A73"/>
<path fill-rule="evenodd" clip-rule="evenodd" d="M2.12085 2.38556C1.53405 1.94723 1.41563 1.11476 1.85573 0.529724C2.29406 -0.0553074 3.12477 -0.173728 3.71157 0.264604L14.2333 8.15634H19.2299C19.6382 8.15634 20.0217 8.34369 20.2727 8.6636L24.3149 13.8087L33.6825 4.03284C34.188 3.50437 35.0275 3.48669 35.556 3.99396C36.0845 4.49945 36.1021 5.339 35.5966 5.86747L25.1721 16.7445C24.907 17.0219 24.5341 17.1704 24.1505 17.151C23.767 17.1333 23.41 16.9477 23.1731 16.6455L18.5866 10.8075H13.7914C13.5051 10.8075 13.2258 10.7156 12.9961 10.5424L2.12085 2.38556Z" fill="#009A73"/>
</svg>
