<svg width="39" height="38" viewBox="0 0 39 38" fill="none" xmlns="http://www.w3.org/2000/svg">
<path d="M30.4663 26.6641H29.7578V28.7895C29.7578 29.1653 29.6085 29.5258 29.3428 29.7915C29.077 30.0572 28.7166 30.2065 28.3408 30.2065H26.9238C26.548 30.2065 26.1876 30.0572 25.9219 29.7915C25.6561 29.5258 25.5068 29.1653 25.5068 28.7895V26.6641H24.7983C24.6104 26.6641 24.4302 26.7387 24.2974 26.8716C24.1645 27.0044 24.0898 27.1847 24.0898 27.3726V33.0405C24.0898 33.2284 24.1645 33.4086 24.2974 33.5415C24.4302 33.6743 24.6104 33.749 24.7983 33.749H30.4663C30.6542 33.749 30.8344 33.6743 30.9673 33.5415C31.1001 33.4086 31.1748 33.2284 31.1748 33.0405V27.3726C31.1748 27.1847 31.1001 27.0044 30.9673 26.8716C30.8344 26.7387 30.6542 26.6641 30.4663 26.6641Z" fill="#009A73"/>
<path d="M26.2148 26.6641H29.0488V28.7895C29.0488 28.9774 28.9742 29.1577 28.8413 29.2905C28.7084 29.4234 28.5282 29.498 28.3403 29.498H26.9233C26.7354 29.498 26.5552 29.4234 26.4224 29.2905C26.2895 29.1577 26.2148 28.9774 26.2148 28.7895V26.6641Z" fill="#009A73"/>
<path d="M31.8803 18.8711H31.1718V20.9966C31.1718 21.3724 31.0226 21.7328 30.7568 21.9985C30.4911 22.2643 30.1307 22.4136 29.7549 22.4136H28.3379C27.9621 22.4136 27.6017 22.2643 27.3359 21.9985C27.0702 21.7328 26.9209 21.3724 26.9209 20.9966V18.8711H26.2124C26.0245 18.8711 25.8443 18.9457 25.7114 19.0786C25.5786 19.2115 25.5039 19.3917 25.5039 19.5796V25.2475C25.5039 25.4354 25.5786 25.6156 25.7114 25.7485C25.8443 25.8814 26.0245 25.956 26.2124 25.956H31.8803C32.0682 25.956 32.2484 25.8814 32.3813 25.7485C32.5142 25.6156 32.5888 25.4354 32.5888 25.2475V19.5796C32.5888 19.3917 32.5142 19.2115 32.3813 19.0786C32.2484 18.9457 32.0682 18.8711 31.8803 18.8711Z" fill="#009A73"/>
<path d="M27.6328 18.8711H30.4668V20.9966C30.4668 21.1845 30.3921 21.3647 30.2593 21.4976C30.1264 21.6304 29.9462 21.7051 29.7583 21.7051H28.3413C28.1534 21.7051 27.9732 21.6304 27.8403 21.4976C27.7075 21.3647 27.6328 21.1845 27.6328 20.9966V18.8711Z" fill="#009A73"/>
<path d="M16.2969 13.2031H33.3007V16.0371H16.2969V13.2031Z" fill="#009A73"/>
<path d="M37.5983 7.82603L25.554 0.218946C25.3275 0.0759157 25.0651 0 24.7973 0C24.5294 0 24.2671 0.0759157 24.0406 0.218946L11.9963 7.82603C11.7942 7.95363 11.6277 8.13026 11.5123 8.33947C11.3968 8.54869 11.3362 8.78371 11.3359 9.02267V18.8707H15.5869V12.4943H34.0077V33.749H36.8417C37.2175 33.749 37.5779 33.5998 37.8436 33.334C38.1094 33.0683 38.2586 32.7079 38.2586 32.3321V9.02267C38.2584 8.78371 38.1977 8.54869 38.0823 8.33947C37.9668 8.13026 37.8004 7.95363 37.5983 7.82603ZM29.0482 8.95182C29.0482 9.13972 28.9736 9.31993 28.8407 9.4528C28.7079 9.58567 28.5277 9.66031 28.3397 9.66031C28.1518 9.66031 27.9716 9.58567 27.8388 9.4528C27.7059 9.31993 27.6313 9.13972 27.6313 8.95182V8.24333H21.9633V8.95182C21.9633 9.13972 21.8887 9.31993 21.7558 9.4528C21.6229 9.58567 21.4427 9.66031 21.2548 9.66031C21.0669 9.66031 20.8867 9.58567 20.7538 9.4528C20.621 9.31993 20.5463 9.13972 20.5463 8.95182V6.11785C20.5463 5.92995 20.621 5.74974 20.7538 5.61687C20.8867 5.484 21.0669 5.40936 21.2548 5.40936C21.4427 5.40936 21.6229 5.484 21.7558 5.61687C21.8887 5.74974 21.9633 5.92995 21.9633 6.11785V6.82634H27.6313V6.11785C27.6313 5.92995 27.7059 5.74974 27.8388 5.61687C27.9716 5.484 28.1518 5.40936 28.3397 5.40936C28.5277 5.40936 28.7079 5.484 28.8407 5.61687C28.9736 5.74974 29.0482 5.92995 29.0482 6.11785V8.95182Z" fill="#009A73"/>
<path d="M5.66794 23.8301H7.79341V30.915H0V29.498C0 27.9948 0.597156 26.5531 1.6601 25.4902C2.72304 24.4272 4.16471 23.8301 5.66794 23.8301Z" fill="#009A73"/>
<path d="M9.91698 19.5791H18.4189C18.7947 19.5791 19.1551 19.7284 19.4209 19.9941C19.6866 20.2599 19.8359 20.6203 19.8359 20.9961V30.915H8.5V20.9961C8.5 20.6203 8.64929 20.2599 8.91503 19.9941C9.18076 19.7284 9.54118 19.5791 9.91698 19.5791Z" fill="#009A73"/>
<path d="M4.25048 38C5.42434 38 6.37595 37.0484 6.37595 35.8745C6.37595 34.7006 5.42434 33.749 4.25048 33.749C3.07661 33.749 2.125 34.7006 2.125 35.8745C2.125 37.0484 3.07661 38 4.25048 38Z" fill="#009A73"/>
<path d="M0 31.624V33.7495C0 33.9374 0.0746446 34.1176 0.207513 34.2505C0.340381 34.3833 0.520588 34.458 0.708492 34.458H1.81091C2.05647 34.0275 2.41154 33.6697 2.84008 33.4208C3.26862 33.1719 3.75538 33.0408 4.25095 33.0408C4.74653 33.0408 5.23329 33.1719 5.66183 33.4208C6.09037 33.6697 6.44544 34.0275 6.691 34.458H13.1468C13.3923 34.0275 13.7474 33.6697 14.176 33.4208C14.6045 33.1719 15.0913 33.0408 15.5868 33.0408C16.0824 33.0408 16.5692 33.1719 16.9977 33.4208C17.4262 33.6697 17.7813 34.0275 18.0269 34.458H19.1293C19.2223 34.458 19.3145 34.4397 19.4004 34.4041C19.4864 34.3685 19.5645 34.3163 19.6303 34.2505C19.6961 34.1847 19.7482 34.1066 19.7838 34.0206C19.8195 33.9347 19.8378 33.8425 19.8378 33.7495V31.624H0Z" fill="#009A73"/>
<path d="M15.5864 38C16.7603 38 17.7119 37.0484 17.7119 35.8745C17.7119 34.7006 16.7603 33.749 15.5864 33.749C14.4125 33.749 13.4609 34.7006 13.4609 35.8745C13.4609 37.0484 14.4125 38 15.5864 38Z" fill="#009A73"/>
</svg>
