<svg width="38" height="38" viewBox="0 0 38 38" fill="none" xmlns="http://www.w3.org/2000/svg">
<path d="M35.3033 8.95702C37.1196 7.0782 39.2494 3.22002 37.0546 0.945332C36.3183 0.209008 35.3049 -0.120359 34.2788 0.0395739C32.2828 0.35073 30.4729 1.26916 29.0445 2.69747L24.6274 7.11462L21.983 6.53902C23.1239 4.79164 20.7645 2.8384 19.2609 4.31897L17.9253 5.65464L14.7915 4.97216C16.744 3.34037 14.4178 0.601714 12.5129 2.25805L10.6919 4.07907L4.20587 2.66659C3.69599 2.55495 3.16947 2.71014 2.79815 3.07988L1.49256 4.38547C0.774441 5.064 0.955751 6.35455 1.83459 6.80742L17.067 15.2221L9.35618 23.659L1.52502 24.0754L0.312061 25.2876C-0.239787 25.8093 -0.0268065 26.8149 0.692099 27.0627L8.10522 29.894L10.9373 37.3079C11.1875 38.0244 12.1883 38.2421 12.7132 37.6863L13.9246 36.475L14.341 28.643L22.7779 20.9322L31.187 36.1591C31.6399 37.0379 32.9296 37.22 33.609 36.5019C34.3397 35.6595 35.6073 34.9778 35.3286 33.7894L33.9185 27.3097L35.7419 25.4871C36.0753 25.1538 36.2589 24.7104 36.2589 24.2385C36.2518 22.5109 34.0618 21.8577 33.0262 23.2092L32.3445 20.0755L33.681 18.739C35.16 17.2292 33.2289 14.9086 31.4618 16.021L30.8854 13.3726L35.3033 8.95702Z" fill="#009A73"/>
</svg>
