<svg width="27" height="26" viewBox="0 0 27 26" fill="none" xmlns="http://www.w3.org/2000/svg">
<path d="M22.6776 3.80766C20.2221 1.35225 16.9574 0 13.4848 0C10.0122 0 6.74754 1.35225 4.29208 3.80766C1.83662 6.26307 0.484375 9.52787 0.484375 13.0005C0.484375 16.4332 1.81007 19.6712 4.21743 22.1179C4.36653 22.2694 4.56342 22.3454 4.76046 22.3454C4.95328 22.3454 5.14631 22.2725 5.29464 22.1266C5.59452 21.8315 5.59843 21.3492 5.30343 21.0493C3.17826 18.8895 2.00786 16.031 2.00786 13.0005C2.00786 6.67203 7.1564 1.52349 13.4848 1.52349C19.8132 1.52349 24.9618 6.67203 24.9618 13.0005C24.9618 16.0309 23.7913 18.8895 21.6661 21.0494C21.371 21.3492 21.3749 21.8315 21.6748 22.1266C21.9746 22.4216 22.457 22.4177 22.752 22.1179C25.1595 19.6712 26.4853 16.4332 26.4853 13.0005C26.4853 9.52787 25.133 6.26318 22.6776 3.80766Z" fill="#6889CF"/>
<path d="M13.4868 3.26367C8.1179 3.26367 3.75 7.63157 3.75 13.0005C3.75 15.2066 4.50839 17.3676 5.88537 19.0856C6.14843 19.4138 6.62792 19.4666 6.95613 19.2035C7.2844 18.9404 7.33721 18.461 7.0741 18.1327C5.89614 16.6631 5.27349 14.8884 5.27349 13.0005C5.27349 8.47163 8.95805 4.78716 13.4868 4.78716C18.0156 4.78716 21.7001 8.47163 21.7001 13.0005C21.7001 14.8884 21.0775 16.6631 19.8995 18.1328C19.6364 18.4611 19.6892 18.9405 20.0175 19.2036C20.158 19.3163 20.3263 19.371 20.4934 19.371C20.7166 19.371 20.9378 19.2733 21.0883 19.0856C22.4653 17.3676 23.2236 15.2065 23.2236 13.0005C23.2236 7.63157 18.8558 3.26367 13.4868 3.26367Z" fill="#6889CF"/>
<path d="M18.3315 16.1164C18.4363 16.1657 18.5466 16.1891 18.6552 16.1891C18.9412 16.1891 19.2152 16.0273 19.345 15.7515C19.7518 14.8871 19.9579 13.9608 19.9579 12.9986C19.9579 9.42927 17.0542 6.52539 13.4849 6.52539C9.91559 6.52539 7.01172 9.42927 7.01172 12.9986C7.01172 13.9607 7.21795 14.8869 7.62457 15.7513C7.80368 16.132 8.25748 16.2953 8.6381 16.1163C9.01882 15.9373 9.18218 15.4834 9.00312 15.1027C8.69269 14.4428 8.53521 13.7349 8.53521 12.9986C8.53521 10.2693 10.7557 8.04888 13.4849 8.04888C16.2141 8.04888 18.4344 10.2693 18.4344 12.9986C18.4344 13.7349 18.277 14.4429 17.9665 15.1029C17.7874 15.4836 17.9508 15.9373 18.3315 16.1164Z" fill="#6889CF"/>
<path d="M15.1633 14.3849C14.7562 13.6798 14.1441 13.2754 13.4838 13.2754C12.8235 13.2754 12.2113 13.6798 11.8042 14.3849L6.77805 23.0905C6.37087 23.7957 6.32674 24.5281 6.65688 25.0999C6.98702 25.6717 7.64334 25.9997 8.45755 25.9997L18.5099 25.9998C19.3242 25.9998 19.9806 25.6718 20.3107 25.1C20.6408 24.5281 20.5966 23.7957 20.1894 23.0907L15.1633 14.3849Z" fill="#6889CF"/>
</svg>
