<svg width="26" height="25" viewBox="0 0 26 25" fill="none" xmlns="http://www.w3.org/2000/svg">
<path d="M21.3941 5.73074C20.7774 5.11386 19.925 4.76519 19.0453 4.76519H17.5309V0.894032C17.5309 0.652643 17.4311 0.429135 17.2679 0.259269C17.0956 0.0983435 16.8689 0 16.624 0C16.3792 0 16.1525 0.0983435 15.9802 0.259269C15.8169 0.429135 15.7172 0.652643 15.7172 0.894032V4.76519H6.95704C6.0774 4.76519 5.22496 5.11386 4.6083 5.7218C3.98258 6.33869 3.62891 7.17908 3.62891 8.04629V18.7747C3.62891 19.6419 3.98258 20.4823 4.59923 21.0902C5.22496 21.7071 6.06833 22.0468 6.94797 22.0468H7.66438V23.3789C7.66438 23.665 7.746 23.9422 7.90016 24.1836C8.05432 24.4249 8.28103 24.6127 8.54402 24.7289C8.73446 24.8362 8.9521 24.9077 9.16975 24.9167C9.53248 24.9167 9.87709 24.7826 10.1491 24.5501L13.0873 22.0468H19.0453C19.925 22.0468 20.7774 21.6982 21.3941 21.0902C22.0107 20.4823 22.3644 19.6419 22.3644 18.7747V8.04629C22.3734 7.17908 22.0198 6.33869 21.3941 5.73074ZM17.2679 16.4234C17.0956 16.5932 16.8689 16.6826 16.6331 16.6916H9.37832C9.13347 16.6916 8.90676 16.5932 8.73446 16.4323C8.56216 16.2624 8.47147 16.0389 8.47147 15.7975C8.47147 15.5562 8.57123 15.3326 8.73446 15.1628C8.90676 14.9929 9.13347 14.9035 9.37832 14.9035H16.6331C16.8689 14.9035 17.1047 15.0019 17.2679 15.1717C17.4311 15.3416 17.5309 15.5651 17.54 15.7975C17.5309 16.03 17.4311 16.2535 17.2679 16.4234ZM17.2679 11.6582C17.0956 11.828 16.8689 11.9174 16.6331 11.9264H9.37832C9.13347 11.9264 8.90676 11.828 8.73446 11.6671C8.56216 11.4972 8.47147 11.2737 8.47147 11.0324C8.47147 10.791 8.57123 10.5675 8.73446 10.3976C8.90676 10.2277 9.13347 10.1383 9.37832 10.1383H16.6331C16.8689 10.1383 17.1047 10.2367 17.2679 10.4065C17.4402 10.5764 17.5309 10.7999 17.54 11.0324C17.5309 11.2648 17.4311 11.4883 17.2679 11.6582Z" fill="#F9853C"/>
<path d="M0.000358297 11.0229V13.41C-0.00871018 14.0269 0.154522 14.6259 0.471919 15.1534C0.789316 15.6808 1.26088 16.11 1.81405 16.3871V8.1084C1.26995 8.38555 0.807453 8.7968 0.490056 9.31534C0.172659 9.82494 0.000358297 10.4239 0.000358297 11.0229Z" fill="#F9853C"/>
<path d="M26.0012 11.0229V13.41C26.0103 14.0269 25.847 14.6259 25.5296 15.1534C25.2122 15.6808 24.7407 16.11 24.1875 16.3871V8.1084C24.7316 8.38555 25.1941 8.7968 25.5115 9.31534C25.8289 9.82494 26.0012 10.4239 26.0012 11.0229Z" fill="#F9853C"/>
</svg>
