<svg width="25" height="26" viewBox="0 0 25 26" fill="none" xmlns="http://www.w3.org/2000/svg">
<path d="M14.495 23.9014L11.1707 24.5979C10.9814 24.6383 10.7886 24.6601 10.595 24.6629C9.85674 24.6607 9.14921 24.367 8.62643 23.8457C8.29826 23.5184 8.05745 23.1139 7.92604 22.6694C7.79464 22.2249 7.77684 21.7546 7.87429 21.3014L8.57071 17.9771C8.6781 17.444 8.9434 16.9554 9.33214 16.575L18.07 7.83714C18.2261 7.68231 18.3937 7.53952 18.5714 7.41V2.78571C18.5692 2.04757 18.275 1.3403 17.7531 0.818352C17.2311 0.296407 16.5239 0.00220451 15.7857 0H2.78571C2.04758 0.00220451 1.3403 0.296407 0.818352 0.818352C0.296407 1.3403 0.00220451 2.04757 0 2.78571V23.2143C0.00220451 23.9524 0.296407 24.6597 0.818352 25.1816C1.3403 25.7036 2.04758 25.9978 2.78571 26H15.7857C16.5239 25.9978 17.2311 25.7036 17.7531 25.1816C18.275 24.6597 18.5692 23.9524 18.5714 23.2143V20.4657L15.8971 23.14C15.5167 23.5287 15.0282 23.794 14.495 23.9014ZM4.64286 3.71429H13.9286C14.1748 3.71429 14.411 3.81212 14.5852 3.98626C14.7593 4.1604 14.8571 4.39658 14.8571 4.64286C14.8571 4.88913 14.7593 5.12532 14.5852 5.29946C14.411 5.4736 14.1748 5.57143 13.9286 5.57143H4.64286C4.39658 5.57143 4.1604 5.4736 3.98626 5.29946C3.81212 5.12532 3.71429 4.88913 3.71429 4.64286C3.71429 4.39658 3.81212 4.1604 3.98626 3.98626C4.1604 3.81212 4.39658 3.71429 4.64286 3.71429ZM4.64286 7.42857H13.9286C14.1748 7.42857 14.411 7.5264 14.5852 7.70054C14.7593 7.87468 14.8571 8.11087 14.8571 8.35714C14.8571 8.60342 14.7593 8.8396 14.5852 9.01374C14.411 9.18788 14.1748 9.28571 13.9286 9.28571H4.64286C4.39658 9.28571 4.1604 9.18788 3.98626 9.01374C3.81212 8.8396 3.71429 8.60342 3.71429 8.35714C3.71429 8.11087 3.81212 7.87468 3.98626 7.70054C4.1604 7.5264 4.39658 7.42857 4.64286 7.42857ZM3.71429 12.0714C3.71429 11.8252 3.81212 11.589 3.98626 11.4148C4.1604 11.2407 4.39658 11.1429 4.64286 11.1429H8.35714C8.60342 11.1429 8.8396 11.2407 9.01374 11.4148C9.18788 11.589 9.28572 11.8252 9.28572 12.0714C9.28572 12.3177 9.18788 12.5539 9.01374 12.728C8.8396 12.9022 8.60342 13 8.35714 13H4.64286C4.39658 13 4.1604 12.9022 3.98626 12.728C3.81212 12.5539 3.71429 12.3177 3.71429 12.0714Z" fill="#FAC300"/>
<path d="M23.3288 9.14653C22.798 8.64002 22.0925 8.35742 21.3588 8.35742C20.6251 8.35742 19.9197 8.64002 19.3889 9.14653L10.6417 17.8927C10.5147 18.0199 10.4273 18.1812 10.3901 18.357L9.69179 21.6822C9.66334 21.8174 9.6654 21.9572 9.69782 22.0915C9.73024 22.2258 9.79222 22.3511 9.87922 22.4584C9.96622 22.5657 10.0761 22.6522 10.2007 22.7117C10.3254 22.7711 10.4618 22.802 10.5999 22.8021C10.6642 22.8021 10.7284 22.7953 10.7912 22.7817L14.1164 22.0825C14.2923 22.0453 14.4536 21.9579 14.5807 21.8308L23.3269 13.0855C23.5857 12.8268 23.7909 12.5197 23.9309 12.1817C24.0709 11.8437 24.143 11.4814 24.143 11.1156C24.143 10.7497 24.0709 10.3874 23.9309 10.0494C23.7909 9.7114 23.5857 9.40429 23.3269 9.1456L23.3288 9.14653Z" fill="#FAC300"/>
</svg>
