<svg width="27" height="26" viewBox="0 0 27 26" fill="none" xmlns="http://www.w3.org/2000/svg">
<path fill-rule="evenodd" clip-rule="evenodd" d="M3.71492 0H18.3403C20.1329 0 21.5903 1.45749 21.5903 3.25014V13.0006C21.5903 14.7932 20.1329 16.2507 18.3403 16.2507H6.44651L1.79738 20.125C1.6496 20.2484 1.46424 20.3134 1.27736 20.3134C1.16056 20.3134 1.04173 20.2875 0.933058 20.2372C0.646645 20.1037 0.464844 19.8162 0.464844 19.5009V3.25014C0.464844 1.45749 1.9223 0 3.71492 0ZM6.15236 4.86768H15.9026C16.351 4.86768 16.7151 5.23179 16.7151 5.68021C16.7151 6.12863 16.351 6.49275 15.9026 6.49275H6.15236C5.70395 6.49275 5.33984 6.12863 5.33984 5.68021C5.33984 5.23179 5.70395 4.86768 6.15236 4.86768ZM12.6525 8.12695H6.15236C5.70395 8.12695 5.33984 8.49107 5.33984 8.93949C5.33984 9.38791 5.70395 9.75202 6.15236 9.75202H12.6525C13.1009 9.75202 13.465 9.38791 13.465 8.93949C13.465 8.49107 13.1009 8.12695 12.6525 8.12695Z" fill="#128C7E"/>
<path d="M23.2152 6.49902C22.7668 6.49902 22.4027 6.86314 22.4027 7.31156C22.4027 7.75998 22.7668 8.12409 23.2152 8.12409C24.1121 8.12409 24.8403 8.85385 24.8403 9.74917V23.4957L22.097 21.3019C21.9538 21.1881 21.7735 21.1247 21.5902 21.1247H10.2149C9.3181 21.1247 8.58988 20.3949 8.58988 19.4996V18.6871C8.58988 18.2386 8.22577 17.8745 7.77736 17.8745C7.32895 17.8745 6.96484 18.2386 6.96484 18.6871V19.4996C6.96484 21.2922 8.4223 22.7497 10.2149 22.7497H21.3043L25.1445 25.8226C25.2922 25.9394 25.4725 25.9999 25.6533 25.9999C25.7721 25.9999 25.892 25.974 26.0057 25.9201C26.2871 25.7835 26.4658 25.4992 26.4658 25.1873V9.74917C26.4653 7.95651 25.0079 6.49902 23.2152 6.49902Z" fill="#128C7E"/>
</svg>
