<svg width="27" height="32" viewBox="0 0 27 32" fill="none" xmlns="http://www.w3.org/2000/svg">
<path fill-rule="evenodd" clip-rule="evenodd" d="M13.6857 5.17773C16.7215 5.17773 19.1799 7.63618 19.1799 10.672C19.1799 13.7078 16.7215 16.1663 13.6857 16.1663C10.6499 16.1663 8.19141 13.7078 8.19141 10.672C8.19141 7.63618 10.6499 5.17773 13.6857 5.17773Z" fill="#0083AC"/>
<path fill-rule="evenodd" clip-rule="evenodd" d="M14.1875 20.7851V31.1031L24.3752 27.1361V20.6733L16.4038 23.765C16.1803 23.8581 15.9196 23.765 15.7892 23.5415L14.1875 20.7851Z" fill="#0083AC"/>
<path fill-rule="evenodd" clip-rule="evenodd" d="M13.1847 31.1031V20.785L11.5829 23.5787C11.4526 23.8022 11.1732 23.8767 10.9497 23.7836L3.01562 20.6919V27.1546L13.1847 31.1031Z" fill="#0083AC"/>
<path fill-rule="evenodd" clip-rule="evenodd" d="M24.6576 15.1792L14.4141 19.1649L16.4441 22.7035L26.6877 18.7179L24.6576 15.1792Z" fill="#0083AC"/>
<path fill-rule="evenodd" clip-rule="evenodd" d="M12.9611 19.1649L2.71758 15.1792L0.6875 18.7179L10.931 22.7035L12.9611 19.1649Z" fill="#0083AC"/>
<path fill-rule="evenodd" clip-rule="evenodd" d="M13.6902 17.1721C10.9524 17.1721 8.62428 15.4772 7.6558 13.0933L3.875 14.5646L13.6902 18.3827L23.5053 14.5646L19.7245 13.0933C18.7561 15.4958 16.428 17.1721 13.6902 17.1721Z" fill="#0083AC"/>
<path fill-rule="evenodd" clip-rule="evenodd" d="M23.7255 10.2993C24.0048 10.2993 24.2283 10.5228 24.2283 10.8022C24.2283 11.0816 24.0048 11.305 23.7255 11.305H21.3974C21.118 11.305 20.8945 11.0816 20.8945 10.8022C20.8945 10.5228 21.118 10.2993 21.3974 10.2993H23.7255Z" fill="#0083AC"/>
<path fill-rule="evenodd" clip-rule="evenodd" d="M13.1836 0.502865C13.1836 0.223495 13.4071 0 13.6865 0C13.9658 0 14.1893 0.223495 14.1893 0.502865V2.83094C14.1893 3.11031 13.9658 3.33381 13.6865 3.33381C13.4071 3.33381 13.1836 3.11031 13.1836 2.83094V0.502865Z" fill="#0083AC"/>
<path fill-rule="evenodd" clip-rule="evenodd" d="M8.15723 2.04842C8.02686 1.8063 8.10135 1.5083 8.34347 1.37793C8.58559 1.24756 8.88359 1.32206 9.01396 1.56418L10.1873 3.57564C10.3177 3.81776 10.2432 4.11575 10.0011 4.24612C9.75895 4.37649 9.46095 4.302 9.33058 4.05988L8.15723 2.04842Z" fill="#0083AC"/>
<path fill-rule="evenodd" clip-rule="evenodd" d="M4.56222 5.90368C4.3201 5.77331 4.24561 5.45669 4.37598 5.21457C4.50635 4.97245 4.82297 4.89795 5.06509 5.02832L7.09517 6.20167C7.33729 6.33204 7.41179 6.64866 7.28142 6.89078C7.15105 7.1329 6.83443 7.2074 6.59231 7.07703L4.56222 5.90368Z" fill="#0083AC"/>
<path fill-rule="evenodd" clip-rule="evenodd" d="M3.38568 11.0443C3.10631 11.0443 2.88281 10.8208 2.88281 10.5414C2.88281 10.2621 3.10631 10.0386 3.38568 10.0386H5.71375C5.99312 10.0386 6.21662 10.2621 6.21662 10.5414C6.21662 10.8208 5.99312 11.0443 5.71375 11.0443H3.38568Z" fill="#0083AC"/>
<path fill-rule="evenodd" clip-rule="evenodd" d="M18.3228 1.67648C18.4531 1.43436 18.7698 1.35986 18.9933 1.49024C19.2354 1.62061 19.3099 1.93723 19.1795 2.16072L18.0061 4.19081C17.8758 4.43292 17.5592 4.50742 17.3357 4.37705C17.0935 4.24668 17.019 3.93006 17.1494 3.70657L18.3228 1.67648Z" fill="#0083AC"/>
<path fill-rule="evenodd" clip-rule="evenodd" d="M22.1782 5.27051C22.4204 5.14014 22.7184 5.21464 22.8674 5.45676C22.9977 5.69888 22.9232 5.99687 22.6811 6.14587L20.651 7.31922C20.4089 7.44959 20.1109 7.37509 19.9619 7.13297C19.8315 6.89085 19.906 6.59286 20.1482 6.44386L22.1782 5.27051Z" fill="#0083AC"/>
<path fill-rule="evenodd" clip-rule="evenodd" d="M15.7728 8.15758L12.5135 11.4169L11.3961 10.02C11.1167 9.6848 10.6138 9.6103 10.2786 9.88967C9.94333 10.169 9.86884 10.6719 10.1482 11.0071L11.7872 13.0745C12.0665 13.4842 12.6439 13.5401 12.9978 13.1862L16.8903 9.29368C17.2069 8.97706 17.2069 8.4742 16.8903 8.15758C16.5923 7.85958 16.0895 7.85958 15.7728 8.15758Z" fill="white"/>
</svg>
