<svg width="20" height="26" viewBox="0 0 20 26" fill="none" xmlns="http://www.w3.org/2000/svg">
<path d="M14.4727 6.09177H19.3584L13.7109 0.444336V5.33005C13.7109 5.75032 14.0524 6.09177 14.4727 6.09177Z" fill="#00A3AD"/>
<path d="M2.28516 26H17.5195C18.7796 26 19.8047 24.9749 19.8047 23.7148V7.61719H14.4727C13.2126 7.61719 12.1875 6.59212 12.1875 5.33203V0H2.28516C1.02507 0 0 1.02507 0 2.28516V23.7148C0 24.9749 1.02507 26 2.28516 26ZM6.85547 12.2383H14.4727C14.8937 12.2383 15.2344 12.579 15.2344 13C15.2344 13.421 14.8937 13.7617 14.4727 13.7617H6.85547C6.43444 13.7617 6.09375 13.421 6.09375 13C6.09375 12.579 6.43444 12.2383 6.85547 12.2383ZM6.85547 15.2852H14.4727C14.8937 15.2852 15.2344 15.6258 15.2344 16.0469C15.2344 16.4679 14.8937 16.8086 14.4727 16.8086H6.85547C6.43444 16.8086 6.09375 16.4679 6.09375 16.0469C6.09375 15.6258 6.43444 15.2852 6.85547 15.2852ZM6.85547 18.332H14.4727C14.8937 18.332 15.2344 18.6727 15.2344 19.0938C15.2344 19.5148 14.8937 19.8555 14.4727 19.8555H6.85547C6.43444 19.8555 6.09375 19.5148 6.09375 19.0938C6.09375 18.6727 6.43444 18.332 6.85547 18.332ZM3.80859 12.2383C4.22927 12.2383 4.57031 12.5793 4.57031 13C4.57031 13.4207 4.22927 13.7617 3.80859 13.7617C3.38792 13.7617 3.04687 13.4207 3.04687 13C3.04687 12.5793 3.38792 12.2383 3.80859 12.2383ZM3.80859 15.2852C4.22927 15.2852 4.57031 15.6262 4.57031 16.0469C4.57031 16.4675 4.22927 16.8086 3.80859 16.8086C3.38792 16.8086 3.04687 16.4675 3.04687 16.0469C3.04687 15.6262 3.38792 15.2852 3.80859 15.2852ZM3.80859 18.332C4.22927 18.332 4.57031 18.6731 4.57031 19.0938C4.57031 19.5144 4.22927 19.8555 3.80859 19.8555C3.38792 19.8555 3.04687 19.5144 3.04687 19.0938C3.04687 18.6731 3.38792 18.332 3.80859 18.332Z" fill="#00A3AD"/>
</svg>
