<svg viewBox="0 0 174 397" fill="none" xmlns="http://www.w3.org/2000/svg">
<g opacity="0.12">
<path d="M151.505 244.357V0H148.063H144.099H140.656H136.692H133.249H129.285H125.842H121.878H118.435H114.436H110.994V244.113H91.9723H82.3747H77.5759H76.3588L74.794 244.148L73.1944 244.183L72.3946 244.218L71.56 244.253C67.2133 244.461 62.8317 245.122 58.5545 246.096C54.2773 247.104 50.1045 248.46 46.0359 250.164C45.0274 250.616 44.019 251.033 43.0453 251.52L40.1243 253.016L37.2728 254.65C36.3339 255.206 35.3951 255.797 34.4909 256.389C30.8397 258.788 27.3623 261.5 24.163 264.491C20.9638 267.482 18.008 270.75 15.3652 274.228C12.7224 277.74 10.3925 281.461 8.37565 285.355C4.37664 293.18 1.69905 301.699 0.621052 310.427C0.0646679 314.774 -0.109202 319.156 0.0646678 323.537C0.273312 327.919 0.86447 332.3 1.80337 336.577C2.74227 340.855 4.06368 345.097 5.73283 349.166C7.43676 353.234 9.45365 357.129 11.8183 360.85C16.5475 368.257 22.4939 374.829 29.4139 380.184C36.3339 385.539 44.1929 389.712 52.5734 392.425C60.9539 395.102 69.7518 396.319 78.4453 395.971C87.1735 395.624 95.9018 393.85 104.039 390.512C112.176 387.208 119.722 382.479 126.225 376.637C132.727 370.76 138.222 363.806 142.395 356.051C146.602 348.331 149.349 339.811 150.636 331.118C150.775 330.04 150.949 328.927 151.053 327.849L151.332 324.58C151.366 323.468 151.401 322.355 151.436 321.242V320.825V320.442V319.851V318.634V308.967V284.938H173.17V281.495V277.531V274.089V270.124V266.682V262.718V259.275V255.241V251.764V247.799V244.357H151.505ZM110.994 308.828V318.495V319.712V320.303V320.442V320.547V320.721C110.959 321.207 110.959 321.694 110.959 322.216C110.924 322.737 110.855 323.224 110.82 323.746C110.785 324.267 110.681 324.754 110.611 325.276C110.298 327.293 109.846 329.275 109.22 331.222C109.046 331.709 108.907 332.196 108.699 332.648C108.49 333.135 108.316 333.587 108.142 334.074C107.934 334.526 107.725 335.013 107.516 335.465C107.308 335.917 107.029 336.369 106.821 336.821C104.873 340.403 102.335 343.671 99.2749 346.419C96.2148 349.131 92.7026 351.322 88.947 352.886C87.0692 353.652 85.1219 354.243 83.1397 354.66C81.1576 355.077 79.1407 355.321 77.0891 355.425C72.951 355.564 68.8824 355.008 65.0225 353.791C61.1626 352.539 57.5113 350.591 54.2773 348.122C51.0433 345.619 48.2614 342.524 46.0707 339.081C44.9579 337.342 44.019 335.534 43.254 333.656C42.4889 331.779 41.863 329.831 41.4457 327.849C40.9937 325.867 40.7155 323.85 40.6459 321.764C40.5764 319.712 40.6459 317.626 40.9241 315.609C41.4109 311.54 42.6628 307.611 44.5058 303.994C45.4447 302.186 46.5227 300.447 47.7398 298.813C48.9917 297.179 50.3479 295.648 51.8432 294.258C53.3384 292.867 54.9728 291.58 56.6767 290.467C57.1288 290.189 57.5461 289.911 57.9634 289.667C58.4154 289.424 58.8675 289.181 59.2848 288.902C59.7368 288.694 60.1889 288.45 60.641 288.207C61.093 287.998 61.5799 287.79 62.0319 287.581C63.9097 286.781 65.8223 286.155 67.8044 285.703C69.7865 285.251 71.8034 284.938 73.8551 284.834L74.2376 284.799H74.6549H75.4547H76.2893H77.5064H82.3399H91.9723H111.063V308.828H110.994Z" fill="white"/>
<path d="M148.064 0H151.506V308.967V318.634V319.851V320.442V320.825V321.242C151.471 322.355 151.437 323.468 151.402 324.581L151.124 327.849C151.019 328.927 150.845 330.04 150.706 331.118C149.42 339.812 146.673 348.331 142.465 356.051C138.292 363.771 132.798 370.76 126.295 376.637C119.758 382.479 112.246 387.208 104.109 390.512C95.9721 393.85 87.2439 395.624 78.5156 395.972C69.8221 396.284 60.9895 395.067 52.6437 392.425C44.298 389.712 36.4043 385.539 29.4842 380.184C22.5294 374.829 16.5831 368.222 11.8886 360.85C9.52396 357.164 7.50707 353.234 5.80314 349.166C4.13399 345.097 2.81258 340.89 1.87368 336.578C0.934782 332.3 0.343624 327.919 0.13498 323.537C-0.0388896 319.156 0.13498 314.774 0.691364 310.427C1.76936 301.699 4.44696 293.18 8.44597 285.355C10.4629 281.461 12.7927 277.705 15.4355 274.228C18.0784 270.75 21.0342 267.482 24.2334 264.491C27.4326 261.5 30.91 258.788 34.5612 256.389C35.5001 255.798 36.4043 255.206 37.3432 254.65L40.1946 253.016L43.1156 251.52C44.0893 251.034 45.0978 250.616 46.1062 250.164C50.14 248.46 54.3476 247.069 58.6248 246.096C62.9021 245.087 67.2488 244.461 71.6303 244.253L72.4649 244.218L73.2647 244.183L74.8643 244.148L76.4291 244.113H77.6462H82.445H92.0427H111.273V247.556H92.0427H82.445H77.6462H76.4291L74.9339 247.591L73.4038 247.626L72.6388 247.66L71.8737 247.695C67.7009 247.904 63.5628 248.495 59.4594 249.469C55.3909 250.408 51.3919 251.729 47.5319 253.363C46.593 253.781 45.6194 254.198 44.6805 254.65L41.8638 256.076L39.1166 257.606C38.2125 258.127 37.3432 258.719 36.439 259.275C32.9269 261.57 29.6233 264.143 26.5632 266.995C23.5031 269.846 20.6864 272.941 18.1479 276.279C15.6094 279.618 13.3839 283.199 11.4713 286.92C7.64616 294.362 5.07289 302.534 4.06444 310.845C3.54283 315.018 3.36896 319.191 3.54283 323.363C3.75148 327.536 4.30786 331.709 5.21198 335.813C6.11611 339.916 7.36797 343.95 8.96758 347.81C10.5672 351.669 12.5145 355.425 14.7748 358.937C19.2607 365.996 24.9636 372.29 31.5707 377.402C38.1777 382.514 45.6889 386.513 53.6869 389.086C61.685 391.625 70.1003 392.772 78.4113 392.494C86.757 392.181 95.068 390.477 102.857 387.278C110.612 384.114 117.81 379.628 124.035 374.029C130.259 368.431 135.475 361.754 139.474 354.382C143.473 347.01 146.116 338.873 147.333 330.596C147.472 329.553 147.646 328.51 147.716 327.467L147.959 324.337C147.994 323.294 148.029 322.216 148.064 321.138V320.755V320.408V319.816V318.599V308.932V0Z" fill="#FF5050"/>
<path d="M140.661 0H144.103V308.932V318.599V319.816V320.408C144.103 320.512 144.103 320.616 144.103 320.755V321.138L143.999 324.128L143.756 327.084C143.651 328.058 143.512 329.066 143.373 330.04C142.226 337.864 139.722 345.549 135.966 352.504C132.211 359.494 127.238 365.788 121.396 371.073C115.519 376.359 108.703 380.601 101.366 383.592C94.0288 386.583 86.1698 388.217 78.2761 388.495C70.4172 388.773 62.454 387.695 54.908 385.296C47.3621 382.862 40.2682 379.106 34.0089 374.273C27.7495 369.439 22.3596 363.493 18.1171 356.816C15.9959 353.478 14.1529 349.965 12.6228 346.279C11.1276 342.628 9.91047 338.803 9.0759 334.943C8.20655 331.083 7.68494 327.119 7.51107 323.19C7.3372 319.225 7.51107 315.296 7.9979 311.366C8.97158 303.507 11.371 295.788 14.9875 288.763C16.7957 285.251 18.9169 281.878 21.2816 278.714C23.681 275.549 26.3238 272.628 29.21 269.916C32.0963 267.238 35.2259 264.769 38.5295 262.613C39.364 262.092 40.1986 261.535 41.0332 261.048L43.6065 259.588L46.2493 258.266C47.1534 257.849 48.0575 257.467 48.9617 257.049C52.6129 255.485 56.3685 254.267 60.2284 253.363C64.0884 252.459 68.0178 251.903 71.9473 251.694L72.6775 251.659H73.4078L74.8683 251.625L76.294 251.59H77.5111H82.3099H91.9076H111.138V255.033H91.9076H82.2752H77.4763H76.2593L74.9031 255.067L73.5121 255.102H72.8166L72.1212 255.137C68.3656 255.311 64.6447 255.867 60.9935 256.736C57.3422 257.606 53.7605 258.753 50.2831 260.214C49.4137 260.596 48.5444 260.979 47.7098 261.361L45.2061 262.613L42.7371 264.004C41.9373 264.491 41.1375 265.013 40.3377 265.499C37.2081 267.551 34.2175 269.881 31.4704 272.419C20.5513 282.608 13.2488 296.831 11.4058 311.784C10.9537 315.504 10.7798 319.26 10.9537 323.016C11.1276 326.771 11.6144 330.527 12.449 334.178C13.2488 337.864 14.3963 341.446 15.8221 344.958C17.2826 348.435 19.0213 351.774 21.0382 354.938C25.0719 361.267 30.1837 366.935 36.1301 371.525C42.0764 376.116 48.7878 379.697 55.9512 381.992C63.1147 384.253 70.6606 385.296 78.1371 385.052C85.6135 384.774 93.0899 383.244 100.045 380.393C106.999 377.576 113.467 373.507 119.066 368.5C124.63 363.458 129.359 357.477 132.906 350.87C136.488 344.263 138.852 336.96 139.965 329.518C140.07 328.579 140.243 327.641 140.313 326.736L140.556 323.92L140.661 321.068V320.721C140.661 320.616 140.661 320.477 140.661 320.373V319.782V318.565V308.897V0Z" fill="#FF5050"/>
<path d="M133.251 0H136.694V308.897V318.565V319.782V320.373C136.694 320.581 136.694 320.825 136.694 321.034L136.59 323.711L136.381 326.354C136.311 327.223 136.172 328.093 136.033 328.997C134.99 335.986 132.799 342.802 129.426 349.027C126.088 355.251 121.671 360.885 116.421 365.579C111.17 370.274 105.119 374.064 98.5815 376.741C92.044 379.419 85.0197 380.845 77.9953 381.123C70.971 381.366 63.8771 380.393 57.1657 378.272C50.4543 376.116 44.1255 372.742 38.5616 368.43C32.963 364.119 28.199 358.798 24.4086 352.852C22.5308 349.861 20.8616 346.732 19.5055 343.463C18.1493 340.194 17.1061 336.821 16.341 333.344C15.576 329.901 15.0892 326.389 14.9501 322.842C14.811 319.33 14.9501 315.783 15.4021 312.27C17.1408 298.222 23.9913 284.903 34.354 275.34C36.9272 272.941 39.7092 270.75 42.6649 268.838C43.3952 268.386 44.1602 267.899 44.9253 267.447L47.2203 266.16L49.585 264.978C50.3848 264.595 51.1846 264.248 51.9844 263.9C55.2184 262.509 58.5914 261.431 62.0341 260.631C65.4767 259.831 68.9541 259.31 72.501 259.136L73.1617 259.101H73.8224L75.1439 259.066L76.4305 259.031H77.6476H82.4464H92.0788H111.309V262.474H92.044H82.4116H77.6128H76.3957L75.1439 262.509L73.892 262.544H73.2661L72.6401 262.578C69.3366 262.752 66.0331 263.239 62.7643 263.969C59.5303 264.734 56.3659 265.778 53.3058 267.064C52.5408 267.412 51.7757 267.725 51.0455 268.073L48.8199 269.185L46.664 270.403C45.9337 270.82 45.2382 271.272 44.5427 271.724C41.7608 273.532 39.118 275.619 36.6838 277.879C34.2496 280.139 32.0241 282.608 30.0072 285.286C27.9903 287.929 26.2168 290.78 24.7216 293.736C21.6962 299.648 19.6446 306.115 18.8448 312.723C18.4275 316.026 18.2884 319.364 18.4275 322.703C18.5666 326.041 19.0186 329.345 19.7489 332.613C20.4791 335.882 21.4528 339.046 22.7394 342.141C24.0261 345.201 25.5561 348.192 27.3644 350.974C30.9461 356.573 35.4667 361.615 40.7524 365.683C46.0032 369.752 51.9844 372.916 58.3132 374.968C64.6421 376.985 71.3187 377.924 77.9606 377.68C84.6024 377.402 91.2094 376.081 97.3644 373.542C103.519 371.039 109.257 367.457 114.195 363.006C119.133 358.555 123.306 353.234 126.47 347.392C129.669 341.55 131.721 335.082 132.695 328.51C132.799 327.675 132.938 326.876 133.008 326.041L133.216 323.537L133.286 321.034C133.321 320.616 133.286 320.199 133.286 319.816V318.599V308.932V0H133.251Z" fill="#FF5050"/>
<path d="M125.833 0H129.275V308.897V318.53V319.747C129.275 320.164 129.275 320.547 129.275 320.929L129.206 323.259L128.997 325.589C128.928 326.354 128.789 327.119 128.719 327.884C127.815 334.004 125.867 340.02 122.912 345.445C119.956 350.904 116.096 355.842 111.471 360.015C106.846 364.153 101.526 367.492 95.788 369.821C90.0503 372.186 83.8953 373.403 77.7055 373.681C71.5157 373.89 65.2912 373.055 59.4144 371.178C53.5376 369.265 47.9737 366.344 43.0706 362.554C38.1675 358.763 33.9598 354.104 30.6215 348.853C28.9524 346.245 27.5266 343.463 26.3095 340.611C25.1272 337.725 24.1883 334.769 23.5276 331.744C22.8669 328.719 22.4496 325.624 22.3105 322.529C22.1714 319.434 22.3105 316.304 22.693 313.244C23.4581 307.089 25.3359 301.073 28.1526 295.579C29.5783 292.832 31.2127 290.189 33.0905 287.72C34.9683 285.251 37.0547 282.956 39.315 280.835C41.5753 278.714 44.0443 276.801 46.6176 275.097C47.2783 274.68 47.9042 274.263 48.5997 273.88L50.6166 272.732L52.703 271.689C53.3985 271.341 54.1287 271.063 54.8242 270.75C57.6757 269.533 60.6315 268.594 63.622 267.864C66.6474 267.169 69.7075 266.717 72.8024 266.543L73.3935 266.508H73.9847L75.1322 266.473L76.3145 266.438H77.5316H82.3304H91.9628H111.228V269.881H91.9628H82.3304H77.4969H76.2798L75.167 269.916L74.0542 269.951H73.4979L72.9415 269.985C70.0552 270.124 67.169 270.542 64.3523 271.202C61.5356 271.863 58.7885 272.767 56.1109 273.88C55.4501 274.193 54.7894 274.471 54.1287 274.784L52.1814 275.758L50.3036 276.836C49.6777 277.218 49.0865 277.601 48.4606 277.983C46.0264 279.583 43.7313 281.356 41.6101 283.339C39.4889 285.321 37.5415 287.477 35.7681 289.772C34.0294 292.102 32.4645 294.571 31.1431 297.144C28.5698 302.256 26.7964 307.889 26.1009 313.661C25.7532 316.548 25.6141 319.469 25.7184 322.355C25.8575 325.276 26.24 328.127 26.8659 330.979C27.4919 333.796 28.3612 336.578 29.474 339.255C30.5867 341.933 31.9429 344.506 33.5078 346.975C36.6374 351.878 40.5669 356.26 45.157 359.772C49.7472 363.319 54.9285 366.066 60.4576 367.839C65.9867 369.578 71.7939 370.413 77.6012 370.204C83.3737 369.961 89.1462 368.813 94.5014 366.622C99.8565 364.431 104.864 361.337 109.176 357.442C113.488 353.547 117.104 348.922 119.886 343.811C122.668 338.699 124.442 333.1 125.311 327.362C125.415 326.632 125.52 325.937 125.589 325.206L125.763 323.05L125.833 320.894C125.833 320.721 125.833 320.547 125.833 320.338V319.747V318.53V308.863V0Z" fill="#FF5050"/>
<path d="M118.435 0H121.877V308.863V318.53V319.747V320.338C121.877 320.442 121.877 320.512 121.877 320.616V320.86L121.808 322.842L121.634 324.859C121.564 325.519 121.46 326.18 121.39 326.841C120.591 332.126 118.956 337.273 116.383 341.967C113.844 346.662 110.506 350.939 106.542 354.521C102.543 358.068 97.9527 360.954 93.0148 362.971C88.0769 364.988 82.7912 366.066 77.4708 366.275C72.1156 366.483 66.7604 365.718 61.6834 364.118C56.6064 362.484 51.8424 359.946 47.5999 356.677C43.3575 353.408 39.741 349.374 36.8548 344.888C35.429 342.628 34.1772 340.264 33.1687 337.795C32.1603 335.326 31.3605 332.787 30.7693 330.179C30.1782 327.571 29.8304 324.928 29.7261 322.251C29.6218 319.573 29.7261 316.895 30.0738 314.218C30.6998 308.897 32.3689 303.751 34.7683 298.987C35.9854 296.622 37.4111 294.327 39.0107 292.206C40.6451 290.085 42.4186 288.103 44.4007 286.26C46.3481 284.451 48.4693 282.782 50.6948 281.322C51.2512 280.974 51.8076 280.591 52.3987 280.278L54.1374 279.305L55.9109 278.401C56.5021 278.122 57.128 277.844 57.7192 277.566C60.1881 276.523 62.7266 275.688 65.2999 275.097C67.9079 274.506 70.5508 274.089 73.1936 273.984L73.6804 273.95H74.202H75.2105L76.2537 273.915H77.4708H82.3044H91.9368H111.202V277.357H91.902H82.2696H77.436H76.2189L75.2453 277.392H74.3064H73.8195L73.3675 277.427C70.8985 277.531 68.4643 277.914 66.0649 278.47C63.6655 279.027 61.3357 279.792 59.0406 280.765C58.4842 281.009 57.893 281.252 57.3714 281.53L55.7023 282.365L54.1027 283.269C53.5811 283.582 53.0594 283.93 52.5378 284.243C50.4862 285.599 48.5041 287.129 46.6958 288.798C44.8876 290.467 43.2184 292.31 41.7231 294.292C40.2278 296.274 38.9064 298.361 37.7937 300.586C35.5333 304.968 34.0381 309.732 33.4469 314.67C33.1339 317.139 33.0296 319.608 33.1339 322.112C33.2383 324.58 33.586 327.049 34.1076 329.449C34.6292 331.848 35.3943 334.213 36.2984 336.508C37.2373 338.803 38.3848 340.994 39.741 343.08C42.3838 347.253 45.7569 351.009 49.6864 353.999C53.6158 357.025 58.0321 359.354 62.6918 360.885C67.3863 362.38 72.3242 363.075 77.2969 362.867C82.2348 362.658 87.138 361.684 91.6934 359.806C96.2487 357.963 100.491 355.286 104.212 351.982C107.898 348.679 110.993 344.715 113.323 340.368C115.687 336.021 117.217 331.257 117.948 326.389C118.017 325.763 118.122 325.172 118.191 324.546L118.365 322.703L118.435 320.894V320.651C118.435 320.581 118.435 320.512 118.435 320.408V319.816V318.599V308.932V0Z" fill="#FF5050"/>
<path d="M110.999 0H114.441V308.828V318.495V319.712V320.303C114.441 320.408 114.441 320.477 114.441 320.547V320.755L114.372 322.39C114.302 322.946 114.267 323.503 114.233 324.059C114.198 324.615 114.094 325.172 114.024 325.728C113.363 330.144 111.972 334.456 109.851 338.421C107.73 342.35 104.913 345.932 101.575 348.957C98.2367 351.948 94.3767 354.347 90.2386 356.051C88.187 356.886 86.031 357.546 83.8402 357.998C81.6495 358.45 79.4239 358.729 77.1984 358.833C72.6778 359.007 68.1919 358.346 63.9495 357.025C59.7071 355.634 55.7081 353.512 52.1611 350.8C48.6142 348.053 45.5541 344.68 43.1546 340.889C41.9376 339.012 40.8943 336.995 40.0598 334.943C39.2252 332.857 38.5297 330.735 38.0776 328.545C37.5908 326.354 37.2778 324.128 37.1735 321.868C37.104 319.608 37.1735 317.348 37.4517 315.122C37.9733 310.671 39.3643 306.359 41.3812 302.36C42.3896 300.378 43.6067 298.465 44.9281 296.657C46.2843 294.883 47.8144 293.214 49.4487 291.684C51.0831 290.154 52.8566 288.763 54.7344 287.546C55.2212 287.268 55.6733 286.92 56.1601 286.642L57.6206 285.807C58.1075 285.564 58.6291 285.321 59.1159 285.042C59.6027 284.799 60.1244 284.59 60.646 284.347C62.6976 283.478 64.8188 282.782 67.0096 282.261C69.1656 281.739 71.3911 281.426 73.6514 281.322L74.0687 281.287H74.5208H75.3901L76.2943 281.252H77.5114H82.3449H91.9773H111.277V284.695H91.9773H82.3449H77.5114H76.2943H75.4597H74.6599H74.2426L73.8601 284.729C71.8084 284.834 69.7915 285.112 67.8094 285.599C65.8273 286.051 63.9147 286.677 62.0369 287.477C61.5849 287.685 61.098 287.894 60.646 288.103C60.1939 288.346 59.7418 288.555 59.2898 288.798C58.8377 289.041 58.4204 289.32 57.9684 289.563C57.5163 289.806 57.099 290.119 56.6817 290.363C54.9778 291.476 53.3434 292.762 51.8481 294.153C50.3529 295.544 48.9619 297.074 47.7448 298.709C46.5277 300.343 45.415 302.082 44.5108 303.89C42.6678 307.506 41.4159 311.436 40.9291 315.504C40.6857 317.521 40.5814 319.608 40.6509 321.659C40.7552 323.711 41.0334 325.728 41.4507 327.745C41.9028 329.727 42.4939 331.674 43.259 333.552C44.0588 335.43 44.9977 337.238 46.0757 338.977C48.2664 342.42 51.0483 345.514 54.2823 348.018C57.5163 350.522 61.1676 352.434 65.0275 353.686C68.8874 354.903 72.9907 355.495 77.0941 355.321C79.1457 355.251 81.1626 354.973 83.1447 354.556C85.1269 354.138 87.0742 353.547 88.952 352.782C92.7076 351.252 96.2198 349.061 99.2799 346.314C102.305 343.567 104.879 340.298 106.826 336.717C107.034 336.265 107.313 335.812 107.521 335.36C107.73 334.908 107.939 334.422 108.147 333.969C108.321 333.483 108.53 333.031 108.704 332.544C108.878 332.057 109.017 331.57 109.225 331.118C109.851 329.171 110.338 327.189 110.616 325.172C110.686 324.65 110.755 324.163 110.825 323.642C110.86 323.12 110.894 322.633 110.964 322.112C110.964 321.625 110.999 321.138 110.999 320.616V320.442V320.338V320.199V319.608V318.391V308.724V0Z" fill="#FF5050"/>
<path d="M173.244 244.357H151.406V247.8H173.244V244.357Z" fill="#FF5050"/>
<path d="M173.244 251.764H151.406V255.207H173.244V251.764Z" fill="#FF5050"/>
<path d="M173.244 259.205H151.406V262.648H173.244V259.205Z" fill="#FF5050"/>
<path d="M173.244 266.647H151.406V270.09H173.244V266.647Z" fill="#FF5050"/>
<path d="M173.244 274.054H151.406V277.497H173.244V274.054Z" fill="#FF5050"/>
<path d="M173.244 281.496H151.406V284.938H173.244V281.496Z" fill="#FF5050"/>
</g>
</svg>
