<svg width="119" height="137" viewBox="0 0 119 137" fill="none" xmlns="http://www.w3.org/2000/svg">
<path d="M74.5 57.31C82.58 50.01 93.28 45.57 105.03 45.57C79.86 45.57 59.46 25.17 59.46 0C59.46 25.17 39.06 45.57 13.89 45.57C25.63 45.57 36.33 50.01 44.41 57.31C43.64 58.17 42.86 59.01 42.05 59.83C31.27 70.61 16.42 77.25 0 77.25C16.42 77.25 31.27 83.91 42.05 94.67C52.78 105.43 59.45 120.3 59.45 136.72C59.45 120.3 66.11 105.43 76.87 94.67C87.63 83.91 102.5 77.25 118.89 77.25C101.24 77.25 85.39 69.54 74.5 57.32V57.31ZM73.3 91.11C64.75 99.66 59.45 111.48 59.45 124.54C59.45 111.49 54.15 99.66 45.6 91.11C37.05 82.54 25.23 77.24 12.17 77.24C26.46 77.24 39.26 70.89 47.93 60.86C55.09 68.91 59.45 79.51 59.45 91.14C59.45 79.52 63.8 68.93 70.96 60.88C71.71 61.74 72.48 62.59 73.28 63.4C81.83 71.95 93.65 77.25 106.73 77.25C93.65 77.25 81.83 82.55 73.28 91.12L73.3 91.11Z" fill="#484848" fill-opacity="0.2"/>
</svg>
