<svg width="233" height="327" viewBox="0 0 233 327" fill="none" xmlns="http://www.w3.org/2000/svg">
<path d="M180.873 304.804C190.883 297.752 200.824 292.385 212.774 289.353C217.264 288.212 217.54 282.411 213.378 280.632C201.007 275.296 192.445 265.815 186.59 253.86C185.409 251.411 181.457 252.664 182.061 255.391C183.719 263.077 187.192 269.802 192 275.456C142.791 262.18 104.457 217.087 86.0717 171.139C63.9744 115.904 69.7981 54.1438 97.8867 2.22963C98.5703 0.931509 96.7307 -0.402073 95.9436 0.917531C64.7455 52.8798 58.8505 117.265 80.0659 174.037C98.9042 224.465 140.043 272.42 193.419 286.305C186.724 289.251 180.397 292.959 174.744 297.651C169.986 301.599 176.007 308.234 180.873 304.804Z" fill="#484848" fill-opacity="0.2"/>
<path d="M99.0937 227.874C59.6014 188.466 46.3364 130.82 62.1566 77.6779C62.277 77.2781 61.6948 77.0749 61.5402 77.4628C42.7048 129.668 58.0209 190.738 97.3636 229.364C98.3932 230.377 100.135 228.91 99.0937 227.874Z" fill="#484848" fill-opacity="0.2"/>
</svg>
